ISO-10303-21;
HEADER;
FILE_DESCRIPTION((''),'2;1');
FILE_NAME('6203ZZ_-_EA040','2025-12-19T11:24:26',('qinghui.yi'),(''),
'CREO PARAMETRIC BY PTC INC, 2019164','CREO PARAMETRIC BY PTC INC, 2019164','');
FILE_SCHEMA(('CONFIG_CONTROL_DESIGN','SHAPE_APPEARANCE_LAYERS_GROUPS'));
ENDSEC;
DATA;
#204=CARTESIAN_POINT('',(5.5E0,0.E0,-1.253333333333E1));
#205=DIRECTION('',(0.E0,-1.E0,0.E0));
#206=DIRECTION('',(1.E0,0.E0,0.E0));
#207=AXIS2_PLACEMENT_3D('',#204,#205,#206);
#209=CARTESIAN_POINT('',(5.5E0,0.E0,0.E0));
#210=DIRECTION('',(1.E0,0.E0,0.E0));
#211=DIRECTION('',(0.E0,0.E0,-1.E0));
#212=AXIS2_PLACEMENT_3D('',#209,#210,#211);
#214=CARTESIAN_POINT('',(5.5E0,0.E0,1.253333333333E1));
#215=DIRECTION('',(0.E0,1.E0,0.E0));
#216=DIRECTION('',(1.E0,0.E0,0.E0));
#217=AXIS2_PLACEMENT_3D('',#214,#215,#216);
#219=CARTESIAN_POINT('',(5.5E0,0.E0,0.E0));
#220=DIRECTION('',(1.E0,0.E0,0.E0));
#221=DIRECTION('',(0.E0,0.E0,1.E0));
#222=AXIS2_PLACEMENT_3D('',#219,#220,#221);
#224=CARTESIAN_POINT('',(5.9E0,0.E0,0.E0));
#225=DIRECTION('',(-1.E0,0.E0,0.E0));
#226=DIRECTION('',(0.E0,0.E0,1.E0));
#227=AXIS2_PLACEMENT_3D('',#224,#225,#226);
#229=CARTESIAN_POINT('',(5.9E0,0.E0,0.E0));
#230=DIRECTION('',(-1.E0,0.E0,0.E0));
#231=DIRECTION('',(0.E0,0.E0,-1.E0));
#232=AXIS2_PLACEMENT_3D('',#229,#230,#231);
#234=CARTESIAN_POINT('',(5.9E0,0.E0,0.E0));
#235=DIRECTION('',(1.E0,0.E0,0.E0));
#236=DIRECTION('',(0.E0,0.E0,-1.E0));
#237=AXIS2_PLACEMENT_3D('',#234,#235,#236);
#239=CARTESIAN_POINT('',(5.9E0,0.E0,0.E0));
#240=DIRECTION('',(1.E0,0.E0,0.E0));
#241=DIRECTION('',(0.E0,0.E0,1.E0));
#242=AXIS2_PLACEMENT_3D('',#239,#240,#241);
#244=CARTESIAN_POINT('',(5.5E0,0.E0,-1.512914355612E1));
#245=DIRECTION('',(0.E0,-1.E0,0.E0));
#246=DIRECTION('',(7.289439176059E-1,0.E0,-6.845734182579E-1));
#247=AXIS2_PLACEMENT_3D('',#244,#245,#246);
#249=CARTESIAN_POINT('',(5.791577567039E0,0.E0,0.E0));
#250=DIRECTION('',(-1.E0,0.E0,0.E0));
#251=DIRECTION('',(0.E0,0.E0,1.E0));
#252=AXIS2_PLACEMENT_3D('',#249,#250,#251);
#254=CARTESIAN_POINT('',(5.791577567039E0,0.E0,0.E0));
#255=DIRECTION('',(-1.E0,0.E0,0.E0));
#256=DIRECTION('',(0.E0,0.E0,-1.E0));
#257=AXIS2_PLACEMENT_3D('',#254,#255,#256);
#259=CARTESIAN_POINT('',(5.5E0,0.E0,1.512914355612E1));
#260=DIRECTION('',(0.E0,1.E0,0.E0));
#261=DIRECTION('',(7.289439176059E-1,0.E0,6.845734182579E-1));
#262=AXIS2_PLACEMENT_3D('',#259,#260,#261);
#264=DIRECTION('',(-6.845734182672E-1,0.E0,-7.289439175972E-1));
#265=VECTOR('',#264,1.156307776374E0);
#266=CARTESIAN_POINT('',(5.791577567041E0,0.E0,-1.540297292342E1));
#267=LINE('',#266,#265);
#268=DIRECTION('',(-6.845734182672E-1,0.E0,7.289439175972E-1));
#269=VECTOR('',#268,1.156307776374E0);
#270=CARTESIAN_POINT('',(5.791577567041E0,0.E0,1.540297292342E1));
#271=LINE('',#270,#269);
#272=CARTESIAN_POINT('',(5.E0,0.E0,0.E0));
#273=DIRECTION('',(-1.E0,0.E0,0.E0));
#274=DIRECTION('',(0.E0,0.E0,1.E0));
#275=AXIS2_PLACEMENT_3D('',#272,#273,#274);
#277=CARTESIAN_POINT('',(5.E0,0.E0,0.E0));
#278=DIRECTION('',(-1.E0,0.E0,0.E0));
#279=DIRECTION('',(0.E0,0.E0,-1.E0));
#280=AXIS2_PLACEMENT_3D('',#277,#278,#279);
#282=CARTESIAN_POINT('',(5.E0,0.E0,0.E0));
#283=DIRECTION('',(1.E0,0.E0,0.E0));
#284=DIRECTION('',(0.E0,0.E0,1.E0));
#285=AXIS2_PLACEMENT_3D('',#282,#283,#284);
#287=CARTESIAN_POINT('',(5.E0,0.E0,0.E0));
#288=DIRECTION('',(1.E0,0.E0,0.E0));
#289=DIRECTION('',(0.E0,0.E0,-1.E0));
#290=AXIS2_PLACEMENT_3D('',#287,#288,#289);
#292=DIRECTION('',(1.E0,0.E0,-6.882063619876E-13));
#293=VECTOR('',#292,2.787630996336E-1);
#294=CARTESIAN_POINT('',(5.E0,0.E0,1.711666666667E1));
#295=LINE('',#294,#293);
#296=DIRECTION('',(1.E0,0.E0,6.882063619876E-13));
#297=VECTOR('',#296,2.787630996336E-1);
#298=CARTESIAN_POINT('',(5.E0,0.E0,-1.711666666667E1));
#299=LINE('',#298,#297);
#300=DIRECTION('',(-4.625660066943E-1,0.E0,8.865848461658E-1));
#301=VECTOR('',#300,5.273191881875E-1);
#302=CARTESIAN_POINT('',(5.522683030767E0,0.E0,1.664915346533E1));
#303=LINE('',#302,#301);
#304=CARTESIAN_POINT('',(5.278763099633E0,0.E0,0.E0));
#305=DIRECTION('',(1.E0,0.E0,0.E0));
#306=DIRECTION('',(0.E0,0.E0,1.E0));
#307=AXIS2_PLACEMENT_3D('',#304,#305,#306);
#309=CARTESIAN_POINT('',(5.522683030767E0,0.E0,0.E0));
#310=DIRECTION('',(-1.E0,0.E0,0.E0));
#311=DIRECTION('',(0.E0,0.E0,-1.E0));
#312=AXIS2_PLACEMENT_3D('',#309,#310,#311);
#314=CARTESIAN_POINT('',(5.522683030767E0,0.E0,0.E0));
#315=DIRECTION('',(-1.E0,0.E0,0.E0));
#316=DIRECTION('',(0.E0,0.E0,1.E0));
#317=AXIS2_PLACEMENT_3D('',#314,#315,#316);
#319=DIRECTION('',(-4.625660066943E-1,0.E0,-8.865848461658E-1));
#320=VECTOR('',#319,5.273191881875E-1);
#321=CARTESIAN_POINT('',(5.522683030767E0,0.E0,-1.664915346533E1));
#322=LINE('',#321,#320);
#323=CARTESIAN_POINT('',(5.278763099633E0,0.E0,0.E0));
#324=DIRECTION('',(1.E0,0.E0,0.E0));
#325=DIRECTION('',(0.E0,0.E0,-1.E0));
#326=AXIS2_PLACEMENT_3D('',#323,#324,#325);
#328=CARTESIAN_POINT('',(5.7E0,0.E0,0.E0));
#329=DIRECTION('',(-1.E0,0.E0,0.E0));
#330=DIRECTION('',(0.E0,0.E0,1.E0));
#331=AXIS2_PLACEMENT_3D('',#328,#329,#330);
#333=DIRECTION('',(8.865848461647E-1,0.E0,4.625660066966E-1));
#334=VECTOR('',#333,2.000000000008E-1);
#335=CARTESIAN_POINT('',(5.522683030767E0,0.E0,1.664915346533E1));
#336=LINE('',#335,#334);
#337=DIRECTION('',(-1.E0,0.E0,0.E0));
#338=VECTOR('',#337,2.999999999995E-1);
#339=CARTESIAN_POINT('',(6.E0,0.E0,-1.674166666667E1));
#340=LINE('',#339,#338);
#341=DIRECTION('',(-1.E0,0.E0,0.E0));
#342=VECTOR('',#341,2.999999999995E-1);
#343=CARTESIAN_POINT('',(6.E0,0.E0,1.674166666667E1));
#344=LINE('',#343,#342);
#345=CARTESIAN_POINT('',(5.7E0,0.E0,0.E0));
#346=DIRECTION('',(1.E0,0.E0,0.E0));
#347=DIRECTION('',(0.E0,0.E0,1.E0));
#348=AXIS2_PLACEMENT_3D('',#345,#346,#347);
#350=DIRECTION('',(8.865848461647E-1,0.E0,-4.625660066966E-1));
#351=VECTOR('',#350,2.000000000008E-1);
#352=CARTESIAN_POINT('',(5.522683030767E0,0.E0,-1.664915346533E1));
#353=LINE('',#352,#351);
#354=CARTESIAN_POINT('',(6.E0,0.E0,0.E0));
#355=DIRECTION('',(-1.E0,0.E0,0.E0));
#356=DIRECTION('',(0.E0,0.E0,1.E0));
#357=AXIS2_PLACEMENT_3D('',#354,#355,#356);
#359=CARTESIAN_POINT('',(6.E0,0.E0,0.E0));
#360=DIRECTION('',(-1.E0,0.E0,0.E0));
#361=DIRECTION('',(0.E0,0.E0,-1.E0));
#362=AXIS2_PLACEMENT_3D('',#359,#360,#361);
#364=CARTESIAN_POINT('',(6.E0,0.E0,0.E0));
#365=DIRECTION('',(1.E0,0.E0,0.E0));
#366=DIRECTION('',(0.E0,0.E0,-1.E0));
#367=AXIS2_PLACEMENT_3D('',#364,#365,#366);
#369=CARTESIAN_POINT('',(6.E0,0.E0,0.E0));
#370=DIRECTION('',(1.E0,0.E0,0.E0));
#371=DIRECTION('',(0.E0,0.E0,1.E0));
#372=AXIS2_PLACEMENT_3D('',#369,#370,#371);
#374=CARTESIAN_POINT('',(5.4E0,0.E0,1.94E1));
#375=DIRECTION('',(0.E0,-1.E0,0.E0));
#376=DIRECTION('',(1.E0,0.E0,0.E0));
#377=AXIS2_PLACEMENT_3D('',#374,#375,#376);
#379=CARTESIAN_POINT('',(5.4E0,0.E0,0.E0));
#380=DIRECTION('',(-1.E0,0.E0,0.E0));
#381=DIRECTION('',(0.E0,0.E0,1.E0));
#382=AXIS2_PLACEMENT_3D('',#379,#380,#381);
#384=CARTESIAN_POINT('',(5.4E0,0.E0,-1.94E1));
#385=DIRECTION('',(0.E0,1.E0,0.E0));
#386=DIRECTION('',(1.E0,0.E0,0.E0));
#387=AXIS2_PLACEMENT_3D('',#384,#385,#386);
#389=CARTESIAN_POINT('',(5.4E0,0.E0,0.E0));
#390=DIRECTION('',(-1.E0,0.E0,0.E0));
#391=DIRECTION('',(0.E0,0.E0,-1.E0));
#392=AXIS2_PLACEMENT_3D('',#389,#390,#391);
#394=DIRECTION('',(-1.E0,0.E0,0.E0));
#395=VECTOR('',#394,1.08E1);
#396=CARTESIAN_POINT('',(5.4E0,0.E0,-2.E1));
#397=LINE('',#396,#395);
#398=DIRECTION('',(-1.E0,0.E0,0.E0));
#399=VECTOR('',#398,1.08E1);
#400=CARTESIAN_POINT('',(5.4E0,0.E0,2.E1));
#401=LINE('',#400,#399);
#402=CARTESIAN_POINT('',(-5.4E0,0.E0,0.E0));
#403=DIRECTION('',(1.E0,0.E0,0.E0));
#404=DIRECTION('',(0.E0,0.E0,-1.E0));
#405=AXIS2_PLACEMENT_3D('',#402,#403,#404);
#407=CARTESIAN_POINT('',(-5.4E0,0.E0,1.94E1));
#408=DIRECTION('',(0.E0,-1.E0,0.E0));
#409=DIRECTION('',(0.E0,0.E0,1.E0));
#410=AXIS2_PLACEMENT_3D('',#407,#408,#409);
#412=CARTESIAN_POINT('',(-5.4E0,0.E0,-1.94E1));
#413=DIRECTION('',(0.E0,1.E0,0.E0));
#414=DIRECTION('',(0.E0,0.E0,-1.E0));
#415=AXIS2_PLACEMENT_3D('',#412,#413,#414);
#417=CARTESIAN_POINT('',(-5.4E0,0.E0,0.E0));
#418=DIRECTION('',(1.E0,0.E0,0.E0));
#419=DIRECTION('',(0.E0,0.E0,1.E0));
#420=AXIS2_PLACEMENT_3D('',#417,#418,#419);
#422=CARTESIAN_POINT('',(-6.E0,0.E0,0.E0));
#423=DIRECTION('',(1.E0,0.E0,0.E0));
#424=DIRECTION('',(0.E0,0.E0,-1.E0));
#425=AXIS2_PLACEMENT_3D('',#422,#423,#424);
#427=CARTESIAN_POINT('',(-6.E0,0.E0,0.E0));
#428=DIRECTION('',(1.E0,0.E0,0.E0));
#429=DIRECTION('',(0.E0,0.E0,1.E0));
#430=AXIS2_PLACEMENT_3D('',#427,#428,#429);
#432=CARTESIAN_POINT('',(-6.E0,0.E0,0.E0));
#433=DIRECTION('',(-1.E0,0.E0,0.E0));
#434=DIRECTION('',(0.E0,0.E0,1.E0));
#435=AXIS2_PLACEMENT_3D('',#432,#433,#434);
#437=CARTESIAN_POINT('',(-6.E0,0.E0,0.E0));
#438=DIRECTION('',(-1.E0,0.E0,0.E0));
#439=DIRECTION('',(0.E0,0.E0,-1.E0));
#440=AXIS2_PLACEMENT_3D('',#437,#438,#439);
#442=CARTESIAN_POINT('',(-5.7E0,0.E0,0.E0));
#443=DIRECTION('',(-1.E0,0.E0,0.E0));
#444=DIRECTION('',(0.E0,0.E0,1.E0));
#445=AXIS2_PLACEMENT_3D('',#442,#443,#444);
#447=DIRECTION('',(-1.E0,0.E0,0.E0));
#448=VECTOR('',#447,2.999999999995E-1);
#449=CARTESIAN_POINT('',(-5.7E0,0.E0,-1.674166666667E1));
#450=LINE('',#449,#448);
#451=CARTESIAN_POINT('',(-5.522683030767E0,0.E0,0.E0));
#452=DIRECTION('',(-1.E0,0.E0,0.E0));
#453=DIRECTION('',(0.E0,0.E0,1.E0));
#454=AXIS2_PLACEMENT_3D('',#451,#452,#453);
#456=DIRECTION('',(-8.865848461647E-1,1.025131424782E-14,-4.625660066966E-1));
#457=VECTOR('',#456,2.000000000008E-1);
#458=CARTESIAN_POINT('',(-5.522683030767E0,0.E0,-1.664915346533E1));
#459=LINE('',#458,#457);
#460=CARTESIAN_POINT('',(-5.522683030767E0,0.E0,0.E0));
#461=DIRECTION('',(-1.E0,0.E0,0.E0));
#462=DIRECTION('',(0.E0,0.E0,-1.E0));
#463=AXIS2_PLACEMENT_3D('',#460,#461,#462);
#465=DIRECTION('',(-8.865848461647E-1,-1.025131424782E-14,4.625660066966E-1));
#466=VECTOR('',#465,2.000000000008E-1);
#467=CARTESIAN_POINT('',(-5.522683030767E0,0.E0,1.664915346533E1));
#468=LINE('',#467,#466);
#469=CARTESIAN_POINT('',(-5.7E0,0.E0,0.E0));
#470=DIRECTION('',(-1.E0,0.E0,0.E0));
#471=DIRECTION('',(0.E0,0.E0,-1.E0));
#472=AXIS2_PLACEMENT_3D('',#469,#470,#471);
#474=DIRECTION('',(-1.E0,0.E0,0.E0));
#475=VECTOR('',#474,2.999999999995E-1);
#476=CARTESIAN_POINT('',(-5.7E0,0.E0,1.674166666667E1));
#477=LINE('',#476,#475);
#478=DIRECTION('',(4.625660066943E-1,0.E0,-8.865848461658E-1));
#479=VECTOR('',#478,5.273191881875E-1);
#480=CARTESIAN_POINT('',(-5.522683030767E0,0.E0,-1.664915346533E1));
#481=LINE('',#480,#479);
#482=CARTESIAN_POINT('',(-5.278763099633E0,0.E0,0.E0));
#483=DIRECTION('',(-1.E0,0.E0,0.E0));
#484=DIRECTION('',(0.E0,0.E0,-1.E0));
#485=AXIS2_PLACEMENT_3D('',#482,#483,#484);
#487=DIRECTION('',(4.625660066943E-1,0.E0,8.865848461658E-1));
#488=VECTOR('',#487,5.273191881875E-1);
#489=CARTESIAN_POINT('',(-5.522683030767E0,0.E0,1.664915346533E1));
#490=LINE('',#489,#488);
#491=CARTESIAN_POINT('',(-5.278763099633E0,0.E0,0.E0));
#492=DIRECTION('',(-1.E0,0.E0,0.E0));
#493=DIRECTION('',(0.E0,0.E0,1.E0));
#494=AXIS2_PLACEMENT_3D('',#491,#492,#493);
#496=DIRECTION('',(-1.E0,0.E0,6.882063619876E-13));
#497=VECTOR('',#496,2.787630996336E-1);
#498=CARTESIAN_POINT('',(-5.E0,0.E0,-1.711666666667E1));
#499=LINE('',#498,#497);
#500=DIRECTION('',(-1.E0,0.E0,-6.882063619876E-13));
#501=VECTOR('',#500,2.787630996336E-1);
#502=CARTESIAN_POINT('',(-5.E0,0.E0,1.711666666667E1));
#503=LINE('',#502,#501);
#504=CARTESIAN_POINT('',(-5.E0,0.E0,0.E0));
#505=DIRECTION('',(1.E0,0.E0,0.E0));
#506=DIRECTION('',(0.E0,0.E0,-1.E0));
#507=AXIS2_PLACEMENT_3D('',#504,#505,#506);
#509=CARTESIAN_POINT('',(-5.E0,0.E0,0.E0));
#510=DIRECTION('',(1.E0,0.E0,0.E0));
#511=DIRECTION('',(0.E0,0.E0,1.E0));
#512=AXIS2_PLACEMENT_3D('',#509,#510,#511);
#514=CARTESIAN_POINT('',(-5.E0,0.E0,0.E0));
#515=DIRECTION('',(-1.E0,0.E0,0.E0));
#516=DIRECTION('',(0.E0,0.E0,-1.E0));
#517=AXIS2_PLACEMENT_3D('',#514,#515,#516);
#519=CARTESIAN_POINT('',(-5.E0,0.E0,0.E0));
#520=DIRECTION('',(-1.E0,0.E0,0.E0));
#521=DIRECTION('',(0.E0,0.E0,1.E0));
#522=AXIS2_PLACEMENT_3D('',#519,#520,#521);
#524=DIRECTION('',(6.845734182672E-1,0.E0,7.289439175972E-1));
#525=VECTOR('',#524,1.156307776374E0);
#526=CARTESIAN_POINT('',(-5.791577567041E0,0.E0,1.540297292342E1));
#527=LINE('',#526,#525);
#528=DIRECTION('',(6.845734182672E-1,0.E0,-7.289439175972E-1));
#529=VECTOR('',#528,1.156307776374E0);
#530=CARTESIAN_POINT('',(-5.791577567041E0,0.E0,-1.540297292342E1));
#531=LINE('',#530,#529);
#532=CARTESIAN_POINT('',(-5.791577567039E0,0.E0,0.E0));
#533=DIRECTION('',(1.E0,0.E0,0.E0));
#534=DIRECTION('',(0.E0,0.E0,-1.E0));
#535=AXIS2_PLACEMENT_3D('',#532,#533,#534);
#537=CARTESIAN_POINT('',(-5.5E0,0.E0,1.512914355612E1));
#538=DIRECTION('',(0.E0,-1.E0,0.E0));
#539=DIRECTION('',(-7.289439176059E-1,0.E0,6.845734182579E-1));
#540=AXIS2_PLACEMENT_3D('',#537,#538,#539);
#542=CARTESIAN_POINT('',(-5.5E0,0.E0,-1.512914355612E1));
#543=DIRECTION('',(0.E0,1.E0,0.E0));
#544=DIRECTION('',(-7.289439176059E-1,0.E0,-6.845734182579E-1));
#545=AXIS2_PLACEMENT_3D('',#542,#543,#544);
#547=CARTESIAN_POINT('',(-5.791577567039E0,0.E0,0.E0));
#548=DIRECTION('',(1.E0,0.E0,0.E0));
#549=DIRECTION('',(0.E0,0.E0,1.E0));
#550=AXIS2_PLACEMENT_3D('',#547,#548,#549);
#552=CARTESIAN_POINT('',(-5.9E0,0.E0,0.E0));
#553=DIRECTION('',(1.E0,0.E0,0.E0));
#554=DIRECTION('',(0.E0,0.E0,-1.E0));
#555=AXIS2_PLACEMENT_3D('',#552,#553,#554);
#557=CARTESIAN_POINT('',(-5.9E0,0.E0,0.E0));
#558=DIRECTION('',(1.E0,0.E0,0.E0));
#559=DIRECTION('',(0.E0,0.E0,1.E0));
#560=AXIS2_PLACEMENT_3D('',#557,#558,#559);
#562=CARTESIAN_POINT('',(-5.9E0,0.E0,0.E0));
#563=DIRECTION('',(-1.E0,0.E0,0.E0));
#564=DIRECTION('',(0.E0,0.E0,1.E0));
#565=AXIS2_PLACEMENT_3D('',#562,#563,#564);
#567=CARTESIAN_POINT('',(-5.9E0,0.E0,0.E0));
#568=DIRECTION('',(-1.E0,0.E0,0.E0));
#569=DIRECTION('',(0.E0,0.E0,-1.E0));
#570=AXIS2_PLACEMENT_3D('',#567,#568,#569);
#572=CARTESIAN_POINT('',(-5.5E0,0.E0,1.253333333333E1));
#573=DIRECTION('',(0.E0,-1.E0,0.E0));
#574=DIRECTION('',(-1.E0,0.E0,0.E0));
#575=AXIS2_PLACEMENT_3D('',#572,#573,#574);
#577=CARTESIAN_POINT('',(-5.5E0,0.E0,0.E0));
#578=DIRECTION('',(-1.E0,0.E0,0.E0));
#579=DIRECTION('',(0.E0,0.E0,1.E0));
#580=AXIS2_PLACEMENT_3D('',#577,#578,#579);
#582=CARTESIAN_POINT('',(-5.5E0,0.E0,-1.253333333333E1));
#583=DIRECTION('',(0.E0,1.E0,0.E0));
#584=DIRECTION('',(-1.E0,0.E0,0.E0));
#585=AXIS2_PLACEMENT_3D('',#582,#583,#584);
#587=CARTESIAN_POINT('',(-5.5E0,0.E0,0.E0));
#588=DIRECTION('',(-1.E0,0.E0,0.E0));
#589=DIRECTION('',(0.E0,0.E0,-1.E0));
#590=AXIS2_PLACEMENT_3D('',#587,#588,#589);
#592=CARTESIAN_POINT('',(-4.8E0,0.E0,0.E0));
#593=DIRECTION('',(-1.E0,0.E0,0.E0));
#594=DIRECTION('',(0.E0,0.E0,-1.E0));
#595=AXIS2_PLACEMENT_3D('',#592,#593,#594);
#597=DIRECTION('',(-1.E0,0.E0,0.E0));
#598=VECTOR('',#597,7.E-1);
#599=CARTESIAN_POINT('',(-4.8E0,0.E0,1.213333333333E1));
#600=LINE('',#599,#598);
#601=CARTESIAN_POINT('',(-4.8E0,0.E0,0.E0));
#602=DIRECTION('',(-1.E0,0.E0,0.E0));
#603=DIRECTION('',(0.E0,0.E0,1.E0));
#604=AXIS2_PLACEMENT_3D('',#601,#602,#603);
#606=CARTESIAN_POINT('',(-4.8E0,0.E0,0.E0));
#607=DIRECTION('',(-1.E0,0.E0,0.E0));
#608=DIRECTION('',(0.E0,0.E0,-1.E0));
#609=AXIS2_PLACEMENT_3D('',#606,#607,#608);
#611=CARTESIAN_POINT('',(-4.8E0,0.E0,0.E0));
#612=DIRECTION('',(-1.E0,0.E0,0.E0));
#613=DIRECTION('',(0.E0,0.E0,1.E0));
#614=AXIS2_PLACEMENT_3D('',#611,#612,#613);
#616=DIRECTION('',(-1.E0,0.E0,0.E0));
#617=VECTOR('',#616,7.E-1);
#618=CARTESIAN_POINT('',(-4.8E0,0.E0,-1.213333333333E1));
#619=LINE('',#618,#617);
#620=DIRECTION('',(-1.E0,0.E0,0.E0));
#621=VECTOR('',#620,6.E-1);
#622=CARTESIAN_POINT('',(-4.8E0,0.E0,1.118333333333E1));
#623=LINE('',#622,#621);
#624=DIRECTION('',(-1.E0,0.E0,0.E0));
#625=VECTOR('',#624,6.E-1);
#626=CARTESIAN_POINT('',(-4.8E0,0.E0,-1.118333333333E1));
#627=LINE('',#626,#625);
#628=DIRECTION('',(-4.625660066950E-1,0.E0,-8.865848461654E-1));
#629=VECTOR('',#628,6.485560885536E-1);
#630=CARTESIAN_POINT('',(-5.4E0,0.E0,-1.118333333333E1));
#631=LINE('',#630,#629);
#632=CARTESIAN_POINT('',(-5.7E0,0.E0,0.E0));
#633=DIRECTION('',(-1.E0,0.E0,0.E0));
#634=DIRECTION('',(0.E0,0.E0,-1.E0));
#635=AXIS2_PLACEMENT_3D('',#632,#633,#634);
#637=CARTESIAN_POINT('',(-5.4E0,0.E0,0.E0));
#638=DIRECTION('',(1.E0,0.E0,0.E0));
#639=DIRECTION('',(0.E0,0.E0,1.E0));
#640=AXIS2_PLACEMENT_3D('',#637,#638,#639);
#642=CARTESIAN_POINT('',(-5.4E0,0.E0,0.E0));
#643=DIRECTION('',(1.E0,0.E0,0.E0));
#644=DIRECTION('',(0.E0,0.E0,-1.E0));
#645=AXIS2_PLACEMENT_3D('',#642,#643,#644);
#647=DIRECTION('',(-4.625660066950E-1,0.E0,8.865848461654E-1));
#648=VECTOR('',#647,6.485560885536E-1);
#649=CARTESIAN_POINT('',(-5.4E0,0.E0,1.118333333333E1));
#650=LINE('',#649,#648);
#651=CARTESIAN_POINT('',(-5.7E0,0.E0,0.E0));
#652=DIRECTION('',(-1.E0,0.E0,0.E0));
#653=DIRECTION('',(0.E0,0.E0,1.E0));
#654=AXIS2_PLACEMENT_3D('',#651,#652,#653);
#656=DIRECTION('',(-1.E0,0.E0,2.368475785867E-14));
#657=VECTOR('',#656,3.E-1);
#658=CARTESIAN_POINT('',(-5.7E0,0.E0,1.175833333333E1));
#659=LINE('',#658,#657);
#660=DIRECTION('',(-1.E0,0.E0,-2.368475785867E-14));
#661=VECTOR('',#660,3.E-1);
#662=CARTESIAN_POINT('',(-5.7E0,0.E0,-1.175833333333E1));
#663=LINE('',#662,#661);
#664=CARTESIAN_POINT('',(-6.E0,0.E0,0.E0));
#665=DIRECTION('',(1.E0,0.E0,0.E0));
#666=DIRECTION('',(0.E0,0.E0,-1.E0));
#667=AXIS2_PLACEMENT_3D('',#664,#665,#666);
#669=CARTESIAN_POINT('',(-6.E0,0.E0,0.E0));
#670=DIRECTION('',(1.E0,0.E0,0.E0));
#671=DIRECTION('',(0.E0,0.E0,1.E0));
#672=AXIS2_PLACEMENT_3D('',#669,#670,#671);
#674=CARTESIAN_POINT('',(-6.E0,0.E0,0.E0));
#675=DIRECTION('',(-1.E0,0.E0,0.E0));
#676=DIRECTION('',(0.E0,0.E0,1.E0));
#677=AXIS2_PLACEMENT_3D('',#674,#675,#676);
#679=CARTESIAN_POINT('',(-6.E0,0.E0,0.E0));
#680=DIRECTION('',(-1.E0,0.E0,0.E0));
#681=DIRECTION('',(0.E0,0.E0,-1.E0));
#682=AXIS2_PLACEMENT_3D('',#679,#680,#681);
#684=CARTESIAN_POINT('',(-5.4E0,0.E0,9.1E0));
#685=DIRECTION('',(0.E0,-1.E0,0.E0));
#686=DIRECTION('',(-1.E0,0.E0,0.E0));
#687=AXIS2_PLACEMENT_3D('',#684,#685,#686);
#689=CARTESIAN_POINT('',(-5.4E0,0.E0,0.E0));
#690=DIRECTION('',(-1.E0,0.E0,0.E0));
#691=DIRECTION('',(0.E0,0.E0,1.E0));
#692=AXIS2_PLACEMENT_3D('',#689,#690,#691);
#694=CARTESIAN_POINT('',(-5.4E0,0.E0,-9.1E0));
#695=DIRECTION('',(0.E0,1.E0,0.E0));
#696=DIRECTION('',(-1.E0,0.E0,0.E0));
#697=AXIS2_PLACEMENT_3D('',#694,#695,#696);
#699=CARTESIAN_POINT('',(-5.4E0,0.E0,0.E0));
#700=DIRECTION('',(-1.E0,0.E0,0.E0));
#701=DIRECTION('',(0.E0,0.E0,-1.E0));
#702=AXIS2_PLACEMENT_3D('',#699,#700,#701);
#704=DIRECTION('',(-1.E0,0.E0,0.E0));
#705=VECTOR('',#704,1.08E1);
#706=CARTESIAN_POINT('',(5.4E0,0.E0,8.5E0));
#707=LINE('',#706,#705);
#708=CARTESIAN_POINT('',(5.4E0,0.E0,-9.1E0));
#709=DIRECTION('',(0.E0,1.E0,0.E0));
#710=DIRECTION('',(0.E0,0.E0,1.E0));
#711=AXIS2_PLACEMENT_3D('',#708,#709,#710);
#713=CARTESIAN_POINT('',(5.4E0,0.E0,0.E0));
#714=DIRECTION('',(1.E0,0.E0,0.E0));
#715=DIRECTION('',(0.E0,0.E0,1.E0));
#716=AXIS2_PLACEMENT_3D('',#713,#714,#715);
#718=CARTESIAN_POINT('',(5.4E0,0.E0,0.E0));
#719=DIRECTION('',(1.E0,0.E0,0.E0));
#720=DIRECTION('',(0.E0,0.E0,-1.E0));
#721=AXIS2_PLACEMENT_3D('',#718,#719,#720);
#723=CARTESIAN_POINT('',(5.4E0,0.E0,9.1E0));
#724=DIRECTION('',(0.E0,-1.E0,0.E0));
#725=DIRECTION('',(0.E0,0.E0,-1.E0));
#726=AXIS2_PLACEMENT_3D('',#723,#724,#725);
#728=DIRECTION('',(-1.E0,0.E0,0.E0));
#729=VECTOR('',#728,1.08E1);
#730=CARTESIAN_POINT('',(5.4E0,0.E0,-8.5E0));
#731=LINE('',#730,#729);
#732=CARTESIAN_POINT('',(6.E0,0.E0,0.E0));
#733=DIRECTION('',(-1.E0,0.E0,0.E0));
#734=DIRECTION('',(0.E0,0.E0,1.E0));
#735=AXIS2_PLACEMENT_3D('',#732,#733,#734);
#737=CARTESIAN_POINT('',(6.E0,0.E0,0.E0));
#738=DIRECTION('',(-1.E0,0.E0,0.E0));
#739=DIRECTION('',(0.E0,0.E0,-1.E0));
#740=AXIS2_PLACEMENT_3D('',#737,#738,#739);
#742=CARTESIAN_POINT('',(6.E0,0.E0,0.E0));
#743=DIRECTION('',(1.E0,0.E0,0.E0));
#744=DIRECTION('',(0.E0,0.E0,-1.E0));
#745=AXIS2_PLACEMENT_3D('',#742,#743,#744);
#747=CARTESIAN_POINT('',(6.E0,0.E0,0.E0));
#748=DIRECTION('',(1.E0,0.E0,0.E0));
#749=DIRECTION('',(0.E0,0.E0,1.E0));
#750=AXIS2_PLACEMENT_3D('',#747,#748,#749);
#752=DIRECTION('',(-1.E0,0.E0,-2.368475785867E-14));
#753=VECTOR('',#752,3.E-1);
#754=CARTESIAN_POINT('',(6.E0,0.E0,1.175833333333E1));
#755=LINE('',#754,#753);
#756=DIRECTION('',(-1.E0,0.E0,2.368475785867E-14));
#757=VECTOR('',#756,3.E-1);
#758=CARTESIAN_POINT('',(6.E0,0.E0,-1.175833333333E1));
#759=LINE('',#758,#757);
#760=DIRECTION('',(4.625660066950E-1,0.E0,8.865848461654E-1));
#761=VECTOR('',#760,6.485560885536E-1);
#762=CARTESIAN_POINT('',(5.4E0,0.E0,1.118333333333E1));
#763=LINE('',#762,#761);
#764=CARTESIAN_POINT('',(5.7E0,0.E0,0.E0));
#765=DIRECTION('',(1.E0,0.E0,0.E0));
#766=DIRECTION('',(0.E0,0.E0,1.E0));
#767=AXIS2_PLACEMENT_3D('',#764,#765,#766);
#769=CARTESIAN_POINT('',(5.4E0,0.E0,0.E0));
#770=DIRECTION('',(-1.E0,0.E0,0.E0));
#771=DIRECTION('',(0.E0,0.E0,-1.E0));
#772=AXIS2_PLACEMENT_3D('',#769,#770,#771);
#774=CARTESIAN_POINT('',(5.4E0,0.E0,0.E0));
#775=DIRECTION('',(-1.E0,0.E0,0.E0));
#776=DIRECTION('',(0.E0,0.E0,1.E0));
#777=AXIS2_PLACEMENT_3D('',#774,#775,#776);
#779=DIRECTION('',(4.625660066950E-1,0.E0,-8.865848461654E-1));
#780=VECTOR('',#779,6.485560885536E-1);
#781=CARTESIAN_POINT('',(5.4E0,0.E0,-1.118333333333E1));
#782=LINE('',#781,#780);
#783=CARTESIAN_POINT('',(5.7E0,0.E0,0.E0));
#784=DIRECTION('',(1.E0,0.E0,0.E0));
#785=DIRECTION('',(0.E0,0.E0,-1.E0));
#786=AXIS2_PLACEMENT_3D('',#783,#784,#785);
#788=DIRECTION('',(-1.E0,0.E0,0.E0));
#789=VECTOR('',#788,6.E-1);
#790=CARTESIAN_POINT('',(5.4E0,0.E0,1.118333333333E1));
#791=LINE('',#790,#789);
#792=DIRECTION('',(-1.E0,0.E0,0.E0));
#793=VECTOR('',#792,6.E-1);
#794=CARTESIAN_POINT('',(5.4E0,0.E0,-1.118333333333E1));
#795=LINE('',#794,#793);
#796=CARTESIAN_POINT('',(4.8E0,0.E0,0.E0));
#797=DIRECTION('',(1.E0,0.E0,0.E0));
#798=DIRECTION('',(0.E0,0.E0,-1.E0));
#799=AXIS2_PLACEMENT_3D('',#796,#797,#798);
#801=CARTESIAN_POINT('',(4.8E0,0.E0,0.E0));
#802=DIRECTION('',(1.E0,0.E0,0.E0));
#803=DIRECTION('',(0.E0,0.E0,1.E0));
#804=AXIS2_PLACEMENT_3D('',#801,#802,#803);
#806=CARTESIAN_POINT('',(4.8E0,0.E0,0.E0));
#807=DIRECTION('',(1.E0,0.E0,0.E0));
#808=DIRECTION('',(0.E0,0.E0,-1.E0));
#809=AXIS2_PLACEMENT_3D('',#806,#807,#808);
#811=DIRECTION('',(1.E0,0.E0,0.E0));
#812=VECTOR('',#811,7.E-1);
#813=CARTESIAN_POINT('',(4.8E0,0.E0,1.213333333333E1));
#814=LINE('',#813,#812);
#815=CARTESIAN_POINT('',(4.8E0,0.E0,0.E0));
#816=DIRECTION('',(1.E0,0.E0,0.E0));
#817=DIRECTION('',(0.E0,0.E0,1.E0));
#818=AXIS2_PLACEMENT_3D('',#815,#816,#817);
#820=DIRECTION('',(1.E0,0.E0,0.E0));
#821=VECTOR('',#820,7.E-1);
#822=CARTESIAN_POINT('',(4.8E0,0.E0,-1.213333333333E1));
#823=LINE('',#822,#821);
#824=CARTESIAN_POINT('',(5.9E0,0.E0,-1.253333333333E1));
#825=CARTESIAN_POINT('',(5.5E0,0.E0,-1.213333333333E1));
#826=VERTEX_POINT('',#824);
#827=VERTEX_POINT('',#825);
#828=CARTESIAN_POINT('',(5.5E0,0.E0,1.213333333333E1));
#829=VERTEX_POINT('',#828);
#830=CARTESIAN_POINT('',(5.9E0,0.E0,1.253333333333E1));
#831=VERTEX_POINT('',#830);
#832=CARTESIAN_POINT('',(5.9E0,0.E0,1.512914355612E1));
#833=CARTESIAN_POINT('',(5.9E0,0.E0,-1.512914355612E1));
#834=VERTEX_POINT('',#832);
#835=VERTEX_POINT('',#833);
#836=CARTESIAN_POINT('',(5.791577567042E0,0.E0,-1.540297292342E1));
#837=VERTEX_POINT('',#836);
#838=CARTESIAN_POINT('',(5.791577567042E0,0.E0,1.540297292342E1));
#839=VERTEX_POINT('',#838);
#840=CARTESIAN_POINT('',(5.E0,0.E0,-1.624585644388E1));
#841=VERTEX_POINT('',#840);
#842=CARTESIAN_POINT('',(5.E0,0.E0,1.624585644388E1));
#843=VERTEX_POINT('',#842);
#844=CARTESIAN_POINT('',(5.E0,0.E0,1.711666666667E1));
#845=CARTESIAN_POINT('',(5.E0,0.E0,-1.711666666667E1));
#846=VERTEX_POINT('',#844);
#847=VERTEX_POINT('',#845);
#848=CARTESIAN_POINT('',(5.278763099634E0,0.E0,1.711666666667E1));
#849=VERTEX_POINT('',#848);
#850=CARTESIAN_POINT('',(5.278763099633E0,0.E0,-1.711666666667E1));
#851=VERTEX_POINT('',#850);
#852=CARTESIAN_POINT('',(5.522683030767E0,0.E0,1.664915346533E1));
#853=VERTEX_POINT('',#852);
#854=CARTESIAN_POINT('',(5.522683030767E0,0.E0,-1.664915346533E1));
#855=VERTEX_POINT('',#854);
#856=CARTESIAN_POINT('',(6.E0,0.E0,1.94E1));
#857=CARTESIAN_POINT('',(6.E0,0.E0,-1.94E1));
#858=VERTEX_POINT('',#856);
#859=VERTEX_POINT('',#857);
#860=CARTESIAN_POINT('',(5.4E0,0.E0,2.E1));
#861=VERTEX_POINT('',#860);
#862=CARTESIAN_POINT('',(5.4E0,0.E0,-2.E1));
#863=VERTEX_POINT('',#862);
#864=CARTESIAN_POINT('',(6.E0,0.E0,-1.674166666667E1));
#865=CARTESIAN_POINT('',(6.E0,0.E0,1.674166666667E1));
#866=VERTEX_POINT('',#864);
#867=VERTEX_POINT('',#865);
#868=CARTESIAN_POINT('',(-5.4E0,0.E0,-2.E1));
#869=VERTEX_POINT('',#868);
#870=CARTESIAN_POINT('',(-5.4E0,0.E0,2.E1));
#871=VERTEX_POINT('',#870);
#872=CARTESIAN_POINT('',(-6.E0,0.E0,1.94E1));
#873=VERTEX_POINT('',#872);
#874=CARTESIAN_POINT('',(-6.E0,0.E0,-1.94E1));
#875=VERTEX_POINT('',#874);
#876=CARTESIAN_POINT('',(-6.E0,0.E0,1.674166666667E1));
#877=CARTESIAN_POINT('',(-6.E0,0.E0,-1.674166666667E1));
#878=VERTEX_POINT('',#876);
#879=VERTEX_POINT('',#877);
#880=CARTESIAN_POINT('',(5.7E0,0.E0,1.674166666667E1));
#881=CARTESIAN_POINT('',(5.7E0,0.E0,-1.674166666667E1));
#882=VERTEX_POINT('',#880);
#883=VERTEX_POINT('',#881);
#884=CARTESIAN_POINT('',(-5.522683030767E0,0.E0,1.664915346533E1));
#885=CARTESIAN_POINT('',(-5.522683030767E0,0.E0,-1.664915346533E1));
#886=VERTEX_POINT('',#884);
#887=VERTEX_POINT('',#885);
#888=CARTESIAN_POINT('',(-5.278763099634E0,0.E0,-1.711666666667E1));
#889=VERTEX_POINT('',#888);
#890=CARTESIAN_POINT('',(-5.278763099633E0,0.E0,1.711666666667E1));
#891=VERTEX_POINT('',#890);
#892=CARTESIAN_POINT('',(-5.E0,0.E0,-1.711666666667E1));
#893=VERTEX_POINT('',#892);
#894=CARTESIAN_POINT('',(-5.E0,0.E0,1.711666666667E1));
#895=VERTEX_POINT('',#894);
#896=CARTESIAN_POINT('',(-5.E0,0.E0,-1.624585644388E1));
#897=CARTESIAN_POINT('',(-5.E0,0.E0,1.624585644388E1));
#898=VERTEX_POINT('',#896);
#899=VERTEX_POINT('',#897);
#900=CARTESIAN_POINT('',(-5.791577567041E0,0.E0,1.540297292342E1));
#901=VERTEX_POINT('',#900);
#902=CARTESIAN_POINT('',(-5.791577567041E0,0.E0,-1.540297292342E1));
#903=VERTEX_POINT('',#902);
#904=CARTESIAN_POINT('',(-5.9E0,0.E0,1.512914355612E1));
#905=VERTEX_POINT('',#904);
#906=CARTESIAN_POINT('',(-5.9E0,0.E0,-1.512914355612E1));
#907=VERTEX_POINT('',#906);
#908=CARTESIAN_POINT('',(-5.9E0,0.E0,1.253333333333E1));
#909=CARTESIAN_POINT('',(-5.9E0,0.E0,-1.253333333333E1));
#910=VERTEX_POINT('',#908);
#911=VERTEX_POINT('',#909);
#912=CARTESIAN_POINT('',(-5.5E0,0.E0,1.213333333333E1));
#913=VERTEX_POINT('',#912);
#914=CARTESIAN_POINT('',(-5.5E0,0.E0,-1.213333333333E1));
#915=VERTEX_POINT('',#914);
#916=CARTESIAN_POINT('',(-5.7E0,0.E0,1.674166666667E1));
#917=CARTESIAN_POINT('',(-5.7E0,0.E0,-1.674166666667E1));
#918=VERTEX_POINT('',#916);
#919=VERTEX_POINT('',#917);
#920=CARTESIAN_POINT('',(4.8E0,0.E0,-1.118333333333E1));
#921=CARTESIAN_POINT('',(4.8E0,0.E0,1.118333333333E1));
#922=VERTEX_POINT('',#920);
#923=VERTEX_POINT('',#921);
#924=CARTESIAN_POINT('',(5.4E0,0.E0,1.118333333333E1));
#925=CARTESIAN_POINT('',(5.4E0,0.E0,-1.118333333333E1));
#926=VERTEX_POINT('',#924);
#927=VERTEX_POINT('',#925);
#928=CARTESIAN_POINT('',(5.7E0,0.E0,-1.175833333333E1));
#929=VERTEX_POINT('',#928);
#930=CARTESIAN_POINT('',(5.7E0,0.E0,1.175833333333E1));
#931=VERTEX_POINT('',#930);
#932=CARTESIAN_POINT('',(6.E0,0.E0,-1.175833333333E1));
#933=VERTEX_POINT('',#932);
#934=CARTESIAN_POINT('',(6.E0,0.E0,1.175833333333E1));
#935=VERTEX_POINT('',#934);
#936=CARTESIAN_POINT('',(6.E0,0.E0,-9.1E0));
#937=CARTESIAN_POINT('',(6.E0,0.E0,9.1E0));
#938=VERTEX_POINT('',#936);
#939=VERTEX_POINT('',#937);
#940=CARTESIAN_POINT('',(5.4E0,0.E0,-8.5E0));
#941=CARTESIAN_POINT('',(5.4E0,0.E0,8.5E0));
#942=VERTEX_POINT('',#940);
#943=VERTEX_POINT('',#941);
#944=CARTESIAN_POINT('',(-5.4E0,0.E0,-8.5E0));
#945=VERTEX_POINT('',#944);
#946=CARTESIAN_POINT('',(-5.4E0,0.E0,8.5E0));
#947=VERTEX_POINT('',#946);
#948=CARTESIAN_POINT('',(-6.E0,0.E0,-9.1E0));
#949=VERTEX_POINT('',#948);
#950=CARTESIAN_POINT('',(-6.E0,0.E0,9.1E0));
#951=VERTEX_POINT('',#950);
#952=CARTESIAN_POINT('',(-6.E0,0.E0,-1.175833333333E1));
#953=CARTESIAN_POINT('',(-6.E0,0.E0,1.175833333333E1));
#954=VERTEX_POINT('',#952);
#955=VERTEX_POINT('',#953);
#956=CARTESIAN_POINT('',(-5.7E0,0.E0,1.175833333333E1));
#957=CARTESIAN_POINT('',(-5.7E0,0.E0,-1.175833333333E1));
#958=VERTEX_POINT('',#956);
#959=VERTEX_POINT('',#957);
#960=CARTESIAN_POINT('',(-5.4E0,0.E0,-1.118333333333E1));
#961=CARTESIAN_POINT('',(-5.4E0,0.E0,1.118333333333E1));
#962=VERTEX_POINT('',#960);
#963=VERTEX_POINT('',#961);
#964=CARTESIAN_POINT('',(-4.8E0,0.E0,1.118333333333E1));
#965=CARTESIAN_POINT('',(-4.8E0,0.E0,-1.118333333333E1));
#966=VERTEX_POINT('',#964);
#967=VERTEX_POINT('',#965);
#968=CARTESIAN_POINT('',(4.8E0,0.E0,-1.213333333333E1));
#969=CARTESIAN_POINT('',(4.8E0,0.E0,1.213333333333E1));
#970=VERTEX_POINT('',#968);
#971=VERTEX_POINT('',#969);
#972=CARTESIAN_POINT('',(-4.8E0,0.E0,-1.213333333333E1));
#973=CARTESIAN_POINT('',(-4.8E0,0.E0,1.213333333333E1));
#974=VERTEX_POINT('',#972);
#975=VERTEX_POINT('',#973);
#976=CARTESIAN_POINT('',(5.5E0,0.E0,0.E0));
#977=DIRECTION('',(1.E0,0.E0,0.E0));
#978=DIRECTION('',(0.E0,0.E0,1.E0));
#979=AXIS2_PLACEMENT_3D('',#976,#977,#978);
#980=TOROIDAL_SURFACE('',#979,1.253333333333E1,4.E-1);
#982=ORIENTED_EDGE('',*,*,#981,.T.);
#984=ORIENTED_EDGE('',*,*,#983,.T.);
#986=ORIENTED_EDGE('',*,*,#985,.F.);
#988=ORIENTED_EDGE('',*,*,#987,.F.);
#989=EDGE_LOOP('',(#982,#984,#986,#988));
#990=FACE_OUTER_BOUND('',#989,.F.);
#991=ADVANCED_FACE('',(#990),#980,.T.);
#992=CARTESIAN_POINT('',(5.5E0,0.E0,0.E0));
#993=DIRECTION('',(1.E0,0.E0,0.E0));
#994=DIRECTION('',(0.E0,0.E0,1.E0));
#995=AXIS2_PLACEMENT_3D('',#992,#993,#994);
#996=TOROIDAL_SURFACE('',#995,1.253333333333E1,4.E-1);
#998=ORIENTED_EDGE('',*,*,#997,.F.);
#999=ORIENTED_EDGE('',*,*,#985,.T.);
#1001=ORIENTED_EDGE('',*,*,#1000,.T.);
#1002=ORIENTED_EDGE('',*,*,#981,.F.);
#1003=EDGE_LOOP('',(#998,#999,#1001,#1002));
#1004=FACE_OUTER_BOUND('',#1003,.F.);
#1005=ADVANCED_FACE('',(#1004),#996,.T.);
#1006=CARTESIAN_POINT('',(5.9E0,1.512914355612E1,0.E0));
#1007=DIRECTION('',(-1.E0,0.E0,0.E0));
#1008=DIRECTION('',(0.E0,0.E0,-1.E0));
#1009=AXIS2_PLACEMENT_3D('',#1006,#1007,#1008);
#1010=PLANE('',#1009);
#1012=ORIENTED_EDGE('',*,*,#1011,.T.);
#1014=ORIENTED_EDGE('',*,*,#1013,.T.);
#1015=EDGE_LOOP('',(#1012,#1014));
#1016=FACE_OUTER_BOUND('',#1015,.F.);
#1017=ORIENTED_EDGE('',*,*,#987,.T.);
#1018=ORIENTED_EDGE('',*,*,#997,.T.);
#1019=EDGE_LOOP('',(#1017,#1018));
#1020=FACE_BOUND('',#1019,.F.);
#1021=ADVANCED_FACE('',(#1016,#1020),#1010,.F.);
#1022=CARTESIAN_POINT('',(5.5E0,0.E0,0.E0));
#1023=DIRECTION('',(1.E0,0.E0,0.E0));
#1024=DIRECTION('',(0.E0,0.E0,1.E0));
#1025=AXIS2_PLACEMENT_3D('',#1022,#1023,#1024);
#1026=TOROIDAL_SURFACE('',#1025,1.512914355612E1,4.E-1);
#1028=ORIENTED_EDGE('',*,*,#1027,.T.);
#1029=ORIENTED_EDGE('',*,*,#1011,.F.);
#1031=ORIENTED_EDGE('',*,*,#1030,.F.);
#1033=ORIENTED_EDGE('',*,*,#1032,.T.);
#1034=EDGE_LOOP('',(#1028,#1029,#1031,#1033));
#1035=FACE_OUTER_BOUND('',#1034,.F.);
#1036=ADVANCED_FACE('',(#1035),#1026,.T.);
#1037=CARTESIAN_POINT('',(5.5E0,0.E0,0.E0));
#1038=DIRECTION('',(1.E0,0.E0,0.E0));
#1039=DIRECTION('',(0.E0,0.E0,1.E0));
#1040=AXIS2_PLACEMENT_3D('',#1037,#1038,#1039);
#1041=TOROIDAL_SURFACE('',#1040,1.512914355612E1,4.E-1);
#1043=ORIENTED_EDGE('',*,*,#1042,.T.);
#1044=ORIENTED_EDGE('',*,*,#1030,.T.);
#1045=ORIENTED_EDGE('',*,*,#1013,.F.);
#1046=ORIENTED_EDGE('',*,*,#1027,.F.);
#1047=EDGE_LOOP('',(#1043,#1044,#1045,#1046));
#1048=FACE_OUTER_BOUND('',#1047,.F.);
#1049=ADVANCED_FACE('',(#1048),#1041,.T.);
#1050=CARTESIAN_POINT('',(5.395788783520E0,0.E0,0.E0));
#1051=DIRECTION('',(-1.E0,0.E0,0.E0));
#1052=DIRECTION('',(0.E0,0.E0,-1.E0));
#1053=AXIS2_PLACEMENT_3D('',#1050,#1051,#1052);
#1054=CONICAL_SURFACE('',#1053,1.582441468365E1,4.679793185690E1);
#1055=ORIENTED_EDGE('',*,*,#1042,.F.);
#1057=ORIENTED_EDGE('',*,*,#1056,.T.);
#1059=ORIENTED_EDGE('',*,*,#1058,.F.);
#1061=ORIENTED_EDGE('',*,*,#1060,.F.);
#1062=EDGE_LOOP('',(#1055,#1057,#1059,#1061));
#1063=FACE_OUTER_BOUND('',#1062,.F.);
#1064=ADVANCED_FACE('',(#1063),#1054,.T.);
#1065=CARTESIAN_POINT('',(5.395788783520E0,0.E0,0.E0));
#1066=DIRECTION('',(-1.E0,0.E0,0.E0));
#1067=DIRECTION('',(0.E0,0.E0,-1.E0));
#1068=AXIS2_PLACEMENT_3D('',#1065,#1066,#1067);
#1069=CONICAL_SURFACE('',#1068,1.582441468365E1,4.679793185690E1);
#1070=ORIENTED_EDGE('',*,*,#1060,.T.);
#1072=ORIENTED_EDGE('',*,*,#1071,.F.);
#1073=ORIENTED_EDGE('',*,*,#1056,.F.);
#1074=ORIENTED_EDGE('',*,*,#1032,.F.);
#1075=EDGE_LOOP('',(#1070,#1072,#1073,#1074));
#1076=FACE_OUTER_BOUND('',#1075,.F.);
#1077=ADVANCED_FACE('',(#1076),#1069,.T.);
#1078=CARTESIAN_POINT('',(5.E0,1.731666666667E1,0.E0));
#1079=DIRECTION('',(-1.E0,0.E0,0.E0));
#1080=DIRECTION('',(0.E0,0.E0,-1.E0));
#1081=AXIS2_PLACEMENT_3D('',#1078,#1079,#1080);
#1082=PLANE('',#1081);
#1084=ORIENTED_EDGE('',*,*,#1083,.T.);
#1086=ORIENTED_EDGE('',*,*,#1085,.T.);
#1087=EDGE_LOOP('',(#1084,#1086));
#1088=FACE_OUTER_BOUND('',#1087,.F.);
#1089=ORIENTED_EDGE('',*,*,#1058,.T.);
#1090=ORIENTED_EDGE('',*,*,#1071,.T.);
#1091=EDGE_LOOP('',(#1089,#1090));
#1092=FACE_BOUND('',#1091,.F.);
#1093=ADVANCED_FACE('',(#1088,#1092),#1082,.F.);
#1094=CARTESIAN_POINT('',(0.E0,0.E0,0.E0));
#1095=DIRECTION('',(1.E0,0.E0,0.E0));
#1096=DIRECTION('',(0.E0,0.E0,1.E0));
#1097=AXIS2_PLACEMENT_3D('',#1094,#1095,#1096);
#1098=CYLINDRICAL_SURFACE('',#1097,1.711666666667E1);
#1099=ORIENTED_EDGE('',*,*,#1083,.F.);
#1101=ORIENTED_EDGE('',*,*,#1100,.T.);
#1103=ORIENTED_EDGE('',*,*,#1102,.F.);
#1105=ORIENTED_EDGE('',*,*,#1104,.F.);
#1106=EDGE_LOOP('',(#1099,#1101,#1103,#1105));
#1107=FACE_OUTER_BOUND('',#1106,.F.);
#1108=ADVANCED_FACE('',(#1107),#1098,.F.);
#1109=CARTESIAN_POINT('',(0.E0,0.E0,0.E0));
#1110=DIRECTION('',(1.E0,0.E0,0.E0));
#1111=DIRECTION('',(0.E0,0.E0,1.E0));
#1112=AXIS2_PLACEMENT_3D('',#1109,#1110,#1111);
#1113=CYLINDRICAL_SURFACE('',#1112,1.711666666667E1);
#1114=ORIENTED_EDGE('',*,*,#1104,.T.);
#1116=ORIENTED_EDGE('',*,*,#1115,.F.);
#1117=ORIENTED_EDGE('',*,*,#1100,.F.);
#1118=ORIENTED_EDGE('',*,*,#1085,.F.);
#1119=EDGE_LOOP('',(#1114,#1116,#1117,#1118));
#1120=FACE_OUTER_BOUND('',#1119,.F.);
#1121=ADVANCED_FACE('',(#1120),#1113,.F.);
#1122=CARTESIAN_POINT('',(5.400723065200E0,0.E0,0.E0));
#1123=DIRECTION('',(-1.E0,0.E0,0.E0));
#1124=DIRECTION('',(0.E0,0.E0,-1.E0));
#1125=AXIS2_PLACEMENT_3D('',#1122,#1123,#1124);
#1126=CONICAL_SURFACE('',#1125,1.688291006600E1,6.244718842328E1);
#1128=ORIENTED_EDGE('',*,*,#1127,.T.);
#1129=ORIENTED_EDGE('',*,*,#1115,.T.);
#1131=ORIENTED_EDGE('',*,*,#1130,.F.);
#1133=ORIENTED_EDGE('',*,*,#1132,.T.);
#1134=EDGE_LOOP('',(#1128,#1129,#1131,#1133));
#1135=FACE_OUTER_BOUND('',#1134,.F.);
#1136=ADVANCED_FACE('',(#1135),#1126,.F.);
#1137=CARTESIAN_POINT('',(5.400723065200E0,0.E0,0.E0));
#1138=DIRECTION('',(-1.E0,0.E0,0.E0));
#1139=DIRECTION('',(0.E0,0.E0,-1.E0));
#1140=AXIS2_PLACEMENT_3D('',#1137,#1138,#1139);
#1141=CONICAL_SURFACE('',#1140,1.688291006600E1,6.244718842328E1);
#1143=ORIENTED_EDGE('',*,*,#1142,.T.);
#1144=ORIENTED_EDGE('',*,*,#1130,.T.);
#1145=ORIENTED_EDGE('',*,*,#1102,.T.);
#1146=ORIENTED_EDGE('',*,*,#1127,.F.);
#1147=EDGE_LOOP('',(#1143,#1144,#1145,#1146));
#1148=FACE_OUTER_BOUND('',#1147,.F.);
#1149=ADVANCED_FACE('',(#1148),#1141,.F.);
#1150=CARTESIAN_POINT('',(5.611341515384E0,0.E0,0.E0));
#1151=DIRECTION('',(1.E0,0.E0,0.E0));
#1152=DIRECTION('',(0.E0,0.E0,1.E0));
#1153=AXIS2_PLACEMENT_3D('',#1150,#1151,#1152);
#1154=CONICAL_SURFACE('',#1153,1.669541006600E1,2.755281157672E1);
#1156=ORIENTED_EDGE('',*,*,#1155,.T.);
#1158=ORIENTED_EDGE('',*,*,#1157,.F.);
#1159=ORIENTED_EDGE('',*,*,#1142,.F.);
#1161=ORIENTED_EDGE('',*,*,#1160,.T.);
#1162=EDGE_LOOP('',(#1156,#1158,#1159,#1161));
#1163=FACE_OUTER_BOUND('',#1162,.F.);
#1164=ADVANCED_FACE('',(#1163),#1154,.F.);
#1165=CARTESIAN_POINT('',(0.E0,0.E0,0.E0));
#1166=DIRECTION('',(-1.E0,0.E0,0.E0));
#1167=DIRECTION('',(0.E0,0.E0,1.E0));
#1168=AXIS2_PLACEMENT_3D('',#1165,#1166,#1167);
#1169=CYLINDRICAL_SURFACE('',#1168,1.674166666667E1);
#1170=ORIENTED_EDGE('',*,*,#1155,.F.);
#1172=ORIENTED_EDGE('',*,*,#1171,.F.);
#1174=ORIENTED_EDGE('',*,*,#1173,.F.);
#1176=ORIENTED_EDGE('',*,*,#1175,.T.);
#1177=EDGE_LOOP('',(#1170,#1172,#1174,#1176));
#1178=FACE_OUTER_BOUND('',#1177,.F.);
#1179=ADVANCED_FACE('',(#1178),#1169,.F.);
#1180=CARTESIAN_POINT('',(0.E0,0.E0,0.E0));
#1181=DIRECTION('',(-1.E0,0.E0,0.E0));
#1182=DIRECTION('',(0.E0,0.E0,1.E0));
#1183=AXIS2_PLACEMENT_3D('',#1180,#1181,#1182);
#1184=CYLINDRICAL_SURFACE('',#1183,1.674166666667E1);
#1186=ORIENTED_EDGE('',*,*,#1185,.T.);
#1187=ORIENTED_EDGE('',*,*,#1175,.F.);
#1189=ORIENTED_EDGE('',*,*,#1188,.F.);
#1190=ORIENTED_EDGE('',*,*,#1171,.T.);
#1191=EDGE_LOOP('',(#1186,#1187,#1189,#1190));
#1192=FACE_OUTER_BOUND('',#1191,.F.);
#1193=ADVANCED_FACE('',(#1192),#1184,.F.);
#1194=CARTESIAN_POINT('',(5.611341515384E0,0.E0,0.E0));
#1195=DIRECTION('',(1.E0,0.E0,0.E0));
#1196=DIRECTION('',(0.E0,0.E0,1.E0));
#1197=AXIS2_PLACEMENT_3D('',#1194,#1195,#1196);
#1198=CONICAL_SURFACE('',#1197,1.669541006600E1,2.755281157672E1);
#1199=ORIENTED_EDGE('',*,*,#1185,.F.);
#1200=ORIENTED_EDGE('',*,*,#1160,.F.);
#1201=ORIENTED_EDGE('',*,*,#1132,.F.);
#1202=ORIENTED_EDGE('',*,*,#1157,.T.);
#1203=EDGE_LOOP('',(#1199,#1200,#1201,#1202));
#1204=FACE_OUTER_BOUND('',#1203,.F.);
#1205=ADVANCED_FACE('',(#1204),#1198,.F.);
#1206=CARTESIAN_POINT('',(6.E0,1.94E1,0.E0));
#1207=DIRECTION('',(-1.E0,0.E0,0.E0));
#1208=DIRECTION('',(0.E0,0.E0,1.E0));
#1209=AXIS2_PLACEMENT_3D('',#1206,#1207,#1208);
#1210=PLANE('',#1209);
#1212=ORIENTED_EDGE('',*,*,#1211,.T.);
#1214=ORIENTED_EDGE('',*,*,#1213,.T.);
#1215=EDGE_LOOP('',(#1212,#1214));
#1216=FACE_OUTER_BOUND('',#1215,.F.);
#1217=ORIENTED_EDGE('',*,*,#1173,.T.);
#1218=ORIENTED_EDGE('',*,*,#1188,.T.);
#1219=EDGE_LOOP('',(#1217,#1218));
#1220=FACE_BOUND('',#1219,.F.);
#1221=ADVANCED_FACE('',(#1216,#1220),#1210,.F.);
#1222=CARTESIAN_POINT('',(5.4E0,0.E0,0.E0));
#1223=DIRECTION('',(-1.E0,0.E0,0.E0));
#1224=DIRECTION('',(0.E0,0.E0,1.E0));
#1225=AXIS2_PLACEMENT_3D('',#1222,#1223,#1224);
#1226=TOROIDAL_SURFACE('',#1225,1.94E1,6.E-1);
#1227=ORIENTED_EDGE('',*,*,#1211,.F.);
#1229=ORIENTED_EDGE('',*,*,#1228,.T.);
#1231=ORIENTED_EDGE('',*,*,#1230,.T.);
#1233=ORIENTED_EDGE('',*,*,#1232,.F.);
#1234=EDGE_LOOP('',(#1227,#1229,#1231,#1233));
#1235=FACE_OUTER_BOUND('',#1234,.F.);
#1236=ADVANCED_FACE('',(#1235),#1226,.T.);
#1237=CARTESIAN_POINT('',(5.4E0,0.E0,0.E0));
#1238=DIRECTION('',(-1.E0,0.E0,0.E0));
#1239=DIRECTION('',(0.E0,0.E0,1.E0));
#1240=AXIS2_PLACEMENT_3D('',#1237,#1238,#1239);
#1241=TOROIDAL_SURFACE('',#1240,1.94E1,6.E-1);
#1242=ORIENTED_EDGE('',*,*,#1232,.T.);
#1244=ORIENTED_EDGE('',*,*,#1243,.T.);
#1245=ORIENTED_EDGE('',*,*,#1228,.F.);
#1246=ORIENTED_EDGE('',*,*,#1213,.F.);
#1247=EDGE_LOOP('',(#1242,#1244,#1245,#1246));
#1248=FACE_OUTER_BOUND('',#1247,.F.);
#1249=ADVANCED_FACE('',(#1248),#1241,.T.);
#1250=CARTESIAN_POINT('',(0.E0,0.E0,0.E0));
#1251=DIRECTION('',(-1.E0,0.E0,0.E0));
#1252=DIRECTION('',(0.E0,0.E0,1.E0));
#1253=AXIS2_PLACEMENT_3D('',#1250,#1251,#1252);
#1254=CYLINDRICAL_SURFACE('',#1253,2.E1);
#1256=ORIENTED_EDGE('',*,*,#1255,.T.);
#1258=ORIENTED_EDGE('',*,*,#1257,.F.);
#1260=ORIENTED_EDGE('',*,*,#1259,.F.);
#1261=ORIENTED_EDGE('',*,*,#1243,.F.);
#1262=EDGE_LOOP('',(#1256,#1258,#1260,#1261));
#1263=FACE_OUTER_BOUND('',#1262,.F.);
#1264=ADVANCED_FACE('',(#1263),#1254,.T.);
#1265=CARTESIAN_POINT('',(0.E0,0.E0,0.E0));
#1266=DIRECTION('',(-1.E0,0.E0,0.E0));
#1267=DIRECTION('',(0.E0,0.E0,1.E0));
#1268=AXIS2_PLACEMENT_3D('',#1265,#1266,#1267);
#1269=CYLINDRICAL_SURFACE('',#1268,2.E1);
#1270=ORIENTED_EDGE('',*,*,#1230,.F.);
#1271=ORIENTED_EDGE('',*,*,#1259,.T.);
#1273=ORIENTED_EDGE('',*,*,#1272,.F.);
#1274=ORIENTED_EDGE('',*,*,#1255,.F.);
#1275=EDGE_LOOP('',(#1270,#1271,#1273,#1274));
#1276=FACE_OUTER_BOUND('',#1275,.F.);
#1277=ADVANCED_FACE('',(#1276),#1269,.T.);
#1278=CARTESIAN_POINT('',(-5.4E0,0.E0,0.E0));
#1279=DIRECTION('',(-1.E0,0.E0,0.E0));
#1280=DIRECTION('',(0.E0,0.E0,1.E0));
#1281=AXIS2_PLACEMENT_3D('',#1278,#1279,#1280);
#1282=TOROIDAL_SURFACE('',#1281,1.94E1,6.E-1);
#1283=ORIENTED_EDGE('',*,*,#1272,.T.);
#1285=ORIENTED_EDGE('',*,*,#1284,.T.);
#1287=ORIENTED_EDGE('',*,*,#1286,.F.);
#1289=ORIENTED_EDGE('',*,*,#1288,.F.);
#1290=EDGE_LOOP('',(#1283,#1285,#1287,#1289));
#1291=FACE_OUTER_BOUND('',#1290,.F.);
#1292=ADVANCED_FACE('',(#1291),#1282,.T.);
#1293=CARTESIAN_POINT('',(-5.4E0,0.E0,0.E0));
#1294=DIRECTION('',(-1.E0,0.E0,0.E0));
#1295=DIRECTION('',(0.E0,0.E0,1.E0));
#1296=AXIS2_PLACEMENT_3D('',#1293,#1294,#1295);
#1297=TOROIDAL_SURFACE('',#1296,1.94E1,6.E-1);
#1298=ORIENTED_EDGE('',*,*,#1288,.T.);
#1300=ORIENTED_EDGE('',*,*,#1299,.F.);
#1301=ORIENTED_EDGE('',*,*,#1284,.F.);
#1302=ORIENTED_EDGE('',*,*,#1257,.T.);
#1303=EDGE_LOOP('',(#1298,#1300,#1301,#1302));
#1304=FACE_OUTER_BOUND('',#1303,.F.);
#1305=ADVANCED_FACE('',(#1304),#1297,.T.);
#1306=CARTESIAN_POINT('',(-6.E0,1.674166666667E1,0.E0));
#1307=DIRECTION('',(1.E0,0.E0,0.E0));
#1308=DIRECTION('',(0.E0,0.E0,-1.E0));
#1309=AXIS2_PLACEMENT_3D('',#1306,#1307,#1308);
#1310=PLANE('',#1309);
#1311=ORIENTED_EDGE('',*,*,#1286,.T.);
#1312=ORIENTED_EDGE('',*,*,#1299,.T.);
#1313=EDGE_LOOP('',(#1311,#1312));
#1314=FACE_OUTER_BOUND('',#1313,.F.);
#1316=ORIENTED_EDGE('',*,*,#1315,.T.);
#1318=ORIENTED_EDGE('',*,*,#1317,.T.);
#1319=EDGE_LOOP('',(#1316,#1318));
#1320=FACE_BOUND('',#1319,.F.);
#1321=ADVANCED_FACE('',(#1314,#1320),#1310,.F.);
#1322=CARTESIAN_POINT('',(0.E0,0.E0,0.E0));
#1323=DIRECTION('',(-1.E0,0.E0,0.E0));
#1324=DIRECTION('',(0.E0,0.E0,1.E0));
#1325=AXIS2_PLACEMENT_3D('',#1322,#1323,#1324);
#1326=CYLINDRICAL_SURFACE('',#1325,1.674166666667E1);
#1328=ORIENTED_EDGE('',*,*,#1327,.T.);
#1330=ORIENTED_EDGE('',*,*,#1329,.T.);
#1331=ORIENTED_EDGE('',*,*,#1315,.F.);
#1333=ORIENTED_EDGE('',*,*,#1332,.F.);
#1334=EDGE_LOOP('',(#1328,#1330,#1331,#1333));
#1335=FACE_OUTER_BOUND('',#1334,.F.);
#1336=ADVANCED_FACE('',(#1335),#1326,.F.);
#1337=CARTESIAN_POINT('',(-5.611341515384E0,0.E0,0.E0));
#1338=DIRECTION('',(-1.E0,0.E0,0.E0));
#1339=DIRECTION('',(0.E0,0.E0,1.E0));
#1340=AXIS2_PLACEMENT_3D('',#1337,#1338,#1339);
#1341=CONICAL_SURFACE('',#1340,1.669541006600E1,2.755281157672E1);
#1342=ORIENTED_EDGE('',*,*,#1327,.F.);
#1344=ORIENTED_EDGE('',*,*,#1343,.F.);
#1346=ORIENTED_EDGE('',*,*,#1345,.T.);
#1348=ORIENTED_EDGE('',*,*,#1347,.T.);
#1349=EDGE_LOOP('',(#1342,#1344,#1346,#1348));
#1350=FACE_OUTER_BOUND('',#1349,.F.);
#1351=ADVANCED_FACE('',(#1350),#1341,.F.);
#1352=CARTESIAN_POINT('',(-5.611341515384E0,0.E0,0.E0));
#1353=DIRECTION('',(-1.E0,0.E0,0.E0));
#1354=DIRECTION('',(0.E0,0.E0,1.E0));
#1355=AXIS2_PLACEMENT_3D('',#1352,#1353,#1354);
#1356=CONICAL_SURFACE('',#1355,1.669541006600E1,2.755281157672E1);
#1358=ORIENTED_EDGE('',*,*,#1357,.F.);
#1359=ORIENTED_EDGE('',*,*,#1347,.F.);
#1361=ORIENTED_EDGE('',*,*,#1360,.T.);
#1362=ORIENTED_EDGE('',*,*,#1343,.T.);
#1363=EDGE_LOOP('',(#1358,#1359,#1361,#1362));
#1364=FACE_OUTER_BOUND('',#1363,.F.);
#1365=ADVANCED_FACE('',(#1364),#1356,.F.);
#1366=CARTESIAN_POINT('',(0.E0,0.E0,0.E0));
#1367=DIRECTION('',(-1.E0,0.E0,0.E0));
#1368=DIRECTION('',(0.E0,0.E0,1.E0));
#1369=AXIS2_PLACEMENT_3D('',#1366,#1367,#1368);
#1370=CYLINDRICAL_SURFACE('',#1369,1.674166666667E1);
#1371=ORIENTED_EDGE('',*,*,#1357,.T.);
#1372=ORIENTED_EDGE('',*,*,#1332,.T.);
#1373=ORIENTED_EDGE('',*,*,#1317,.F.);
#1374=ORIENTED_EDGE('',*,*,#1329,.F.);
#1375=EDGE_LOOP('',(#1371,#1372,#1373,#1374));
#1376=FACE_OUTER_BOUND('',#1375,.F.);
#1377=ADVANCED_FACE('',(#1376),#1370,.F.);
#1378=CARTESIAN_POINT('',(-5.400723065200E0,0.E0,0.E0));
#1379=DIRECTION('',(1.E0,0.E0,0.E0));
#1380=DIRECTION('',(0.E0,0.E0,-1.E0));
#1381=AXIS2_PLACEMENT_3D('',#1378,#1379,#1380);
#1382=CONICAL_SURFACE('',#1381,1.688291006600E1,6.244718842328E1);
#1383=ORIENTED_EDGE('',*,*,#1360,.F.);
#1385=ORIENTED_EDGE('',*,*,#1384,.T.);
#1387=ORIENTED_EDGE('',*,*,#1386,.T.);
#1389=ORIENTED_EDGE('',*,*,#1388,.F.);
#1390=EDGE_LOOP('',(#1383,#1385,#1387,#1389));
#1391=FACE_OUTER_BOUND('',#1390,.F.);
#1392=ADVANCED_FACE('',(#1391),#1382,.F.);
#1393=CARTESIAN_POINT('',(-5.400723065200E0,0.E0,0.E0));
#1394=DIRECTION('',(1.E0,0.E0,0.E0));
#1395=DIRECTION('',(0.E0,0.E0,-1.E0));
#1396=AXIS2_PLACEMENT_3D('',#1393,#1394,#1395);
#1397=CONICAL_SURFACE('',#1396,1.688291006600E1,6.244718842328E1);
#1398=ORIENTED_EDGE('',*,*,#1388,.T.);
#1400=ORIENTED_EDGE('',*,*,#1399,.T.);
#1401=ORIENTED_EDGE('',*,*,#1384,.F.);
#1402=ORIENTED_EDGE('',*,*,#1345,.F.);
#1403=EDGE_LOOP('',(#1398,#1400,#1401,#1402));
#1404=FACE_OUTER_BOUND('',#1403,.F.);
#1405=ADVANCED_FACE('',(#1404),#1397,.F.);
#1406=CARTESIAN_POINT('',(0.E0,0.E0,0.E0));
#1407=DIRECTION('',(-1.E0,0.E0,0.E0));
#1408=DIRECTION('',(0.E0,0.E0,1.E0));
#1409=AXIS2_PLACEMENT_3D('',#1406,#1407,#1408);
#1410=CYLINDRICAL_SURFACE('',#1409,1.711666666667E1);
#1412=ORIENTED_EDGE('',*,*,#1411,.T.);
#1413=ORIENTED_EDGE('',*,*,#1399,.F.);
#1415=ORIENTED_EDGE('',*,*,#1414,.F.);
#1417=ORIENTED_EDGE('',*,*,#1416,.F.);
#1418=EDGE_LOOP('',(#1412,#1413,#1415,#1417));
#1419=FACE_OUTER_BOUND('',#1418,.F.);
#1420=ADVANCED_FACE('',(#1419),#1410,.F.);
#1421=CARTESIAN_POINT('',(0.E0,0.E0,0.E0));
#1422=DIRECTION('',(-1.E0,0.E0,0.E0));
#1423=DIRECTION('',(0.E0,0.E0,1.E0));
#1424=AXIS2_PLACEMENT_3D('',#1421,#1422,#1423);
#1425=CYLINDRICAL_SURFACE('',#1424,1.711666666667E1);
#1427=ORIENTED_EDGE('',*,*,#1426,.F.);
#1428=ORIENTED_EDGE('',*,*,#1414,.T.);
#1429=ORIENTED_EDGE('',*,*,#1386,.F.);
#1430=ORIENTED_EDGE('',*,*,#1411,.F.);
#1431=EDGE_LOOP('',(#1427,#1428,#1429,#1430));
#1432=FACE_OUTER_BOUND('',#1431,.F.);
#1433=ADVANCED_FACE('',(#1432),#1425,.F.);
#1434=CARTESIAN_POINT('',(-5.E0,1.731666666667E1,0.E0));
#1435=DIRECTION('',(1.E0,0.E0,0.E0));
#1436=DIRECTION('',(0.E0,0.E0,-1.E0));
#1437=AXIS2_PLACEMENT_3D('',#1434,#1435,#1436);
#1438=PLANE('',#1437);
#1439=ORIENTED_EDGE('',*,*,#1416,.T.);
#1440=ORIENTED_EDGE('',*,*,#1426,.T.);
#1441=EDGE_LOOP('',(#1439,#1440));
#1442=FACE_OUTER_BOUND('',#1441,.F.);
#1444=ORIENTED_EDGE('',*,*,#1443,.T.);
#1446=ORIENTED_EDGE('',*,*,#1445,.T.);
#1447=EDGE_LOOP('',(#1444,#1446));
#1448=FACE_BOUND('',#1447,.F.);
#1449=ADVANCED_FACE('',(#1442,#1448),#1438,.F.);
#1450=CARTESIAN_POINT('',(-5.395788783520E0,0.E0,0.E0));
#1451=DIRECTION('',(1.E0,0.E0,0.E0));
#1452=DIRECTION('',(0.E0,0.E0,-1.E0));
#1453=AXIS2_PLACEMENT_3D('',#1450,#1451,#1452);
#1454=CONICAL_SURFACE('',#1453,1.582441468365E1,4.679793185690E1);
#1456=ORIENTED_EDGE('',*,*,#1455,.T.);
#1457=ORIENTED_EDGE('',*,*,#1443,.F.);
#1459=ORIENTED_EDGE('',*,*,#1458,.F.);
#1461=ORIENTED_EDGE('',*,*,#1460,.F.);
#1462=EDGE_LOOP('',(#1456,#1457,#1459,#1461));
#1463=FACE_OUTER_BOUND('',#1462,.F.);
#1464=ADVANCED_FACE('',(#1463),#1454,.T.);
#1465=CARTESIAN_POINT('',(-5.395788783520E0,0.E0,0.E0));
#1466=DIRECTION('',(1.E0,0.E0,0.E0));
#1467=DIRECTION('',(0.E0,0.E0,-1.E0));
#1468=AXIS2_PLACEMENT_3D('',#1465,#1466,#1467);
#1469=CONICAL_SURFACE('',#1468,1.582441468365E1,4.679793185690E1);
#1471=ORIENTED_EDGE('',*,*,#1470,.F.);
#1472=ORIENTED_EDGE('',*,*,#1458,.T.);
#1473=ORIENTED_EDGE('',*,*,#1445,.F.);
#1474=ORIENTED_EDGE('',*,*,#1455,.F.);
#1475=EDGE_LOOP('',(#1471,#1472,#1473,#1474));
#1476=FACE_OUTER_BOUND('',#1475,.F.);
#1477=ADVANCED_FACE('',(#1476),#1469,.T.);
#1478=CARTESIAN_POINT('',(-5.5E0,0.E0,0.E0));
#1479=DIRECTION('',(-1.E0,0.E0,0.E0));
#1480=DIRECTION('',(0.E0,0.E0,1.E0));
#1481=AXIS2_PLACEMENT_3D('',#1478,#1479,#1480);
#1482=TOROIDAL_SURFACE('',#1481,1.512914355612E1,4.E-1);
#1483=ORIENTED_EDGE('',*,*,#1470,.T.);
#1485=ORIENTED_EDGE('',*,*,#1484,.T.);
#1487=ORIENTED_EDGE('',*,*,#1486,.F.);
#1489=ORIENTED_EDGE('',*,*,#1488,.F.);
#1490=EDGE_LOOP('',(#1483,#1485,#1487,#1489));
#1491=FACE_OUTER_BOUND('',#1490,.F.);
#1492=ADVANCED_FACE('',(#1491),#1482,.T.);
#1493=CARTESIAN_POINT('',(-5.5E0,0.E0,0.E0));
#1494=DIRECTION('',(-1.E0,0.E0,0.E0));
#1495=DIRECTION('',(0.E0,0.E0,1.E0));
#1496=AXIS2_PLACEMENT_3D('',#1493,#1494,#1495);
#1497=TOROIDAL_SURFACE('',#1496,1.512914355612E1,4.E-1);
#1498=ORIENTED_EDGE('',*,*,#1488,.T.);
#1500=ORIENTED_EDGE('',*,*,#1499,.F.);
#1501=ORIENTED_EDGE('',*,*,#1484,.F.);
#1502=ORIENTED_EDGE('',*,*,#1460,.T.);
#1503=EDGE_LOOP('',(#1498,#1500,#1501,#1502));
#1504=FACE_OUTER_BOUND('',#1503,.F.);
#1505=ADVANCED_FACE('',(#1504),#1497,.T.);
#1506=CARTESIAN_POINT('',(-5.9E0,1.512914355612E1,0.E0));
#1507=DIRECTION('',(1.E0,0.E0,0.E0));
#1508=DIRECTION('',(0.E0,0.E0,-1.E0));
#1509=AXIS2_PLACEMENT_3D('',#1506,#1507,#1508);
#1510=PLANE('',#1509);
#1511=ORIENTED_EDGE('',*,*,#1486,.T.);
#1512=ORIENTED_EDGE('',*,*,#1499,.T.);
#1513=EDGE_LOOP('',(#1511,#1512));
#1514=FACE_OUTER_BOUND('',#1513,.F.);
#1516=ORIENTED_EDGE('',*,*,#1515,.T.);
#1518=ORIENTED_EDGE('',*,*,#1517,.T.);
#1519=EDGE_LOOP('',(#1516,#1518));
#1520=FACE_BOUND('',#1519,.F.);
#1521=ADVANCED_FACE('',(#1514,#1520),#1510,.F.);
#1522=CARTESIAN_POINT('',(-5.5E0,0.E0,0.E0));
#1523=DIRECTION('',(-1.E0,0.E0,0.E0));
#1524=DIRECTION('',(0.E0,0.E0,1.E0));
#1525=AXIS2_PLACEMENT_3D('',#1522,#1523,#1524);
#1526=TOROIDAL_SURFACE('',#1525,1.253333333333E1,4.E-1);
#1527=ORIENTED_EDGE('',*,*,#1515,.F.);
#1529=ORIENTED_EDGE('',*,*,#1528,.T.);
#1531=ORIENTED_EDGE('',*,*,#1530,.T.);
#1533=ORIENTED_EDGE('',*,*,#1532,.F.);
#1534=EDGE_LOOP('',(#1527,#1529,#1531,#1533));
#1535=FACE_OUTER_BOUND('',#1534,.F.);
#1536=ADVANCED_FACE('',(#1535),#1526,.T.);
#1537=CARTESIAN_POINT('',(-5.5E0,0.E0,0.E0));
#1538=DIRECTION('',(-1.E0,0.E0,0.E0));
#1539=DIRECTION('',(0.E0,0.E0,1.E0));
#1540=AXIS2_PLACEMENT_3D('',#1537,#1538,#1539);
#1541=TOROIDAL_SURFACE('',#1540,1.253333333333E1,4.E-1);
#1542=ORIENTED_EDGE('',*,*,#1532,.T.);
#1544=ORIENTED_EDGE('',*,*,#1543,.T.);
#1545=ORIENTED_EDGE('',*,*,#1528,.F.);
#1546=ORIENTED_EDGE('',*,*,#1517,.F.);
#1547=EDGE_LOOP('',(#1542,#1544,#1545,#1546));
#1548=FACE_OUTER_BOUND('',#1547,.F.);
#1549=ADVANCED_FACE('',(#1548),#1541,.T.);
#1550=CARTESIAN_POINT('',(0.E0,0.E0,0.E0));
#1551=DIRECTION('',(-1.E0,0.E0,0.E0));
#1552=DIRECTION('',(0.E0,0.E0,1.E0));
#1553=AXIS2_PLACEMENT_3D('',#1550,#1551,#1552);
#1554=CYLINDRICAL_SURFACE('',#1553,1.213333333333E1);
#1556=ORIENTED_EDGE('',*,*,#1555,.T.);
#1558=ORIENTED_EDGE('',*,*,#1557,.T.);
#1559=ORIENTED_EDGE('',*,*,#1543,.F.);
#1561=ORIENTED_EDGE('',*,*,#1560,.F.);
#1562=EDGE_LOOP('',(#1556,#1558,#1559,#1561));
#1563=FACE_OUTER_BOUND('',#1562,.F.);
#1564=ADVANCED_FACE('',(#1563),#1554,.F.);
#1565=CARTESIAN_POINT('',(-4.8E0,1.233333333333E1,0.E0));
#1566=DIRECTION('',(1.E0,0.E0,0.E0));
#1567=DIRECTION('',(0.E0,0.E0,-1.E0));
#1568=AXIS2_PLACEMENT_3D('',#1565,#1566,#1567);
#1569=PLANE('',#1568);
#1570=ORIENTED_EDGE('',*,*,#1555,.F.);
#1572=ORIENTED_EDGE('',*,*,#1571,.F.);
#1573=EDGE_LOOP('',(#1570,#1572));
#1574=FACE_OUTER_BOUND('',#1573,.F.);
#1576=ORIENTED_EDGE('',*,*,#1575,.T.);
#1578=ORIENTED_EDGE('',*,*,#1577,.T.);
#1579=EDGE_LOOP('',(#1576,#1578));
#1580=FACE_BOUND('',#1579,.F.);
#1581=ADVANCED_FACE('',(#1574,#1580),#1569,.F.);
#1582=CARTESIAN_POINT('',(0.E0,0.E0,0.E0));
#1583=DIRECTION('',(-1.E0,0.E0,0.E0));
#1584=DIRECTION('',(0.E0,0.E0,1.E0));
#1585=AXIS2_PLACEMENT_3D('',#1582,#1583,#1584);
#1586=CYLINDRICAL_SURFACE('',#1585,1.213333333333E1);
#1587=ORIENTED_EDGE('',*,*,#1571,.T.);
#1588=ORIENTED_EDGE('',*,*,#1560,.T.);
#1589=ORIENTED_EDGE('',*,*,#1530,.F.);
#1590=ORIENTED_EDGE('',*,*,#1557,.F.);
#1591=EDGE_LOOP('',(#1587,#1588,#1589,#1590));
#1592=FACE_OUTER_BOUND('',#1591,.F.);
#1593=ADVANCED_FACE('',(#1592),#1586,.F.);
#1594=CARTESIAN_POINT('',(0.E0,0.E0,0.E0));
#1595=DIRECTION('',(-1.E0,0.E0,0.E0));
#1596=DIRECTION('',(0.E0,0.E0,1.E0));
#1597=AXIS2_PLACEMENT_3D('',#1594,#1595,#1596);
#1598=CYLINDRICAL_SURFACE('',#1597,1.118333333333E1);
#1599=ORIENTED_EDGE('',*,*,#1575,.F.);
#1601=ORIENTED_EDGE('',*,*,#1600,.T.);
#1603=ORIENTED_EDGE('',*,*,#1602,.F.);
#1605=ORIENTED_EDGE('',*,*,#1604,.F.);
#1606=EDGE_LOOP('',(#1599,#1601,#1603,#1605));
#1607=FACE_OUTER_BOUND('',#1606,.F.);
#1608=ADVANCED_FACE('',(#1607),#1598,.T.);
#1609=CARTESIAN_POINT('',(0.E0,0.E0,0.E0));
#1610=DIRECTION('',(-1.E0,0.E0,0.E0));
#1611=DIRECTION('',(0.E0,0.E0,1.E0));
#1612=AXIS2_PLACEMENT_3D('',#1609,#1610,#1611);
#1613=CYLINDRICAL_SURFACE('',#1612,1.118333333333E1);
#1614=ORIENTED_EDGE('',*,*,#1604,.T.);
#1616=ORIENTED_EDGE('',*,*,#1615,.F.);
#1617=ORIENTED_EDGE('',*,*,#1600,.F.);
#1618=ORIENTED_EDGE('',*,*,#1577,.F.);
#1619=EDGE_LOOP('',(#1614,#1616,#1617,#1618));
#1620=FACE_OUTER_BOUND('',#1619,.F.);
#1621=ADVANCED_FACE('',(#1620),#1613,.T.);
#1622=CARTESIAN_POINT('',(-5.55E0,0.E0,0.E0));
#1623=DIRECTION('',(-1.E0,0.E0,0.E0));
#1624=DIRECTION('',(0.E0,0.E0,1.E0));
#1625=AXIS2_PLACEMENT_3D('',#1622,#1623,#1624);
#1626=CONICAL_SURFACE('',#1625,1.147083333333E1,6.244718842328E1);
#1628=ORIENTED_EDGE('',*,*,#1627,.T.);
#1630=ORIENTED_EDGE('',*,*,#1629,.T.);
#1632=ORIENTED_EDGE('',*,*,#1631,.F.);
#1633=ORIENTED_EDGE('',*,*,#1615,.T.);
#1634=EDGE_LOOP('',(#1628,#1630,#1632,#1633));
#1635=FACE_OUTER_BOUND('',#1634,.F.);
#1636=ADVANCED_FACE('',(#1635),#1626,.T.);
#1637=CARTESIAN_POINT('',(-5.55E0,0.E0,0.E0));
#1638=DIRECTION('',(-1.E0,0.E0,0.E0));
#1639=DIRECTION('',(0.E0,0.E0,1.E0));
#1640=AXIS2_PLACEMENT_3D('',#1637,#1638,#1639);
#1641=CONICAL_SURFACE('',#1640,1.147083333333E1,6.244718842328E1);
#1642=ORIENTED_EDGE('',*,*,#1602,.T.);
#1643=ORIENTED_EDGE('',*,*,#1631,.T.);
#1645=ORIENTED_EDGE('',*,*,#1644,.T.);
#1646=ORIENTED_EDGE('',*,*,#1627,.F.);
#1647=EDGE_LOOP('',(#1642,#1643,#1645,#1646));
#1648=FACE_OUTER_BOUND('',#1647,.F.);
#1649=ADVANCED_FACE('',(#1648),#1641,.T.);
#1650=CARTESIAN_POINT('',(0.E0,0.E0,0.E0));
#1651=DIRECTION('',(-1.E0,0.E0,0.E0));
#1652=DIRECTION('',(0.E0,0.E0,1.E0));
#1653=AXIS2_PLACEMENT_3D('',#1650,#1651,#1652);
#1654=CYLINDRICAL_SURFACE('',#1653,1.175833333333E1);
#1655=ORIENTED_EDGE('',*,*,#1644,.F.);
#1657=ORIENTED_EDGE('',*,*,#1656,.T.);
#1659=ORIENTED_EDGE('',*,*,#1658,.F.);
#1661=ORIENTED_EDGE('',*,*,#1660,.F.);
#1662=EDGE_LOOP('',(#1655,#1657,#1659,#1661));
#1663=FACE_OUTER_BOUND('',#1662,.F.);
#1664=ADVANCED_FACE('',(#1663),#1654,.T.);
#1665=CARTESIAN_POINT('',(0.E0,0.E0,0.E0));
#1666=DIRECTION('',(-1.E0,0.E0,0.E0));
#1667=DIRECTION('',(0.E0,0.E0,1.E0));
#1668=AXIS2_PLACEMENT_3D('',#1665,#1666,#1667);
#1669=CYLINDRICAL_SURFACE('',#1668,1.175833333333E1);
#1670=ORIENTED_EDGE('',*,*,#1660,.T.);
#1672=ORIENTED_EDGE('',*,*,#1671,.F.);
#1673=ORIENTED_EDGE('',*,*,#1656,.F.);
#1674=ORIENTED_EDGE('',*,*,#1629,.F.);
#1675=EDGE_LOOP('',(#1670,#1672,#1673,#1674));
#1676=FACE_OUTER_BOUND('',#1675,.F.);
#1677=ADVANCED_FACE('',(#1676),#1669,.T.);
#1678=CARTESIAN_POINT('',(-6.E0,1.175833333333E1,0.E0));
#1679=DIRECTION('',(1.E0,0.E0,0.E0));
#1680=DIRECTION('',(0.E0,0.E0,-1.E0));
#1681=AXIS2_PLACEMENT_3D('',#1678,#1679,#1680);
#1682=PLANE('',#1681);
#1683=ORIENTED_EDGE('',*,*,#1658,.T.);
#1684=ORIENTED_EDGE('',*,*,#1671,.T.);
#1685=EDGE_LOOP('',(#1683,#1684));
#1686=FACE_OUTER_BOUND('',#1685,.F.);
#1688=ORIENTED_EDGE('',*,*,#1687,.T.);
#1690=ORIENTED_EDGE('',*,*,#1689,.T.);
#1691=EDGE_LOOP('',(#1688,#1690));
#1692=FACE_BOUND('',#1691,.F.);
#1693=ADVANCED_FACE('',(#1686,#1692),#1682,.F.);
#1694=CARTESIAN_POINT('',(-5.4E0,0.E0,0.E0));
#1695=DIRECTION('',(-1.E0,0.E0,0.E0));
#1696=DIRECTION('',(0.E0,0.E0,1.E0));
#1697=AXIS2_PLACEMENT_3D('',#1694,#1695,#1696);
#1698=TOROIDAL_SURFACE('',#1697,9.1E0,6.E-1);
#1699=ORIENTED_EDGE('',*,*,#1687,.F.);
#1701=ORIENTED_EDGE('',*,*,#1700,.T.);
#1703=ORIENTED_EDGE('',*,*,#1702,.T.);
#1705=ORIENTED_EDGE('',*,*,#1704,.F.);
#1706=EDGE_LOOP('',(#1699,#1701,#1703,#1705));
#1707=FACE_OUTER_BOUND('',#1706,.F.);
#1708=ADVANCED_FACE('',(#1707),#1698,.T.);
#1709=CARTESIAN_POINT('',(-5.4E0,0.E0,0.E0));
#1710=DIRECTION('',(-1.E0,0.E0,0.E0));
#1711=DIRECTION('',(0.E0,0.E0,1.E0));
#1712=AXIS2_PLACEMENT_3D('',#1709,#1710,#1711);
#1713=TOROIDAL_SURFACE('',#1712,9.1E0,6.E-1);
#1714=ORIENTED_EDGE('',*,*,#1704,.T.);
#1716=ORIENTED_EDGE('',*,*,#1715,.T.);
#1717=ORIENTED_EDGE('',*,*,#1700,.F.);
#1718=ORIENTED_EDGE('',*,*,#1689,.F.);
#1719=EDGE_LOOP('',(#1714,#1716,#1717,#1718));
#1720=FACE_OUTER_BOUND('',#1719,.F.);
#1721=ADVANCED_FACE('',(#1720),#1713,.T.);
#1722=CARTESIAN_POINT('',(0.E0,0.E0,0.E0));
#1723=DIRECTION('',(-1.E0,0.E0,0.E0));
#1724=DIRECTION('',(0.E0,0.E0,1.E0));
#1725=AXIS2_PLACEMENT_3D('',#1722,#1723,#1724);
#1726=CYLINDRICAL_SURFACE('',#1725,8.5E0);
#1728=ORIENTED_EDGE('',*,*,#1727,.F.);
#1730=ORIENTED_EDGE('',*,*,#1729,.T.);
#1731=ORIENTED_EDGE('',*,*,#1715,.F.);
#1733=ORIENTED_EDGE('',*,*,#1732,.F.);
#1734=EDGE_LOOP('',(#1728,#1730,#1731,#1733));
#1735=FACE_OUTER_BOUND('',#1734,.F.);
#1736=ADVANCED_FACE('',(#1735),#1726,.F.);
#1737=CARTESIAN_POINT('',(5.4E0,0.E0,0.E0));
#1738=DIRECTION('',(-1.E0,0.E0,0.E0));
#1739=DIRECTION('',(0.E0,0.E0,1.E0));
#1740=AXIS2_PLACEMENT_3D('',#1737,#1738,#1739);
#1741=TOROIDAL_SURFACE('',#1740,9.1E0,6.E-1);
#1743=ORIENTED_EDGE('',*,*,#1742,.T.);
#1745=ORIENTED_EDGE('',*,*,#1744,.F.);
#1747=ORIENTED_EDGE('',*,*,#1746,.F.);
#1748=ORIENTED_EDGE('',*,*,#1727,.T.);
#1749=EDGE_LOOP('',(#1743,#1745,#1747,#1748));
#1750=FACE_OUTER_BOUND('',#1749,.F.);
#1751=ADVANCED_FACE('',(#1750),#1741,.T.);
#1752=CARTESIAN_POINT('',(5.4E0,0.E0,0.E0));
#1753=DIRECTION('',(-1.E0,0.E0,0.E0));
#1754=DIRECTION('',(0.E0,0.E0,1.E0));
#1755=AXIS2_PLACEMENT_3D('',#1752,#1753,#1754);
#1756=TOROIDAL_SURFACE('',#1755,9.1E0,6.E-1);
#1758=ORIENTED_EDGE('',*,*,#1757,.T.);
#1759=ORIENTED_EDGE('',*,*,#1746,.T.);
#1761=ORIENTED_EDGE('',*,*,#1760,.F.);
#1762=ORIENTED_EDGE('',*,*,#1742,.F.);
#1763=EDGE_LOOP('',(#1758,#1759,#1761,#1762));
#1764=FACE_OUTER_BOUND('',#1763,.F.);
#1765=ADVANCED_FACE('',(#1764),#1756,.T.);
#1766=CARTESIAN_POINT('',(0.E0,0.E0,0.E0));
#1767=DIRECTION('',(-1.E0,0.E0,0.E0));
#1768=DIRECTION('',(0.E0,0.E0,1.E0));
#1769=AXIS2_PLACEMENT_3D('',#1766,#1767,#1768);
#1770=CYLINDRICAL_SURFACE('',#1769,8.5E0);
#1771=ORIENTED_EDGE('',*,*,#1732,.T.);
#1772=ORIENTED_EDGE('',*,*,#1702,.F.);
#1773=ORIENTED_EDGE('',*,*,#1729,.F.);
#1774=ORIENTED_EDGE('',*,*,#1757,.F.);
#1775=EDGE_LOOP('',(#1771,#1772,#1773,#1774));
#1776=FACE_OUTER_BOUND('',#1775,.F.);
#1777=ADVANCED_FACE('',(#1776),#1770,.F.);
#1778=CARTESIAN_POINT('',(6.E0,1.175833333333E1,0.E0));
#1779=DIRECTION('',(-1.E0,0.E0,0.E0));
#1780=DIRECTION('',(0.E0,0.E0,1.E0));
#1781=AXIS2_PLACEMENT_3D('',#1778,#1779,#1780);
#1782=PLANE('',#1781);
#1784=ORIENTED_EDGE('',*,*,#1783,.T.);
#1786=ORIENTED_EDGE('',*,*,#1785,.T.);
#1787=EDGE_LOOP('',(#1784,#1786));
#1788=FACE_OUTER_BOUND('',#1787,.F.);
#1789=ORIENTED_EDGE('',*,*,#1760,.T.);
#1790=ORIENTED_EDGE('',*,*,#1744,.T.);
#1791=EDGE_LOOP('',(#1789,#1790));
#1792=FACE_BOUND('',#1791,.F.);
#1793=ADVANCED_FACE('',(#1788,#1792),#1782,.F.);
#1794=CARTESIAN_POINT('',(0.E0,0.E0,0.E0));
#1795=DIRECTION('',(-1.E0,0.E0,0.E0));
#1796=DIRECTION('',(0.E0,0.E0,1.E0));
#1797=AXIS2_PLACEMENT_3D('',#1794,#1795,#1796);
#1798=CYLINDRICAL_SURFACE('',#1797,1.175833333333E1);
#1799=ORIENTED_EDGE('',*,*,#1783,.F.);
#1801=ORIENTED_EDGE('',*,*,#1800,.T.);
#1803=ORIENTED_EDGE('',*,*,#1802,.F.);
#1805=ORIENTED_EDGE('',*,*,#1804,.F.);
#1806=EDGE_LOOP('',(#1799,#1801,#1803,#1805));
#1807=FACE_OUTER_BOUND('',#1806,.F.);
#1808=ADVANCED_FACE('',(#1807),#1798,.T.);
#1809=CARTESIAN_POINT('',(0.E0,0.E0,0.E0));
#1810=DIRECTION('',(-1.E0,0.E0,0.E0));
#1811=DIRECTION('',(0.E0,0.E0,1.E0));
#1812=AXIS2_PLACEMENT_3D('',#1809,#1810,#1811);
#1813=CYLINDRICAL_SURFACE('',#1812,1.175833333333E1);
#1814=ORIENTED_EDGE('',*,*,#1804,.T.);
#1816=ORIENTED_EDGE('',*,*,#1815,.F.);
#1817=ORIENTED_EDGE('',*,*,#1800,.F.);
#1818=ORIENTED_EDGE('',*,*,#1785,.F.);
#1819=EDGE_LOOP('',(#1814,#1816,#1817,#1818));
#1820=FACE_OUTER_BOUND('',#1819,.F.);
#1821=ADVANCED_FACE('',(#1820),#1813,.T.);
#1822=CARTESIAN_POINT('',(5.55E0,0.E0,0.E0));
#1823=DIRECTION('',(1.E0,0.E0,0.E0));
#1824=DIRECTION('',(0.E0,0.E0,-1.E0));
#1825=AXIS2_PLACEMENT_3D('',#1822,#1823,#1824);
#1826=CONICAL_SURFACE('',#1825,1.147083333333E1,6.244718842328E1);
#1828=ORIENTED_EDGE('',*,*,#1827,.T.);
#1829=ORIENTED_EDGE('',*,*,#1815,.T.);
#1831=ORIENTED_EDGE('',*,*,#1830,.F.);
#1833=ORIENTED_EDGE('',*,*,#1832,.T.);
#1834=EDGE_LOOP('',(#1828,#1829,#1831,#1833));
#1835=FACE_OUTER_BOUND('',#1834,.F.);
#1836=ADVANCED_FACE('',(#1835),#1826,.T.);
#1837=CARTESIAN_POINT('',(5.55E0,0.E0,0.E0));
#1838=DIRECTION('',(1.E0,0.E0,0.E0));
#1839=DIRECTION('',(0.E0,0.E0,-1.E0));
#1840=AXIS2_PLACEMENT_3D('',#1837,#1838,#1839);
#1841=CONICAL_SURFACE('',#1840,1.147083333333E1,6.244718842328E1);
#1843=ORIENTED_EDGE('',*,*,#1842,.T.);
#1844=ORIENTED_EDGE('',*,*,#1830,.T.);
#1845=ORIENTED_EDGE('',*,*,#1802,.T.);
#1846=ORIENTED_EDGE('',*,*,#1827,.F.);
#1847=EDGE_LOOP('',(#1843,#1844,#1845,#1846));
#1848=FACE_OUTER_BOUND('',#1847,.F.);
#1849=ADVANCED_FACE('',(#1848),#1841,.T.);
#1850=CARTESIAN_POINT('',(0.E0,0.E0,0.E0));
#1851=DIRECTION('',(-1.E0,0.E0,0.E0));
#1852=DIRECTION('',(0.E0,0.E0,1.E0));
#1853=AXIS2_PLACEMENT_3D('',#1850,#1851,#1852);
#1854=CYLINDRICAL_SURFACE('',#1853,1.118333333333E1);
#1855=ORIENTED_EDGE('',*,*,#1842,.F.);
#1857=ORIENTED_EDGE('',*,*,#1856,.T.);
#1859=ORIENTED_EDGE('',*,*,#1858,.F.);
#1861=ORIENTED_EDGE('',*,*,#1860,.F.);
#1862=EDGE_LOOP('',(#1855,#1857,#1859,#1861));
#1863=FACE_OUTER_BOUND('',#1862,.F.);
#1864=ADVANCED_FACE('',(#1863),#1854,.T.);
#1865=CARTESIAN_POINT('',(0.E0,0.E0,0.E0));
#1866=DIRECTION('',(-1.E0,0.E0,0.E0));
#1867=DIRECTION('',(0.E0,0.E0,1.E0));
#1868=AXIS2_PLACEMENT_3D('',#1865,#1866,#1867);
#1869=CYLINDRICAL_SURFACE('',#1868,1.118333333333E1);
#1870=ORIENTED_EDGE('',*,*,#1860,.T.);
#1872=ORIENTED_EDGE('',*,*,#1871,.F.);
#1873=ORIENTED_EDGE('',*,*,#1856,.F.);
#1874=ORIENTED_EDGE('',*,*,#1832,.F.);
#1875=EDGE_LOOP('',(#1870,#1872,#1873,#1874));
#1876=FACE_OUTER_BOUND('',#1875,.F.);
#1877=ADVANCED_FACE('',(#1876),#1869,.T.);
#1878=CARTESIAN_POINT('',(4.8E0,1.233333333333E1,0.E0));
#1879=DIRECTION('',(-1.E0,0.E0,0.E0));
#1880=DIRECTION('',(0.E0,0.E0,1.E0));
#1881=AXIS2_PLACEMENT_3D('',#1878,#1879,#1880);
#1882=PLANE('',#1881);
#1884=ORIENTED_EDGE('',*,*,#1883,.F.);
#1886=ORIENTED_EDGE('',*,*,#1885,.F.);
#1887=EDGE_LOOP('',(#1884,#1886));
#1888=FACE_OUTER_BOUND('',#1887,.F.);
#1889=ORIENTED_EDGE('',*,*,#1858,.T.);
#1890=ORIENTED_EDGE('',*,*,#1871,.T.);
#1891=EDGE_LOOP('',(#1889,#1890));
#1892=FACE_BOUND('',#1891,.F.);
#1893=ADVANCED_FACE('',(#1888,#1892),#1882,.F.);
#1894=CARTESIAN_POINT('',(0.E0,0.E0,0.E0));
#1895=DIRECTION('',(1.E0,0.E0,0.E0));
#1896=DIRECTION('',(0.E0,0.E0,1.E0));
#1897=AXIS2_PLACEMENT_3D('',#1894,#1895,#1896);
#1898=CYLINDRICAL_SURFACE('',#1897,1.213333333333E1);
#1899=ORIENTED_EDGE('',*,*,#1883,.T.);
#1901=ORIENTED_EDGE('',*,*,#1900,.T.);
#1902=ORIENTED_EDGE('',*,*,#983,.F.);
#1904=ORIENTED_EDGE('',*,*,#1903,.F.);
#1905=EDGE_LOOP('',(#1899,#1901,#1902,#1904));
#1906=FACE_OUTER_BOUND('',#1905,.F.);
#1907=ADVANCED_FACE('',(#1906),#1898,.F.);
#1908=CARTESIAN_POINT('',(0.E0,0.E0,0.E0));
#1909=DIRECTION('',(1.E0,0.E0,0.E0));
#1910=DIRECTION('',(0.E0,0.E0,1.E0));
#1911=AXIS2_PLACEMENT_3D('',#1908,#1909,#1910);
#1912=CYLINDRICAL_SURFACE('',#1911,1.213333333333E1);
#1913=ORIENTED_EDGE('',*,*,#1885,.T.);
#1914=ORIENTED_EDGE('',*,*,#1903,.T.);
#1915=ORIENTED_EDGE('',*,*,#1000,.F.);
#1916=ORIENTED_EDGE('',*,*,#1900,.F.);
#1917=EDGE_LOOP('',(#1913,#1914,#1915,#1916));
#1918=FACE_OUTER_BOUND('',#1917,.F.);
#1919=ADVANCED_FACE('',(#1918),#1912,.F.);
#1920=CLOSED_SHELL('',(#991,#1005,#1021,#1036,#1049,#1064,#1077,#1093,#1108,
#1121,#1136,#1149,#1164,#1179,#1193,#1205,#1221,#1236,#1249,#1264,#1277,#1292,
#1305,#1321,#1336,#1351,#1365,#1377,#1392,#1405,#1420,#1433,#1449,#1464,#1477,
#1492,#1505,#1521,#1536,#1549,#1564,#1581,#1593,#1608,#1621,#1636,#1649,#1664,
#1677,#1693,#1708,#1721,#1736,#1751,#1765,#1777,#1793,#1808,#1821,#1836,#1849,
#1864,#1877,#1893,#1907,#1919));
#1921=MANIFOLD_SOLID_BREP('',#1920);
#1923=DIMENSIONAL_EXPONENTS(0.E0,0.E0,0.E0,0.E0,0.E0,0.E0,0.E0);
#1925=PLANE_ANGLE_MEASURE_WITH_UNIT(PLANE_ANGLE_MEASURE(1.745329251994E-2),
#1924);
#1926=(CONVERSION_BASED_UNIT('DEGREE',#1925)NAMED_UNIT(*)PLANE_ANGLE_UNIT());
#1928=UNCERTAINTY_MEASURE_WITH_UNIT(LENGTH_MEASURE(5.E-3),#1922,'closure',
'Maximum model space distance between geometric entities at asserted connectivities');
#1929=(GEOMETRIC_REPRESENTATION_CONTEXT(3)GLOBAL_UNCERTAINTY_ASSIGNED_CONTEXT((
#1928))GLOBAL_UNIT_ASSIGNED_CONTEXT((#1922,#1926,#1927))REPRESENTATION_CONTEXT(
'ID1','3'));
#1931=APPLICATION_CONTEXT(
'CONFIGURATION CONTROLLED 3D DESIGNS OF MECHANICAL PARTS AND ASSEMBLIES');
#1932=APPLICATION_PROTOCOL_DEFINITION('international standard',
'config_control_design',1994,#1931);
#1933=DESIGN_CONTEXT('',#1931,'design');
#1934=MECHANICAL_CONTEXT('',#1931,'mechanical');
#1935=PRODUCT('6203ZZ_-_EA040','6203ZZ_-_EA040','NOT SPECIFIED',(#1934));
#1936=PRODUCT_DEFINITION_FORMATION_WITH_SPECIFIED_SOURCE('1','LAST_VERSION',
#1935,.MADE.);
#1940=PRODUCT_CATEGORY('part','');
#1941=PRODUCT_RELATED_PRODUCT_CATEGORY('detail','',(#1935));
#1942=PRODUCT_CATEGORY_RELATIONSHIP('','',#1940,#1941);
#1943=SECURITY_CLASSIFICATION_LEVEL('unclassified');
#1944=SECURITY_CLASSIFICATION('','',#1943);
#1945=CC_DESIGN_SECURITY_CLASSIFICATION(#1944,(#1936));
#1946=APPROVAL_STATUS('approved');
#1947=APPROVAL(#1946,'');
#1948=CC_DESIGN_APPROVAL(#1947,(#1944,#1936,#1937));
#1949=CALENDAR_DATE(125,19,12);
#1950=COORDINATED_UNIVERSAL_TIME_OFFSET(8,0,.AHEAD.);
#1951=LOCAL_TIME(11,24,2.6E1,#1950);
#1952=DATE_AND_TIME(#1949,#1951);
#1953=APPROVAL_DATE_TIME(#1952,#1947);
#1954=DATE_TIME_ROLE('creation_date');
#1955=CC_DESIGN_DATE_AND_TIME_ASSIGNMENT(#1952,#1954,(#1937));
#1956=DATE_TIME_ROLE('classification_date');
#1957=CC_DESIGN_DATE_AND_TIME_ASSIGNMENT(#1952,#1956,(#1944));
#1958=PERSON('UNSPECIFIED','UNSPECIFIED',$,$,$,$);
#1959=ORGANIZATION('UNSPECIFIED','UNSPECIFIED','UNSPECIFIED');
#1960=PERSON_AND_ORGANIZATION(#1958,#1959);
#1961=APPROVAL_ROLE('approver');
#1962=APPROVAL_PERSON_ORGANIZATION(#1960,#1947,#1961);
#1963=PERSON_AND_ORGANIZATION_ROLE('creator');
#1964=CC_DESIGN_PERSON_AND_ORGANIZATION_ASSIGNMENT(#1960,#1963,(#1936,#1937));
#1965=PERSON_AND_ORGANIZATION_ROLE('design_supplier');
#1966=CC_DESIGN_PERSON_AND_ORGANIZATION_ASSIGNMENT(#1960,#1965,(#1936));
#1967=PERSON_AND_ORGANIZATION_ROLE('classification_officer');
#1968=CC_DESIGN_PERSON_AND_ORGANIZATION_ASSIGNMENT(#1960,#1967,(#1944));
#1969=PERSON_AND_ORGANIZATION_ROLE('design_owner');
#1970=CC_DESIGN_PERSON_AND_ORGANIZATION_ASSIGNMENT(#1960,#1969,(#1935));
#1=DRAUGHTING_PRE_DEFINED_COLOUR('black');
#2=COLOUR_RGB('',0.E0,0.E0,4.7E-1);
#3=COLOUR_RGB('',0.E0,0.E0,6.E-1);
#4=COLOUR_RGB('',0.E0,0.E0,8.E-1);
#5=COLOUR_RGB('',0.E0,2.745098039216E-2,7.019607843137E-1);
#6=COLOUR_RGB('',0.E0,3.137254901961E-2,3.411764705882E-1);
#7=COLOUR_RGB('',0.E0,2.E-1,1.E0);
#8=COLOUR_RGB('',0.E0,3.3E-1,0.E0);
#9=COLOUR_RGB('',0.E0,3.3E-1,3.3E-1);
#10=COLOUR_RGB('',0.E0,4.E-1,0.E0);
#11=COLOUR_RGB('',0.E0,4.E-1,4.E-1);
#12=COLOUR_RGB('',0.E0,4.E-1,1.E0);
#13=COLOUR_RGB('',0.E0,5.019607843137E-1,5.019607843137E-1);
#14=COLOUR_RGB('',0.E0,6.E-1,0.E0);
#15=COLOUR_RGB('',0.E0,6.E-1,6.E-1);
#16=COLOUR_RGB('',0.E0,6.E-1,1.E0);
#17=COLOUR_RGB('',0.E0,8.E-1,0.E0);
#18=COLOUR_RGB('',0.E0,8.E-1,8.E-1);
#19=COLOUR_RGB('',0.E0,8.E-1,1.E0);
#20=COLOUR_RGB('',0.E0,9.3E-1,0.E0);
#21=COLOUR_RGB('',0.E0,9.3E-1,9.3E-1);
#22=DRAUGHTING_PRE_DEFINED_COLOUR('green');
#23=COLOUR_RGB('',0.E0,1.E0,2.E-1);
#24=COLOUR_RGB('',0.E0,1.E0,4.E-1);
#25=COLOUR_RGB('',0.E0,1.E0,6.E-1);
#26=COLOUR_RGB('',0.E0,1.E0,8.E-1);
#27=DRAUGHTING_PRE_DEFINED_COLOUR('cyan');
#28=COLOUR_RGB('',3.1E-2,2.E-1,6.27E-1);
#29=COLOUR_RGB('',3.529411764706E-2,5.137254901961E-1,1.725490196078E-1);
#30=COLOUR_RGB('',6.6667E-2,5.17647E-1,6.39216E-1);
#31=COLOUR_RGB('',7.E-2,7.E-2,1.E0);
#32=COLOUR_RGB('',7.E-2,6.E-1,3.E-1);
#33=COLOUR_RGB('',8.E-2,1.E-1,1.1E-1);
#34=COLOUR_RGB('',9.803921568627E-2,9.803921568627E-2,4.392156862745E-1);
#35=COLOUR_RGB('',1.019607843137E-1,6.313725490196E-1,5.019607843137E-1);
#36=COLOUR_RGB('',1.176470588235E-1,5.647058823529E-1,1.E0);
#37=COLOUR_RGB('',1.254901960784E-1,6.980392156863E-1,6.666666666667E-1);
#38=COLOUR_RGB('',1.333333333333E-1,5.450980392157E-1,1.333333333333E-1);
#39=COLOUR_RGB('',1.450980392157E-1,3.529411764706E-2,0.E0);
#40=COLOUR_RGB('',1.686274509804E-1,1.686274509804E-1,1.803921568627E-1);
#41=COLOUR_RGB('',1.803921568627E-1,5.450980392157E-1,3.411764705882E-1);
#42=COLOUR_RGB('',1.9E-1,2.3E-1,3.1E-1);
#43=COLOUR_RGB('',1.960784313725E-1,8.039215686275E-1,1.960784313725E-1);
#44=COLOUR_RGB('',2.E-1,1.E0,0.E0);
#45=COLOUR_RGB('',2.E-1,1.E0,2.E-1);
#46=COLOUR_RGB('',2.E-1,1.E0,1.E0);
#47=COLOUR_RGB('',2.313725490196E-1,3.803921568627E-1,5.607843137255E-1);
#48=COLOUR_RGB('',2.352941176471E-1,7.019607843137E-1,4.431372549020E-1);
#49=COLOUR_RGB('',2.431372549020E-1,8.784313725490E-1,8.156862745098E-1);
#50=COLOUR_RGB('',2.470588235294E-1,5.921568627451E-1,6.313725490196E-1);
#51=COLOUR_RGB('',2.5098E-1,2.35294E-1,8.62745E-1);
#52=COLOUR_RGB('',2.549019607843E-1,4.117647058824E-1,1.E0);
#53=COLOUR_RGB('',2.58824E-1,7.80392E-1,8.86275E-1);
#54=COLOUR_RGB('',2.7E-1,0.E0,4.E-1);
#55=COLOUR_RGB('',2.7E-1,2.7E-1,0.E0);
#56=COLOUR_RGB('',2.7E-1,2.7E-1,1.E0);
#57=COLOUR_RGB('',2.745098039216E-1,5.098039215686E-1,7.058823529412E-1);
#58=COLOUR_RGB('',2.784313725490E-1,2.784313725490E-1,2.784313725490E-1);
#59=COLOUR_RGB('',2.823529411765E-1,2.392156862745E-1,5.450980392157E-1);
#60=COLOUR_RGB('',3.13725E-1,4.70588E-1,1.96078E-1);
#61=COLOUR_RGB('',3.2549E-1,4.98039E-1,9.84314E-1);
#62=COLOUR_RGB('',3.254901960784E-1,5.764705882353E-1,8.117647058824E-1);
#63=COLOUR_RGB('',3.3E-1,0.E0,0.E0);
#64=COLOUR_RGB('',3.3E-1,0.E0,3.3E-1);
#65=COLOUR_RGB('',3.3E-1,0.E0,5.3E-1);
#66=COLOUR_RGB('',3.450980392157E-1,3.647058823529E-1,3.725490196078E-1);
#67=COLOUR_RGB('',3.725490196078E-1,6.196078431373E-1,6.274509803922E-1);
#68=COLOUR_RGB('',3.803921568627E-1,4.392156862745E-1,5.960784313725E-1);
#69=COLOUR_RGB('',3.882352941176E-1,4.392156862745E-1,4.901960784314E-1);
#70=COLOUR_RGB('',3.921568627451E-1,5.843137254902E-1,9.294117647059E-1);
#71=COLOUR_RGB('',3.96078E-1,7.13725E-1,1.E0);
#72=COLOUR_RGB('',4.E-1,0.E0,4.E-1);
#73=COLOUR_RGB('',4.E-1,0.E0,6.7E-1);
#74=COLOUR_RGB('',4.E-1,1.3E-1,0.E0);
#75=COLOUR_RGB('',4.E-1,4.E-1,0.E0);
#76=COLOUR_RGB('',4.E-1,4.E-1,1.E0);
#77=COLOUR_RGB('',4.E-1,8.039215686275E-1,6.666666666667E-1);
#78=COLOUR_RGB('',4.E-1,1.E0,0.E0);
#79=COLOUR_RGB('',4.E-1,1.E0,4.E-1);
#80=COLOUR_RGB('',4.E-1,1.E0,1.E0);
#81=COLOUR_RGB('',4.156862745098E-1,3.529411764706E-1,8.039215686275E-1);
#82=COLOUR_RGB('',4.196078431373E-1,5.568627450980E-1,1.372549019608E-1);
#83=COLOUR_RGB('',4.666666666667E-1,5.333333333333E-1,6.E-1);
#84=COLOUR_RGB('',4.7E-1,0.E0,0.E0);
#85=COLOUR_RGB('',4.7E-1,0.E0,8.E-1);
#86=COLOUR_RGB('',4.7E-1,2.E-1,7.E-2);
#87=COLOUR_RGB('',4.823529411765E-1,4.078431372549E-1,9.333333333333E-1);
#88=COLOUR_RGB('',4.980392156863E-1,1.E0,8.313725490196E-1);
#89=COLOUR_RGB('',5.019607843137E-1,0.E0,5.019607843137E-1);
#90=COLOUR_RGB('',5.019607843137E-1,5.019607843137E-1,0.E0);
#91=COLOUR_RGB('',5.01961E-1,5.01961E-1,5.01961E-1);
#92=COLOUR_RGB('',5.098039215686E-1,3.960784313725E-1,1.058823529412E-1);
#93=COLOUR_RGB('',5.3E-1,0.E0,9.3E-1);
#94=COLOUR_RGB('',5.3E-1,2.7E-1,1.3E-1);
#95=COLOUR_RGB('',5.3E-1,5.3E-1,1.E0);
#96=COLOUR_RGB('',5.294117647059E-1,8.078431372549E-1,9.215686274510E-1);
#97=COLOUR_RGB('',5.411764705882E-1,1.686274509804E-1,8.862745098039E-1);
#98=COLOUR_RGB('',5.5E-1,6.5E-1,7.3E-1);
#99=COLOUR_RGB('',5.607843137255E-1,7.372549019608E-1,5.607843137255E-1);
#100=COLOUR_RGB('',5.68627E-1,9.37255E-1,9.37255E-1);
#101=COLOUR_RGB('',5.725490196078E-1,6.117647058824E-1,6.313725490196E-1);
#102=COLOUR_RGB('',5.764705882353E-1,4.392156862745E-1,8.588235294118E-1);
#103=COLOUR_RGB('',5.803921568627E-1,0.E0,8.274509803922E-1);
#104=COLOUR_RGB('',5.88235E-1,2.35294E-1,1.56863E-1);
#105=COLOUR_RGB('',6.E-1,0.E0,6.E-1);
#106=COLOUR_RGB('',6.E-1,1.960784313725E-1,8.E-1);
#107=COLOUR_RGB('',6.E-1,2.E-1,1.E0);
#108=COLOUR_RGB('',6.E-1,3.3E-1,2.E-1);
#109=COLOUR_RGB('',6.E-1,6.E-1,0.E0);
#110=COLOUR_RGB('',6.E-1,1.E0,6.E-1);
#111=COLOUR_RGB('',6.E-1,1.E0,1.E0);
#112=COLOUR_RGB('',6.27451E-1,4.70588E-1,3.52941E-1);
#113=COLOUR_RGB('',6.627450980392E-1,6.627450980392E-1,6.627450980392E-1);
#114=COLOUR_RGB('',6.66667E-1,8.23529E-1,1.96078E-1);
#115=COLOUR_RGB('',6.66667E-1,8.23529E-1,5.88235E-1);
#116=COLOUR_RGB('',6.7E-1,0.E0,0.E0);
#117=COLOUR_RGB('',6.7E-1,4.E-1,2.7E-1);
#118=COLOUR_RGB('',6.7E-1,4.E-1,1.E0);
#119=COLOUR_RGB('',6.7E-1,6.7E-1,1.E0);
#120=COLOUR_RGB('',6.7E-1,1.E0,0.E0);
#121=COLOUR_RGB('',6.784313725490E-1,8.117647058824E-1,1.E0);
#122=COLOUR_RGB('',6.784313725490E-1,8.470588235294E-1,9.019607843137E-1);
#123=COLOUR_RGB('',6.784313725490E-1,1.E0,1.843137254902E-1);
#124=COLOUR_RGB('',6.862745098039E-1,6.823529411765E-1,7.607843137255E-1);
#125=COLOUR_RGB('',6.980392156863E-1,1.333333333333E-1,1.333333333333E-1);
#126=COLOUR_RGB('',7.17647E-1,1.68627E-1,4.43137E-1);
#127=COLOUR_RGB('',7.215686274510E-1,5.254901960784E-1,4.313725490196E-2);
#128=COLOUR_RGB('',7.294117647059E-1,2.705882352941E-1,1.E0);
#129=COLOUR_RGB('',7.294117647059E-1,3.333333333333E-1,8.274509803922E-1);
#130=COLOUR_RGB('',7.294117647059E-1,4.E-1,0.E0);
#131=COLOUR_RGB('',7.3E-1,4.7E-1,3.3E-1);
#132=COLOUR_RGB('',7.372549019608E-1,5.607843137255E-1,5.607843137255E-1);
#133=COLOUR_RGB('',7.411764705882E-1,7.176470588235E-1,4.196078431373E-1);
#134=COLOUR_RGB('',7.803921568627E-1,8.235294117647E-2,5.215686274510E-1);
#135=COLOUR_RGB('',8.E-1,0.E0,8.E-1);
#136=COLOUR_RGB('',8.E-1,5.3E-1,4.E-1);
#137=COLOUR_RGB('',8.E-1,6.E-1,1.E0);
#138=COLOUR_RGB('',8.E-1,8.E-1,0.E0);
#139=COLOUR_RGB('',8.E-1,8.E-1,1.E0);
#140=COLOUR_RGB('',8.E-1,1.E0,8.E-1);
#141=COLOUR_RGB('',8.E-1,1.E0,1.E0);
#142=COLOUR_RGB('',8.039215686275E-1,3.607843137255E-1,3.607843137255E-1);
#143=COLOUR_RGB('',8.03922E-1,5.88235E-1,1.96078E-1);
#144=COLOUR_RGB('',8.196078431373E-1,7.098039215686E-1,5.490196078431E-2);
#145=COLOUR_RGB('',8.235294117647E-1,4.117647058824E-1,1.176470588235E-1);
#146=COLOUR_RGB('',8.235294117647E-1,7.058823529412E-1,5.490196078431E-1);
#147=COLOUR_RGB('',8.274509803922E-1,8.274509803922E-1,8.274509803922E-1);
#148=COLOUR_RGB('',8.392156862745E-1,8.E-1,7.137254901961E-1);
#149=COLOUR_RGB('',8.431372549020E-1,8.980392156863E-1,9.333333333333E-1);
#150=COLOUR_RGB('',8.549019607843E-1,6.470588235294E-1,1.254901960784E-1);
#151=COLOUR_RGB('',8.588235294118E-1,4.392156862745E-1,5.764705882353E-1);
#152=COLOUR_RGB('',8.627450980392E-1,7.843137254902E-2,2.352941176471E-1);
#153=COLOUR_RGB('',8.666666666667E-1,6.274509803922E-1,8.666666666667E-1);
#154=COLOUR_RGB('',8.7E-1,0.E0,0.E0);
#155=COLOUR_RGB('',8.7E-1,6.E-1,4.7E-1);
#156=COLOUR_RGB('',8.98039E-1,6.07843E-1,1.E0);
#157=COLOUR_RGB('',9.E-1,8.3E-1,1.2E-1);
#158=COLOUR_RGB('',9.09804E-1,3.68627E-1,8.19608E-1);
#159=COLOUR_RGB('',9.3E-1,0.E0,9.3E-1);
#160=COLOUR_RGB('',9.3E-1,6.7E-1,5.3E-1);
#161=COLOUR_RGB('',9.3E-1,8.E-1,1.E0);
#162=COLOUR_RGB('',9.3E-1,9.3E-1,0.E0);
#163=COLOUR_RGB('',9.3E-1,1.E0,9.3E-1);
#164=COLOUR_RGB('',9.3E-1,1.E0,1.E0);
#165=COLOUR_RGB('',9.333333333333E-1,5.098039215686E-1,9.333333333333E-1);
#166=COLOUR_RGB('',9.333333333333E-1,9.098039215686E-1,6.666666666667E-1);
#167=COLOUR_RGB('',9.411764705882E-1,9.019607843137E-1,5.490196078431E-1);
#168=COLOUR_RGB('',9.568627450980E-1,6.431372549020E-1,3.764705882353E-1);
#169=DRAUGHTING_PRE_DEFINED_COLOUR('red');
#170=COLOUR_RGB('',1.E0,0.E0,2.705882352941E-1);
#171=COLOUR_RGB('',1.E0,0.E0,4.705882352941E-1);
#172=COLOUR_RGB('',1.E0,0.E0,7.803921568627E-1);
#173=DRAUGHTING_PRE_DEFINED_COLOUR('magenta');
#174=COLOUR_RGB('',1.E0,3.1E-2,3.1E-2);
#175=COLOUR_RGB('',1.E0,7.E-2,7.E-2);
#176=COLOUR_RGB('',1.E0,7.843137254902E-2,5.764705882353E-1);
#177=COLOUR_RGB('',1.E0,2.E-1,1.E0);
#178=COLOUR_RGB('',1.E0,2.7E-1,0.E0);
#179=COLOUR_RGB('',1.E0,2.7E-1,2.7E-1);
#180=COLOUR_RGB('',1.E0,3.882352941176E-1,2.784313725490E-1);
#181=COLOUR_RGB('',1.E0,4.E-1,1.E0);
#182=COLOUR_RGB('',1.E0,4.117647058824E-1,7.058823529412E-1);
#183=COLOUR_RGB('',1.E0,4.7E-1,0.E0);
#184=COLOUR_RGB('',1.E0,4.7E-1,4.7E-1);
#185=COLOUR_RGB('',1.E0,4.980392156863E-1,3.137254901961E-1);
#186=COLOUR_RGB('',1.E0,6.E-1,1.E0);
#187=COLOUR_RGB('',1.E0,6.7E-1,0.E0);
#188=COLOUR_RGB('',1.E0,6.7E-1,6.7E-1);
#189=COLOUR_RGB('',1.E0,7.3E-1,6.E-1);
#190=COLOUR_RGB('',1.E0,7.686274509804E-1,5.882352941176E-2);
#191=COLOUR_RGB('',1.E0,8.E-1,8.E-1);
#192=COLOUR_RGB('',1.E0,8.E-1,1.E0);
#193=COLOUR_RGB('',1.E0,8.7E-1,0.E0);
#194=COLOUR_RGB('',1.E0,9.215686274510E-1,8.039215686275E-1);
#195=COLOUR_RGB('',1.E0,9.3E-1,9.3E-1);
#196=COLOUR_RGB('',1.E0,9.3E-1,1.E0);
#197=DRAUGHTING_PRE_DEFINED_COLOUR('yellow');
#198=COLOUR_RGB('',1.E0,1.E0,1.3E-1);
#199=COLOUR_RGB('',1.E0,1.E0,3.3E-1);
#200=COLOUR_RGB('',1.E0,1.E0,5.3E-1);
#201=COLOUR_RGB('',1.E0,1.E0,7.3E-1);
#202=COLOUR_RGB('',1.E0,1.E0,9.3E-1);
#203=DRAUGHTING_PRE_DEFINED_COLOUR('white');
#208=CIRCLE('',#207,4.E-1);
#213=CIRCLE('',#212,1.213333333333E1);
#218=CIRCLE('',#217,4.E-1);
#223=CIRCLE('',#222,1.213333333333E1);
#228=CIRCLE('',#227,1.512914355612E1);
#233=CIRCLE('',#232,1.512914355612E1);
#238=CIRCLE('',#237,1.253333333333E1);
#243=CIRCLE('',#242,1.253333333333E1);
#248=CIRCLE('',#247,4.E-1);
#253=CIRCLE('',#252,1.540297292343E1);
#258=CIRCLE('',#257,1.540297292343E1);
#263=CIRCLE('',#262,4.E-1);
#276=CIRCLE('',#275,1.711666666667E1);
#281=CIRCLE('',#280,1.711666666667E1);
#286=CIRCLE('',#285,1.624585644388E1);
#291=CIRCLE('',#290,1.624585644388E1);
#308=CIRCLE('',#307,1.711666666667E1);
#313=CIRCLE('',#312,1.664915346533E1);
#318=CIRCLE('',#317,1.664915346533E1);
#327=CIRCLE('',#326,1.711666666667E1);
#332=CIRCLE('',#331,1.674166666667E1);
#349=CIRCLE('',#348,1.674166666667E1);
#358=CIRCLE('',#357,1.94E1);
#363=CIRCLE('',#362,1.94E1);
#368=CIRCLE('',#367,1.674166666667E1);
#373=CIRCLE('',#372,1.674166666667E1);
#378=CIRCLE('',#377,6.E-1);
#383=CIRCLE('',#382,2.E1);
#388=CIRCLE('',#387,6.E-1);
#393=CIRCLE('',#392,2.E1);
#406=CIRCLE('',#405,2.E1);
#411=CIRCLE('',#410,6.E-1);
#416=CIRCLE('',#415,6.E-1);
#421=CIRCLE('',#420,2.E1);
#426=CIRCLE('',#425,1.94E1);
#431=CIRCLE('',#430,1.94E1);
#436=CIRCLE('',#435,1.674166666667E1);
#441=CIRCLE('',#440,1.674166666667E1);
#446=CIRCLE('',#445,1.674166666667E1);
#455=CIRCLE('',#454,1.664915346533E1);
#464=CIRCLE('',#463,1.664915346533E1);
#473=CIRCLE('',#472,1.674166666667E1);
#486=CIRCLE('',#485,1.711666666667E1);
#495=CIRCLE('',#494,1.711666666667E1);
#508=CIRCLE('',#507,1.711666666667E1);
#513=CIRCLE('',#512,1.711666666667E1);
#518=CIRCLE('',#517,1.624585644388E1);
#523=CIRCLE('',#522,1.624585644388E1);
#536=CIRCLE('',#535,1.540297292343E1);
#541=CIRCLE('',#540,4.E-1);
#546=CIRCLE('',#545,4.E-1);
#551=CIRCLE('',#550,1.540297292343E1);
#556=CIRCLE('',#555,1.512914355612E1);
#561=CIRCLE('',#560,1.512914355612E1);
#566=CIRCLE('',#565,1.253333333333E1);
#571=CIRCLE('',#570,1.253333333333E1);
#576=CIRCLE('',#575,4.E-1);
#581=CIRCLE('',#580,1.213333333333E1);
#586=CIRCLE('',#585,4.E-1);
#591=CIRCLE('',#590,1.213333333333E1);
#596=CIRCLE('',#595,1.213333333333E1);
#605=CIRCLE('',#604,1.118333333333E1);
#610=CIRCLE('',#609,1.118333333333E1);
#615=CIRCLE('',#614,1.213333333333E1);
#636=CIRCLE('',#635,1.175833333333E1);
#641=CIRCLE('',#640,1.118333333333E1);
#646=CIRCLE('',#645,1.118333333333E1);
#655=CIRCLE('',#654,1.175833333333E1);
#668=CIRCLE('',#667,1.175833333333E1);
#673=CIRCLE('',#672,1.175833333333E1);
#678=CIRCLE('',#677,9.1E0);
#683=CIRCLE('',#682,9.1E0);
#688=CIRCLE('',#687,6.E-1);
#693=CIRCLE('',#692,8.5E0);
#698=CIRCLE('',#697,6.E-1);
#703=CIRCLE('',#702,8.5E0);
#712=CIRCLE('',#711,6.E-1);
#717=CIRCLE('',#716,8.5E0);
#722=CIRCLE('',#721,8.5E0);
#727=CIRCLE('',#726,6.E-1);
#736=CIRCLE('',#735,1.175833333333E1);
#741=CIRCLE('',#740,1.175833333333E1);
#746=CIRCLE('',#745,9.1E0);
#751=CIRCLE('',#750,9.1E0);
#768=CIRCLE('',#767,1.175833333333E1);
#773=CIRCLE('',#772,1.118333333333E1);
#778=CIRCLE('',#777,1.118333333333E1);
#787=CIRCLE('',#786,1.175833333333E1);
#800=CIRCLE('',#799,1.118333333333E1);
#805=CIRCLE('',#804,1.118333333333E1);
#810=CIRCLE('',#809,1.213333333333E1);
#819=CIRCLE('',#818,1.213333333333E1);
#981=EDGE_CURVE('',#826,#827,#208,.T.);
#983=EDGE_CURVE('',#827,#829,#213,.T.);
#985=EDGE_CURVE('',#831,#829,#218,.T.);
#987=EDGE_CURVE('',#826,#831,#238,.T.);
#997=EDGE_CURVE('',#831,#826,#243,.T.);
#1000=EDGE_CURVE('',#829,#827,#223,.T.);
#1011=EDGE_CURVE('',#834,#835,#228,.T.);
#1013=EDGE_CURVE('',#835,#834,#233,.T.);
#1027=EDGE_CURVE('',#837,#835,#248,.T.);
#1030=EDGE_CURVE('',#839,#834,#263,.T.);
#1032=EDGE_CURVE('',#839,#837,#253,.T.);
#1042=EDGE_CURVE('',#837,#839,#258,.T.);
#1056=EDGE_CURVE('',#837,#841,#267,.T.);
#1058=EDGE_CURVE('',#843,#841,#286,.T.);
#1060=EDGE_CURVE('',#839,#843,#271,.T.);
#1071=EDGE_CURVE('',#841,#843,#291,.T.);
#1083=EDGE_CURVE('',#846,#847,#276,.T.);
#1085=EDGE_CURVE('',#847,#846,#281,.T.);
#1100=EDGE_CURVE('',#846,#849,#295,.T.);
#1102=EDGE_CURVE('',#851,#849,#327,.T.);
#1104=EDGE_CURVE('',#847,#851,#299,.T.);
#1115=EDGE_CURVE('',#849,#851,#308,.T.);
#1127=EDGE_CURVE('',#853,#849,#303,.T.);
#1130=EDGE_CURVE('',#855,#851,#322,.T.);
#1132=EDGE_CURVE('',#855,#853,#313,.T.);
#1142=EDGE_CURVE('',#853,#855,#318,.T.);
#1155=EDGE_CURVE('',#882,#883,#332,.T.);
#1157=EDGE_CURVE('',#855,#883,#353,.T.);
#1160=EDGE_CURVE('',#853,#882,#336,.T.);
#1171=EDGE_CURVE('',#867,#882,#344,.T.);
#1173=EDGE_CURVE('',#866,#867,#368,.T.);
#1175=EDGE_CURVE('',#866,#883,#340,.T.);
#1185=EDGE_CURVE('',#882,#883,#349,.T.);
#1188=EDGE_CURVE('',#867,#866,#373,.T.);
#1211=EDGE_CURVE('',#858,#859,#358,.T.);
#1213=EDGE_CURVE('',#859,#858,#363,.T.);
#1228=EDGE_CURVE('',#858,#861,#378,.T.);
#1230=EDGE_CURVE('',#861,#863,#383,.T.);
#1232=EDGE_CURVE('',#859,#863,#388,.T.);
#1243=EDGE_CURVE('',#863,#861,#393,.T.);
#1255=EDGE_CURVE('',#863,#869,#397,.T.);
#1257=EDGE_CURVE('',#871,#869,#421,.T.);
#1259=EDGE_CURVE('',#861,#871,#401,.T.);
#1272=EDGE_CURVE('',#869,#871,#406,.T.);
#1284=EDGE_CURVE('',#871,#873,#411,.T.);
#1286=EDGE_CURVE('',#875,#873,#426,.T.);
#1288=EDGE_CURVE('',#869,#875,#416,.T.);
#1299=EDGE_CURVE('',#873,#875,#431,.T.);
#1315=EDGE_CURVE('',#878,#879,#436,.T.);
#1317=EDGE_CURVE('',#879,#878,#441,.T.);
#1327=EDGE_CURVE('',#918,#919,#446,.T.);
#1329=EDGE_CURVE('',#919,#879,#450,.T.);
#1332=EDGE_CURVE('',#918,#878,#477,.T.);
#1343=EDGE_CURVE('',#886,#918,#468,.T.);
#1345=EDGE_CURVE('',#886,#887,#455,.T.);
#1347=EDGE_CURVE('',#887,#919,#459,.T.);
#1357=EDGE_CURVE('',#919,#918,#473,.T.);
#1360=EDGE_CURVE('',#887,#886,#464,.T.);
#1384=EDGE_CURVE('',#887,#889,#481,.T.);
#1386=EDGE_CURVE('',#889,#891,#486,.T.);
#1388=EDGE_CURVE('',#886,#891,#490,.T.);
#1399=EDGE_CURVE('',#891,#889,#495,.T.);
#1411=EDGE_CURVE('',#893,#889,#499,.T.);
#1414=EDGE_CURVE('',#895,#891,#503,.T.);
#1416=EDGE_CURVE('',#893,#895,#508,.T.);
#1426=EDGE_CURVE('',#895,#893,#513,.T.);
#1443=EDGE_CURVE('',#898,#899,#518,.T.);
#1445=EDGE_CURVE('',#899,#898,#523,.T.);
#1455=EDGE_CURVE('',#901,#899,#527,.T.);
#1458=EDGE_CURVE('',#903,#898,#531,.T.);
#1460=EDGE_CURVE('',#901,#903,#551,.T.);
#1470=EDGE_CURVE('',#903,#901,#536,.T.);
#1484=EDGE_CURVE('',#901,#905,#541,.T.);
#1486=EDGE_CURVE('',#907,#905,#556,.T.);
#1488=EDGE_CURVE('',#903,#907,#546,.T.);
#1499=EDGE_CURVE('',#905,#907,#561,.T.);
#1515=EDGE_CURVE('',#910,#911,#566,.T.);
#1517=EDGE_CURVE('',#911,#910,#571,.T.);
#1528=EDGE_CURVE('',#910,#913,#576,.T.);
#1530=EDGE_CURVE('',#913,#915,#581,.T.);
#1532=EDGE_CURVE('',#911,#915,#586,.T.);
#1543=EDGE_CURVE('',#915,#913,#591,.T.);
#1555=EDGE_CURVE('',#974,#975,#596,.T.);
#1557=EDGE_CURVE('',#975,#913,#600,.T.);
#1560=EDGE_CURVE('',#974,#915,#619,.T.);
#1571=EDGE_CURVE('',#975,#974,#615,.T.);
#1575=EDGE_CURVE('',#966,#967,#605,.T.);
#1577=EDGE_CURVE('',#967,#966,#610,.T.);
#1600=EDGE_CURVE('',#966,#963,#623,.T.);
#1602=EDGE_CURVE('',#962,#963,#646,.T.);
#1604=EDGE_CURVE('',#967,#962,#627,.T.);
#1615=EDGE_CURVE('',#963,#962,#641,.T.);
#1627=EDGE_CURVE('',#962,#959,#631,.T.);
#1629=EDGE_CURVE('',#959,#958,#636,.T.);
#1631=EDGE_CURVE('',#963,#958,#650,.T.);
#1644=EDGE_CURVE('',#958,#959,#655,.T.);
#1656=EDGE_CURVE('',#958,#955,#659,.T.);
#1658=EDGE_CURVE('',#954,#955,#668,.T.);
#1660=EDGE_CURVE('',#959,#954,#663,.T.);
#1671=EDGE_CURVE('',#955,#954,#673,.T.);
#1687=EDGE_CURVE('',#951,#949,#678,.T.);
#1689=EDGE_CURVE('',#949,#951,#683,.T.);
#1700=EDGE_CURVE('',#951,#947,#688,.T.);
#1702=EDGE_CURVE('',#947,#945,#693,.T.);
#1704=EDGE_CURVE('',#949,#945,#698,.T.);
#1715=EDGE_CURVE('',#945,#947,#703,.T.);
#1727=EDGE_CURVE('',#943,#942,#717,.T.);
#1729=EDGE_CURVE('',#943,#947,#707,.T.);
#1732=EDGE_CURVE('',#942,#945,#731,.T.);
#1742=EDGE_CURVE('',#942,#938,#712,.T.);
#1744=EDGE_CURVE('',#939,#938,#751,.T.);
#1746=EDGE_CURVE('',#943,#939,#727,.T.);
#1757=EDGE_CURVE('',#942,#943,#722,.T.);
#1760=EDGE_CURVE('',#938,#939,#746,.T.);
#1783=EDGE_CURVE('',#935,#933,#736,.T.);
#1785=EDGE_CURVE('',#933,#935,#741,.T.);
#1800=EDGE_CURVE('',#935,#931,#755,.T.);
#1802=EDGE_CURVE('',#929,#931,#787,.T.);
#1804=EDGE_CURVE('',#933,#929,#759,.T.);
#1815=EDGE_CURVE('',#931,#929,#768,.T.);
#1827=EDGE_CURVE('',#926,#931,#763,.T.);
#1830=EDGE_CURVE('',#927,#929,#782,.T.);
#1832=EDGE_CURVE('',#927,#926,#773,.T.);
#1842=EDGE_CURVE('',#926,#927,#778,.T.);
#1856=EDGE_CURVE('',#926,#923,#791,.T.);
#1858=EDGE_CURVE('',#922,#923,#800,.T.);
#1860=EDGE_CURVE('',#927,#922,#795,.T.);
#1871=EDGE_CURVE('',#923,#922,#805,.T.);
#1883=EDGE_CURVE('',#970,#971,#810,.T.);
#1885=EDGE_CURVE('',#971,#970,#819,.T.);
#1900=EDGE_CURVE('',#971,#829,#814,.T.);
#1903=EDGE_CURVE('',#970,#827,#823,.T.);
#1922=(LENGTH_UNIT()NAMED_UNIT(*)SI_UNIT(.MILLI.,.METRE.));
#1924=(NAMED_UNIT(*)PLANE_ANGLE_UNIT()SI_UNIT($,.RADIAN.));
#1927=(NAMED_UNIT(*)SI_UNIT($,.STERADIAN.)SOLID_ANGLE_UNIT());
#1930=ADVANCED_BREP_SHAPE_REPRESENTATION('',(#1921),#1929);
#1937=PRODUCT_DEFINITION('design','',#1936,#1933);
#1938=PRODUCT_DEFINITION_SHAPE('','SHAPE FOR 6203ZZ_-_EA040.',#1937);
#1939=SHAPE_DEFINITION_REPRESENTATION(#1938,#1930);
ENDSEC;
END-ISO-10303-21;
