ISO-10303-21;
HEADER;
FILE_DESCRIPTION((''),'2;1');
FILE_NAME('MR128ZZ_SW0001','2025-12-19T16:57:41',('qinghui.yi'),(''),
'CREO PARAMETRIC BY PTC INC, 2019164','CREO PARAMETRIC BY PTC INC, 2019164','');
FILE_SCHEMA(('CONFIG_CONTROL_DESIGN','SHAPE_APPEARANCE_LAYERS_GROUPS'));
ENDSEC;
DATA;
#204=CARTESIAN_POINT('',(1.575E0,0.E0,0.E0));
#205=DIRECTION('',(-1.E0,0.E0,0.E0));
#206=DIRECTION('',(0.E0,0.E0,1.E0));
#207=AXIS2_PLACEMENT_3D('',#204,#205,#206);
#209=CARTESIAN_POINT('',(1.575E0,0.E0,4.175E0));
#210=DIRECTION('',(0.E0,1.E0,0.E0));
#211=DIRECTION('',(1.E0,0.E0,0.E0));
#212=AXIS2_PLACEMENT_3D('',#209,#210,#211);
#214=DIRECTION('',(1.E0,0.E0,0.E0));
#215=VECTOR('',#214,3.15E0);
#216=CARTESIAN_POINT('',(-1.575E0,0.E0,-4.E0));
#217=LINE('',#216,#215);
#218=DIRECTION('',(1.E0,0.E0,0.E0));
#219=VECTOR('',#218,3.15E0);
#220=CARTESIAN_POINT('',(-1.575E0,0.E0,4.E0));
#221=LINE('',#220,#219);
#222=CARTESIAN_POINT('',(1.575E0,0.E0,-4.175E0));
#223=DIRECTION('',(0.E0,-1.E0,0.E0));
#224=DIRECTION('',(1.E0,0.E0,0.E0));
#225=AXIS2_PLACEMENT_3D('',#222,#223,#224);
#227=CARTESIAN_POINT('',(1.575E0,0.E0,0.E0));
#228=DIRECTION('',(-1.E0,0.E0,0.E0));
#229=DIRECTION('',(0.E0,0.E0,-1.E0));
#230=AXIS2_PLACEMENT_3D('',#227,#228,#229);
#232=CARTESIAN_POINT('',(1.75E0,0.E0,0.E0));
#233=DIRECTION('',(1.E0,0.E0,0.E0));
#234=DIRECTION('',(0.E0,0.E0,-1.E0));
#235=AXIS2_PLACEMENT_3D('',#232,#233,#234);
#237=CARTESIAN_POINT('',(1.75E0,0.E0,0.E0));
#238=DIRECTION('',(1.E0,0.E0,0.E0));
#239=DIRECTION('',(0.E0,0.E0,1.E0));
#240=AXIS2_PLACEMENT_3D('',#237,#238,#239);
#242=CARTESIAN_POINT('',(1.75E0,0.E0,0.E0));
#243=DIRECTION('',(-1.E0,0.E0,0.E0));
#244=DIRECTION('',(0.E0,0.E0,1.E0));
#245=AXIS2_PLACEMENT_3D('',#242,#243,#244);
#247=CARTESIAN_POINT('',(1.75E0,0.E0,0.E0));
#248=DIRECTION('',(-1.E0,0.E0,0.E0));
#249=DIRECTION('',(0.E0,0.E0,-1.E0));
#250=AXIS2_PLACEMENT_3D('',#247,#248,#249);
#252=CARTESIAN_POINT('',(1.575E0,0.E0,0.E0));
#253=DIRECTION('',(-1.E0,0.E0,0.E0));
#254=DIRECTION('',(0.E0,0.E0,1.E0));
#255=AXIS2_PLACEMENT_3D('',#252,#253,#254);
#257=DIRECTION('',(1.E0,0.E0,0.E0));
#258=VECTOR('',#257,1.75E-1);
#259=CARTESIAN_POINT('',(1.575E0,0.E0,4.7E0));
#260=LINE('',#259,#258);
#261=CARTESIAN_POINT('',(1.575E0,0.E0,0.E0));
#262=DIRECTION('',(-1.E0,0.E0,0.E0));
#263=DIRECTION('',(0.E0,0.E0,1.E0));
#264=AXIS2_PLACEMENT_3D('',#261,#262,#263);
#266=CARTESIAN_POINT('',(1.575E0,0.E0,0.E0));
#267=DIRECTION('',(-1.E0,0.E0,0.E0));
#268=DIRECTION('',(0.E0,0.E0,-1.E0));
#269=AXIS2_PLACEMENT_3D('',#266,#267,#268);
#271=DIRECTION('',(1.E0,0.E0,0.E0));
#272=VECTOR('',#271,1.75E-1);
#273=CARTESIAN_POINT('',(1.575E0,0.E0,-5.3E0));
#274=LINE('',#273,#272);
#275=DIRECTION('',(1.E0,0.E0,0.E0));
#276=VECTOR('',#275,1.75E-1);
#277=CARTESIAN_POINT('',(1.575E0,0.E0,5.3E0));
#278=LINE('',#277,#276);
#279=CARTESIAN_POINT('',(1.75E0,0.E0,0.E0));
#280=DIRECTION('',(1.E0,0.E0,0.E0));
#281=DIRECTION('',(0.E0,0.E0,1.E0));
#282=AXIS2_PLACEMENT_3D('',#279,#280,#281);
#284=CARTESIAN_POINT('',(1.75E0,0.E0,0.E0));
#285=DIRECTION('',(1.E0,0.E0,0.E0));
#286=DIRECTION('',(0.E0,0.E0,-1.E0));
#287=AXIS2_PLACEMENT_3D('',#284,#285,#286);
#289=CARTESIAN_POINT('',(1.75E0,0.E0,0.E0));
#290=DIRECTION('',(-1.E0,0.E0,0.E0));
#291=DIRECTION('',(0.E0,0.E0,1.E0));
#292=AXIS2_PLACEMENT_3D('',#289,#290,#291);
#294=CARTESIAN_POINT('',(1.75E0,0.E0,0.E0));
#295=DIRECTION('',(-1.E0,0.E0,0.E0));
#296=DIRECTION('',(0.E0,0.E0,-1.E0));
#297=AXIS2_PLACEMENT_3D('',#294,#295,#296);
#299=CARTESIAN_POINT('',(1.575E0,0.E0,-5.825E0));
#300=DIRECTION('',(0.E0,-1.E0,0.E0));
#301=DIRECTION('',(0.E0,0.E0,-1.E0));
#302=AXIS2_PLACEMENT_3D('',#299,#300,#301);
#304=CARTESIAN_POINT('',(1.575E0,0.E0,0.E0));
#305=DIRECTION('',(1.E0,0.E0,0.E0));
#306=DIRECTION('',(0.E0,0.E0,1.E0));
#307=AXIS2_PLACEMENT_3D('',#304,#305,#306);
#309=CARTESIAN_POINT('',(1.575E0,0.E0,5.825E0));
#310=DIRECTION('',(0.E0,1.E0,0.E0));
#311=DIRECTION('',(0.E0,0.E0,1.E0));
#312=AXIS2_PLACEMENT_3D('',#309,#310,#311);
#314=CARTESIAN_POINT('',(1.575E0,0.E0,0.E0));
#315=DIRECTION('',(1.E0,0.E0,0.E0));
#316=DIRECTION('',(0.E0,0.E0,-1.E0));
#317=AXIS2_PLACEMENT_3D('',#314,#315,#316);
#319=DIRECTION('',(1.E0,0.E0,0.E0));
#320=VECTOR('',#319,3.15E0);
#321=CARTESIAN_POINT('',(-1.575E0,0.E0,6.E0));
#322=LINE('',#321,#320);
#323=DIRECTION('',(1.E0,0.E0,0.E0));
#324=VECTOR('',#323,3.15E0);
#325=CARTESIAN_POINT('',(-1.575E0,0.E0,-6.E0));
#326=LINE('',#325,#324);
#327=CARTESIAN_POINT('',(-1.575E0,0.E0,-5.825E0));
#328=DIRECTION('',(0.E0,-1.E0,0.E0));
#329=DIRECTION('',(-1.E0,0.E0,0.E0));
#330=AXIS2_PLACEMENT_3D('',#327,#328,#329);
#332=CARTESIAN_POINT('',(-1.575E0,0.E0,0.E0));
#333=DIRECTION('',(-1.E0,0.E0,0.E0));
#334=DIRECTION('',(0.E0,0.E0,-1.E0));
#335=AXIS2_PLACEMENT_3D('',#332,#333,#334);
#337=CARTESIAN_POINT('',(-1.575E0,0.E0,0.E0));
#338=DIRECTION('',(-1.E0,0.E0,0.E0));
#339=DIRECTION('',(0.E0,0.E0,1.E0));
#340=AXIS2_PLACEMENT_3D('',#337,#338,#339);
#342=CARTESIAN_POINT('',(-1.575E0,0.E0,5.825E0));
#343=DIRECTION('',(0.E0,1.E0,0.E0));
#344=DIRECTION('',(-1.E0,0.E0,0.E0));
#345=AXIS2_PLACEMENT_3D('',#342,#343,#344);
#347=CARTESIAN_POINT('',(-1.75E0,0.E0,0.E0));
#348=DIRECTION('',(-1.E0,0.E0,0.E0));
#349=DIRECTION('',(0.E0,0.E0,1.E0));
#350=AXIS2_PLACEMENT_3D('',#347,#348,#349);
#352=CARTESIAN_POINT('',(-1.75E0,0.E0,0.E0));
#353=DIRECTION('',(-1.E0,0.E0,0.E0));
#354=DIRECTION('',(0.E0,0.E0,-1.E0));
#355=AXIS2_PLACEMENT_3D('',#352,#353,#354);
#357=CARTESIAN_POINT('',(-1.75E0,0.E0,0.E0));
#358=DIRECTION('',(1.E0,0.E0,0.E0));
#359=DIRECTION('',(0.E0,0.E0,-1.E0));
#360=AXIS2_PLACEMENT_3D('',#357,#358,#359);
#362=CARTESIAN_POINT('',(-1.75E0,0.E0,0.E0));
#363=DIRECTION('',(1.E0,0.E0,0.E0));
#364=DIRECTION('',(0.E0,0.E0,1.E0));
#365=AXIS2_PLACEMENT_3D('',#362,#363,#364);
#367=DIRECTION('',(1.E0,0.E0,0.E0));
#368=VECTOR('',#367,1.75E-1);
#369=CARTESIAN_POINT('',(-1.75E0,0.E0,-5.3E0));
#370=LINE('',#369,#368);
#371=CARTESIAN_POINT('',(-1.575E0,0.E0,0.E0));
#372=DIRECTION('',(-1.E0,0.E0,0.E0));
#373=DIRECTION('',(0.E0,0.E0,-1.E0));
#374=AXIS2_PLACEMENT_3D('',#371,#372,#373);
#376=CARTESIAN_POINT('',(-1.575E0,0.E0,0.E0));
#377=DIRECTION('',(-1.E0,0.E0,0.E0));
#378=DIRECTION('',(0.E0,0.E0,1.E0));
#379=AXIS2_PLACEMENT_3D('',#376,#377,#378);
#381=DIRECTION('',(1.E0,0.E0,0.E0));
#382=VECTOR('',#381,1.75E-1);
#383=CARTESIAN_POINT('',(-1.75E0,0.E0,5.3E0));
#384=LINE('',#383,#382);
#385=CARTESIAN_POINT('',(-1.575E0,0.E0,0.E0));
#386=DIRECTION('',(-1.E0,0.E0,0.E0));
#387=DIRECTION('',(0.E0,0.E0,-1.E0));
#388=AXIS2_PLACEMENT_3D('',#385,#386,#387);
#390=DIRECTION('',(1.E0,0.E0,0.E0));
#391=VECTOR('',#390,1.75E-1);
#392=CARTESIAN_POINT('',(-1.75E0,0.E0,-4.7E0));
#393=LINE('',#392,#391);
#394=CARTESIAN_POINT('',(-1.575E0,0.E0,0.E0));
#395=DIRECTION('',(-1.E0,0.E0,0.E0));
#396=DIRECTION('',(0.E0,0.E0,1.E0));
#397=AXIS2_PLACEMENT_3D('',#394,#395,#396);
#399=DIRECTION('',(1.E0,0.E0,0.E0));
#400=VECTOR('',#399,1.75E-1);
#401=CARTESIAN_POINT('',(-1.75E0,0.E0,4.7E0));
#402=LINE('',#401,#400);
#403=CARTESIAN_POINT('',(-1.75E0,0.E0,0.E0));
#404=DIRECTION('',(-1.E0,0.E0,0.E0));
#405=DIRECTION('',(0.E0,0.E0,1.E0));
#406=AXIS2_PLACEMENT_3D('',#403,#404,#405);
#408=CARTESIAN_POINT('',(-1.75E0,0.E0,0.E0));
#409=DIRECTION('',(-1.E0,0.E0,0.E0));
#410=DIRECTION('',(0.E0,0.E0,-1.E0));
#411=AXIS2_PLACEMENT_3D('',#408,#409,#410);
#413=CARTESIAN_POINT('',(-1.75E0,0.E0,0.E0));
#414=DIRECTION('',(1.E0,0.E0,0.E0));
#415=DIRECTION('',(0.E0,0.E0,1.E0));
#416=AXIS2_PLACEMENT_3D('',#413,#414,#415);
#418=CARTESIAN_POINT('',(-1.75E0,0.E0,0.E0));
#419=DIRECTION('',(1.E0,0.E0,0.E0));
#420=DIRECTION('',(0.E0,0.E0,-1.E0));
#421=AXIS2_PLACEMENT_3D('',#418,#419,#420);
#423=CARTESIAN_POINT('',(-1.575E0,0.E0,-4.175E0));
#424=DIRECTION('',(0.E0,-1.E0,0.E0));
#425=DIRECTION('',(0.E0,0.E0,1.E0));
#426=AXIS2_PLACEMENT_3D('',#423,#424,#425);
#428=CARTESIAN_POINT('',(-1.575E0,0.E0,0.E0));
#429=DIRECTION('',(1.E0,0.E0,0.E0));
#430=DIRECTION('',(0.E0,0.E0,1.E0));
#431=AXIS2_PLACEMENT_3D('',#428,#429,#430);
#433=CARTESIAN_POINT('',(-1.575E0,0.E0,4.175E0));
#434=DIRECTION('',(0.E0,1.E0,0.E0));
#435=DIRECTION('',(0.E0,0.E0,-1.E0));
#436=AXIS2_PLACEMENT_3D('',#433,#434,#435);
#438=CARTESIAN_POINT('',(-1.575E0,0.E0,0.E0));
#439=DIRECTION('',(1.E0,0.E0,0.E0));
#440=DIRECTION('',(0.E0,0.E0,-1.E0));
#441=AXIS2_PLACEMENT_3D('',#438,#439,#440);
#443=CARTESIAN_POINT('',(1.575E0,0.E0,0.E0));
#444=DIRECTION('',(-1.E0,0.E0,0.E0));
#445=DIRECTION('',(0.E0,0.E0,-1.E0));
#446=AXIS2_PLACEMENT_3D('',#443,#444,#445);
#448=DIRECTION('',(1.E0,0.E0,0.E0));
#449=VECTOR('',#448,1.75E-1);
#450=CARTESIAN_POINT('',(1.575E0,0.E0,-4.7E0));
#451=LINE('',#450,#449);
#452=CARTESIAN_POINT('',(-1.575E0,0.E0,4.E0));
#453=CARTESIAN_POINT('',(1.575E0,0.E0,4.E0));
#454=VERTEX_POINT('',#452);
#455=VERTEX_POINT('',#453);
#456=CARTESIAN_POINT('',(1.575E0,0.E0,-4.E0));
#457=VERTEX_POINT('',#456);
#458=CARTESIAN_POINT('',(1.75E0,0.E0,-4.175E0));
#459=CARTESIAN_POINT('',(1.75E0,0.E0,4.175E0));
#460=VERTEX_POINT('',#458);
#461=VERTEX_POINT('',#459);
#462=CARTESIAN_POINT('',(-1.575E0,0.E0,-4.E0));
#463=VERTEX_POINT('',#462);
#464=CARTESIAN_POINT('',(1.75E0,0.E0,-4.7E0));
#465=CARTESIAN_POINT('',(1.75E0,0.E0,4.7E0));
#466=VERTEX_POINT('',#464);
#467=VERTEX_POINT('',#465);
#468=CARTESIAN_POINT('',(-1.75E0,0.E0,4.175E0));
#469=VERTEX_POINT('',#468);
#470=CARTESIAN_POINT('',(-1.75E0,0.E0,-4.7E0));
#471=CARTESIAN_POINT('',(-1.75E0,0.E0,4.7E0));
#472=VERTEX_POINT('',#470);
#473=VERTEX_POINT('',#471);
#474=CARTESIAN_POINT('',(-1.75E0,0.E0,-4.175E0));
#475=VERTEX_POINT('',#474);
#476=CARTESIAN_POINT('',(-1.575E0,0.E0,-4.7E0));
#477=CARTESIAN_POINT('',(-1.575E0,0.E0,4.7E0));
#478=VERTEX_POINT('',#476);
#479=VERTEX_POINT('',#477);
#480=CARTESIAN_POINT('',(1.575E0,0.E0,4.7E0));
#481=CARTESIAN_POINT('',(1.575E0,0.E0,-4.7E0));
#482=VERTEX_POINT('',#480);
#483=VERTEX_POINT('',#481);
#484=CARTESIAN_POINT('',(1.575E0,0.E0,-6.E0));
#485=CARTESIAN_POINT('',(1.575E0,0.E0,6.E0));
#486=VERTEX_POINT('',#484);
#487=VERTEX_POINT('',#485);
#488=CARTESIAN_POINT('',(-1.75E0,0.E0,5.3E0));
#489=CARTESIAN_POINT('',(-1.75E0,0.E0,-5.3E0));
#490=VERTEX_POINT('',#488);
#491=VERTEX_POINT('',#489);
#492=CARTESIAN_POINT('',(-1.75E0,0.E0,-5.825E0));
#493=CARTESIAN_POINT('',(-1.75E0,0.E0,5.825E0));
#494=VERTEX_POINT('',#492);
#495=VERTEX_POINT('',#493);
#496=CARTESIAN_POINT('',(-1.575E0,0.E0,-6.E0));
#497=VERTEX_POINT('',#496);
#498=CARTESIAN_POINT('',(-1.575E0,0.E0,6.E0));
#499=VERTEX_POINT('',#498);
#500=CARTESIAN_POINT('',(1.75E0,0.E0,-5.825E0));
#501=VERTEX_POINT('',#500);
#502=CARTESIAN_POINT('',(1.75E0,0.E0,5.825E0));
#503=VERTEX_POINT('',#502);
#504=CARTESIAN_POINT('',(1.75E0,0.E0,5.3E0));
#505=CARTESIAN_POINT('',(1.75E0,0.E0,-5.3E0));
#506=VERTEX_POINT('',#504);
#507=VERTEX_POINT('',#505);
#508=CARTESIAN_POINT('',(-1.575E0,0.E0,-5.3E0));
#509=CARTESIAN_POINT('',(-1.575E0,0.E0,5.3E0));
#510=VERTEX_POINT('',#508);
#511=VERTEX_POINT('',#509);
#512=CARTESIAN_POINT('',(1.575E0,0.E0,5.3E0));
#513=CARTESIAN_POINT('',(1.575E0,0.E0,-5.3E0));
#514=VERTEX_POINT('',#512);
#515=VERTEX_POINT('',#513);
#516=CARTESIAN_POINT('',(1.575E0,0.E0,0.E0));
#517=DIRECTION('',(-1.E0,0.E0,0.E0));
#518=DIRECTION('',(0.E0,0.E0,1.E0));
#519=AXIS2_PLACEMENT_3D('',#516,#517,#518);
#520=TOROIDAL_SURFACE('',#519,4.175E0,1.75E-1);
#522=ORIENTED_EDGE('',*,*,#521,.F.);
#524=ORIENTED_EDGE('',*,*,#523,.F.);
#526=ORIENTED_EDGE('',*,*,#525,.T.);
#528=ORIENTED_EDGE('',*,*,#527,.T.);
#529=EDGE_LOOP('',(#522,#524,#526,#528));
#530=FACE_OUTER_BOUND('',#529,.F.);
#531=ADVANCED_FACE('',(#530),#520,.T.);
#532=CARTESIAN_POINT('',(-1.245726711451E1,0.E0,0.E0));
#533=DIRECTION('',(-1.E0,0.E0,0.E0));
#534=DIRECTION('',(0.E0,0.E0,1.E0));
#535=AXIS2_PLACEMENT_3D('',#532,#533,#534);
#536=CYLINDRICAL_SURFACE('',#535,4.E0);
#538=ORIENTED_EDGE('',*,*,#537,.F.);
#540=ORIENTED_EDGE('',*,*,#539,.T.);
#542=ORIENTED_EDGE('',*,*,#541,.T.);
#543=ORIENTED_EDGE('',*,*,#521,.T.);
#544=EDGE_LOOP('',(#538,#540,#542,#543));
#545=FACE_OUTER_BOUND('',#544,.F.);
#546=ADVANCED_FACE('',(#545),#536,.F.);
#547=CARTESIAN_POINT('',(-1.245726711451E1,0.E0,0.E0));
#548=DIRECTION('',(-1.E0,0.E0,0.E0));
#549=DIRECTION('',(0.E0,0.E0,1.E0));
#550=AXIS2_PLACEMENT_3D('',#547,#548,#549);
#551=CYLINDRICAL_SURFACE('',#550,4.E0);
#553=ORIENTED_EDGE('',*,*,#552,.T.);
#554=ORIENTED_EDGE('',*,*,#541,.F.);
#556=ORIENTED_EDGE('',*,*,#555,.T.);
#557=ORIENTED_EDGE('',*,*,#537,.T.);
#558=EDGE_LOOP('',(#553,#554,#556,#557));
#559=FACE_OUTER_BOUND('',#558,.F.);
#560=ADVANCED_FACE('',(#559),#551,.F.);
#561=CARTESIAN_POINT('',(1.575E0,0.E0,0.E0));
#562=DIRECTION('',(-1.E0,0.E0,0.E0));
#563=DIRECTION('',(0.E0,0.E0,1.E0));
#564=AXIS2_PLACEMENT_3D('',#561,#562,#563);
#565=TOROIDAL_SURFACE('',#564,4.175E0,1.75E-1);
#566=ORIENTED_EDGE('',*,*,#527,.F.);
#568=ORIENTED_EDGE('',*,*,#567,.T.);
#569=ORIENTED_EDGE('',*,*,#523,.T.);
#570=ORIENTED_EDGE('',*,*,#552,.F.);
#571=EDGE_LOOP('',(#566,#568,#569,#570));
#572=FACE_OUTER_BOUND('',#571,.F.);
#573=ADVANCED_FACE('',(#572),#565,.T.);
#574=CARTESIAN_POINT('',(1.75E0,0.E0,0.E0));
#575=DIRECTION('',(-1.E0,0.E0,0.E0));
#576=DIRECTION('',(0.E0,0.E0,1.E0));
#577=AXIS2_PLACEMENT_3D('',#574,#575,#576);
#578=PLANE('',#577);
#580=ORIENTED_EDGE('',*,*,#579,.F.);
#582=ORIENTED_EDGE('',*,*,#581,.F.);
#583=EDGE_LOOP('',(#580,#582));
#584=FACE_OUTER_BOUND('',#583,.F.);
#585=ORIENTED_EDGE('',*,*,#525,.F.);
#586=ORIENTED_EDGE('',*,*,#567,.F.);
#587=EDGE_LOOP('',(#585,#586));
#588=FACE_BOUND('',#587,.F.);
#589=ADVANCED_FACE('',(#584,#588),#578,.F.);
#590=CARTESIAN_POINT('',(-1.245726711451E1,0.E0,0.E0));
#591=DIRECTION('',(-1.E0,0.E0,0.E0));
#592=DIRECTION('',(0.E0,0.E0,1.E0));
#593=AXIS2_PLACEMENT_3D('',#590,#591,#592);
#594=CYLINDRICAL_SURFACE('',#593,4.7E0);
#596=ORIENTED_EDGE('',*,*,#595,.T.);
#598=ORIENTED_EDGE('',*,*,#597,.T.);
#599=ORIENTED_EDGE('',*,*,#579,.T.);
#601=ORIENTED_EDGE('',*,*,#600,.F.);
#602=EDGE_LOOP('',(#596,#598,#599,#601));
#603=FACE_OUTER_BOUND('',#602,.F.);
#604=ADVANCED_FACE('',(#603),#594,.T.);
#605=CARTESIAN_POINT('',(1.575E0,0.E0,0.E0));
#606=DIRECTION('',(1.E0,0.E0,0.E0));
#607=DIRECTION('',(0.E0,1.E0,0.E0));
#608=AXIS2_PLACEMENT_3D('',#605,#606,#607);
#609=PLANE('',#608);
#611=ORIENTED_EDGE('',*,*,#610,.T.);
#613=ORIENTED_EDGE('',*,*,#612,.T.);
#614=EDGE_LOOP('',(#611,#613));
#615=FACE_OUTER_BOUND('',#614,.F.);
#616=ORIENTED_EDGE('',*,*,#595,.F.);
#618=ORIENTED_EDGE('',*,*,#617,.F.);
#619=EDGE_LOOP('',(#616,#618));
#620=FACE_BOUND('',#619,.F.);
#621=ADVANCED_FACE('',(#615,#620),#609,.T.);
#622=CARTESIAN_POINT('',(-1.245726711451E1,0.E0,0.E0));
#623=DIRECTION('',(-1.E0,0.E0,0.E0));
#624=DIRECTION('',(0.E0,0.E0,1.E0));
#625=AXIS2_PLACEMENT_3D('',#622,#623,#624);
#626=CYLINDRICAL_SURFACE('',#625,5.3E0);
#627=ORIENTED_EDGE('',*,*,#610,.F.);
#629=ORIENTED_EDGE('',*,*,#628,.T.);
#631=ORIENTED_EDGE('',*,*,#630,.T.);
#633=ORIENTED_EDGE('',*,*,#632,.F.);
#634=EDGE_LOOP('',(#627,#629,#631,#633));
#635=FACE_OUTER_BOUND('',#634,.F.);
#636=ADVANCED_FACE('',(#635),#626,.F.);
#637=CARTESIAN_POINT('',(-1.245726711451E1,0.E0,0.E0));
#638=DIRECTION('',(-1.E0,0.E0,0.E0));
#639=DIRECTION('',(0.E0,0.E0,1.E0));
#640=AXIS2_PLACEMENT_3D('',#637,#638,#639);
#641=CYLINDRICAL_SURFACE('',#640,5.3E0);
#642=ORIENTED_EDGE('',*,*,#612,.F.);
#643=ORIENTED_EDGE('',*,*,#632,.T.);
#645=ORIENTED_EDGE('',*,*,#644,.T.);
#646=ORIENTED_EDGE('',*,*,#628,.F.);
#647=EDGE_LOOP('',(#642,#643,#645,#646));
#648=FACE_OUTER_BOUND('',#647,.F.);
#649=ADVANCED_FACE('',(#648),#641,.F.);
#650=CARTESIAN_POINT('',(1.75E0,0.E0,0.E0));
#651=DIRECTION('',(-1.E0,0.E0,0.E0));
#652=DIRECTION('',(0.E0,0.E0,1.E0));
#653=AXIS2_PLACEMENT_3D('',#650,#651,#652);
#654=PLANE('',#653);
#656=ORIENTED_EDGE('',*,*,#655,.F.);
#658=ORIENTED_EDGE('',*,*,#657,.F.);
#659=EDGE_LOOP('',(#656,#658));
#660=FACE_OUTER_BOUND('',#659,.F.);
#661=ORIENTED_EDGE('',*,*,#630,.F.);
#662=ORIENTED_EDGE('',*,*,#644,.F.);
#663=EDGE_LOOP('',(#661,#662));
#664=FACE_BOUND('',#663,.F.);
#665=ADVANCED_FACE('',(#660,#664),#654,.F.);
#666=CARTESIAN_POINT('',(1.575E0,0.E0,0.E0));
#667=DIRECTION('',(-1.E0,0.E0,0.E0));
#668=DIRECTION('',(0.E0,0.E0,1.E0));
#669=AXIS2_PLACEMENT_3D('',#666,#667,#668);
#670=TOROIDAL_SURFACE('',#669,5.825E0,1.75E-1);
#672=ORIENTED_EDGE('',*,*,#671,.F.);
#674=ORIENTED_EDGE('',*,*,#673,.F.);
#676=ORIENTED_EDGE('',*,*,#675,.T.);
#677=ORIENTED_EDGE('',*,*,#655,.T.);
#678=EDGE_LOOP('',(#672,#674,#676,#677));
#679=FACE_OUTER_BOUND('',#678,.F.);
#680=ADVANCED_FACE('',(#679),#670,.T.);
#681=CARTESIAN_POINT('',(1.575E0,0.E0,0.E0));
#682=DIRECTION('',(-1.E0,0.E0,0.E0));
#683=DIRECTION('',(0.E0,0.E0,1.E0));
#684=AXIS2_PLACEMENT_3D('',#681,#682,#683);
#685=TOROIDAL_SURFACE('',#684,5.825E0,1.75E-1);
#686=ORIENTED_EDGE('',*,*,#657,.T.);
#687=ORIENTED_EDGE('',*,*,#675,.F.);
#689=ORIENTED_EDGE('',*,*,#688,.F.);
#690=ORIENTED_EDGE('',*,*,#671,.T.);
#691=EDGE_LOOP('',(#686,#687,#689,#690));
#692=FACE_OUTER_BOUND('',#691,.F.);
#693=ADVANCED_FACE('',(#692),#685,.T.);
#694=CARTESIAN_POINT('',(-1.245726711451E1,0.E0,0.E0));
#695=DIRECTION('',(-1.E0,0.E0,0.E0));
#696=DIRECTION('',(0.E0,0.E0,1.E0));
#697=AXIS2_PLACEMENT_3D('',#694,#695,#696);
#698=CYLINDRICAL_SURFACE('',#697,6.E0);
#699=ORIENTED_EDGE('',*,*,#688,.T.);
#701=ORIENTED_EDGE('',*,*,#700,.F.);
#703=ORIENTED_EDGE('',*,*,#702,.T.);
#705=ORIENTED_EDGE('',*,*,#704,.T.);
#706=EDGE_LOOP('',(#699,#701,#703,#705));
#707=FACE_OUTER_BOUND('',#706,.F.);
#708=ADVANCED_FACE('',(#707),#698,.T.);
#709=CARTESIAN_POINT('',(-1.245726711451E1,0.E0,0.E0));
#710=DIRECTION('',(-1.E0,0.E0,0.E0));
#711=DIRECTION('',(0.E0,0.E0,1.E0));
#712=AXIS2_PLACEMENT_3D('',#709,#710,#711);
#713=CYLINDRICAL_SURFACE('',#712,6.E0);
#714=ORIENTED_EDGE('',*,*,#704,.F.);
#716=ORIENTED_EDGE('',*,*,#715,.T.);
#717=ORIENTED_EDGE('',*,*,#700,.T.);
#718=ORIENTED_EDGE('',*,*,#673,.T.);
#719=EDGE_LOOP('',(#714,#716,#717,#718));
#720=FACE_OUTER_BOUND('',#719,.F.);
#721=ADVANCED_FACE('',(#720),#713,.T.);
#722=CARTESIAN_POINT('',(-1.575E0,0.E0,0.E0));
#723=DIRECTION('',(-1.E0,0.E0,0.E0));
#724=DIRECTION('',(0.E0,0.E0,1.E0));
#725=AXIS2_PLACEMENT_3D('',#722,#723,#724);
#726=TOROIDAL_SURFACE('',#725,5.825E0,1.75E-1);
#728=ORIENTED_EDGE('',*,*,#727,.F.);
#730=ORIENTED_EDGE('',*,*,#729,.T.);
#732=ORIENTED_EDGE('',*,*,#731,.T.);
#733=ORIENTED_EDGE('',*,*,#715,.F.);
#734=EDGE_LOOP('',(#728,#730,#732,#733));
#735=FACE_OUTER_BOUND('',#734,.F.);
#736=ADVANCED_FACE('',(#735),#726,.T.);
#737=CARTESIAN_POINT('',(-1.575E0,0.E0,0.E0));
#738=DIRECTION('',(-1.E0,0.E0,0.E0));
#739=DIRECTION('',(0.E0,0.E0,1.E0));
#740=AXIS2_PLACEMENT_3D('',#737,#738,#739);
#741=TOROIDAL_SURFACE('',#740,5.825E0,1.75E-1);
#742=ORIENTED_EDGE('',*,*,#702,.F.);
#743=ORIENTED_EDGE('',*,*,#731,.F.);
#745=ORIENTED_EDGE('',*,*,#744,.T.);
#746=ORIENTED_EDGE('',*,*,#727,.T.);
#747=EDGE_LOOP('',(#742,#743,#745,#746));
#748=FACE_OUTER_BOUND('',#747,.F.);
#749=ADVANCED_FACE('',(#748),#741,.T.);
#750=CARTESIAN_POINT('',(-1.75E0,0.E0,0.E0));
#751=DIRECTION('',(-1.E0,0.E0,0.E0));
#752=DIRECTION('',(0.E0,0.E0,1.E0));
#753=AXIS2_PLACEMENT_3D('',#750,#751,#752);
#754=PLANE('',#753);
#755=ORIENTED_EDGE('',*,*,#744,.F.);
#756=ORIENTED_EDGE('',*,*,#729,.F.);
#757=EDGE_LOOP('',(#755,#756));
#758=FACE_OUTER_BOUND('',#757,.F.);
#760=ORIENTED_EDGE('',*,*,#759,.F.);
#762=ORIENTED_EDGE('',*,*,#761,.F.);
#763=EDGE_LOOP('',(#760,#762));
#764=FACE_BOUND('',#763,.F.);
#765=ADVANCED_FACE('',(#758,#764),#754,.T.);
#766=CARTESIAN_POINT('',(-1.245726711451E1,0.E0,0.E0));
#767=DIRECTION('',(-1.E0,0.E0,0.E0));
#768=DIRECTION('',(0.E0,0.E0,1.E0));
#769=AXIS2_PLACEMENT_3D('',#766,#767,#768);
#770=CYLINDRICAL_SURFACE('',#769,5.3E0);
#772=ORIENTED_EDGE('',*,*,#771,.T.);
#774=ORIENTED_EDGE('',*,*,#773,.F.);
#775=ORIENTED_EDGE('',*,*,#759,.T.);
#777=ORIENTED_EDGE('',*,*,#776,.T.);
#778=EDGE_LOOP('',(#772,#774,#775,#777));
#779=FACE_OUTER_BOUND('',#778,.F.);
#780=ADVANCED_FACE('',(#779),#770,.F.);
#781=CARTESIAN_POINT('',(-1.575E0,0.E0,0.E0));
#782=DIRECTION('',(1.E0,0.E0,0.E0));
#783=DIRECTION('',(0.E0,1.E0,0.E0));
#784=AXIS2_PLACEMENT_3D('',#781,#782,#783);
#785=PLANE('',#784);
#787=ORIENTED_EDGE('',*,*,#786,.F.);
#788=ORIENTED_EDGE('',*,*,#771,.F.);
#789=EDGE_LOOP('',(#787,#788));
#790=FACE_OUTER_BOUND('',#789,.F.);
#792=ORIENTED_EDGE('',*,*,#791,.T.);
#794=ORIENTED_EDGE('',*,*,#793,.T.);
#795=EDGE_LOOP('',(#792,#794));
#796=FACE_BOUND('',#795,.F.);
#797=ADVANCED_FACE('',(#790,#796),#785,.F.);
#798=CARTESIAN_POINT('',(-1.245726711451E1,0.E0,0.E0));
#799=DIRECTION('',(-1.E0,0.E0,0.E0));
#800=DIRECTION('',(0.E0,0.E0,1.E0));
#801=AXIS2_PLACEMENT_3D('',#798,#799,#800);
#802=CYLINDRICAL_SURFACE('',#801,5.3E0);
#803=ORIENTED_EDGE('',*,*,#786,.T.);
#804=ORIENTED_EDGE('',*,*,#776,.F.);
#805=ORIENTED_EDGE('',*,*,#761,.T.);
#806=ORIENTED_EDGE('',*,*,#773,.T.);
#807=EDGE_LOOP('',(#803,#804,#805,#806));
#808=FACE_OUTER_BOUND('',#807,.F.);
#809=ADVANCED_FACE('',(#808),#802,.F.);
#810=CARTESIAN_POINT('',(-1.245726711451E1,0.E0,0.E0));
#811=DIRECTION('',(-1.E0,0.E0,0.E0));
#812=DIRECTION('',(0.E0,0.E0,1.E0));
#813=AXIS2_PLACEMENT_3D('',#810,#811,#812);
#814=CYLINDRICAL_SURFACE('',#813,4.7E0);
#815=ORIENTED_EDGE('',*,*,#791,.F.);
#817=ORIENTED_EDGE('',*,*,#816,.F.);
#819=ORIENTED_EDGE('',*,*,#818,.T.);
#821=ORIENTED_EDGE('',*,*,#820,.T.);
#822=EDGE_LOOP('',(#815,#817,#819,#821));
#823=FACE_OUTER_BOUND('',#822,.F.);
#824=ADVANCED_FACE('',(#823),#814,.T.);
#825=CARTESIAN_POINT('',(-1.245726711451E1,0.E0,0.E0));
#826=DIRECTION('',(-1.E0,0.E0,0.E0));
#827=DIRECTION('',(0.E0,0.E0,1.E0));
#828=AXIS2_PLACEMENT_3D('',#825,#826,#827);
#829=CYLINDRICAL_SURFACE('',#828,4.7E0);
#830=ORIENTED_EDGE('',*,*,#793,.F.);
#831=ORIENTED_EDGE('',*,*,#820,.F.);
#833=ORIENTED_EDGE('',*,*,#832,.T.);
#834=ORIENTED_EDGE('',*,*,#816,.T.);
#835=EDGE_LOOP('',(#830,#831,#833,#834));
#836=FACE_OUTER_BOUND('',#835,.F.);
#837=ADVANCED_FACE('',(#836),#829,.T.);
#838=CARTESIAN_POINT('',(-1.75E0,0.E0,0.E0));
#839=DIRECTION('',(-1.E0,0.E0,0.E0));
#840=DIRECTION('',(0.E0,0.E0,1.E0));
#841=AXIS2_PLACEMENT_3D('',#838,#839,#840);
#842=PLANE('',#841);
#843=ORIENTED_EDGE('',*,*,#832,.F.);
#844=ORIENTED_EDGE('',*,*,#818,.F.);
#845=EDGE_LOOP('',(#843,#844));
#846=FACE_OUTER_BOUND('',#845,.F.);
#848=ORIENTED_EDGE('',*,*,#847,.F.);
#850=ORIENTED_EDGE('',*,*,#849,.F.);
#851=EDGE_LOOP('',(#848,#850));
#852=FACE_BOUND('',#851,.F.);
#853=ADVANCED_FACE('',(#846,#852),#842,.T.);
#854=CARTESIAN_POINT('',(-1.575E0,0.E0,0.E0));
#855=DIRECTION('',(-1.E0,0.E0,0.E0));
#856=DIRECTION('',(0.E0,0.E0,1.E0));
#857=AXIS2_PLACEMENT_3D('',#854,#855,#856);
#858=TOROIDAL_SURFACE('',#857,4.175E0,1.75E-1);
#860=ORIENTED_EDGE('',*,*,#859,.F.);
#861=ORIENTED_EDGE('',*,*,#555,.F.);
#863=ORIENTED_EDGE('',*,*,#862,.T.);
#864=ORIENTED_EDGE('',*,*,#847,.T.);
#865=EDGE_LOOP('',(#860,#861,#863,#864));
#866=FACE_OUTER_BOUND('',#865,.F.);
#867=ADVANCED_FACE('',(#866),#858,.T.);
#868=CARTESIAN_POINT('',(-1.575E0,0.E0,0.E0));
#869=DIRECTION('',(-1.E0,0.E0,0.E0));
#870=DIRECTION('',(0.E0,0.E0,1.E0));
#871=AXIS2_PLACEMENT_3D('',#868,#869,#870);
#872=TOROIDAL_SURFACE('',#871,4.175E0,1.75E-1);
#873=ORIENTED_EDGE('',*,*,#849,.T.);
#874=ORIENTED_EDGE('',*,*,#862,.F.);
#875=ORIENTED_EDGE('',*,*,#539,.F.);
#876=ORIENTED_EDGE('',*,*,#859,.T.);
#877=EDGE_LOOP('',(#873,#874,#875,#876));
#878=FACE_OUTER_BOUND('',#877,.F.);
#879=ADVANCED_FACE('',(#878),#872,.T.);
#880=CARTESIAN_POINT('',(-1.245726711451E1,0.E0,0.E0));
#881=DIRECTION('',(-1.E0,0.E0,0.E0));
#882=DIRECTION('',(0.E0,0.E0,1.E0));
#883=AXIS2_PLACEMENT_3D('',#880,#881,#882);
#884=CYLINDRICAL_SURFACE('',#883,4.7E0);
#885=ORIENTED_EDGE('',*,*,#617,.T.);
#886=ORIENTED_EDGE('',*,*,#600,.T.);
#887=ORIENTED_EDGE('',*,*,#581,.T.);
#888=ORIENTED_EDGE('',*,*,#597,.F.);
#889=EDGE_LOOP('',(#885,#886,#887,#888));
#890=FACE_OUTER_BOUND('',#889,.F.);
#891=ADVANCED_FACE('',(#890),#884,.T.);
#892=CLOSED_SHELL('',(#531,#546,#560,#573,#589,#604,#621,#636,#649,#665,#680,
#693,#708,#721,#736,#749,#765,#780,#797,#809,#824,#837,#853,#867,#879,#891));
#893=MANIFOLD_SOLID_BREP('',#892);
#895=DIMENSIONAL_EXPONENTS(0.E0,0.E0,0.E0,0.E0,0.E0,0.E0,0.E0);
#897=PLANE_ANGLE_MEASURE_WITH_UNIT(PLANE_ANGLE_MEASURE(1.745329251994E-2),#896);
#898=(CONVERSION_BASED_UNIT('DEGREE',#897)NAMED_UNIT(*)PLANE_ANGLE_UNIT());
#900=UNCERTAINTY_MEASURE_WITH_UNIT(LENGTH_MEASURE(5.E-3),#894,'closure',
'Maximum model space distance between geometric entities at asserted connectivities');
#901=(GEOMETRIC_REPRESENTATION_CONTEXT(3)GLOBAL_UNCERTAINTY_ASSIGNED_CONTEXT((
#900))GLOBAL_UNIT_ASSIGNED_CONTEXT((#894,#898,#899))REPRESENTATION_CONTEXT
('ID1','3'));
#903=APPLICATION_CONTEXT(
'CONFIGURATION CONTROLLED 3D DESIGNS OF MECHANICAL PARTS AND ASSEMBLIES');
#904=APPLICATION_PROTOCOL_DEFINITION('international standard',
'config_control_design',1994,#903);
#905=DESIGN_CONTEXT('',#903,'design');
#906=MECHANICAL_CONTEXT('',#903,'mechanical');
#907=PRODUCT('MR128ZZ_SW0001','MR128ZZ_SW0001','NOT SPECIFIED',(#906));
#908=PRODUCT_DEFINITION_FORMATION_WITH_SPECIFIED_SOURCE('1','LAST_VERSION',#907,
.MADE.);
#912=PRODUCT_CATEGORY('part','');
#913=PRODUCT_RELATED_PRODUCT_CATEGORY('detail','',(#907));
#914=PRODUCT_CATEGORY_RELATIONSHIP('','',#912,#913);
#915=SECURITY_CLASSIFICATION_LEVEL('unclassified');
#916=SECURITY_CLASSIFICATION('','',#915);
#917=CC_DESIGN_SECURITY_CLASSIFICATION(#916,(#908));
#918=APPROVAL_STATUS('approved');
#919=APPROVAL(#918,'');
#920=CC_DESIGN_APPROVAL(#919,(#916,#908,#909));
#921=CALENDAR_DATE(125,19,12);
#922=COORDINATED_UNIVERSAL_TIME_OFFSET(8,0,.AHEAD.);
#923=LOCAL_TIME(16,57,4.1E1,#922);
#924=DATE_AND_TIME(#921,#923);
#925=APPROVAL_DATE_TIME(#924,#919);
#926=DATE_TIME_ROLE('creation_date');
#927=CC_DESIGN_DATE_AND_TIME_ASSIGNMENT(#924,#926,(#909));
#928=DATE_TIME_ROLE('classification_date');
#929=CC_DESIGN_DATE_AND_TIME_ASSIGNMENT(#924,#928,(#916));
#930=PERSON('UNSPECIFIED','UNSPECIFIED',$,$,$,$);
#931=ORGANIZATION('UNSPECIFIED','UNSPECIFIED','UNSPECIFIED');
#932=PERSON_AND_ORGANIZATION(#930,#931);
#933=APPROVAL_ROLE('approver');
#934=APPROVAL_PERSON_ORGANIZATION(#932,#919,#933);
#935=PERSON_AND_ORGANIZATION_ROLE('creator');
#936=CC_DESIGN_PERSON_AND_ORGANIZATION_ASSIGNMENT(#932,#935,(#908,#909));
#937=PERSON_AND_ORGANIZATION_ROLE('design_supplier');
#938=CC_DESIGN_PERSON_AND_ORGANIZATION_ASSIGNMENT(#932,#937,(#908));
#939=PERSON_AND_ORGANIZATION_ROLE('classification_officer');
#940=CC_DESIGN_PERSON_AND_ORGANIZATION_ASSIGNMENT(#932,#939,(#916));
#941=PERSON_AND_ORGANIZATION_ROLE('design_owner');
#942=CC_DESIGN_PERSON_AND_ORGANIZATION_ASSIGNMENT(#932,#941,(#907));
#1=DRAUGHTING_PRE_DEFINED_COLOUR('black');
#2=COLOUR_RGB('',0.E0,0.E0,4.7E-1);
#3=COLOUR_RGB('',0.E0,0.E0,6.E-1);
#4=COLOUR_RGB('',0.E0,0.E0,8.E-1);
#5=COLOUR_RGB('',0.E0,2.745098039216E-2,7.019607843137E-1);
#6=COLOUR_RGB('',0.E0,3.137254901961E-2,3.411764705882E-1);
#7=COLOUR_RGB('',0.E0,2.E-1,1.E0);
#8=COLOUR_RGB('',0.E0,3.3E-1,0.E0);
#9=COLOUR_RGB('',0.E0,3.3E-1,3.3E-1);
#10=COLOUR_RGB('',0.E0,4.E-1,0.E0);
#11=COLOUR_RGB('',0.E0,4.E-1,4.E-1);
#12=COLOUR_RGB('',0.E0,4.E-1,1.E0);
#13=COLOUR_RGB('',0.E0,5.019607843137E-1,5.019607843137E-1);
#14=COLOUR_RGB('',0.E0,6.E-1,0.E0);
#15=COLOUR_RGB('',0.E0,6.E-1,6.E-1);
#16=COLOUR_RGB('',0.E0,6.E-1,1.E0);
#17=COLOUR_RGB('',0.E0,8.E-1,0.E0);
#18=COLOUR_RGB('',0.E0,8.E-1,8.E-1);
#19=COLOUR_RGB('',0.E0,8.E-1,1.E0);
#20=COLOUR_RGB('',0.E0,9.3E-1,0.E0);
#21=COLOUR_RGB('',0.E0,9.3E-1,9.3E-1);
#22=DRAUGHTING_PRE_DEFINED_COLOUR('green');
#23=COLOUR_RGB('',0.E0,1.E0,2.E-1);
#24=COLOUR_RGB('',0.E0,1.E0,4.E-1);
#25=COLOUR_RGB('',0.E0,1.E0,6.E-1);
#26=COLOUR_RGB('',0.E0,1.E0,8.E-1);
#27=DRAUGHTING_PRE_DEFINED_COLOUR('cyan');
#28=COLOUR_RGB('',3.1E-2,2.E-1,6.27E-1);
#29=COLOUR_RGB('',3.529411764706E-2,5.137254901961E-1,1.725490196078E-1);
#30=COLOUR_RGB('',6.6667E-2,5.17647E-1,6.39216E-1);
#31=COLOUR_RGB('',7.E-2,7.E-2,1.E0);
#32=COLOUR_RGB('',7.E-2,6.E-1,3.E-1);
#33=COLOUR_RGB('',8.E-2,1.E-1,1.1E-1);
#34=COLOUR_RGB('',9.803921568627E-2,9.803921568627E-2,4.392156862745E-1);
#35=COLOUR_RGB('',1.019607843137E-1,6.313725490196E-1,5.019607843137E-1);
#36=COLOUR_RGB('',1.176470588235E-1,5.647058823529E-1,1.E0);
#37=COLOUR_RGB('',1.254901960784E-1,6.980392156863E-1,6.666666666667E-1);
#38=COLOUR_RGB('',1.333333333333E-1,5.450980392157E-1,1.333333333333E-1);
#39=COLOUR_RGB('',1.450980392157E-1,3.529411764706E-2,0.E0);
#40=COLOUR_RGB('',1.686274509804E-1,1.686274509804E-1,1.803921568627E-1);
#41=COLOUR_RGB('',1.803921568627E-1,5.450980392157E-1,3.411764705882E-1);
#42=COLOUR_RGB('',1.9E-1,2.3E-1,3.1E-1);
#43=COLOUR_RGB('',1.960784313725E-1,8.039215686275E-1,1.960784313725E-1);
#44=COLOUR_RGB('',2.E-1,1.E0,0.E0);
#45=COLOUR_RGB('',2.E-1,1.E0,2.E-1);
#46=COLOUR_RGB('',2.E-1,1.E0,1.E0);
#47=COLOUR_RGB('',2.313725490196E-1,3.803921568627E-1,5.607843137255E-1);
#48=COLOUR_RGB('',2.352941176471E-1,7.019607843137E-1,4.431372549020E-1);
#49=COLOUR_RGB('',2.431372549020E-1,8.784313725490E-1,8.156862745098E-1);
#50=COLOUR_RGB('',2.470588235294E-1,5.921568627451E-1,6.313725490196E-1);
#51=COLOUR_RGB('',2.5098E-1,2.35294E-1,8.62745E-1);
#52=COLOUR_RGB('',2.549019607843E-1,4.117647058824E-1,1.E0);
#53=COLOUR_RGB('',2.58824E-1,7.80392E-1,8.86275E-1);
#54=COLOUR_RGB('',2.7E-1,0.E0,4.E-1);
#55=COLOUR_RGB('',2.7E-1,2.7E-1,0.E0);
#56=COLOUR_RGB('',2.7E-1,2.7E-1,1.E0);
#57=COLOUR_RGB('',2.745098039216E-1,5.098039215686E-1,7.058823529412E-1);
#58=COLOUR_RGB('',2.784313725490E-1,2.784313725490E-1,2.784313725490E-1);
#59=COLOUR_RGB('',2.823529411765E-1,2.392156862745E-1,5.450980392157E-1);
#60=COLOUR_RGB('',3.13725E-1,4.70588E-1,1.96078E-1);
#61=COLOUR_RGB('',3.2549E-1,4.98039E-1,9.84314E-1);
#62=COLOUR_RGB('',3.254901960784E-1,5.764705882353E-1,8.117647058824E-1);
#63=COLOUR_RGB('',3.3E-1,0.E0,0.E0);
#64=COLOUR_RGB('',3.3E-1,0.E0,3.3E-1);
#65=COLOUR_RGB('',3.3E-1,0.E0,5.3E-1);
#66=COLOUR_RGB('',3.450980392157E-1,3.647058823529E-1,3.725490196078E-1);
#67=COLOUR_RGB('',3.725490196078E-1,6.196078431373E-1,6.274509803922E-1);
#68=COLOUR_RGB('',3.803921568627E-1,4.392156862745E-1,5.960784313725E-1);
#69=COLOUR_RGB('',3.882352941176E-1,4.392156862745E-1,4.901960784314E-1);
#70=COLOUR_RGB('',3.921568627451E-1,5.843137254902E-1,9.294117647059E-1);
#71=COLOUR_RGB('',3.96078E-1,7.13725E-1,1.E0);
#72=COLOUR_RGB('',4.E-1,0.E0,4.E-1);
#73=COLOUR_RGB('',4.E-1,0.E0,6.7E-1);
#74=COLOUR_RGB('',4.E-1,1.3E-1,0.E0);
#75=COLOUR_RGB('',4.E-1,4.E-1,0.E0);
#76=COLOUR_RGB('',4.E-1,4.E-1,1.E0);
#77=COLOUR_RGB('',4.E-1,8.039215686275E-1,6.666666666667E-1);
#78=COLOUR_RGB('',4.E-1,1.E0,0.E0);
#79=COLOUR_RGB('',4.E-1,1.E0,4.E-1);
#80=COLOUR_RGB('',4.E-1,1.E0,1.E0);
#81=COLOUR_RGB('',4.156862745098E-1,3.529411764706E-1,8.039215686275E-1);
#82=COLOUR_RGB('',4.196078431373E-1,5.568627450980E-1,1.372549019608E-1);
#83=COLOUR_RGB('',4.666666666667E-1,5.333333333333E-1,6.E-1);
#84=COLOUR_RGB('',4.7E-1,0.E0,0.E0);
#85=COLOUR_RGB('',4.7E-1,0.E0,8.E-1);
#86=COLOUR_RGB('',4.7E-1,2.E-1,7.E-2);
#87=COLOUR_RGB('',4.823529411765E-1,4.078431372549E-1,9.333333333333E-1);
#88=COLOUR_RGB('',4.980392156863E-1,1.E0,8.313725490196E-1);
#89=COLOUR_RGB('',5.019607843137E-1,0.E0,5.019607843137E-1);
#90=COLOUR_RGB('',5.019607843137E-1,5.019607843137E-1,0.E0);
#91=COLOUR_RGB('',5.01961E-1,5.01961E-1,5.01961E-1);
#92=COLOUR_RGB('',5.098039215686E-1,3.960784313725E-1,1.058823529412E-1);
#93=COLOUR_RGB('',5.3E-1,0.E0,9.3E-1);
#94=COLOUR_RGB('',5.3E-1,2.7E-1,1.3E-1);
#95=COLOUR_RGB('',5.3E-1,5.3E-1,1.E0);
#96=COLOUR_RGB('',5.294117647059E-1,8.078431372549E-1,9.215686274510E-1);
#97=COLOUR_RGB('',5.411764705882E-1,1.686274509804E-1,8.862745098039E-1);
#98=COLOUR_RGB('',5.5E-1,6.5E-1,7.3E-1);
#99=COLOUR_RGB('',5.607843137255E-1,7.372549019608E-1,5.607843137255E-1);
#100=COLOUR_RGB('',5.68627E-1,9.37255E-1,9.37255E-1);
#101=COLOUR_RGB('',5.725490196078E-1,6.117647058824E-1,6.313725490196E-1);
#102=COLOUR_RGB('',5.764705882353E-1,4.392156862745E-1,8.588235294118E-1);
#103=COLOUR_RGB('',5.803921568627E-1,0.E0,8.274509803922E-1);
#104=COLOUR_RGB('',5.88235E-1,2.35294E-1,1.56863E-1);
#105=COLOUR_RGB('',6.E-1,0.E0,6.E-1);
#106=COLOUR_RGB('',6.E-1,1.960784313725E-1,8.E-1);
#107=COLOUR_RGB('',6.E-1,2.E-1,1.E0);
#108=COLOUR_RGB('',6.E-1,3.3E-1,2.E-1);
#109=COLOUR_RGB('',6.E-1,6.E-1,0.E0);
#110=COLOUR_RGB('',6.E-1,1.E0,6.E-1);
#111=COLOUR_RGB('',6.E-1,1.E0,1.E0);
#112=COLOUR_RGB('',6.27451E-1,4.70588E-1,3.52941E-1);
#113=COLOUR_RGB('',6.627450980392E-1,6.627450980392E-1,6.627450980392E-1);
#114=COLOUR_RGB('',6.66667E-1,8.23529E-1,1.96078E-1);
#115=COLOUR_RGB('',6.66667E-1,8.23529E-1,5.88235E-1);
#116=COLOUR_RGB('',6.7E-1,0.E0,0.E0);
#117=COLOUR_RGB('',6.7E-1,4.E-1,2.7E-1);
#118=COLOUR_RGB('',6.7E-1,4.E-1,1.E0);
#119=COLOUR_RGB('',6.7E-1,6.7E-1,1.E0);
#120=COLOUR_RGB('',6.7E-1,1.E0,0.E0);
#121=COLOUR_RGB('',6.784313725490E-1,8.117647058824E-1,1.E0);
#122=COLOUR_RGB('',6.784313725490E-1,8.470588235294E-1,9.019607843137E-1);
#123=COLOUR_RGB('',6.784313725490E-1,1.E0,1.843137254902E-1);
#124=COLOUR_RGB('',6.862745098039E-1,6.823529411765E-1,7.607843137255E-1);
#125=COLOUR_RGB('',6.980392156863E-1,1.333333333333E-1,1.333333333333E-1);
#126=COLOUR_RGB('',7.17647E-1,1.68627E-1,4.43137E-1);
#127=COLOUR_RGB('',7.215686274510E-1,5.254901960784E-1,4.313725490196E-2);
#128=COLOUR_RGB('',7.294117647059E-1,2.705882352941E-1,1.E0);
#129=COLOUR_RGB('',7.294117647059E-1,3.333333333333E-1,8.274509803922E-1);
#130=COLOUR_RGB('',7.294117647059E-1,4.E-1,0.E0);
#131=COLOUR_RGB('',7.3E-1,4.7E-1,3.3E-1);
#132=COLOUR_RGB('',7.372549019608E-1,5.607843137255E-1,5.607843137255E-1);
#133=COLOUR_RGB('',7.411764705882E-1,7.176470588235E-1,4.196078431373E-1);
#134=COLOUR_RGB('',7.803921568627E-1,8.235294117647E-2,5.215686274510E-1);
#135=COLOUR_RGB('',8.E-1,0.E0,8.E-1);
#136=COLOUR_RGB('',8.E-1,5.3E-1,4.E-1);
#137=COLOUR_RGB('',8.E-1,6.E-1,1.E0);
#138=COLOUR_RGB('',8.E-1,8.E-1,0.E0);
#139=COLOUR_RGB('',8.E-1,8.E-1,1.E0);
#140=COLOUR_RGB('',8.E-1,1.E0,8.E-1);
#141=COLOUR_RGB('',8.E-1,1.E0,1.E0);
#142=COLOUR_RGB('',8.039215686275E-1,3.607843137255E-1,3.607843137255E-1);
#143=COLOUR_RGB('',8.03922E-1,5.88235E-1,1.96078E-1);
#144=COLOUR_RGB('',8.196078431373E-1,7.098039215686E-1,5.490196078431E-2);
#145=COLOUR_RGB('',8.235294117647E-1,4.117647058824E-1,1.176470588235E-1);
#146=COLOUR_RGB('',8.235294117647E-1,7.058823529412E-1,5.490196078431E-1);
#147=COLOUR_RGB('',8.274509803922E-1,8.274509803922E-1,8.274509803922E-1);
#148=COLOUR_RGB('',8.392156862745E-1,8.E-1,7.137254901961E-1);
#149=COLOUR_RGB('',8.431372549020E-1,8.980392156863E-1,9.333333333333E-1);
#150=COLOUR_RGB('',8.549019607843E-1,6.470588235294E-1,1.254901960784E-1);
#151=COLOUR_RGB('',8.588235294118E-1,4.392156862745E-1,5.764705882353E-1);
#152=COLOUR_RGB('',8.627450980392E-1,7.843137254902E-2,2.352941176471E-1);
#153=COLOUR_RGB('',8.666666666667E-1,6.274509803922E-1,8.666666666667E-1);
#154=COLOUR_RGB('',8.7E-1,0.E0,0.E0);
#155=COLOUR_RGB('',8.7E-1,6.E-1,4.7E-1);
#156=COLOUR_RGB('',8.98039E-1,6.07843E-1,1.E0);
#157=COLOUR_RGB('',9.E-1,8.3E-1,1.2E-1);
#158=COLOUR_RGB('',9.09804E-1,3.68627E-1,8.19608E-1);
#159=COLOUR_RGB('',9.3E-1,0.E0,9.3E-1);
#160=COLOUR_RGB('',9.3E-1,6.7E-1,5.3E-1);
#161=COLOUR_RGB('',9.3E-1,8.E-1,1.E0);
#162=COLOUR_RGB('',9.3E-1,9.3E-1,0.E0);
#163=COLOUR_RGB('',9.3E-1,1.E0,9.3E-1);
#164=COLOUR_RGB('',9.3E-1,1.E0,1.E0);
#165=COLOUR_RGB('',9.333333333333E-1,5.098039215686E-1,9.333333333333E-1);
#166=COLOUR_RGB('',9.333333333333E-1,9.098039215686E-1,6.666666666667E-1);
#167=COLOUR_RGB('',9.411764705882E-1,9.019607843137E-1,5.490196078431E-1);
#168=COLOUR_RGB('',9.568627450980E-1,6.431372549020E-1,3.764705882353E-1);
#169=DRAUGHTING_PRE_DEFINED_COLOUR('red');
#170=COLOUR_RGB('',1.E0,0.E0,2.705882352941E-1);
#171=COLOUR_RGB('',1.E0,0.E0,4.705882352941E-1);
#172=COLOUR_RGB('',1.E0,0.E0,7.803921568627E-1);
#173=DRAUGHTING_PRE_DEFINED_COLOUR('magenta');
#174=COLOUR_RGB('',1.E0,3.1E-2,3.1E-2);
#175=COLOUR_RGB('',1.E0,7.E-2,7.E-2);
#176=COLOUR_RGB('',1.E0,7.843137254902E-2,5.764705882353E-1);
#177=COLOUR_RGB('',1.E0,2.E-1,1.E0);
#178=COLOUR_RGB('',1.E0,2.7E-1,0.E0);
#179=COLOUR_RGB('',1.E0,2.7E-1,2.7E-1);
#180=COLOUR_RGB('',1.E0,3.882352941176E-1,2.784313725490E-1);
#181=COLOUR_RGB('',1.E0,4.E-1,1.E0);
#182=COLOUR_RGB('',1.E0,4.117647058824E-1,7.058823529412E-1);
#183=COLOUR_RGB('',1.E0,4.7E-1,0.E0);
#184=COLOUR_RGB('',1.E0,4.7E-1,4.7E-1);
#185=COLOUR_RGB('',1.E0,4.980392156863E-1,3.137254901961E-1);
#186=COLOUR_RGB('',1.E0,6.E-1,1.E0);
#187=COLOUR_RGB('',1.E0,6.7E-1,0.E0);
#188=COLOUR_RGB('',1.E0,6.7E-1,6.7E-1);
#189=COLOUR_RGB('',1.E0,7.3E-1,6.E-1);
#190=COLOUR_RGB('',1.E0,7.686274509804E-1,5.882352941176E-2);
#191=COLOUR_RGB('',1.E0,8.E-1,8.E-1);
#192=COLOUR_RGB('',1.E0,8.E-1,1.E0);
#193=COLOUR_RGB('',1.E0,8.7E-1,0.E0);
#194=COLOUR_RGB('',1.E0,9.215686274510E-1,8.039215686275E-1);
#195=COLOUR_RGB('',1.E0,9.3E-1,9.3E-1);
#196=COLOUR_RGB('',1.E0,9.3E-1,1.E0);
#197=DRAUGHTING_PRE_DEFINED_COLOUR('yellow');
#198=COLOUR_RGB('',1.E0,1.E0,1.3E-1);
#199=COLOUR_RGB('',1.E0,1.E0,3.3E-1);
#200=COLOUR_RGB('',1.E0,1.E0,5.3E-1);
#201=COLOUR_RGB('',1.E0,1.E0,7.3E-1);
#202=COLOUR_RGB('',1.E0,1.E0,9.3E-1);
#203=DRAUGHTING_PRE_DEFINED_COLOUR('white');
#208=CIRCLE('',#207,4.E0);
#213=CIRCLE('',#212,1.75E-1);
#226=CIRCLE('',#225,1.75E-1);
#231=CIRCLE('',#230,4.E0);
#236=CIRCLE('',#235,4.7E0);
#241=CIRCLE('',#240,4.7E0);
#246=CIRCLE('',#245,4.175E0);
#251=CIRCLE('',#250,4.175E0);
#256=CIRCLE('',#255,4.7E0);
#265=CIRCLE('',#264,5.3E0);
#270=CIRCLE('',#269,5.3E0);
#283=CIRCLE('',#282,5.825E0);
#288=CIRCLE('',#287,5.825E0);
#293=CIRCLE('',#292,5.3E0);
#298=CIRCLE('',#297,5.3E0);
#303=CIRCLE('',#302,1.75E-1);
#308=CIRCLE('',#307,6.E0);
#313=CIRCLE('',#312,1.75E-1);
#318=CIRCLE('',#317,6.E0);
#331=CIRCLE('',#330,1.75E-1);
#336=CIRCLE('',#335,6.E0);
#341=CIRCLE('',#340,6.E0);
#346=CIRCLE('',#345,1.75E-1);
#351=CIRCLE('',#350,5.825E0);
#356=CIRCLE('',#355,5.825E0);
#361=CIRCLE('',#360,5.3E0);
#366=CIRCLE('',#365,5.3E0);
#375=CIRCLE('',#374,5.3E0);
#380=CIRCLE('',#379,5.3E0);
#389=CIRCLE('',#388,4.7E0);
#398=CIRCLE('',#397,4.7E0);
#407=CIRCLE('',#406,4.7E0);
#412=CIRCLE('',#411,4.7E0);
#417=CIRCLE('',#416,4.175E0);
#422=CIRCLE('',#421,4.175E0);
#427=CIRCLE('',#426,1.75E-1);
#432=CIRCLE('',#431,4.E0);
#437=CIRCLE('',#436,1.75E-1);
#442=CIRCLE('',#441,4.E0);
#447=CIRCLE('',#446,4.7E0);
#521=EDGE_CURVE('',#455,#457,#208,.T.);
#523=EDGE_CURVE('',#461,#455,#213,.T.);
#525=EDGE_CURVE('',#461,#460,#246,.T.);
#527=EDGE_CURVE('',#460,#457,#226,.T.);
#537=EDGE_CURVE('',#463,#457,#217,.T.);
#539=EDGE_CURVE('',#463,#454,#442,.T.);
#541=EDGE_CURVE('',#454,#455,#221,.T.);
#552=EDGE_CURVE('',#457,#455,#231,.T.);
#555=EDGE_CURVE('',#454,#463,#432,.T.);
#567=EDGE_CURVE('',#460,#461,#251,.T.);
#579=EDGE_CURVE('',#466,#467,#236,.T.);
#581=EDGE_CURVE('',#467,#466,#241,.T.);
#595=EDGE_CURVE('',#482,#483,#256,.T.);
#597=EDGE_CURVE('',#483,#466,#451,.T.);
#600=EDGE_CURVE('',#482,#467,#260,.T.);
#610=EDGE_CURVE('',#514,#515,#265,.T.);
#612=EDGE_CURVE('',#515,#514,#270,.T.);
#617=EDGE_CURVE('',#483,#482,#447,.T.);
#628=EDGE_CURVE('',#514,#506,#278,.T.);
#630=EDGE_CURVE('',#506,#507,#293,.T.);
#632=EDGE_CURVE('',#515,#507,#274,.T.);
#644=EDGE_CURVE('',#507,#506,#298,.T.);
#655=EDGE_CURVE('',#503,#501,#283,.T.);
#657=EDGE_CURVE('',#501,#503,#288,.T.);
#671=EDGE_CURVE('',#486,#501,#303,.T.);
#673=EDGE_CURVE('',#487,#486,#308,.T.);
#675=EDGE_CURVE('',#487,#503,#313,.T.);
#688=EDGE_CURVE('',#486,#487,#318,.T.);
#700=EDGE_CURVE('',#499,#487,#322,.T.);
#702=EDGE_CURVE('',#499,#497,#341,.T.);
#704=EDGE_CURVE('',#497,#486,#326,.T.);
#715=EDGE_CURVE('',#497,#499,#336,.T.);
#727=EDGE_CURVE('',#494,#497,#331,.T.);
#729=EDGE_CURVE('',#494,#495,#356,.T.);
#731=EDGE_CURVE('',#495,#499,#346,.T.);
#744=EDGE_CURVE('',#495,#494,#351,.T.);
#759=EDGE_CURVE('',#491,#490,#361,.T.);
#761=EDGE_CURVE('',#490,#491,#366,.T.);
#771=EDGE_CURVE('',#511,#510,#380,.T.);
#773=EDGE_CURVE('',#491,#510,#370,.T.);
#776=EDGE_CURVE('',#490,#511,#384,.T.);
#786=EDGE_CURVE('',#510,#511,#375,.T.);
#791=EDGE_CURVE('',#478,#479,#389,.T.);
#793=EDGE_CURVE('',#479,#478,#398,.T.);
#816=EDGE_CURVE('',#472,#478,#393,.T.);
#818=EDGE_CURVE('',#472,#473,#412,.T.);
#820=EDGE_CURVE('',#473,#479,#402,.T.);
#832=EDGE_CURVE('',#473,#472,#407,.T.);
#847=EDGE_CURVE('',#469,#475,#417,.T.);
#849=EDGE_CURVE('',#475,#469,#422,.T.);
#859=EDGE_CURVE('',#463,#475,#427,.T.);
#862=EDGE_CURVE('',#454,#469,#437,.T.);
#894=(LENGTH_UNIT()NAMED_UNIT(*)SI_UNIT(.MILLI.,.METRE.));
#896=(NAMED_UNIT(*)PLANE_ANGLE_UNIT()SI_UNIT($,.RADIAN.));
#899=(NAMED_UNIT(*)SI_UNIT($,.STERADIAN.)SOLID_ANGLE_UNIT());
#902=ADVANCED_BREP_SHAPE_REPRESENTATION('',(#893),#901);
#909=PRODUCT_DEFINITION('design','',#908,#905);
#910=PRODUCT_DEFINITION_SHAPE('','SHAPE FOR MR128ZZ_SW0001.',#909);
#911=SHAPE_DEFINITION_REPRESENTATION(#910,#902);
ENDSEC;
END-ISO-10303-21;
