ISO-10303-21;
HEADER;
FILE_DESCRIPTION((''),'2;1');
FILE_NAME('6201ZZ_-_EA036','2025-12-19T11:21:27',('qinghui.yi'),(''),
'CREO PARAMETRIC BY PTC INC, 2019164','CREO PARAMETRIC BY PTC INC, 2019164','');
FILE_SCHEMA(('CONFIG_CONTROL_DESIGN','SHAPE_APPEARANCE_LAYERS_GROUPS'));
ENDSEC;
DATA;
#204=CARTESIAN_POINT('',(-4.5E0,0.E0,-9.533333333333E0));
#205=DIRECTION('',(0.E0,1.E0,0.E0));
#206=DIRECTION('',(-1.E0,0.E0,0.E0));
#207=AXIS2_PLACEMENT_3D('',#204,#205,#206);
#209=CARTESIAN_POINT('',(-4.5E0,0.E0,0.E0));
#210=DIRECTION('',(-1.E0,0.E0,0.E0));
#211=DIRECTION('',(0.E0,0.E0,-1.E0));
#212=AXIS2_PLACEMENT_3D('',#209,#210,#211);
#214=CARTESIAN_POINT('',(-4.5E0,0.E0,9.533333333333E0));
#215=DIRECTION('',(0.E0,-1.E0,0.E0));
#216=DIRECTION('',(-1.E0,0.E0,0.E0));
#217=AXIS2_PLACEMENT_3D('',#214,#215,#216);
#219=CARTESIAN_POINT('',(-4.5E0,0.E0,0.E0));
#220=DIRECTION('',(-1.E0,0.E0,0.E0));
#221=DIRECTION('',(0.E0,0.E0,1.E0));
#222=AXIS2_PLACEMENT_3D('',#219,#220,#221);
#224=CARTESIAN_POINT('',(-4.9E0,0.E0,0.E0));
#225=DIRECTION('',(1.E0,0.E0,0.E0));
#226=DIRECTION('',(0.E0,0.E0,-1.E0));
#227=AXIS2_PLACEMENT_3D('',#224,#225,#226);
#229=CARTESIAN_POINT('',(-4.9E0,0.E0,0.E0));
#230=DIRECTION('',(1.E0,0.E0,0.E0));
#231=DIRECTION('',(0.E0,0.E0,1.E0));
#232=AXIS2_PLACEMENT_3D('',#229,#230,#231);
#234=CARTESIAN_POINT('',(-4.9E0,0.E0,0.E0));
#235=DIRECTION('',(-1.E0,0.E0,0.E0));
#236=DIRECTION('',(0.E0,0.E0,1.E0));
#237=AXIS2_PLACEMENT_3D('',#234,#235,#236);
#239=CARTESIAN_POINT('',(-4.9E0,0.E0,0.E0));
#240=DIRECTION('',(-1.E0,0.E0,0.E0));
#241=DIRECTION('',(0.E0,0.E0,-1.E0));
#242=AXIS2_PLACEMENT_3D('',#239,#240,#241);
#244=CARTESIAN_POINT('',(-4.771763212599E0,0.E0,0.E0));
#245=DIRECTION('',(1.E0,0.E0,0.E0));
#246=DIRECTION('',(0.E0,0.E0,-1.E0));
#247=AXIS2_PLACEMENT_3D('',#244,#245,#246);
#249=CARTESIAN_POINT('',(-4.5E0,0.E0,1.174595008159E1));
#250=DIRECTION('',(0.E0,-1.E0,0.E0));
#251=DIRECTION('',(-6.794080315069E-1,0.E0,7.337606740102E-1));
#252=AXIS2_PLACEMENT_3D('',#249,#250,#251);
#254=DIRECTION('',(7.337606740202E-1,0.E0,-6.794080314961E-1));
#255=VECTOR('',#254,1.051791462701E0);
#256=CARTESIAN_POINT('',(-4.771763212601E0,0.E0,-1.203945435119E1));
#257=LINE('',#256,#255);
#258=DIRECTION('',(7.337606740202E-1,0.E0,6.794080314961E-1));
#259=VECTOR('',#258,1.051791462701E0);
#260=CARTESIAN_POINT('',(-4.771763212601E0,0.E0,1.203945435119E1));
#261=LINE('',#260,#259);
#262=CARTESIAN_POINT('',(-4.E0,0.E0,0.E0));
#263=DIRECTION('',(1.E0,0.E0,0.E0));
#264=DIRECTION('',(0.E0,0.E0,-1.E0));
#265=AXIS2_PLACEMENT_3D('',#262,#263,#264);
#267=CARTESIAN_POINT('',(-4.E0,0.E0,0.E0));
#268=DIRECTION('',(1.E0,0.E0,0.E0));
#269=DIRECTION('',(0.E0,0.E0,1.E0));
#270=AXIS2_PLACEMENT_3D('',#267,#268,#269);
#272=CARTESIAN_POINT('',(-4.E0,0.E0,0.E0));
#273=DIRECTION('',(-1.E0,0.E0,0.E0));
#274=DIRECTION('',(0.E0,0.E0,-1.E0));
#275=AXIS2_PLACEMENT_3D('',#272,#273,#274);
#277=CARTESIAN_POINT('',(-4.E0,0.E0,0.E0));
#278=DIRECTION('',(-1.E0,0.E0,0.E0));
#279=DIRECTION('',(0.E0,0.E0,1.E0));
#280=AXIS2_PLACEMENT_3D('',#277,#278,#279);
#282=DIRECTION('',(-1.E0,0.E0,3.072489469397E-12));
#283=VECTOR('',#282,2.867619242045E-1);
#284=CARTESIAN_POINT('',(-4.E0,0.E0,-1.346666666667E1));
#285=LINE('',#284,#283);
#286=DIRECTION('',(-1.E0,0.E0,-3.072489469397E-12));
#287=VECTOR('',#286,2.867619242045E-1);
#288=CARTESIAN_POINT('',(-4.E0,0.E0,1.346666666667E1));
#289=LINE('',#288,#287);
#290=DIRECTION('',(5.144957554252E-1,0.E0,-8.574929257140E-1));
#291=VECTOR('',#290,4.698571136958E-1);
#292=CARTESIAN_POINT('',(-4.528501414857E0,0.E0,-1.306376751558E1));
#293=LINE('',#292,#291);
#294=CARTESIAN_POINT('',(-4.286761924202E0,0.E0,0.E0));
#295=DIRECTION('',(-1.E0,0.E0,0.E0));
#296=DIRECTION('',(0.E0,0.E0,-1.E0));
#297=AXIS2_PLACEMENT_3D('',#294,#295,#296);
#299=CARTESIAN_POINT('',(-4.700000000012E0,0.E0,0.E0));
#300=DIRECTION('',(-1.E0,0.E0,0.E0));
#301=DIRECTION('',(0.E0,0.E0,-1.E0));
#302=AXIS2_PLACEMENT_3D('',#299,#300,#301);
#304=CARTESIAN_POINT('',(-4.528501414858E0,0.E0,0.E0));
#305=DIRECTION('',(-1.E0,0.E0,0.E0));
#306=DIRECTION('',(0.E0,0.E0,-1.E0));
#307=AXIS2_PLACEMENT_3D('',#304,#305,#306);
#309=DIRECTION('',(-8.574929257161E-1,0.E0,5.144957554216E-1));
#310=VECTOR('',#309,2.000000000137E-1);
#311=CARTESIAN_POINT('',(-4.528501414857E0,0.E0,1.306376751558E1));
#312=LINE('',#311,#310);
#313=DIRECTION('',(-1.E0,0.E0,0.E0));
#314=VECTOR('',#313,2.999999999877E-1);
#315=CARTESIAN_POINT('',(-4.700000000012E0,0.E0,1.316666666667E1));
#316=LINE('',#315,#314);
#317=DIRECTION('',(-1.E0,0.E0,0.E0));
#318=VECTOR('',#317,2.999999999877E-1);
#319=CARTESIAN_POINT('',(-4.700000000012E0,0.E0,-1.316666666667E1));
#320=LINE('',#319,#318);
#321=CARTESIAN_POINT('',(-4.700000000012E0,0.E0,0.E0));
#322=DIRECTION('',(-1.E0,0.E0,0.E0));
#323=DIRECTION('',(0.E0,0.E0,1.E0));
#324=AXIS2_PLACEMENT_3D('',#321,#322,#323);
#326=CARTESIAN_POINT('',(-4.528501414858E0,0.E0,0.E0));
#327=DIRECTION('',(-1.E0,0.E0,0.E0));
#328=DIRECTION('',(0.E0,0.E0,1.E0));
#329=AXIS2_PLACEMENT_3D('',#326,#327,#328);
#331=DIRECTION('',(-8.574929257161E-1,0.E0,-5.144957554216E-1));
#332=VECTOR('',#331,2.000000000137E-1);
#333=CARTESIAN_POINT('',(-4.528501414857E0,0.E0,-1.306376751558E1));
#334=LINE('',#333,#332);
#335=DIRECTION('',(5.144957554252E-1,0.E0,8.574929257140E-1));
#336=VECTOR('',#335,4.698571136958E-1);
#337=CARTESIAN_POINT('',(-4.528501414857E0,0.E0,1.306376751558E1));
#338=LINE('',#337,#336);
#339=CARTESIAN_POINT('',(-4.286761924202E0,0.E0,0.E0));
#340=DIRECTION('',(-1.E0,0.E0,0.E0));
#341=DIRECTION('',(0.E0,0.E0,1.E0));
#342=AXIS2_PLACEMENT_3D('',#339,#340,#341);
#344=CARTESIAN_POINT('',(-5.E0,0.E0,0.E0));
#345=DIRECTION('',(1.E0,0.E0,0.E0));
#346=DIRECTION('',(0.E0,0.E0,-1.E0));
#347=AXIS2_PLACEMENT_3D('',#344,#345,#346);
#349=CARTESIAN_POINT('',(-5.E0,0.E0,0.E0));
#350=DIRECTION('',(1.E0,0.E0,0.E0));
#351=DIRECTION('',(0.E0,0.E0,1.E0));
#352=AXIS2_PLACEMENT_3D('',#349,#350,#351);
#354=CARTESIAN_POINT('',(-5.E0,0.E0,0.E0));
#355=DIRECTION('',(-1.E0,0.E0,0.E0));
#356=DIRECTION('',(0.E0,0.E0,1.E0));
#357=AXIS2_PLACEMENT_3D('',#354,#355,#356);
#359=CARTESIAN_POINT('',(-5.E0,0.E0,0.E0));
#360=DIRECTION('',(-1.E0,0.E0,0.E0));
#361=DIRECTION('',(0.E0,0.E0,-1.E0));
#362=AXIS2_PLACEMENT_3D('',#359,#360,#361);
#364=CARTESIAN_POINT('',(-4.4E0,0.E0,0.E0));
#365=DIRECTION('',(1.E0,0.E0,0.E0));
#366=DIRECTION('',(0.E0,0.E0,-1.E0));
#367=AXIS2_PLACEMENT_3D('',#364,#365,#366);
#369=CARTESIAN_POINT('',(-4.4E0,0.E0,1.54E1));
#370=DIRECTION('',(0.E0,-1.E0,0.E0));
#371=DIRECTION('',(0.E0,0.E0,1.E0));
#372=AXIS2_PLACEMENT_3D('',#369,#370,#371);
#374=DIRECTION('',(-1.E0,0.E0,0.E0));
#375=VECTOR('',#374,8.8E0);
#376=CARTESIAN_POINT('',(4.4E0,0.E0,1.6E1));
#377=LINE('',#376,#375);
#378=CARTESIAN_POINT('',(4.4E0,0.E0,1.54E1));
#379=DIRECTION('',(0.E0,-1.E0,0.E0));
#380=DIRECTION('',(1.E0,0.E0,0.E0));
#381=AXIS2_PLACEMENT_3D('',#378,#379,#380);
#383=CARTESIAN_POINT('',(4.4E0,0.E0,0.E0));
#384=DIRECTION('',(-1.E0,0.E0,0.E0));
#385=DIRECTION('',(0.E0,0.E0,1.E0));
#386=AXIS2_PLACEMENT_3D('',#383,#384,#385);
#388=CARTESIAN_POINT('',(5.E0,0.E0,0.E0));
#389=DIRECTION('',(-1.E0,0.E0,0.E0));
#390=DIRECTION('',(0.E0,0.E0,1.E0));
#391=AXIS2_PLACEMENT_3D('',#388,#389,#390);
#393=CARTESIAN_POINT('',(5.E0,0.E0,0.E0));
#394=DIRECTION('',(-1.E0,0.E0,0.E0));
#395=DIRECTION('',(0.E0,0.E0,-1.E0));
#396=AXIS2_PLACEMENT_3D('',#393,#394,#395);
#398=CARTESIAN_POINT('',(5.E0,0.E0,0.E0));
#399=DIRECTION('',(1.E0,0.E0,0.E0));
#400=DIRECTION('',(0.E0,0.E0,-1.E0));
#401=AXIS2_PLACEMENT_3D('',#398,#399,#400);
#403=CARTESIAN_POINT('',(5.E0,0.E0,0.E0));
#404=DIRECTION('',(1.E0,0.E0,0.E0));
#405=DIRECTION('',(0.E0,0.E0,1.E0));
#406=AXIS2_PLACEMENT_3D('',#403,#404,#405);
#408=CARTESIAN_POINT('',(4.4E0,0.E0,-1.54E1));
#409=DIRECTION('',(0.E0,1.E0,0.E0));
#410=DIRECTION('',(1.E0,0.E0,0.E0));
#411=AXIS2_PLACEMENT_3D('',#408,#409,#410);
#413=CARTESIAN_POINT('',(4.4E0,0.E0,0.E0));
#414=DIRECTION('',(-1.E0,0.E0,0.E0));
#415=DIRECTION('',(0.E0,0.E0,-1.E0));
#416=AXIS2_PLACEMENT_3D('',#413,#414,#415);
#418=DIRECTION('',(-1.E0,0.E0,0.E0));
#419=VECTOR('',#418,8.8E0);
#420=CARTESIAN_POINT('',(4.4E0,0.E0,-1.6E1));
#421=LINE('',#420,#419);
#422=CARTESIAN_POINT('',(-4.4E0,0.E0,-1.54E1));
#423=DIRECTION('',(0.E0,1.E0,0.E0));
#424=DIRECTION('',(0.E0,0.E0,-1.E0));
#425=AXIS2_PLACEMENT_3D('',#422,#423,#424);
#427=CARTESIAN_POINT('',(-4.4E0,0.E0,0.E0));
#428=DIRECTION('',(1.E0,0.E0,0.E0));
#429=DIRECTION('',(0.E0,0.E0,1.E0));
#430=AXIS2_PLACEMENT_3D('',#427,#428,#429);
#432=DIRECTION('',(-1.E0,0.E0,0.E0));
#433=VECTOR('',#432,2.999999999877E-1);
#434=CARTESIAN_POINT('',(5.E0,0.E0,-1.316666666667E1));
#435=LINE('',#434,#433);
#436=CARTESIAN_POINT('',(4.700000000012E0,0.E0,0.E0));
#437=DIRECTION('',(-1.E0,0.E0,0.E0));
#438=DIRECTION('',(0.E0,0.E0,1.E0));
#439=AXIS2_PLACEMENT_3D('',#436,#437,#438);
#441=DIRECTION('',(8.574929257161E-1,0.E0,5.144957554216E-1));
#442=VECTOR('',#441,2.000000000137E-1);
#443=CARTESIAN_POINT('',(4.528501414857E0,0.E0,1.306376751558E1));
#444=LINE('',#443,#442);
#445=CARTESIAN_POINT('',(4.700000000012E0,0.E0,0.E0));
#446=DIRECTION('',(-1.E0,0.E0,0.E0));
#447=DIRECTION('',(0.E0,0.E0,-1.E0));
#448=AXIS2_PLACEMENT_3D('',#445,#446,#447);
#450=DIRECTION('',(8.574929257161E-1,0.E0,-5.144957554216E-1));
#451=VECTOR('',#450,2.000000000137E-1);
#452=CARTESIAN_POINT('',(4.528501414857E0,0.E0,-1.306376751558E1));
#453=LINE('',#452,#451);
#454=DIRECTION('',(-1.E0,0.E0,0.E0));
#455=VECTOR('',#454,2.999999999877E-1);
#456=CARTESIAN_POINT('',(5.E0,0.E0,1.316666666667E1));
#457=LINE('',#456,#455);
#458=DIRECTION('',(-5.144957554252E-1,0.E0,8.574929257140E-1));
#459=VECTOR('',#458,4.698571136958E-1);
#460=CARTESIAN_POINT('',(4.528501414857E0,0.E0,1.306376751558E1));
#461=LINE('',#460,#459);
#462=CARTESIAN_POINT('',(4.286761924202E0,0.E0,0.E0));
#463=DIRECTION('',(1.E0,0.E0,0.E0));
#464=DIRECTION('',(0.E0,0.E0,1.E0));
#465=AXIS2_PLACEMENT_3D('',#462,#463,#464);
#467=CARTESIAN_POINT('',(4.528501414858E0,0.E0,0.E0));
#468=DIRECTION('',(-1.E0,0.E0,0.E0));
#469=DIRECTION('',(0.E0,0.E0,-1.E0));
#470=AXIS2_PLACEMENT_3D('',#467,#468,#469);
#472=CARTESIAN_POINT('',(4.528501414858E0,0.E0,0.E0));
#473=DIRECTION('',(-1.E0,0.E0,0.E0));
#474=DIRECTION('',(0.E0,0.E0,1.E0));
#475=AXIS2_PLACEMENT_3D('',#472,#473,#474);
#477=DIRECTION('',(-5.144957554252E-1,0.E0,-8.574929257140E-1));
#478=VECTOR('',#477,4.698571136958E-1);
#479=CARTESIAN_POINT('',(4.528501414857E0,0.E0,-1.306376751558E1));
#480=LINE('',#479,#478);
#481=CARTESIAN_POINT('',(4.286761924202E0,0.E0,0.E0));
#482=DIRECTION('',(1.E0,0.E0,0.E0));
#483=DIRECTION('',(0.E0,0.E0,-1.E0));
#484=AXIS2_PLACEMENT_3D('',#481,#482,#483);
#486=DIRECTION('',(1.E0,0.E0,-3.072489469397E-12));
#487=VECTOR('',#486,2.867619242045E-1);
#488=CARTESIAN_POINT('',(4.E0,0.E0,1.346666666667E1));
#489=LINE('',#488,#487);
#490=CARTESIAN_POINT('',(4.E0,0.E0,0.E0));
#491=DIRECTION('',(-1.E0,0.E0,0.E0));
#492=DIRECTION('',(0.E0,0.E0,1.E0));
#493=AXIS2_PLACEMENT_3D('',#490,#491,#492);
#495=CARTESIAN_POINT('',(4.E0,0.E0,0.E0));
#496=DIRECTION('',(-1.E0,0.E0,0.E0));
#497=DIRECTION('',(0.E0,0.E0,-1.E0));
#498=AXIS2_PLACEMENT_3D('',#495,#496,#497);
#500=CARTESIAN_POINT('',(4.E0,0.E0,0.E0));
#501=DIRECTION('',(1.E0,0.E0,0.E0));
#502=DIRECTION('',(0.E0,0.E0,1.E0));
#503=AXIS2_PLACEMENT_3D('',#500,#501,#502);
#505=CARTESIAN_POINT('',(4.E0,0.E0,0.E0));
#506=DIRECTION('',(1.E0,0.E0,0.E0));
#507=DIRECTION('',(0.E0,0.E0,-1.E0));
#508=AXIS2_PLACEMENT_3D('',#505,#506,#507);
#510=DIRECTION('',(1.E0,0.E0,3.072489469397E-12));
#511=VECTOR('',#510,2.867619242045E-1);
#512=CARTESIAN_POINT('',(4.E0,0.E0,-1.346666666667E1));
#513=LINE('',#512,#511);
#514=DIRECTION('',(-7.337606740202E-1,0.E0,-6.794080314961E-1));
#515=VECTOR('',#514,1.051791462701E0);
#516=CARTESIAN_POINT('',(4.771763212601E0,0.E0,-1.203945435119E1));
#517=LINE('',#516,#515);
#518=CARTESIAN_POINT('',(4.771763212599E0,0.E0,0.E0));
#519=DIRECTION('',(-1.E0,0.E0,0.E0));
#520=DIRECTION('',(0.E0,0.E0,-1.E0));
#521=AXIS2_PLACEMENT_3D('',#518,#519,#520);
#523=CARTESIAN_POINT('',(4.5E0,0.E0,1.174595008159E1));
#524=DIRECTION('',(0.E0,1.E0,0.E0));
#525=DIRECTION('',(6.794080315069E-1,0.E0,7.337606740102E-1));
#526=AXIS2_PLACEMENT_3D('',#523,#524,#525);
#528=CARTESIAN_POINT('',(4.5E0,0.E0,-1.174595008159E1));
#529=DIRECTION('',(0.E0,-1.E0,0.E0));
#530=DIRECTION('',(6.794080315069E-1,0.E0,-7.337606740102E-1));
#531=AXIS2_PLACEMENT_3D('',#528,#529,#530);
#533=CARTESIAN_POINT('',(4.771763212599E0,0.E0,0.E0));
#534=DIRECTION('',(-1.E0,0.E0,0.E0));
#535=DIRECTION('',(0.E0,0.E0,1.E0));
#536=AXIS2_PLACEMENT_3D('',#533,#534,#535);
#538=CARTESIAN_POINT('',(4.9E0,0.E0,0.E0));
#539=DIRECTION('',(-1.E0,0.E0,0.E0));
#540=DIRECTION('',(0.E0,0.E0,1.E0));
#541=AXIS2_PLACEMENT_3D('',#538,#539,#540);
#543=CARTESIAN_POINT('',(4.9E0,0.E0,0.E0));
#544=DIRECTION('',(-1.E0,0.E0,0.E0));
#545=DIRECTION('',(0.E0,0.E0,-1.E0));
#546=AXIS2_PLACEMENT_3D('',#543,#544,#545);
#548=CARTESIAN_POINT('',(4.9E0,0.E0,0.E0));
#549=DIRECTION('',(1.E0,0.E0,0.E0));
#550=DIRECTION('',(0.E0,0.E0,-1.E0));
#551=AXIS2_PLACEMENT_3D('',#548,#549,#550);
#553=CARTESIAN_POINT('',(4.9E0,0.E0,0.E0));
#554=DIRECTION('',(1.E0,0.E0,0.E0));
#555=DIRECTION('',(0.E0,0.E0,1.E0));
#556=AXIS2_PLACEMENT_3D('',#553,#554,#555);
#558=CARTESIAN_POINT('',(4.5E0,0.E0,-9.533333333333E0));
#559=DIRECTION('',(0.E0,-1.E0,0.E0));
#560=DIRECTION('',(1.E0,0.E0,0.E0));
#561=AXIS2_PLACEMENT_3D('',#558,#559,#560);
#563=CARTESIAN_POINT('',(4.5E0,0.E0,0.E0));
#564=DIRECTION('',(1.E0,0.E0,0.E0));
#565=DIRECTION('',(0.E0,0.E0,-1.E0));
#566=AXIS2_PLACEMENT_3D('',#563,#564,#565);
#568=CARTESIAN_POINT('',(4.5E0,0.E0,9.533333333333E0));
#569=DIRECTION('',(0.E0,1.E0,0.E0));
#570=DIRECTION('',(1.E0,0.E0,0.E0));
#571=AXIS2_PLACEMENT_3D('',#568,#569,#570);
#573=CARTESIAN_POINT('',(4.5E0,0.E0,0.E0));
#574=DIRECTION('',(1.E0,0.E0,0.E0));
#575=DIRECTION('',(0.E0,0.E0,1.E0));
#576=AXIS2_PLACEMENT_3D('',#573,#574,#575);
#578=CARTESIAN_POINT('',(3.8E0,0.E0,0.E0));
#579=DIRECTION('',(1.E0,0.E0,0.E0));
#580=DIRECTION('',(0.E0,0.E0,1.E0));
#581=AXIS2_PLACEMENT_3D('',#578,#579,#580);
#583=DIRECTION('',(1.E0,0.E0,0.E0));
#584=VECTOR('',#583,7.E-1);
#585=CARTESIAN_POINT('',(3.8E0,0.E0,-9.133333333333E0));
#586=LINE('',#585,#584);
#587=CARTESIAN_POINT('',(3.8E0,0.E0,0.E0));
#588=DIRECTION('',(1.E0,0.E0,0.E0));
#589=DIRECTION('',(0.E0,0.E0,-1.E0));
#590=AXIS2_PLACEMENT_3D('',#587,#588,#589);
#592=CARTESIAN_POINT('',(3.8E0,0.E0,0.E0));
#593=DIRECTION('',(1.E0,0.E0,0.E0));
#594=DIRECTION('',(0.E0,0.E0,1.E0));
#595=AXIS2_PLACEMENT_3D('',#592,#593,#594);
#597=CARTESIAN_POINT('',(3.8E0,0.E0,0.E0));
#598=DIRECTION('',(1.E0,0.E0,0.E0));
#599=DIRECTION('',(0.E0,0.E0,-1.E0));
#600=AXIS2_PLACEMENT_3D('',#597,#598,#599);
#602=DIRECTION('',(1.E0,0.E0,0.E0));
#603=VECTOR('',#602,7.E-1);
#604=CARTESIAN_POINT('',(3.8E0,0.E0,9.133333333333E0));
#605=LINE('',#604,#603);
#606=DIRECTION('',(-1.E0,0.E0,0.E0));
#607=VECTOR('',#606,6.E-1);
#608=CARTESIAN_POINT('',(4.4E0,0.E0,8.333333333333E0));
#609=LINE('',#608,#607);
#610=CARTESIAN_POINT('',(4.4E0,0.E0,0.E0));
#611=DIRECTION('',(-1.E0,0.E0,0.E0));
#612=DIRECTION('',(0.E0,0.E0,1.E0));
#613=AXIS2_PLACEMENT_3D('',#610,#611,#612);
#615=DIRECTION('',(5.144957554275E-1,0.E0,-8.574929257126E-1));
#616=VECTOR('',#615,5.830951894845E-1);
#617=CARTESIAN_POINT('',(4.4E0,0.E0,-8.333333333333E0));
#618=LINE('',#617,#616);
#619=CARTESIAN_POINT('',(4.7E0,0.E0,0.E0));
#620=DIRECTION('',(1.E0,0.E0,0.E0));
#621=DIRECTION('',(0.E0,0.E0,-1.E0));
#622=AXIS2_PLACEMENT_3D('',#619,#620,#621);
#624=DIRECTION('',(5.144957554275E-1,0.E0,8.574929257126E-1));
#625=VECTOR('',#624,5.830951894845E-1);
#626=CARTESIAN_POINT('',(4.4E0,0.E0,8.333333333333E0));
#627=LINE('',#626,#625);
#628=CARTESIAN_POINT('',(4.7E0,0.E0,0.E0));
#629=DIRECTION('',(1.E0,0.E0,0.E0));
#630=DIRECTION('',(0.E0,0.E0,1.E0));
#631=AXIS2_PLACEMENT_3D('',#628,#629,#630);
#633=CARTESIAN_POINT('',(4.4E0,0.E0,0.E0));
#634=DIRECTION('',(-1.E0,0.E0,0.E0));
#635=DIRECTION('',(0.E0,0.E0,-1.E0));
#636=AXIS2_PLACEMENT_3D('',#633,#634,#635);
#638=DIRECTION('',(-1.E0,0.E0,-2.368475785867E-14));
#639=VECTOR('',#638,3.E-1);
#640=CARTESIAN_POINT('',(5.E0,0.E0,-8.833333333333E0));
#641=LINE('',#640,#639);
#642=DIRECTION('',(-1.E0,0.E0,2.368475785867E-14));
#643=VECTOR('',#642,3.E-1);
#644=CARTESIAN_POINT('',(5.E0,0.E0,8.833333333333E0));
#645=LINE('',#644,#643);
#646=CARTESIAN_POINT('',(5.E0,0.E0,0.E0));
#647=DIRECTION('',(-1.E0,0.E0,0.E0));
#648=DIRECTION('',(0.E0,0.E0,1.E0));
#649=AXIS2_PLACEMENT_3D('',#646,#647,#648);
#651=CARTESIAN_POINT('',(5.E0,0.E0,0.E0));
#652=DIRECTION('',(-1.E0,0.E0,0.E0));
#653=DIRECTION('',(0.E0,0.E0,-1.E0));
#654=AXIS2_PLACEMENT_3D('',#651,#652,#653);
#656=CARTESIAN_POINT('',(5.E0,0.E0,0.E0));
#657=DIRECTION('',(1.E0,0.E0,0.E0));
#658=DIRECTION('',(0.E0,0.E0,-1.E0));
#659=AXIS2_PLACEMENT_3D('',#656,#657,#658);
#661=CARTESIAN_POINT('',(5.E0,0.E0,0.E0));
#662=DIRECTION('',(1.E0,0.E0,0.E0));
#663=DIRECTION('',(0.E0,0.E0,1.E0));
#664=AXIS2_PLACEMENT_3D('',#661,#662,#663);
#666=CARTESIAN_POINT('',(4.4E0,0.E0,0.E0));
#667=DIRECTION('',(1.E0,0.E0,0.E0));
#668=DIRECTION('',(0.E0,0.E0,-1.E0));
#669=AXIS2_PLACEMENT_3D('',#666,#667,#668);
#671=CARTESIAN_POINT('',(4.4E0,0.E0,6.6E0));
#672=DIRECTION('',(0.E0,-1.E0,0.E0));
#673=DIRECTION('',(0.E0,0.E0,-1.E0));
#674=AXIS2_PLACEMENT_3D('',#671,#672,#673);
#676=DIRECTION('',(-1.E0,0.E0,0.E0));
#677=VECTOR('',#676,8.8E0);
#678=CARTESIAN_POINT('',(4.4E0,0.E0,-6.E0));
#679=LINE('',#678,#677);
#680=DIRECTION('',(-1.E0,0.E0,0.E0));
#681=VECTOR('',#680,8.8E0);
#682=CARTESIAN_POINT('',(4.4E0,0.E0,6.E0));
#683=LINE('',#682,#681);
#684=CARTESIAN_POINT('',(4.4E0,0.E0,-6.6E0));
#685=DIRECTION('',(0.E0,1.E0,0.E0));
#686=DIRECTION('',(0.E0,0.E0,1.E0));
#687=AXIS2_PLACEMENT_3D('',#684,#685,#686);
#689=CARTESIAN_POINT('',(4.4E0,0.E0,0.E0));
#690=DIRECTION('',(1.E0,0.E0,0.E0));
#691=DIRECTION('',(0.E0,0.E0,1.E0));
#692=AXIS2_PLACEMENT_3D('',#689,#690,#691);
#694=CARTESIAN_POINT('',(-4.4E0,0.E0,-6.6E0));
#695=DIRECTION('',(0.E0,1.E0,0.E0));
#696=DIRECTION('',(-1.E0,0.E0,0.E0));
#697=AXIS2_PLACEMENT_3D('',#694,#695,#696);
#699=CARTESIAN_POINT('',(-4.4E0,0.E0,0.E0));
#700=DIRECTION('',(-1.E0,0.E0,0.E0));
#701=DIRECTION('',(0.E0,0.E0,-1.E0));
#702=AXIS2_PLACEMENT_3D('',#699,#700,#701);
#704=CARTESIAN_POINT('',(-4.4E0,0.E0,6.6E0));
#705=DIRECTION('',(0.E0,-1.E0,0.E0));
#706=DIRECTION('',(-1.E0,0.E0,0.E0));
#707=AXIS2_PLACEMENT_3D('',#704,#705,#706);
#709=CARTESIAN_POINT('',(-4.4E0,0.E0,0.E0));
#710=DIRECTION('',(-1.E0,0.E0,0.E0));
#711=DIRECTION('',(0.E0,0.E0,1.E0));
#712=AXIS2_PLACEMENT_3D('',#709,#710,#711);
#714=CARTESIAN_POINT('',(-5.E0,0.E0,0.E0));
#715=DIRECTION('',(1.E0,0.E0,0.E0));
#716=DIRECTION('',(0.E0,0.E0,-1.E0));
#717=AXIS2_PLACEMENT_3D('',#714,#715,#716);
#719=CARTESIAN_POINT('',(-5.E0,0.E0,0.E0));
#720=DIRECTION('',(1.E0,0.E0,0.E0));
#721=DIRECTION('',(0.E0,0.E0,1.E0));
#722=AXIS2_PLACEMENT_3D('',#719,#720,#721);
#724=CARTESIAN_POINT('',(-5.E0,0.E0,0.E0));
#725=DIRECTION('',(-1.E0,0.E0,0.E0));
#726=DIRECTION('',(0.E0,0.E0,1.E0));
#727=AXIS2_PLACEMENT_3D('',#724,#725,#726);
#729=CARTESIAN_POINT('',(-5.E0,0.E0,0.E0));
#730=DIRECTION('',(-1.E0,0.E0,0.E0));
#731=DIRECTION('',(0.E0,0.E0,-1.E0));
#732=AXIS2_PLACEMENT_3D('',#729,#730,#731);
#734=DIRECTION('',(-1.E0,0.E0,-2.368475785867E-14));
#735=VECTOR('',#734,3.E-1);
#736=CARTESIAN_POINT('',(-4.7E0,0.E0,8.833333333333E0));
#737=LINE('',#736,#735);
#738=CARTESIAN_POINT('',(-4.4E0,0.E0,0.E0));
#739=DIRECTION('',(1.E0,0.E0,0.E0));
#740=DIRECTION('',(0.E0,0.E0,-1.E0));
#741=AXIS2_PLACEMENT_3D('',#738,#739,#740);
#743=DIRECTION('',(-5.144957554275E-1,0.E0,8.574929257126E-1));
#744=VECTOR('',#743,5.830951894845E-1);
#745=CARTESIAN_POINT('',(-4.4E0,0.E0,8.333333333333E0));
#746=LINE('',#745,#744);
#747=CARTESIAN_POINT('',(-4.7E0,0.E0,0.E0));
#748=DIRECTION('',(-1.E0,0.E0,0.E0));
#749=DIRECTION('',(0.E0,0.E0,1.E0));
#750=AXIS2_PLACEMENT_3D('',#747,#748,#749);
#752=DIRECTION('',(-1.E0,0.E0,0.E0));
#753=VECTOR('',#752,6.E-1);
#754=CARTESIAN_POINT('',(-3.8E0,0.E0,8.333333333333E0));
#755=LINE('',#754,#753);
#756=CARTESIAN_POINT('',(-3.8E0,0.E0,0.E0));
#757=DIRECTION('',(-1.E0,0.E0,0.E0));
#758=DIRECTION('',(0.E0,0.E0,1.E0));
#759=AXIS2_PLACEMENT_3D('',#756,#757,#758);
#761=CARTESIAN_POINT('',(-3.8E0,0.E0,0.E0));
#762=DIRECTION('',(-1.E0,0.E0,0.E0));
#763=DIRECTION('',(0.E0,0.E0,-1.E0));
#764=AXIS2_PLACEMENT_3D('',#761,#762,#763);
#766=CARTESIAN_POINT('',(-3.8E0,0.E0,0.E0));
#767=DIRECTION('',(-1.E0,0.E0,0.E0));
#768=DIRECTION('',(0.E0,0.E0,1.E0));
#769=AXIS2_PLACEMENT_3D('',#766,#767,#768);
#771=DIRECTION('',(-1.E0,0.E0,0.E0));
#772=VECTOR('',#771,7.E-1);
#773=CARTESIAN_POINT('',(-3.8E0,0.E0,-9.133333333333E0));
#774=LINE('',#773,#772);
#775=CARTESIAN_POINT('',(-3.8E0,0.E0,0.E0));
#776=DIRECTION('',(-1.E0,0.E0,0.E0));
#777=DIRECTION('',(0.E0,0.E0,-1.E0));
#778=AXIS2_PLACEMENT_3D('',#775,#776,#777);
#780=DIRECTION('',(-1.E0,0.E0,0.E0));
#781=VECTOR('',#780,7.E-1);
#782=CARTESIAN_POINT('',(-3.8E0,0.E0,9.133333333333E0));
#783=LINE('',#782,#781);
#784=DIRECTION('',(-1.E0,0.E0,0.E0));
#785=VECTOR('',#784,6.E-1);
#786=CARTESIAN_POINT('',(-3.8E0,0.E0,-8.333333333333E0));
#787=LINE('',#786,#785);
#788=DIRECTION('',(-5.144957554275E-1,0.E0,-8.574929257126E-1));
#789=VECTOR('',#788,5.830951894845E-1);
#790=CARTESIAN_POINT('',(-4.4E0,0.E0,-8.333333333333E0));
#791=LINE('',#790,#789);
#792=CARTESIAN_POINT('',(-4.7E0,0.E0,0.E0));
#793=DIRECTION('',(-1.E0,0.E0,0.E0));
#794=DIRECTION('',(0.E0,0.E0,-1.E0));
#795=AXIS2_PLACEMENT_3D('',#792,#793,#794);
#797=CARTESIAN_POINT('',(-4.4E0,0.E0,0.E0));
#798=DIRECTION('',(1.E0,0.E0,0.E0));
#799=DIRECTION('',(0.E0,0.E0,1.E0));
#800=AXIS2_PLACEMENT_3D('',#797,#798,#799);
#802=DIRECTION('',(-1.E0,0.E0,2.368475785867E-14));
#803=VECTOR('',#802,3.E-1);
#804=CARTESIAN_POINT('',(-4.7E0,0.E0,-8.833333333333E0));
#805=LINE('',#804,#803);
#806=DIRECTION('',(-1.E0,0.E0,0.E0));
#807=VECTOR('',#806,6.E-1);
#808=CARTESIAN_POINT('',(4.4E0,0.E0,-8.333333333333E0));
#809=LINE('',#808,#807);
#810=DIRECTION('',(-7.337606740202E-1,0.E0,6.794080314961E-1));
#811=VECTOR('',#810,1.051791462701E0);
#812=CARTESIAN_POINT('',(4.771763212601E0,0.E0,1.203945435119E1));
#813=LINE('',#812,#811);
#814=CARTESIAN_POINT('',(-4.5E0,0.E0,-1.174595008159E1));
#815=DIRECTION('',(0.E0,1.E0,0.E0));
#816=DIRECTION('',(-6.794080315069E-1,0.E0,-7.337606740102E-1));
#817=AXIS2_PLACEMENT_3D('',#814,#815,#816);
#819=CARTESIAN_POINT('',(-4.771763212599E0,0.E0,0.E0));
#820=DIRECTION('',(1.E0,0.E0,0.E0));
#821=DIRECTION('',(0.E0,0.E0,1.E0));
#822=AXIS2_PLACEMENT_3D('',#819,#820,#821);
#824=CARTESIAN_POINT('',(-4.9E0,0.E0,-9.533333333333E0));
#825=CARTESIAN_POINT('',(-4.5E0,0.E0,-9.133333333333E0));
#826=VERTEX_POINT('',#824);
#827=VERTEX_POINT('',#825);
#828=CARTESIAN_POINT('',(-4.5E0,0.E0,9.133333333333E0));
#829=VERTEX_POINT('',#828);
#830=CARTESIAN_POINT('',(-4.9E0,0.E0,9.533333333333E0));
#831=VERTEX_POINT('',#830);
#832=CARTESIAN_POINT('',(-4.9E0,0.E0,-1.174595008159E1));
#833=CARTESIAN_POINT('',(-4.9E0,0.E0,1.174595008159E1));
#834=VERTEX_POINT('',#832);
#835=VERTEX_POINT('',#833);
#836=CARTESIAN_POINT('',(-4.771763212599E0,0.E0,-1.203945435120E1));
#837=CARTESIAN_POINT('',(-4.771763212599E0,0.E0,1.203945435120E1));
#838=VERTEX_POINT('',#836);
#839=VERTEX_POINT('',#837);
#840=CARTESIAN_POINT('',(-4.E0,0.E0,-1.275404991841E1));
#841=VERTEX_POINT('',#840);
#842=CARTESIAN_POINT('',(-4.E0,0.E0,1.275404991841E1));
#843=VERTEX_POINT('',#842);
#844=CARTESIAN_POINT('',(-4.E0,0.E0,-1.346666666667E1));
#845=CARTESIAN_POINT('',(-4.E0,0.E0,1.346666666667E1));
#846=VERTEX_POINT('',#844);
#847=VERTEX_POINT('',#845);
#848=CARTESIAN_POINT('',(-4.286761924205E0,0.E0,-1.346666666667E1));
#849=VERTEX_POINT('',#848);
#850=CARTESIAN_POINT('',(-4.286761924202E0,0.E0,1.346666666667E1));
#851=VERTEX_POINT('',#850);
#852=CARTESIAN_POINT('',(-4.528501414858E0,0.E0,-1.306376751558E1));
#853=CARTESIAN_POINT('',(-4.528501414858E0,0.E0,1.306376751558E1));
#854=VERTEX_POINT('',#852);
#855=VERTEX_POINT('',#853);
#856=CARTESIAN_POINT('',(4.528501414858E0,0.E0,1.306376751558E1));
#857=CARTESIAN_POINT('',(4.528501414858E0,0.E0,-1.306376751558E1));
#858=VERTEX_POINT('',#856);
#859=VERTEX_POINT('',#857);
#860=CARTESIAN_POINT('',(4.286761924205E0,0.E0,-1.346666666667E1));
#861=VERTEX_POINT('',#860);
#862=CARTESIAN_POINT('',(4.286761924202E0,0.E0,1.346666666667E1));
#863=VERTEX_POINT('',#862);
#864=CARTESIAN_POINT('',(4.E0,0.E0,-1.346666666667E1));
#865=VERTEX_POINT('',#864);
#866=CARTESIAN_POINT('',(4.E0,0.E0,1.346666666667E1));
#867=VERTEX_POINT('',#866);
#868=CARTESIAN_POINT('',(4.E0,0.E0,1.275404991841E1));
#869=CARTESIAN_POINT('',(4.E0,0.E0,-1.275404991841E1));
#870=VERTEX_POINT('',#868);
#871=VERTEX_POINT('',#869);
#872=CARTESIAN_POINT('',(4.771763212599E0,0.E0,-1.203945435120E1));
#873=CARTESIAN_POINT('',(4.771763212599E0,0.E0,1.203945435120E1));
#874=VERTEX_POINT('',#872);
#875=VERTEX_POINT('',#873);
#876=CARTESIAN_POINT('',(4.9E0,0.E0,1.174595008159E1));
#877=VERTEX_POINT('',#876);
#878=CARTESIAN_POINT('',(4.9E0,0.E0,-1.174595008159E1));
#879=VERTEX_POINT('',#878);
#880=CARTESIAN_POINT('',(4.9E0,0.E0,-9.533333333333E0));
#881=CARTESIAN_POINT('',(4.9E0,0.E0,9.533333333333E0));
#882=VERTEX_POINT('',#880);
#883=VERTEX_POINT('',#881);
#884=CARTESIAN_POINT('',(4.5E0,0.E0,-9.133333333333E0));
#885=VERTEX_POINT('',#884);
#886=CARTESIAN_POINT('',(4.5E0,0.E0,9.133333333333E0));
#887=VERTEX_POINT('',#886);
#888=CARTESIAN_POINT('',(5.E0,0.E0,1.54E1));
#889=CARTESIAN_POINT('',(5.E0,0.E0,-1.54E1));
#890=VERTEX_POINT('',#888);
#891=VERTEX_POINT('',#889);
#892=CARTESIAN_POINT('',(4.4E0,0.E0,1.6E1));
#893=VERTEX_POINT('',#892);
#894=CARTESIAN_POINT('',(4.4E0,0.E0,-1.6E1));
#895=VERTEX_POINT('',#894);
#896=CARTESIAN_POINT('',(5.E0,0.E0,-1.316666666667E1));
#897=CARTESIAN_POINT('',(5.E0,0.E0,1.316666666667E1));
#898=VERTEX_POINT('',#896);
#899=VERTEX_POINT('',#897);
#900=CARTESIAN_POINT('',(-4.4E0,0.E0,-1.6E1));
#901=VERTEX_POINT('',#900);
#902=CARTESIAN_POINT('',(-4.4E0,0.E0,1.6E1));
#903=VERTEX_POINT('',#902);
#904=CARTESIAN_POINT('',(-5.E0,0.E0,1.54E1));
#905=VERTEX_POINT('',#904);
#906=CARTESIAN_POINT('',(-5.E0,0.E0,-1.54E1));
#907=VERTEX_POINT('',#906);
#908=CARTESIAN_POINT('',(-5.E0,0.E0,1.316666666667E1));
#909=CARTESIAN_POINT('',(-5.E0,0.E0,-1.316666666667E1));
#910=VERTEX_POINT('',#908);
#911=VERTEX_POINT('',#909);
#912=CARTESIAN_POINT('',(-4.700000000012E0,0.E0,-1.316666666667E1));
#913=CARTESIAN_POINT('',(-4.700000000012E0,0.E0,1.316666666667E1));
#914=VERTEX_POINT('',#912);
#915=VERTEX_POINT('',#913);
#916=CARTESIAN_POINT('',(4.700000000012E0,0.E0,1.316666666667E1));
#917=CARTESIAN_POINT('',(4.700000000012E0,0.E0,-1.316666666667E1));
#918=VERTEX_POINT('',#916);
#919=VERTEX_POINT('',#917);
#920=CARTESIAN_POINT('',(-3.8E0,0.E0,-8.333333333333E0));
#921=CARTESIAN_POINT('',(-4.4E0,0.E0,-8.333333333333E0));
#922=VERTEX_POINT('',#920);
#923=VERTEX_POINT('',#921);
#924=CARTESIAN_POINT('',(-4.4E0,0.E0,8.333333333333E0));
#925=VERTEX_POINT('',#924);
#926=CARTESIAN_POINT('',(-3.8E0,0.E0,8.333333333333E0));
#927=VERTEX_POINT('',#926);
#928=CARTESIAN_POINT('',(3.8E0,0.E0,-8.333333333333E0));
#929=CARTESIAN_POINT('',(3.8E0,0.E0,8.333333333333E0));
#930=VERTEX_POINT('',#928);
#931=VERTEX_POINT('',#929);
#932=CARTESIAN_POINT('',(4.4E0,0.E0,8.333333333333E0));
#933=CARTESIAN_POINT('',(4.4E0,0.E0,-8.333333333333E0));
#934=VERTEX_POINT('',#932);
#935=VERTEX_POINT('',#933);
#936=CARTESIAN_POINT('',(4.7E0,0.E0,-8.833333333333E0));
#937=VERTEX_POINT('',#936);
#938=CARTESIAN_POINT('',(4.7E0,0.E0,8.833333333333E0));
#939=VERTEX_POINT('',#938);
#940=CARTESIAN_POINT('',(5.E0,0.E0,-8.833333333333E0));
#941=VERTEX_POINT('',#940);
#942=CARTESIAN_POINT('',(5.E0,0.E0,8.833333333333E0));
#943=VERTEX_POINT('',#942);
#944=CARTESIAN_POINT('',(5.E0,0.E0,-6.6E0));
#945=CARTESIAN_POINT('',(5.E0,0.E0,6.6E0));
#946=VERTEX_POINT('',#944);
#947=VERTEX_POINT('',#945);
#948=CARTESIAN_POINT('',(4.4E0,0.E0,-6.E0));
#949=CARTESIAN_POINT('',(4.4E0,0.E0,6.E0));
#950=VERTEX_POINT('',#948);
#951=VERTEX_POINT('',#949);
#952=CARTESIAN_POINT('',(-4.4E0,0.E0,-6.E0));
#953=VERTEX_POINT('',#952);
#954=CARTESIAN_POINT('',(-4.4E0,0.E0,6.E0));
#955=VERTEX_POINT('',#954);
#956=CARTESIAN_POINT('',(-5.E0,0.E0,-6.6E0));
#957=VERTEX_POINT('',#956);
#958=CARTESIAN_POINT('',(-5.E0,0.E0,6.6E0));
#959=VERTEX_POINT('',#958);
#960=CARTESIAN_POINT('',(-5.E0,0.E0,-8.833333333333E0));
#961=CARTESIAN_POINT('',(-5.E0,0.E0,8.833333333333E0));
#962=VERTEX_POINT('',#960);
#963=VERTEX_POINT('',#961);
#964=CARTESIAN_POINT('',(-4.7E0,0.E0,8.833333333333E0));
#965=CARTESIAN_POINT('',(-4.7E0,0.E0,-8.833333333333E0));
#966=VERTEX_POINT('',#964);
#967=VERTEX_POINT('',#965);
#968=CARTESIAN_POINT('',(-3.8E0,0.E0,9.133333333333E0));
#969=CARTESIAN_POINT('',(-3.8E0,0.E0,-9.133333333333E0));
#970=VERTEX_POINT('',#968);
#971=VERTEX_POINT('',#969);
#972=CARTESIAN_POINT('',(3.8E0,0.E0,9.133333333333E0));
#973=CARTESIAN_POINT('',(3.8E0,0.E0,-9.133333333333E0));
#974=VERTEX_POINT('',#972);
#975=VERTEX_POINT('',#973);
#976=CARTESIAN_POINT('',(-4.5E0,0.E0,0.E0));
#977=DIRECTION('',(-1.E0,0.E0,0.E0));
#978=DIRECTION('',(0.E0,0.E0,1.E0));
#979=AXIS2_PLACEMENT_3D('',#976,#977,#978);
#980=TOROIDAL_SURFACE('',#979,9.533333333333E0,4.E-1);
#982=ORIENTED_EDGE('',*,*,#981,.T.);
#984=ORIENTED_EDGE('',*,*,#983,.T.);
#986=ORIENTED_EDGE('',*,*,#985,.F.);
#988=ORIENTED_EDGE('',*,*,#987,.F.);
#989=EDGE_LOOP('',(#982,#984,#986,#988));
#990=FACE_OUTER_BOUND('',#989,.F.);
#991=ADVANCED_FACE('',(#990),#980,.T.);
#992=CARTESIAN_POINT('',(-4.5E0,0.E0,0.E0));
#993=DIRECTION('',(-1.E0,0.E0,0.E0));
#994=DIRECTION('',(0.E0,0.E0,1.E0));
#995=AXIS2_PLACEMENT_3D('',#992,#993,#994);
#996=TOROIDAL_SURFACE('',#995,9.533333333333E0,4.E-1);
#998=ORIENTED_EDGE('',*,*,#997,.F.);
#999=ORIENTED_EDGE('',*,*,#985,.T.);
#1001=ORIENTED_EDGE('',*,*,#1000,.T.);
#1002=ORIENTED_EDGE('',*,*,#981,.F.);
#1003=EDGE_LOOP('',(#998,#999,#1001,#1002));
#1004=FACE_OUTER_BOUND('',#1003,.F.);
#1005=ADVANCED_FACE('',(#1004),#996,.T.);
#1006=CARTESIAN_POINT('',(-4.9E0,1.174595008159E1,0.E0));
#1007=DIRECTION('',(1.E0,0.E0,0.E0));
#1008=DIRECTION('',(0.E0,0.E0,-1.E0));
#1009=AXIS2_PLACEMENT_3D('',#1006,#1007,#1008);
#1010=PLANE('',#1009);
#1012=ORIENTED_EDGE('',*,*,#1011,.T.);
#1014=ORIENTED_EDGE('',*,*,#1013,.T.);
#1015=EDGE_LOOP('',(#1012,#1014));
#1016=FACE_OUTER_BOUND('',#1015,.F.);
#1017=ORIENTED_EDGE('',*,*,#997,.T.);
#1018=ORIENTED_EDGE('',*,*,#987,.T.);
#1019=EDGE_LOOP('',(#1017,#1018));
#1020=FACE_BOUND('',#1019,.F.);
#1021=ADVANCED_FACE('',(#1016,#1020),#1010,.F.);
#1022=CARTESIAN_POINT('',(-4.5E0,0.E0,0.E0));
#1023=DIRECTION('',(-1.E0,0.E0,0.E0));
#1024=DIRECTION('',(0.E0,0.E0,1.E0));
#1025=AXIS2_PLACEMENT_3D('',#1022,#1023,#1024);
#1026=TOROIDAL_SURFACE('',#1025,1.174595008159E1,4.E-1);
#1028=ORIENTED_EDGE('',*,*,#1027,.T.);
#1030=ORIENTED_EDGE('',*,*,#1029,.T.);
#1031=ORIENTED_EDGE('',*,*,#1011,.F.);
#1033=ORIENTED_EDGE('',*,*,#1032,.F.);
#1034=EDGE_LOOP('',(#1028,#1030,#1031,#1033));
#1035=FACE_OUTER_BOUND('',#1034,.F.);
#1036=ADVANCED_FACE('',(#1035),#1026,.T.);
#1037=CARTESIAN_POINT('',(-4.385881606299E0,0.E0,0.E0));
#1038=DIRECTION('',(1.E0,0.E0,0.E0));
#1039=DIRECTION('',(0.E0,0.E0,-1.E0));
#1040=AXIS2_PLACEMENT_3D('',#1037,#1038,#1039);
#1041=CONICAL_SURFACE('',#1040,1.239675213480E1,4.279740183823E1);
#1042=ORIENTED_EDGE('',*,*,#1027,.F.);
#1044=ORIENTED_EDGE('',*,*,#1043,.T.);
#1046=ORIENTED_EDGE('',*,*,#1045,.F.);
#1048=ORIENTED_EDGE('',*,*,#1047,.F.);
#1049=EDGE_LOOP('',(#1042,#1044,#1046,#1048));
#1050=FACE_OUTER_BOUND('',#1049,.F.);
#1051=ADVANCED_FACE('',(#1050),#1041,.T.);
#1052=CARTESIAN_POINT('',(-4.385881606299E0,0.E0,0.E0));
#1053=DIRECTION('',(1.E0,0.E0,0.E0));
#1054=DIRECTION('',(0.E0,0.E0,-1.E0));
#1055=AXIS2_PLACEMENT_3D('',#1052,#1053,#1054);
#1056=CONICAL_SURFACE('',#1055,1.239675213480E1,4.279740183823E1);
#1057=ORIENTED_EDGE('',*,*,#1047,.T.);
#1059=ORIENTED_EDGE('',*,*,#1058,.F.);
#1060=ORIENTED_EDGE('',*,*,#1043,.F.);
#1062=ORIENTED_EDGE('',*,*,#1061,.F.);
#1063=EDGE_LOOP('',(#1057,#1059,#1060,#1062));
#1064=FACE_OUTER_BOUND('',#1063,.F.);
#1065=ADVANCED_FACE('',(#1064),#1056,.T.);
#1066=CARTESIAN_POINT('',(-4.E0,1.366666666667E1,0.E0));
#1067=DIRECTION('',(1.E0,0.E0,0.E0));
#1068=DIRECTION('',(0.E0,0.E0,-1.E0));
#1069=AXIS2_PLACEMENT_3D('',#1066,#1067,#1068);
#1070=PLANE('',#1069);
#1072=ORIENTED_EDGE('',*,*,#1071,.T.);
#1074=ORIENTED_EDGE('',*,*,#1073,.T.);
#1075=EDGE_LOOP('',(#1072,#1074));
#1076=FACE_OUTER_BOUND('',#1075,.F.);
#1077=ORIENTED_EDGE('',*,*,#1058,.T.);
#1078=ORIENTED_EDGE('',*,*,#1045,.T.);
#1079=EDGE_LOOP('',(#1077,#1078));
#1080=FACE_BOUND('',#1079,.F.);
#1081=ADVANCED_FACE('',(#1076,#1080),#1070,.F.);
#1082=CARTESIAN_POINT('',(0.E0,0.E0,0.E0));
#1083=DIRECTION('',(-1.E0,0.E0,0.E0));
#1084=DIRECTION('',(0.E0,0.E0,1.E0));
#1085=AXIS2_PLACEMENT_3D('',#1082,#1083,#1084);
#1086=CYLINDRICAL_SURFACE('',#1085,1.346666666667E1);
#1088=ORIENTED_EDGE('',*,*,#1087,.T.);
#1090=ORIENTED_EDGE('',*,*,#1089,.F.);
#1092=ORIENTED_EDGE('',*,*,#1091,.F.);
#1093=ORIENTED_EDGE('',*,*,#1071,.F.);
#1094=EDGE_LOOP('',(#1088,#1090,#1092,#1093));
#1095=FACE_OUTER_BOUND('',#1094,.F.);
#1096=ADVANCED_FACE('',(#1095),#1086,.F.);
#1097=CARTESIAN_POINT('',(0.E0,0.E0,0.E0));
#1098=DIRECTION('',(-1.E0,0.E0,0.E0));
#1099=DIRECTION('',(0.E0,0.E0,1.E0));
#1100=AXIS2_PLACEMENT_3D('',#1097,#1098,#1099);
#1101=CYLINDRICAL_SURFACE('',#1100,1.346666666667E1);
#1102=ORIENTED_EDGE('',*,*,#1073,.F.);
#1103=ORIENTED_EDGE('',*,*,#1091,.T.);
#1105=ORIENTED_EDGE('',*,*,#1104,.F.);
#1106=ORIENTED_EDGE('',*,*,#1087,.F.);
#1107=EDGE_LOOP('',(#1102,#1103,#1105,#1106));
#1108=FACE_OUTER_BOUND('',#1107,.F.);
#1109=ADVANCED_FACE('',(#1108),#1101,.F.);
#1110=CARTESIAN_POINT('',(-4.407631669530E0,0.E0,0.E0));
#1111=DIRECTION('',(1.E0,0.E0,0.E0));
#1112=DIRECTION('',(0.E0,0.E0,-1.E0));
#1113=AXIS2_PLACEMENT_3D('',#1110,#1111,#1112);
#1114=CONICAL_SURFACE('',#1113,1.326521709112E1,5.903624346793E1);
#1116=ORIENTED_EDGE('',*,*,#1115,.F.);
#1118=ORIENTED_EDGE('',*,*,#1117,.T.);
#1119=ORIENTED_EDGE('',*,*,#1104,.T.);
#1121=ORIENTED_EDGE('',*,*,#1120,.F.);
#1122=EDGE_LOOP('',(#1116,#1118,#1119,#1121));
#1123=FACE_OUTER_BOUND('',#1122,.F.);
#1124=ADVANCED_FACE('',(#1123),#1114,.F.);
#1125=CARTESIAN_POINT('',(-4.614250707435E0,0.E0,0.E0));
#1126=DIRECTION('',(-1.E0,0.E0,0.E0));
#1127=DIRECTION('',(0.E0,0.E0,1.E0));
#1128=AXIS2_PLACEMENT_3D('',#1125,#1126,#1127);
#1129=CONICAL_SURFACE('',#1128,1.311521709112E1,3.096375653207E1);
#1131=ORIENTED_EDGE('',*,*,#1130,.F.);
#1133=ORIENTED_EDGE('',*,*,#1132,.F.);
#1134=ORIENTED_EDGE('',*,*,#1115,.T.);
#1136=ORIENTED_EDGE('',*,*,#1135,.T.);
#1137=EDGE_LOOP('',(#1131,#1133,#1134,#1136));
#1138=FACE_OUTER_BOUND('',#1137,.F.);
#1139=ADVANCED_FACE('',(#1138),#1129,.F.);
#1140=CARTESIAN_POINT('',(0.E0,0.E0,0.E0));
#1141=DIRECTION('',(-1.E0,0.E0,0.E0));
#1142=DIRECTION('',(0.E0,0.E0,1.E0));
#1143=AXIS2_PLACEMENT_3D('',#1140,#1141,#1142);
#1144=CYLINDRICAL_SURFACE('',#1143,1.316666666667E1);
#1145=ORIENTED_EDGE('',*,*,#1130,.T.);
#1147=ORIENTED_EDGE('',*,*,#1146,.T.);
#1149=ORIENTED_EDGE('',*,*,#1148,.F.);
#1151=ORIENTED_EDGE('',*,*,#1150,.F.);
#1152=EDGE_LOOP('',(#1145,#1147,#1149,#1151));
#1153=FACE_OUTER_BOUND('',#1152,.F.);
#1154=ADVANCED_FACE('',(#1153),#1144,.F.);
#1155=CARTESIAN_POINT('',(0.E0,0.E0,0.E0));
#1156=DIRECTION('',(-1.E0,0.E0,0.E0));
#1157=DIRECTION('',(0.E0,0.E0,1.E0));
#1158=AXIS2_PLACEMENT_3D('',#1155,#1156,#1157);
#1159=CYLINDRICAL_SURFACE('',#1158,1.316666666667E1);
#1161=ORIENTED_EDGE('',*,*,#1160,.T.);
#1162=ORIENTED_EDGE('',*,*,#1150,.T.);
#1164=ORIENTED_EDGE('',*,*,#1163,.F.);
#1165=ORIENTED_EDGE('',*,*,#1146,.F.);
#1166=EDGE_LOOP('',(#1161,#1162,#1164,#1165));
#1167=FACE_OUTER_BOUND('',#1166,.F.);
#1168=ADVANCED_FACE('',(#1167),#1159,.F.);
#1169=CARTESIAN_POINT('',(-4.614250707435E0,0.E0,0.E0));
#1170=DIRECTION('',(-1.E0,0.E0,0.E0));
#1171=DIRECTION('',(0.E0,0.E0,1.E0));
#1172=AXIS2_PLACEMENT_3D('',#1169,#1170,#1171);
#1173=CONICAL_SURFACE('',#1172,1.311521709112E1,3.096375653207E1);
#1174=ORIENTED_EDGE('',*,*,#1160,.F.);
#1175=ORIENTED_EDGE('',*,*,#1135,.F.);
#1177=ORIENTED_EDGE('',*,*,#1176,.T.);
#1178=ORIENTED_EDGE('',*,*,#1132,.T.);
#1179=EDGE_LOOP('',(#1174,#1175,#1177,#1178));
#1180=FACE_OUTER_BOUND('',#1179,.F.);
#1181=ADVANCED_FACE('',(#1180),#1173,.F.);
#1182=CARTESIAN_POINT('',(-4.407631669530E0,0.E0,0.E0));
#1183=DIRECTION('',(1.E0,0.E0,0.E0));
#1184=DIRECTION('',(0.E0,0.E0,-1.E0));
#1185=AXIS2_PLACEMENT_3D('',#1182,#1183,#1184);
#1186=CONICAL_SURFACE('',#1185,1.326521709112E1,5.903624346793E1);
#1187=ORIENTED_EDGE('',*,*,#1120,.T.);
#1188=ORIENTED_EDGE('',*,*,#1089,.T.);
#1189=ORIENTED_EDGE('',*,*,#1117,.F.);
#1190=ORIENTED_EDGE('',*,*,#1176,.F.);
#1191=EDGE_LOOP('',(#1187,#1188,#1189,#1190));
#1192=FACE_OUTER_BOUND('',#1191,.F.);
#1193=ADVANCED_FACE('',(#1192),#1186,.F.);
#1194=CARTESIAN_POINT('',(-5.E0,1.316666666667E1,0.E0));
#1195=DIRECTION('',(1.E0,0.E0,0.E0));
#1196=DIRECTION('',(0.E0,0.E0,-1.E0));
#1197=AXIS2_PLACEMENT_3D('',#1194,#1195,#1196);
#1198=PLANE('',#1197);
#1200=ORIENTED_EDGE('',*,*,#1199,.T.);
#1202=ORIENTED_EDGE('',*,*,#1201,.T.);
#1203=EDGE_LOOP('',(#1200,#1202));
#1204=FACE_OUTER_BOUND('',#1203,.F.);
#1205=ORIENTED_EDGE('',*,*,#1163,.T.);
#1206=ORIENTED_EDGE('',*,*,#1148,.T.);
#1207=EDGE_LOOP('',(#1205,#1206));
#1208=FACE_BOUND('',#1207,.F.);
#1209=ADVANCED_FACE('',(#1204,#1208),#1198,.F.);
#1210=CARTESIAN_POINT('',(-4.4E0,0.E0,0.E0));
#1211=DIRECTION('',(-1.E0,0.E0,0.E0));
#1212=DIRECTION('',(0.E0,0.E0,1.E0));
#1213=AXIS2_PLACEMENT_3D('',#1210,#1211,#1212);
#1214=TOROIDAL_SURFACE('',#1213,1.54E1,6.E-1);
#1216=ORIENTED_EDGE('',*,*,#1215,.T.);
#1218=ORIENTED_EDGE('',*,*,#1217,.T.);
#1219=ORIENTED_EDGE('',*,*,#1199,.F.);
#1221=ORIENTED_EDGE('',*,*,#1220,.F.);
#1222=EDGE_LOOP('',(#1216,#1218,#1219,#1221));
#1223=FACE_OUTER_BOUND('',#1222,.F.);
#1224=ADVANCED_FACE('',(#1223),#1214,.T.);
#1225=CARTESIAN_POINT('',(0.E0,0.E0,0.E0));
#1226=DIRECTION('',(-1.E0,0.E0,0.E0));
#1227=DIRECTION('',(0.E0,0.E0,1.E0));
#1228=AXIS2_PLACEMENT_3D('',#1225,#1226,#1227);
#1229=CYLINDRICAL_SURFACE('',#1228,1.6E1);
#1231=ORIENTED_EDGE('',*,*,#1230,.F.);
#1233=ORIENTED_EDGE('',*,*,#1232,.T.);
#1234=ORIENTED_EDGE('',*,*,#1215,.F.);
#1236=ORIENTED_EDGE('',*,*,#1235,.F.);
#1237=EDGE_LOOP('',(#1231,#1233,#1234,#1236));
#1238=FACE_OUTER_BOUND('',#1237,.F.);
#1239=ADVANCED_FACE('',(#1238),#1229,.T.);
#1240=CARTESIAN_POINT('',(4.4E0,0.E0,0.E0));
#1241=DIRECTION('',(-1.E0,0.E0,0.E0));
#1242=DIRECTION('',(0.E0,0.E0,1.E0));
#1243=AXIS2_PLACEMENT_3D('',#1240,#1241,#1242);
#1244=TOROIDAL_SURFACE('',#1243,1.54E1,6.E-1);
#1246=ORIENTED_EDGE('',*,*,#1245,.F.);
#1248=ORIENTED_EDGE('',*,*,#1247,.T.);
#1249=ORIENTED_EDGE('',*,*,#1230,.T.);
#1251=ORIENTED_EDGE('',*,*,#1250,.F.);
#1252=EDGE_LOOP('',(#1246,#1248,#1249,#1251));
#1253=FACE_OUTER_BOUND('',#1252,.F.);
#1254=ADVANCED_FACE('',(#1253),#1244,.T.);
#1255=CARTESIAN_POINT('',(5.E0,1.54E1,0.E0));
#1256=DIRECTION('',(-1.E0,0.E0,0.E0));
#1257=DIRECTION('',(0.E0,0.E0,1.E0));
#1258=AXIS2_PLACEMENT_3D('',#1255,#1256,#1257);
#1259=PLANE('',#1258);
#1260=ORIENTED_EDGE('',*,*,#1245,.T.);
#1262=ORIENTED_EDGE('',*,*,#1261,.T.);
#1263=EDGE_LOOP('',(#1260,#1262));
#1264=FACE_OUTER_BOUND('',#1263,.F.);
#1266=ORIENTED_EDGE('',*,*,#1265,.T.);
#1268=ORIENTED_EDGE('',*,*,#1267,.T.);
#1269=EDGE_LOOP('',(#1266,#1268));
#1270=FACE_BOUND('',#1269,.F.);
#1271=ADVANCED_FACE('',(#1264,#1270),#1259,.F.);
#1272=CARTESIAN_POINT('',(4.4E0,0.E0,0.E0));
#1273=DIRECTION('',(-1.E0,0.E0,0.E0));
#1274=DIRECTION('',(0.E0,0.E0,1.E0));
#1275=AXIS2_PLACEMENT_3D('',#1272,#1273,#1274);
#1276=TOROIDAL_SURFACE('',#1275,1.54E1,6.E-1);
#1277=ORIENTED_EDGE('',*,*,#1250,.T.);
#1279=ORIENTED_EDGE('',*,*,#1278,.T.);
#1280=ORIENTED_EDGE('',*,*,#1247,.F.);
#1281=ORIENTED_EDGE('',*,*,#1261,.F.);
#1282=EDGE_LOOP('',(#1277,#1279,#1280,#1281));
#1283=FACE_OUTER_BOUND('',#1282,.F.);
#1284=ADVANCED_FACE('',(#1283),#1276,.T.);
#1285=CARTESIAN_POINT('',(0.E0,0.E0,0.E0));
#1286=DIRECTION('',(-1.E0,0.E0,0.E0));
#1287=DIRECTION('',(0.E0,0.E0,1.E0));
#1288=AXIS2_PLACEMENT_3D('',#1285,#1286,#1287);
#1289=CYLINDRICAL_SURFACE('',#1288,1.6E1);
#1290=ORIENTED_EDGE('',*,*,#1235,.T.);
#1292=ORIENTED_EDGE('',*,*,#1291,.F.);
#1293=ORIENTED_EDGE('',*,*,#1232,.F.);
#1294=ORIENTED_EDGE('',*,*,#1278,.F.);
#1295=EDGE_LOOP('',(#1290,#1292,#1293,#1294));
#1296=FACE_OUTER_BOUND('',#1295,.F.);
#1297=ADVANCED_FACE('',(#1296),#1289,.T.);
#1298=CARTESIAN_POINT('',(-4.4E0,0.E0,0.E0));
#1299=DIRECTION('',(-1.E0,0.E0,0.E0));
#1300=DIRECTION('',(0.E0,0.E0,1.E0));
#1301=AXIS2_PLACEMENT_3D('',#1298,#1299,#1300);
#1302=TOROIDAL_SURFACE('',#1301,1.54E1,6.E-1);
#1303=ORIENTED_EDGE('',*,*,#1220,.T.);
#1304=ORIENTED_EDGE('',*,*,#1201,.F.);
#1305=ORIENTED_EDGE('',*,*,#1217,.F.);
#1306=ORIENTED_EDGE('',*,*,#1291,.T.);
#1307=EDGE_LOOP('',(#1303,#1304,#1305,#1306));
#1308=FACE_OUTER_BOUND('',#1307,.F.);
#1309=ADVANCED_FACE('',(#1308),#1302,.T.);
#1310=CARTESIAN_POINT('',(0.E0,0.E0,0.E0));
#1311=DIRECTION('',(-1.E0,0.E0,0.E0));
#1312=DIRECTION('',(0.E0,0.E0,1.E0));
#1313=AXIS2_PLACEMENT_3D('',#1310,#1311,#1312);
#1314=CYLINDRICAL_SURFACE('',#1313,1.316666666667E1);
#1316=ORIENTED_EDGE('',*,*,#1315,.F.);
#1318=ORIENTED_EDGE('',*,*,#1317,.F.);
#1319=ORIENTED_EDGE('',*,*,#1265,.F.);
#1321=ORIENTED_EDGE('',*,*,#1320,.T.);
#1322=EDGE_LOOP('',(#1316,#1318,#1319,#1321));
#1323=FACE_OUTER_BOUND('',#1322,.F.);
#1324=ADVANCED_FACE('',(#1323),#1314,.F.);
#1325=CARTESIAN_POINT('',(4.614250707435E0,0.E0,0.E0));
#1326=DIRECTION('',(1.E0,0.E0,0.E0));
#1327=DIRECTION('',(0.E0,0.E0,1.E0));
#1328=AXIS2_PLACEMENT_3D('',#1325,#1326,#1327);
#1329=CONICAL_SURFACE('',#1328,1.311521709112E1,3.096375653207E1);
#1330=ORIENTED_EDGE('',*,*,#1315,.T.);
#1332=ORIENTED_EDGE('',*,*,#1331,.F.);
#1334=ORIENTED_EDGE('',*,*,#1333,.F.);
#1336=ORIENTED_EDGE('',*,*,#1335,.T.);
#1337=EDGE_LOOP('',(#1330,#1332,#1334,#1336));
#1338=FACE_OUTER_BOUND('',#1337,.F.);
#1339=ADVANCED_FACE('',(#1338),#1329,.F.);
#1340=CARTESIAN_POINT('',(4.614250707435E0,0.E0,0.E0));
#1341=DIRECTION('',(1.E0,0.E0,0.E0));
#1342=DIRECTION('',(0.E0,0.E0,1.E0));
#1343=AXIS2_PLACEMENT_3D('',#1340,#1341,#1342);
#1344=CONICAL_SURFACE('',#1343,1.311521709112E1,3.096375653207E1);
#1346=ORIENTED_EDGE('',*,*,#1345,.T.);
#1347=ORIENTED_EDGE('',*,*,#1335,.F.);
#1349=ORIENTED_EDGE('',*,*,#1348,.F.);
#1350=ORIENTED_EDGE('',*,*,#1331,.T.);
#1351=EDGE_LOOP('',(#1346,#1347,#1349,#1350));
#1352=FACE_OUTER_BOUND('',#1351,.F.);
#1353=ADVANCED_FACE('',(#1352),#1344,.F.);
#1354=CARTESIAN_POINT('',(0.E0,0.E0,0.E0));
#1355=DIRECTION('',(-1.E0,0.E0,0.E0));
#1356=DIRECTION('',(0.E0,0.E0,1.E0));
#1357=AXIS2_PLACEMENT_3D('',#1354,#1355,#1356);
#1358=CYLINDRICAL_SURFACE('',#1357,1.316666666667E1);
#1359=ORIENTED_EDGE('',*,*,#1345,.F.);
#1360=ORIENTED_EDGE('',*,*,#1320,.F.);
#1361=ORIENTED_EDGE('',*,*,#1267,.F.);
#1362=ORIENTED_EDGE('',*,*,#1317,.T.);
#1363=EDGE_LOOP('',(#1359,#1360,#1361,#1362));
#1364=FACE_OUTER_BOUND('',#1363,.F.);
#1365=ADVANCED_FACE('',(#1364),#1358,.F.);
#1366=CARTESIAN_POINT('',(4.407631669530E0,0.E0,0.E0));
#1367=DIRECTION('',(-1.E0,0.E0,0.E0));
#1368=DIRECTION('',(0.E0,0.E0,-1.E0));
#1369=AXIS2_PLACEMENT_3D('',#1366,#1367,#1368);
#1370=CONICAL_SURFACE('',#1369,1.326521709112E1,5.903624346793E1);
#1372=ORIENTED_EDGE('',*,*,#1371,.T.);
#1374=ORIENTED_EDGE('',*,*,#1373,.T.);
#1376=ORIENTED_EDGE('',*,*,#1375,.F.);
#1377=ORIENTED_EDGE('',*,*,#1348,.T.);
#1378=EDGE_LOOP('',(#1372,#1374,#1376,#1377));
#1379=FACE_OUTER_BOUND('',#1378,.F.);
#1380=ADVANCED_FACE('',(#1379),#1370,.F.);
#1381=CARTESIAN_POINT('',(4.407631669530E0,0.E0,0.E0));
#1382=DIRECTION('',(-1.E0,0.E0,0.E0));
#1383=DIRECTION('',(0.E0,0.E0,-1.E0));
#1384=AXIS2_PLACEMENT_3D('',#1381,#1382,#1383);
#1385=CONICAL_SURFACE('',#1384,1.326521709112E1,5.903624346793E1);
#1386=ORIENTED_EDGE('',*,*,#1333,.T.);
#1387=ORIENTED_EDGE('',*,*,#1375,.T.);
#1389=ORIENTED_EDGE('',*,*,#1388,.T.);
#1390=ORIENTED_EDGE('',*,*,#1371,.F.);
#1391=EDGE_LOOP('',(#1386,#1387,#1389,#1390));
#1392=FACE_OUTER_BOUND('',#1391,.F.);
#1393=ADVANCED_FACE('',(#1392),#1385,.F.);
#1394=CARTESIAN_POINT('',(0.E0,0.E0,0.E0));
#1395=DIRECTION('',(1.E0,0.E0,0.E0));
#1396=DIRECTION('',(0.E0,0.E0,1.E0));
#1397=AXIS2_PLACEMENT_3D('',#1394,#1395,#1396);
#1398=CYLINDRICAL_SURFACE('',#1397,1.346666666667E1);
#1400=ORIENTED_EDGE('',*,*,#1399,.F.);
#1402=ORIENTED_EDGE('',*,*,#1401,.T.);
#1403=ORIENTED_EDGE('',*,*,#1388,.F.);
#1405=ORIENTED_EDGE('',*,*,#1404,.F.);
#1406=EDGE_LOOP('',(#1400,#1402,#1403,#1405));
#1407=FACE_OUTER_BOUND('',#1406,.F.);
#1408=ADVANCED_FACE('',(#1407),#1398,.F.);
#1409=CARTESIAN_POINT('',(4.E0,1.366666666667E1,0.E0));
#1410=DIRECTION('',(-1.E0,0.E0,0.E0));
#1411=DIRECTION('',(0.E0,0.E0,-1.E0));
#1412=AXIS2_PLACEMENT_3D('',#1409,#1410,#1411);
#1413=PLANE('',#1412);
#1414=ORIENTED_EDGE('',*,*,#1399,.T.);
#1416=ORIENTED_EDGE('',*,*,#1415,.T.);
#1417=EDGE_LOOP('',(#1414,#1416));
#1418=FACE_OUTER_BOUND('',#1417,.F.);
#1420=ORIENTED_EDGE('',*,*,#1419,.T.);
#1422=ORIENTED_EDGE('',*,*,#1421,.T.);
#1423=EDGE_LOOP('',(#1420,#1422));
#1424=FACE_BOUND('',#1423,.F.);
#1425=ADVANCED_FACE('',(#1418,#1424),#1413,.F.);
#1426=CARTESIAN_POINT('',(0.E0,0.E0,0.E0));
#1427=DIRECTION('',(1.E0,0.E0,0.E0));
#1428=DIRECTION('',(0.E0,0.E0,1.E0));
#1429=AXIS2_PLACEMENT_3D('',#1426,#1427,#1428);
#1430=CYLINDRICAL_SURFACE('',#1429,1.346666666667E1);
#1431=ORIENTED_EDGE('',*,*,#1404,.T.);
#1432=ORIENTED_EDGE('',*,*,#1373,.F.);
#1433=ORIENTED_EDGE('',*,*,#1401,.F.);
#1434=ORIENTED_EDGE('',*,*,#1415,.F.);
#1435=EDGE_LOOP('',(#1431,#1432,#1433,#1434));
#1436=FACE_OUTER_BOUND('',#1435,.F.);
#1437=ADVANCED_FACE('',(#1436),#1430,.F.);
#1438=CARTESIAN_POINT('',(4.385881606299E0,0.E0,0.E0));
#1439=DIRECTION('',(-1.E0,0.E0,0.E0));
#1440=DIRECTION('',(0.E0,0.E0,-1.E0));
#1441=AXIS2_PLACEMENT_3D('',#1438,#1439,#1440);
#1442=CONICAL_SURFACE('',#1441,1.239675213480E1,4.279740183823E1);
#1444=ORIENTED_EDGE('',*,*,#1443,.F.);
#1446=ORIENTED_EDGE('',*,*,#1445,.T.);
#1447=ORIENTED_EDGE('',*,*,#1419,.F.);
#1449=ORIENTED_EDGE('',*,*,#1448,.F.);
#1450=EDGE_LOOP('',(#1444,#1446,#1447,#1449));
#1451=FACE_OUTER_BOUND('',#1450,.F.);
#1452=ADVANCED_FACE('',(#1451),#1442,.T.);
#1453=CARTESIAN_POINT('',(4.5E0,0.E0,0.E0));
#1454=DIRECTION('',(1.E0,0.E0,0.E0));
#1455=DIRECTION('',(0.E0,0.E0,1.E0));
#1456=AXIS2_PLACEMENT_3D('',#1453,#1454,#1455);
#1457=TOROIDAL_SURFACE('',#1456,1.174595008159E1,4.E-1);
#1458=ORIENTED_EDGE('',*,*,#1443,.T.);
#1460=ORIENTED_EDGE('',*,*,#1459,.T.);
#1462=ORIENTED_EDGE('',*,*,#1461,.F.);
#1464=ORIENTED_EDGE('',*,*,#1463,.F.);
#1465=EDGE_LOOP('',(#1458,#1460,#1462,#1464));
#1466=FACE_OUTER_BOUND('',#1465,.F.);
#1467=ADVANCED_FACE('',(#1466),#1457,.T.);
#1468=CARTESIAN_POINT('',(4.5E0,0.E0,0.E0));
#1469=DIRECTION('',(1.E0,0.E0,0.E0));
#1470=DIRECTION('',(0.E0,0.E0,1.E0));
#1471=AXIS2_PLACEMENT_3D('',#1468,#1469,#1470);
#1472=TOROIDAL_SURFACE('',#1471,1.174595008159E1,4.E-1);
#1473=ORIENTED_EDGE('',*,*,#1463,.T.);
#1475=ORIENTED_EDGE('',*,*,#1474,.F.);
#1476=ORIENTED_EDGE('',*,*,#1459,.F.);
#1478=ORIENTED_EDGE('',*,*,#1477,.T.);
#1479=EDGE_LOOP('',(#1473,#1475,#1476,#1478));
#1480=FACE_OUTER_BOUND('',#1479,.F.);
#1481=ADVANCED_FACE('',(#1480),#1472,.T.);
#1482=CARTESIAN_POINT('',(4.9E0,1.174595008159E1,0.E0));
#1483=DIRECTION('',(-1.E0,0.E0,0.E0));
#1484=DIRECTION('',(0.E0,0.E0,-1.E0));
#1485=AXIS2_PLACEMENT_3D('',#1482,#1483,#1484);
#1486=PLANE('',#1485);
#1487=ORIENTED_EDGE('',*,*,#1474,.T.);
#1488=ORIENTED_EDGE('',*,*,#1461,.T.);
#1489=EDGE_LOOP('',(#1487,#1488));
#1490=FACE_OUTER_BOUND('',#1489,.F.);
#1492=ORIENTED_EDGE('',*,*,#1491,.T.);
#1494=ORIENTED_EDGE('',*,*,#1493,.T.);
#1495=EDGE_LOOP('',(#1492,#1494));
#1496=FACE_BOUND('',#1495,.F.);
#1497=ADVANCED_FACE('',(#1490,#1496),#1486,.F.);
#1498=CARTESIAN_POINT('',(4.5E0,0.E0,0.E0));
#1499=DIRECTION('',(1.E0,0.E0,0.E0));
#1500=DIRECTION('',(0.E0,0.E0,1.E0));
#1501=AXIS2_PLACEMENT_3D('',#1498,#1499,#1500);
#1502=TOROIDAL_SURFACE('',#1501,9.533333333333E0,4.E-1);
#1504=ORIENTED_EDGE('',*,*,#1503,.T.);
#1506=ORIENTED_EDGE('',*,*,#1505,.T.);
#1508=ORIENTED_EDGE('',*,*,#1507,.F.);
#1509=ORIENTED_EDGE('',*,*,#1491,.F.);
#1510=EDGE_LOOP('',(#1504,#1506,#1508,#1509));
#1511=FACE_OUTER_BOUND('',#1510,.F.);
#1512=ADVANCED_FACE('',(#1511),#1502,.T.);
#1513=CARTESIAN_POINT('',(4.5E0,0.E0,0.E0));
#1514=DIRECTION('',(1.E0,0.E0,0.E0));
#1515=DIRECTION('',(0.E0,0.E0,1.E0));
#1516=AXIS2_PLACEMENT_3D('',#1513,#1514,#1515);
#1517=TOROIDAL_SURFACE('',#1516,9.533333333333E0,4.E-1);
#1518=ORIENTED_EDGE('',*,*,#1493,.F.);
#1519=ORIENTED_EDGE('',*,*,#1507,.T.);
#1521=ORIENTED_EDGE('',*,*,#1520,.T.);
#1522=ORIENTED_EDGE('',*,*,#1503,.F.);
#1523=EDGE_LOOP('',(#1518,#1519,#1521,#1522));
#1524=FACE_OUTER_BOUND('',#1523,.F.);
#1525=ADVANCED_FACE('',(#1524),#1517,.T.);
#1526=CARTESIAN_POINT('',(0.E0,0.E0,0.E0));
#1527=DIRECTION('',(1.E0,0.E0,0.E0));
#1528=DIRECTION('',(0.E0,0.E0,1.E0));
#1529=AXIS2_PLACEMENT_3D('',#1526,#1527,#1528);
#1530=CYLINDRICAL_SURFACE('',#1529,9.133333333333E0);
#1532=ORIENTED_EDGE('',*,*,#1531,.T.);
#1534=ORIENTED_EDGE('',*,*,#1533,.T.);
#1535=ORIENTED_EDGE('',*,*,#1520,.F.);
#1537=ORIENTED_EDGE('',*,*,#1536,.F.);
#1538=EDGE_LOOP('',(#1532,#1534,#1535,#1537));
#1539=FACE_OUTER_BOUND('',#1538,.F.);
#1540=ADVANCED_FACE('',(#1539),#1530,.F.);
#1541=CARTESIAN_POINT('',(3.8E0,9.333333333333E0,0.E0));
#1542=DIRECTION('',(-1.E0,0.E0,0.E0));
#1543=DIRECTION('',(0.E0,0.E0,1.E0));
#1544=AXIS2_PLACEMENT_3D('',#1541,#1542,#1543);
#1545=PLANE('',#1544);
#1546=ORIENTED_EDGE('',*,*,#1531,.F.);
#1548=ORIENTED_EDGE('',*,*,#1547,.F.);
#1549=EDGE_LOOP('',(#1546,#1548));
#1550=FACE_OUTER_BOUND('',#1549,.F.);
#1552=ORIENTED_EDGE('',*,*,#1551,.T.);
#1554=ORIENTED_EDGE('',*,*,#1553,.T.);
#1555=EDGE_LOOP('',(#1552,#1554));
#1556=FACE_BOUND('',#1555,.F.);
#1557=ADVANCED_FACE('',(#1550,#1556),#1545,.F.);
#1558=CARTESIAN_POINT('',(0.E0,0.E0,0.E0));
#1559=DIRECTION('',(1.E0,0.E0,0.E0));
#1560=DIRECTION('',(0.E0,0.E0,1.E0));
#1561=AXIS2_PLACEMENT_3D('',#1558,#1559,#1560);
#1562=CYLINDRICAL_SURFACE('',#1561,9.133333333333E0);
#1563=ORIENTED_EDGE('',*,*,#1547,.T.);
#1564=ORIENTED_EDGE('',*,*,#1536,.T.);
#1565=ORIENTED_EDGE('',*,*,#1505,.F.);
#1566=ORIENTED_EDGE('',*,*,#1533,.F.);
#1567=EDGE_LOOP('',(#1563,#1564,#1565,#1566));
#1568=FACE_OUTER_BOUND('',#1567,.F.);
#1569=ADVANCED_FACE('',(#1568),#1562,.F.);
#1570=CARTESIAN_POINT('',(0.E0,0.E0,0.E0));
#1571=DIRECTION('',(-1.E0,0.E0,0.E0));
#1572=DIRECTION('',(0.E0,0.E0,1.E0));
#1573=AXIS2_PLACEMENT_3D('',#1570,#1571,#1572);
#1574=CYLINDRICAL_SURFACE('',#1573,8.333333333333E0);
#1576=ORIENTED_EDGE('',*,*,#1575,.F.);
#1578=ORIENTED_EDGE('',*,*,#1577,.T.);
#1579=ORIENTED_EDGE('',*,*,#1551,.F.);
#1581=ORIENTED_EDGE('',*,*,#1580,.F.);
#1582=EDGE_LOOP('',(#1576,#1578,#1579,#1581));
#1583=FACE_OUTER_BOUND('',#1582,.F.);
#1584=ADVANCED_FACE('',(#1583),#1574,.T.);
#1585=CARTESIAN_POINT('',(4.55E0,0.E0,0.E0));
#1586=DIRECTION('',(1.E0,0.E0,0.E0));
#1587=DIRECTION('',(0.E0,0.E0,-1.E0));
#1588=AXIS2_PLACEMENT_3D('',#1585,#1586,#1587);
#1589=CONICAL_SURFACE('',#1588,8.583333333333E0,5.903624346793E1);
#1590=ORIENTED_EDGE('',*,*,#1575,.T.);
#1592=ORIENTED_EDGE('',*,*,#1591,.T.);
#1594=ORIENTED_EDGE('',*,*,#1593,.T.);
#1596=ORIENTED_EDGE('',*,*,#1595,.F.);
#1597=EDGE_LOOP('',(#1590,#1592,#1594,#1596));
#1598=FACE_OUTER_BOUND('',#1597,.F.);
#1599=ADVANCED_FACE('',(#1598),#1589,.T.);
#1600=CARTESIAN_POINT('',(4.55E0,0.E0,0.E0));
#1601=DIRECTION('',(1.E0,0.E0,0.E0));
#1602=DIRECTION('',(0.E0,0.E0,-1.E0));
#1603=AXIS2_PLACEMENT_3D('',#1600,#1601,#1602);
#1604=CONICAL_SURFACE('',#1603,8.583333333333E0,5.903624346793E1);
#1605=ORIENTED_EDGE('',*,*,#1595,.T.);
#1607=ORIENTED_EDGE('',*,*,#1606,.T.);
#1608=ORIENTED_EDGE('',*,*,#1591,.F.);
#1610=ORIENTED_EDGE('',*,*,#1609,.T.);
#1611=EDGE_LOOP('',(#1605,#1607,#1608,#1610));
#1612=FACE_OUTER_BOUND('',#1611,.F.);
#1613=ADVANCED_FACE('',(#1612),#1604,.T.);
#1614=CARTESIAN_POINT('',(0.E0,0.E0,0.E0));
#1615=DIRECTION('',(-1.E0,0.E0,0.E0));
#1616=DIRECTION('',(0.E0,0.E0,1.E0));
#1617=AXIS2_PLACEMENT_3D('',#1614,#1615,#1616);
#1618=CYLINDRICAL_SURFACE('',#1617,8.833333333333E0);
#1620=ORIENTED_EDGE('',*,*,#1619,.T.);
#1621=ORIENTED_EDGE('',*,*,#1606,.F.);
#1623=ORIENTED_EDGE('',*,*,#1622,.F.);
#1625=ORIENTED_EDGE('',*,*,#1624,.F.);
#1626=EDGE_LOOP('',(#1620,#1621,#1623,#1625));
#1627=FACE_OUTER_BOUND('',#1626,.F.);
#1628=ADVANCED_FACE('',(#1627),#1618,.T.);
#1629=CARTESIAN_POINT('',(0.E0,0.E0,0.E0));
#1630=DIRECTION('',(-1.E0,0.E0,0.E0));
#1631=DIRECTION('',(0.E0,0.E0,1.E0));
#1632=AXIS2_PLACEMENT_3D('',#1629,#1630,#1631);
#1633=CYLINDRICAL_SURFACE('',#1632,8.833333333333E0);
#1635=ORIENTED_EDGE('',*,*,#1634,.F.);
#1636=ORIENTED_EDGE('',*,*,#1622,.T.);
#1637=ORIENTED_EDGE('',*,*,#1593,.F.);
#1638=ORIENTED_EDGE('',*,*,#1619,.F.);
#1639=EDGE_LOOP('',(#1635,#1636,#1637,#1638));
#1640=FACE_OUTER_BOUND('',#1639,.F.);
#1641=ADVANCED_FACE('',(#1640),#1633,.T.);
#1642=CARTESIAN_POINT('',(5.E0,8.833333333333E0,0.E0));
#1643=DIRECTION('',(-1.E0,0.E0,0.E0));
#1644=DIRECTION('',(0.E0,0.E0,1.E0));
#1645=AXIS2_PLACEMENT_3D('',#1642,#1643,#1644);
#1646=PLANE('',#1645);
#1647=ORIENTED_EDGE('',*,*,#1634,.T.);
#1648=ORIENTED_EDGE('',*,*,#1624,.T.);
#1649=EDGE_LOOP('',(#1647,#1648));
#1650=FACE_OUTER_BOUND('',#1649,.F.);
#1652=ORIENTED_EDGE('',*,*,#1651,.T.);
#1654=ORIENTED_EDGE('',*,*,#1653,.T.);
#1655=EDGE_LOOP('',(#1652,#1654));
#1656=FACE_BOUND('',#1655,.F.);
#1657=ADVANCED_FACE('',(#1650,#1656),#1646,.F.);
#1658=CARTESIAN_POINT('',(4.4E0,0.E0,0.E0));
#1659=DIRECTION('',(-1.E0,0.E0,0.E0));
#1660=DIRECTION('',(0.E0,0.E0,1.E0));
#1661=AXIS2_PLACEMENT_3D('',#1658,#1659,#1660);
#1662=TOROIDAL_SURFACE('',#1661,6.6E0,6.E-1);
#1664=ORIENTED_EDGE('',*,*,#1663,.T.);
#1666=ORIENTED_EDGE('',*,*,#1665,.T.);
#1667=ORIENTED_EDGE('',*,*,#1651,.F.);
#1669=ORIENTED_EDGE('',*,*,#1668,.F.);
#1670=EDGE_LOOP('',(#1664,#1666,#1667,#1669));
#1671=FACE_OUTER_BOUND('',#1670,.F.);
#1672=ADVANCED_FACE('',(#1671),#1662,.T.);
#1673=CARTESIAN_POINT('',(0.E0,0.E0,0.E0));
#1674=DIRECTION('',(-1.E0,0.E0,0.E0));
#1675=DIRECTION('',(0.E0,0.E0,1.E0));
#1676=AXIS2_PLACEMENT_3D('',#1673,#1674,#1675);
#1677=CYLINDRICAL_SURFACE('',#1676,6.E0);
#1679=ORIENTED_EDGE('',*,*,#1678,.T.);
#1681=ORIENTED_EDGE('',*,*,#1680,.F.);
#1683=ORIENTED_EDGE('',*,*,#1682,.F.);
#1684=ORIENTED_EDGE('',*,*,#1663,.F.);
#1685=EDGE_LOOP('',(#1679,#1681,#1683,#1684));
#1686=FACE_OUTER_BOUND('',#1685,.F.);
#1687=ADVANCED_FACE('',(#1686),#1677,.F.);
#1688=CARTESIAN_POINT('',(0.E0,0.E0,0.E0));
#1689=DIRECTION('',(-1.E0,0.E0,0.E0));
#1690=DIRECTION('',(0.E0,0.E0,1.E0));
#1691=AXIS2_PLACEMENT_3D('',#1688,#1689,#1690);
#1692=CYLINDRICAL_SURFACE('',#1691,6.E0);
#1694=ORIENTED_EDGE('',*,*,#1693,.F.);
#1695=ORIENTED_EDGE('',*,*,#1682,.T.);
#1697=ORIENTED_EDGE('',*,*,#1696,.F.);
#1698=ORIENTED_EDGE('',*,*,#1678,.F.);
#1699=EDGE_LOOP('',(#1694,#1695,#1697,#1698));
#1700=FACE_OUTER_BOUND('',#1699,.F.);
#1701=ADVANCED_FACE('',(#1700),#1692,.F.);
#1702=CARTESIAN_POINT('',(4.4E0,0.E0,0.E0));
#1703=DIRECTION('',(-1.E0,0.E0,0.E0));
#1704=DIRECTION('',(0.E0,0.E0,1.E0));
#1705=AXIS2_PLACEMENT_3D('',#1702,#1703,#1704);
#1706=TOROIDAL_SURFACE('',#1705,6.6E0,6.E-1);
#1707=ORIENTED_EDGE('',*,*,#1668,.T.);
#1708=ORIENTED_EDGE('',*,*,#1653,.F.);
#1709=ORIENTED_EDGE('',*,*,#1665,.F.);
#1710=ORIENTED_EDGE('',*,*,#1693,.T.);
#1711=EDGE_LOOP('',(#1707,#1708,#1709,#1710));
#1712=FACE_OUTER_BOUND('',#1711,.F.);
#1713=ADVANCED_FACE('',(#1712),#1706,.T.);
#1714=CARTESIAN_POINT('',(-4.4E0,0.E0,0.E0));
#1715=DIRECTION('',(-1.E0,0.E0,0.E0));
#1716=DIRECTION('',(0.E0,0.E0,1.E0));
#1717=AXIS2_PLACEMENT_3D('',#1714,#1715,#1716);
#1718=TOROIDAL_SURFACE('',#1717,6.6E0,6.E-1);
#1720=ORIENTED_EDGE('',*,*,#1719,.T.);
#1721=ORIENTED_EDGE('',*,*,#1696,.T.);
#1723=ORIENTED_EDGE('',*,*,#1722,.F.);
#1725=ORIENTED_EDGE('',*,*,#1724,.F.);
#1726=EDGE_LOOP('',(#1720,#1721,#1723,#1725));
#1727=FACE_OUTER_BOUND('',#1726,.F.);
#1728=ADVANCED_FACE('',(#1727),#1718,.T.);
#1729=CARTESIAN_POINT('',(-4.4E0,0.E0,0.E0));
#1730=DIRECTION('',(-1.E0,0.E0,0.E0));
#1731=DIRECTION('',(0.E0,0.E0,1.E0));
#1732=AXIS2_PLACEMENT_3D('',#1729,#1730,#1731);
#1733=TOROIDAL_SURFACE('',#1732,6.6E0,6.E-1);
#1735=ORIENTED_EDGE('',*,*,#1734,.F.);
#1736=ORIENTED_EDGE('',*,*,#1722,.T.);
#1737=ORIENTED_EDGE('',*,*,#1680,.T.);
#1738=ORIENTED_EDGE('',*,*,#1719,.F.);
#1739=EDGE_LOOP('',(#1735,#1736,#1737,#1738));
#1740=FACE_OUTER_BOUND('',#1739,.F.);
#1741=ADVANCED_FACE('',(#1740),#1733,.T.);
#1742=CARTESIAN_POINT('',(-5.E0,8.833333333333E0,0.E0));
#1743=DIRECTION('',(1.E0,0.E0,0.E0));
#1744=DIRECTION('',(0.E0,0.E0,-1.E0));
#1745=AXIS2_PLACEMENT_3D('',#1742,#1743,#1744);
#1746=PLANE('',#1745);
#1748=ORIENTED_EDGE('',*,*,#1747,.T.);
#1750=ORIENTED_EDGE('',*,*,#1749,.T.);
#1751=EDGE_LOOP('',(#1748,#1750));
#1752=FACE_OUTER_BOUND('',#1751,.F.);
#1753=ORIENTED_EDGE('',*,*,#1734,.T.);
#1754=ORIENTED_EDGE('',*,*,#1724,.T.);
#1755=EDGE_LOOP('',(#1753,#1754));
#1756=FACE_BOUND('',#1755,.F.);
#1757=ADVANCED_FACE('',(#1752,#1756),#1746,.F.);
#1758=CARTESIAN_POINT('',(0.E0,0.E0,0.E0));
#1759=DIRECTION('',(-1.E0,0.E0,0.E0));
#1760=DIRECTION('',(0.E0,0.E0,1.E0));
#1761=AXIS2_PLACEMENT_3D('',#1758,#1759,#1760);
#1762=CYLINDRICAL_SURFACE('',#1761,8.833333333333E0);
#1764=ORIENTED_EDGE('',*,*,#1763,.F.);
#1766=ORIENTED_EDGE('',*,*,#1765,.T.);
#1767=ORIENTED_EDGE('',*,*,#1747,.F.);
#1769=ORIENTED_EDGE('',*,*,#1768,.F.);
#1770=EDGE_LOOP('',(#1764,#1766,#1767,#1769));
#1771=FACE_OUTER_BOUND('',#1770,.F.);
#1772=ADVANCED_FACE('',(#1771),#1762,.T.);
#1773=CARTESIAN_POINT('',(-4.55E0,0.E0,0.E0));
#1774=DIRECTION('',(-1.E0,0.E0,0.E0));
#1775=DIRECTION('',(0.E0,0.E0,1.E0));
#1776=AXIS2_PLACEMENT_3D('',#1773,#1774,#1775);
#1777=CONICAL_SURFACE('',#1776,8.583333333333E0,5.903624346793E1);
#1779=ORIENTED_EDGE('',*,*,#1778,.T.);
#1781=ORIENTED_EDGE('',*,*,#1780,.T.);
#1782=ORIENTED_EDGE('',*,*,#1763,.T.);
#1784=ORIENTED_EDGE('',*,*,#1783,.F.);
#1785=EDGE_LOOP('',(#1779,#1781,#1782,#1784));
#1786=FACE_OUTER_BOUND('',#1785,.F.);
#1787=ADVANCED_FACE('',(#1786),#1777,.T.);
#1788=CARTESIAN_POINT('',(0.E0,0.E0,0.E0));
#1789=DIRECTION('',(-1.E0,0.E0,0.E0));
#1790=DIRECTION('',(0.E0,0.E0,1.E0));
#1791=AXIS2_PLACEMENT_3D('',#1788,#1789,#1790);
#1792=CYLINDRICAL_SURFACE('',#1791,8.333333333333E0);
#1794=ORIENTED_EDGE('',*,*,#1793,.F.);
#1796=ORIENTED_EDGE('',*,*,#1795,.T.);
#1797=ORIENTED_EDGE('',*,*,#1778,.F.);
#1799=ORIENTED_EDGE('',*,*,#1798,.F.);
#1800=EDGE_LOOP('',(#1794,#1796,#1797,#1799));
#1801=FACE_OUTER_BOUND('',#1800,.F.);
#1802=ADVANCED_FACE('',(#1801),#1792,.T.);
#1803=CARTESIAN_POINT('',(-3.8E0,9.333333333333E0,0.E0));
#1804=DIRECTION('',(1.E0,0.E0,0.E0));
#1805=DIRECTION('',(0.E0,0.E0,-1.E0));
#1806=AXIS2_PLACEMENT_3D('',#1803,#1804,#1805);
#1807=PLANE('',#1806);
#1809=ORIENTED_EDGE('',*,*,#1808,.F.);
#1811=ORIENTED_EDGE('',*,*,#1810,.F.);
#1812=EDGE_LOOP('',(#1809,#1811));
#1813=FACE_OUTER_BOUND('',#1812,.F.);
#1814=ORIENTED_EDGE('',*,*,#1793,.T.);
#1816=ORIENTED_EDGE('',*,*,#1815,.T.);
#1817=EDGE_LOOP('',(#1814,#1816));
#1818=FACE_BOUND('',#1817,.F.);
#1819=ADVANCED_FACE('',(#1813,#1818),#1807,.F.);
#1820=CARTESIAN_POINT('',(0.E0,0.E0,0.E0));
#1821=DIRECTION('',(-1.E0,0.E0,0.E0));
#1822=DIRECTION('',(0.E0,0.E0,1.E0));
#1823=AXIS2_PLACEMENT_3D('',#1820,#1821,#1822);
#1824=CYLINDRICAL_SURFACE('',#1823,9.133333333333E0);
#1825=ORIENTED_EDGE('',*,*,#1808,.T.);
#1827=ORIENTED_EDGE('',*,*,#1826,.T.);
#1828=ORIENTED_EDGE('',*,*,#1000,.F.);
#1830=ORIENTED_EDGE('',*,*,#1829,.F.);
#1831=EDGE_LOOP('',(#1825,#1827,#1828,#1830));
#1832=FACE_OUTER_BOUND('',#1831,.F.);
#1833=ADVANCED_FACE('',(#1832),#1824,.F.);
#1834=CARTESIAN_POINT('',(0.E0,0.E0,0.E0));
#1835=DIRECTION('',(-1.E0,0.E0,0.E0));
#1836=DIRECTION('',(0.E0,0.E0,1.E0));
#1837=AXIS2_PLACEMENT_3D('',#1834,#1835,#1836);
#1838=CYLINDRICAL_SURFACE('',#1837,9.133333333333E0);
#1839=ORIENTED_EDGE('',*,*,#1810,.T.);
#1840=ORIENTED_EDGE('',*,*,#1829,.T.);
#1841=ORIENTED_EDGE('',*,*,#983,.F.);
#1842=ORIENTED_EDGE('',*,*,#1826,.F.);
#1843=EDGE_LOOP('',(#1839,#1840,#1841,#1842));
#1844=FACE_OUTER_BOUND('',#1843,.F.);
#1845=ADVANCED_FACE('',(#1844),#1838,.F.);
#1846=CARTESIAN_POINT('',(0.E0,0.E0,0.E0));
#1847=DIRECTION('',(-1.E0,0.E0,0.E0));
#1848=DIRECTION('',(0.E0,0.E0,1.E0));
#1849=AXIS2_PLACEMENT_3D('',#1846,#1847,#1848);
#1850=CYLINDRICAL_SURFACE('',#1849,8.333333333333E0);
#1851=ORIENTED_EDGE('',*,*,#1798,.T.);
#1853=ORIENTED_EDGE('',*,*,#1852,.F.);
#1854=ORIENTED_EDGE('',*,*,#1795,.F.);
#1855=ORIENTED_EDGE('',*,*,#1815,.F.);
#1856=EDGE_LOOP('',(#1851,#1853,#1854,#1855));
#1857=FACE_OUTER_BOUND('',#1856,.F.);
#1858=ADVANCED_FACE('',(#1857),#1850,.T.);
#1859=CARTESIAN_POINT('',(-4.55E0,0.E0,0.E0));
#1860=DIRECTION('',(-1.E0,0.E0,0.E0));
#1861=DIRECTION('',(0.E0,0.E0,1.E0));
#1862=AXIS2_PLACEMENT_3D('',#1859,#1860,#1861);
#1863=CONICAL_SURFACE('',#1862,8.583333333333E0,5.903624346793E1);
#1864=ORIENTED_EDGE('',*,*,#1783,.T.);
#1866=ORIENTED_EDGE('',*,*,#1865,.T.);
#1867=ORIENTED_EDGE('',*,*,#1780,.F.);
#1868=ORIENTED_EDGE('',*,*,#1852,.T.);
#1869=EDGE_LOOP('',(#1864,#1866,#1867,#1868));
#1870=FACE_OUTER_BOUND('',#1869,.F.);
#1871=ADVANCED_FACE('',(#1870),#1863,.T.);
#1872=CARTESIAN_POINT('',(0.E0,0.E0,0.E0));
#1873=DIRECTION('',(-1.E0,0.E0,0.E0));
#1874=DIRECTION('',(0.E0,0.E0,1.E0));
#1875=AXIS2_PLACEMENT_3D('',#1872,#1873,#1874);
#1876=CYLINDRICAL_SURFACE('',#1875,8.833333333333E0);
#1877=ORIENTED_EDGE('',*,*,#1768,.T.);
#1878=ORIENTED_EDGE('',*,*,#1749,.F.);
#1879=ORIENTED_EDGE('',*,*,#1765,.F.);
#1880=ORIENTED_EDGE('',*,*,#1865,.F.);
#1881=EDGE_LOOP('',(#1877,#1878,#1879,#1880));
#1882=FACE_OUTER_BOUND('',#1881,.F.);
#1883=ADVANCED_FACE('',(#1882),#1876,.T.);
#1884=CARTESIAN_POINT('',(0.E0,0.E0,0.E0));
#1885=DIRECTION('',(-1.E0,0.E0,0.E0));
#1886=DIRECTION('',(0.E0,0.E0,1.E0));
#1887=AXIS2_PLACEMENT_3D('',#1884,#1885,#1886);
#1888=CYLINDRICAL_SURFACE('',#1887,8.333333333333E0);
#1889=ORIENTED_EDGE('',*,*,#1580,.T.);
#1890=ORIENTED_EDGE('',*,*,#1553,.F.);
#1891=ORIENTED_EDGE('',*,*,#1577,.F.);
#1892=ORIENTED_EDGE('',*,*,#1609,.F.);
#1893=EDGE_LOOP('',(#1889,#1890,#1891,#1892));
#1894=FACE_OUTER_BOUND('',#1893,.F.);
#1895=ADVANCED_FACE('',(#1894),#1888,.T.);
#1896=CARTESIAN_POINT('',(4.385881606299E0,0.E0,0.E0));
#1897=DIRECTION('',(-1.E0,0.E0,0.E0));
#1898=DIRECTION('',(0.E0,0.E0,-1.E0));
#1899=AXIS2_PLACEMENT_3D('',#1896,#1897,#1898);
#1900=CONICAL_SURFACE('',#1899,1.239675213480E1,4.279740183823E1);
#1901=ORIENTED_EDGE('',*,*,#1448,.T.);
#1902=ORIENTED_EDGE('',*,*,#1421,.F.);
#1903=ORIENTED_EDGE('',*,*,#1445,.F.);
#1904=ORIENTED_EDGE('',*,*,#1477,.F.);
#1905=EDGE_LOOP('',(#1901,#1902,#1903,#1904));
#1906=FACE_OUTER_BOUND('',#1905,.F.);
#1907=ADVANCED_FACE('',(#1906),#1900,.T.);
#1908=CARTESIAN_POINT('',(-4.5E0,0.E0,0.E0));
#1909=DIRECTION('',(-1.E0,0.E0,0.E0));
#1910=DIRECTION('',(0.E0,0.E0,1.E0));
#1911=AXIS2_PLACEMENT_3D('',#1908,#1909,#1910);
#1912=TOROIDAL_SURFACE('',#1911,1.174595008159E1,4.E-1);
#1913=ORIENTED_EDGE('',*,*,#1032,.T.);
#1914=ORIENTED_EDGE('',*,*,#1013,.F.);
#1915=ORIENTED_EDGE('',*,*,#1029,.F.);
#1916=ORIENTED_EDGE('',*,*,#1061,.T.);
#1917=EDGE_LOOP('',(#1913,#1914,#1915,#1916));
#1918=FACE_OUTER_BOUND('',#1917,.F.);
#1919=ADVANCED_FACE('',(#1918),#1912,.T.);
#1920=CLOSED_SHELL('',(#991,#1005,#1021,#1036,#1051,#1065,#1081,#1096,#1109,
#1124,#1139,#1154,#1168,#1181,#1193,#1209,#1224,#1239,#1254,#1271,#1284,#1297,
#1309,#1324,#1339,#1353,#1365,#1380,#1393,#1408,#1425,#1437,#1452,#1467,#1481,
#1497,#1512,#1525,#1540,#1557,#1569,#1584,#1599,#1613,#1628,#1641,#1657,#1672,
#1687,#1701,#1713,#1728,#1741,#1757,#1772,#1787,#1802,#1819,#1833,#1845,#1858,
#1871,#1883,#1895,#1907,#1919));
#1921=MANIFOLD_SOLID_BREP('',#1920);
#1923=DIMENSIONAL_EXPONENTS(0.E0,0.E0,0.E0,0.E0,0.E0,0.E0,0.E0);
#1925=PLANE_ANGLE_MEASURE_WITH_UNIT(PLANE_ANGLE_MEASURE(1.745329251994E-2),
#1924);
#1926=(CONVERSION_BASED_UNIT('DEGREE',#1925)NAMED_UNIT(*)PLANE_ANGLE_UNIT());
#1928=UNCERTAINTY_MEASURE_WITH_UNIT(LENGTH_MEASURE(5.E-3),#1922,'closure',
'Maximum model space distance between geometric entities at asserted connectivities');
#1929=(GEOMETRIC_REPRESENTATION_CONTEXT(3)GLOBAL_UNCERTAINTY_ASSIGNED_CONTEXT((
#1928))GLOBAL_UNIT_ASSIGNED_CONTEXT((#1922,#1926,#1927))REPRESENTATION_CONTEXT(
'ID1','3'));
#1931=APPLICATION_CONTEXT(
'CONFIGURATION CONTROLLED 3D DESIGNS OF MECHANICAL PARTS AND ASSEMBLIES');
#1932=APPLICATION_PROTOCOL_DEFINITION('international standard',
'config_control_design',1994,#1931);
#1933=DESIGN_CONTEXT('',#1931,'design');
#1934=MECHANICAL_CONTEXT('',#1931,'mechanical');
#1935=PRODUCT('6201ZZ_-_EA036','6201ZZ_-_EA036','NOT SPECIFIED',(#1934));
#1936=PRODUCT_DEFINITION_FORMATION_WITH_SPECIFIED_SOURCE('1','LAST_VERSION',
#1935,.MADE.);
#1940=PRODUCT_CATEGORY('part','');
#1941=PRODUCT_RELATED_PRODUCT_CATEGORY('detail','',(#1935));
#1942=PRODUCT_CATEGORY_RELATIONSHIP('','',#1940,#1941);
#1943=SECURITY_CLASSIFICATION_LEVEL('unclassified');
#1944=SECURITY_CLASSIFICATION('','',#1943);
#1945=CC_DESIGN_SECURITY_CLASSIFICATION(#1944,(#1936));
#1946=APPROVAL_STATUS('approved');
#1947=APPROVAL(#1946,'');
#1948=CC_DESIGN_APPROVAL(#1947,(#1944,#1936,#1937));
#1949=CALENDAR_DATE(125,19,12);
#1950=COORDINATED_UNIVERSAL_TIME_OFFSET(8,0,.AHEAD.);
#1951=LOCAL_TIME(11,21,2.7E1,#1950);
#1952=DATE_AND_TIME(#1949,#1951);
#1953=APPROVAL_DATE_TIME(#1952,#1947);
#1954=DATE_TIME_ROLE('creation_date');
#1955=CC_DESIGN_DATE_AND_TIME_ASSIGNMENT(#1952,#1954,(#1937));
#1956=DATE_TIME_ROLE('classification_date');
#1957=CC_DESIGN_DATE_AND_TIME_ASSIGNMENT(#1952,#1956,(#1944));
#1958=PERSON('UNSPECIFIED','UNSPECIFIED',$,$,$,$);
#1959=ORGANIZATION('UNSPECIFIED','UNSPECIFIED','UNSPECIFIED');
#1960=PERSON_AND_ORGANIZATION(#1958,#1959);
#1961=APPROVAL_ROLE('approver');
#1962=APPROVAL_PERSON_ORGANIZATION(#1960,#1947,#1961);
#1963=PERSON_AND_ORGANIZATION_ROLE('creator');
#1964=CC_DESIGN_PERSON_AND_ORGANIZATION_ASSIGNMENT(#1960,#1963,(#1936,#1937));
#1965=PERSON_AND_ORGANIZATION_ROLE('design_supplier');
#1966=CC_DESIGN_PERSON_AND_ORGANIZATION_ASSIGNMENT(#1960,#1965,(#1936));
#1967=PERSON_AND_ORGANIZATION_ROLE('classification_officer');
#1968=CC_DESIGN_PERSON_AND_ORGANIZATION_ASSIGNMENT(#1960,#1967,(#1944));
#1969=PERSON_AND_ORGANIZATION_ROLE('design_owner');
#1970=CC_DESIGN_PERSON_AND_ORGANIZATION_ASSIGNMENT(#1960,#1969,(#1935));
#1=DRAUGHTING_PRE_DEFINED_COLOUR('black');
#2=COLOUR_RGB('',0.E0,0.E0,4.7E-1);
#3=COLOUR_RGB('',0.E0,0.E0,6.E-1);
#4=COLOUR_RGB('',0.E0,0.E0,8.E-1);
#5=COLOUR_RGB('',0.E0,2.745098039216E-2,7.019607843137E-1);
#6=COLOUR_RGB('',0.E0,3.137254901961E-2,3.411764705882E-1);
#7=COLOUR_RGB('',0.E0,2.E-1,1.E0);
#8=COLOUR_RGB('',0.E0,3.3E-1,0.E0);
#9=COLOUR_RGB('',0.E0,3.3E-1,3.3E-1);
#10=COLOUR_RGB('',0.E0,4.E-1,0.E0);
#11=COLOUR_RGB('',0.E0,4.E-1,4.E-1);
#12=COLOUR_RGB('',0.E0,4.E-1,1.E0);
#13=COLOUR_RGB('',0.E0,5.019607843137E-1,5.019607843137E-1);
#14=COLOUR_RGB('',0.E0,6.E-1,0.E0);
#15=COLOUR_RGB('',0.E0,6.E-1,6.E-1);
#16=COLOUR_RGB('',0.E0,6.E-1,1.E0);
#17=COLOUR_RGB('',0.E0,8.E-1,0.E0);
#18=COLOUR_RGB('',0.E0,8.E-1,8.E-1);
#19=COLOUR_RGB('',0.E0,8.E-1,1.E0);
#20=COLOUR_RGB('',0.E0,9.3E-1,0.E0);
#21=COLOUR_RGB('',0.E0,9.3E-1,9.3E-1);
#22=DRAUGHTING_PRE_DEFINED_COLOUR('green');
#23=COLOUR_RGB('',0.E0,1.E0,2.E-1);
#24=COLOUR_RGB('',0.E0,1.E0,4.E-1);
#25=COLOUR_RGB('',0.E0,1.E0,6.E-1);
#26=COLOUR_RGB('',0.E0,1.E0,8.E-1);
#27=DRAUGHTING_PRE_DEFINED_COLOUR('cyan');
#28=COLOUR_RGB('',3.1E-2,2.E-1,6.27E-1);
#29=COLOUR_RGB('',3.529411764706E-2,5.137254901961E-1,1.725490196078E-1);
#30=COLOUR_RGB('',6.6667E-2,5.17647E-1,6.39216E-1);
#31=COLOUR_RGB('',7.E-2,7.E-2,1.E0);
#32=COLOUR_RGB('',7.E-2,6.E-1,3.E-1);
#33=COLOUR_RGB('',8.E-2,1.E-1,1.1E-1);
#34=COLOUR_RGB('',9.803921568627E-2,9.803921568627E-2,4.392156862745E-1);
#35=COLOUR_RGB('',1.019607843137E-1,6.313725490196E-1,5.019607843137E-1);
#36=COLOUR_RGB('',1.176470588235E-1,5.647058823529E-1,1.E0);
#37=COLOUR_RGB('',1.254901960784E-1,6.980392156863E-1,6.666666666667E-1);
#38=COLOUR_RGB('',1.333333333333E-1,5.450980392157E-1,1.333333333333E-1);
#39=COLOUR_RGB('',1.450980392157E-1,3.529411764706E-2,0.E0);
#40=COLOUR_RGB('',1.686274509804E-1,1.686274509804E-1,1.803921568627E-1);
#41=COLOUR_RGB('',1.803921568627E-1,5.450980392157E-1,3.411764705882E-1);
#42=COLOUR_RGB('',1.9E-1,2.3E-1,3.1E-1);
#43=COLOUR_RGB('',1.960784313725E-1,8.039215686275E-1,1.960784313725E-1);
#44=COLOUR_RGB('',2.E-1,1.E0,0.E0);
#45=COLOUR_RGB('',2.E-1,1.E0,2.E-1);
#46=COLOUR_RGB('',2.E-1,1.E0,1.E0);
#47=COLOUR_RGB('',2.313725490196E-1,3.803921568627E-1,5.607843137255E-1);
#48=COLOUR_RGB('',2.352941176471E-1,7.019607843137E-1,4.431372549020E-1);
#49=COLOUR_RGB('',2.431372549020E-1,8.784313725490E-1,8.156862745098E-1);
#50=COLOUR_RGB('',2.470588235294E-1,5.921568627451E-1,6.313725490196E-1);
#51=COLOUR_RGB('',2.5098E-1,2.35294E-1,8.62745E-1);
#52=COLOUR_RGB('',2.549019607843E-1,4.117647058824E-1,1.E0);
#53=COLOUR_RGB('',2.58824E-1,7.80392E-1,8.86275E-1);
#54=COLOUR_RGB('',2.7E-1,0.E0,4.E-1);
#55=COLOUR_RGB('',2.7E-1,2.7E-1,0.E0);
#56=COLOUR_RGB('',2.7E-1,2.7E-1,1.E0);
#57=COLOUR_RGB('',2.745098039216E-1,5.098039215686E-1,7.058823529412E-1);
#58=COLOUR_RGB('',2.784313725490E-1,2.784313725490E-1,2.784313725490E-1);
#59=COLOUR_RGB('',2.823529411765E-1,2.392156862745E-1,5.450980392157E-1);
#60=COLOUR_RGB('',3.13725E-1,4.70588E-1,1.96078E-1);
#61=COLOUR_RGB('',3.2549E-1,4.98039E-1,9.84314E-1);
#62=COLOUR_RGB('',3.254901960784E-1,5.764705882353E-1,8.117647058824E-1);
#63=COLOUR_RGB('',3.3E-1,0.E0,0.E0);
#64=COLOUR_RGB('',3.3E-1,0.E0,3.3E-1);
#65=COLOUR_RGB('',3.3E-1,0.E0,5.3E-1);
#66=COLOUR_RGB('',3.450980392157E-1,3.647058823529E-1,3.725490196078E-1);
#67=COLOUR_RGB('',3.725490196078E-1,6.196078431373E-1,6.274509803922E-1);
#68=COLOUR_RGB('',3.803921568627E-1,4.392156862745E-1,5.960784313725E-1);
#69=COLOUR_RGB('',3.882352941176E-1,4.392156862745E-1,4.901960784314E-1);
#70=COLOUR_RGB('',3.921568627451E-1,5.843137254902E-1,9.294117647059E-1);
#71=COLOUR_RGB('',3.96078E-1,7.13725E-1,1.E0);
#72=COLOUR_RGB('',4.E-1,0.E0,4.E-1);
#73=COLOUR_RGB('',4.E-1,0.E0,6.7E-1);
#74=COLOUR_RGB('',4.E-1,1.3E-1,0.E0);
#75=COLOUR_RGB('',4.E-1,4.E-1,0.E0);
#76=COLOUR_RGB('',4.E-1,4.E-1,1.E0);
#77=COLOUR_RGB('',4.E-1,8.039215686275E-1,6.666666666667E-1);
#78=COLOUR_RGB('',4.E-1,1.E0,0.E0);
#79=COLOUR_RGB('',4.E-1,1.E0,4.E-1);
#80=COLOUR_RGB('',4.E-1,1.E0,1.E0);
#81=COLOUR_RGB('',4.156862745098E-1,3.529411764706E-1,8.039215686275E-1);
#82=COLOUR_RGB('',4.196078431373E-1,5.568627450980E-1,1.372549019608E-1);
#83=COLOUR_RGB('',4.666666666667E-1,5.333333333333E-1,6.E-1);
#84=COLOUR_RGB('',4.7E-1,0.E0,0.E0);
#85=COLOUR_RGB('',4.7E-1,0.E0,8.E-1);
#86=COLOUR_RGB('',4.7E-1,2.E-1,7.E-2);
#87=COLOUR_RGB('',4.823529411765E-1,4.078431372549E-1,9.333333333333E-1);
#88=COLOUR_RGB('',4.980392156863E-1,1.E0,8.313725490196E-1);
#89=COLOUR_RGB('',5.019607843137E-1,0.E0,5.019607843137E-1);
#90=COLOUR_RGB('',5.019607843137E-1,5.019607843137E-1,0.E0);
#91=COLOUR_RGB('',5.01961E-1,5.01961E-1,5.01961E-1);
#92=COLOUR_RGB('',5.098039215686E-1,3.960784313725E-1,1.058823529412E-1);
#93=COLOUR_RGB('',5.3E-1,0.E0,9.3E-1);
#94=COLOUR_RGB('',5.3E-1,2.7E-1,1.3E-1);
#95=COLOUR_RGB('',5.3E-1,5.3E-1,1.E0);
#96=COLOUR_RGB('',5.294117647059E-1,8.078431372549E-1,9.215686274510E-1);
#97=COLOUR_RGB('',5.411764705882E-1,1.686274509804E-1,8.862745098039E-1);
#98=COLOUR_RGB('',5.5E-1,6.5E-1,7.3E-1);
#99=COLOUR_RGB('',5.607843137255E-1,7.372549019608E-1,5.607843137255E-1);
#100=COLOUR_RGB('',5.68627E-1,9.37255E-1,9.37255E-1);
#101=COLOUR_RGB('',5.725490196078E-1,6.117647058824E-1,6.313725490196E-1);
#102=COLOUR_RGB('',5.764705882353E-1,4.392156862745E-1,8.588235294118E-1);
#103=COLOUR_RGB('',5.803921568627E-1,0.E0,8.274509803922E-1);
#104=COLOUR_RGB('',5.88235E-1,2.35294E-1,1.56863E-1);
#105=COLOUR_RGB('',6.E-1,0.E0,6.E-1);
#106=COLOUR_RGB('',6.E-1,1.960784313725E-1,8.E-1);
#107=COLOUR_RGB('',6.E-1,2.E-1,1.E0);
#108=COLOUR_RGB('',6.E-1,3.3E-1,2.E-1);
#109=COLOUR_RGB('',6.E-1,6.E-1,0.E0);
#110=COLOUR_RGB('',6.E-1,1.E0,6.E-1);
#111=COLOUR_RGB('',6.E-1,1.E0,1.E0);
#112=COLOUR_RGB('',6.27451E-1,4.70588E-1,3.52941E-1);
#113=COLOUR_RGB('',6.627450980392E-1,6.627450980392E-1,6.627450980392E-1);
#114=COLOUR_RGB('',6.66667E-1,8.23529E-1,1.96078E-1);
#115=COLOUR_RGB('',6.66667E-1,8.23529E-1,5.88235E-1);
#116=COLOUR_RGB('',6.7E-1,0.E0,0.E0);
#117=COLOUR_RGB('',6.7E-1,4.E-1,2.7E-1);
#118=COLOUR_RGB('',6.7E-1,4.E-1,1.E0);
#119=COLOUR_RGB('',6.7E-1,6.7E-1,1.E0);
#120=COLOUR_RGB('',6.7E-1,1.E0,0.E0);
#121=COLOUR_RGB('',6.784313725490E-1,8.117647058824E-1,1.E0);
#122=COLOUR_RGB('',6.784313725490E-1,8.470588235294E-1,9.019607843137E-1);
#123=COLOUR_RGB('',6.784313725490E-1,1.E0,1.843137254902E-1);
#124=COLOUR_RGB('',6.862745098039E-1,6.823529411765E-1,7.607843137255E-1);
#125=COLOUR_RGB('',6.980392156863E-1,1.333333333333E-1,1.333333333333E-1);
#126=COLOUR_RGB('',7.17647E-1,1.68627E-1,4.43137E-1);
#127=COLOUR_RGB('',7.215686274510E-1,5.254901960784E-1,4.313725490196E-2);
#128=COLOUR_RGB('',7.294117647059E-1,2.705882352941E-1,1.E0);
#129=COLOUR_RGB('',7.294117647059E-1,3.333333333333E-1,8.274509803922E-1);
#130=COLOUR_RGB('',7.294117647059E-1,4.E-1,0.E0);
#131=COLOUR_RGB('',7.3E-1,4.7E-1,3.3E-1);
#132=COLOUR_RGB('',7.372549019608E-1,5.607843137255E-1,5.607843137255E-1);
#133=COLOUR_RGB('',7.411764705882E-1,7.176470588235E-1,4.196078431373E-1);
#134=COLOUR_RGB('',7.803921568627E-1,8.235294117647E-2,5.215686274510E-1);
#135=COLOUR_RGB('',8.E-1,0.E0,8.E-1);
#136=COLOUR_RGB('',8.E-1,5.3E-1,4.E-1);
#137=COLOUR_RGB('',8.E-1,6.E-1,1.E0);
#138=COLOUR_RGB('',8.E-1,8.E-1,0.E0);
#139=COLOUR_RGB('',8.E-1,8.E-1,1.E0);
#140=COLOUR_RGB('',8.E-1,1.E0,8.E-1);
#141=COLOUR_RGB('',8.E-1,1.E0,1.E0);
#142=COLOUR_RGB('',8.039215686275E-1,3.607843137255E-1,3.607843137255E-1);
#143=COLOUR_RGB('',8.03922E-1,5.88235E-1,1.96078E-1);
#144=COLOUR_RGB('',8.196078431373E-1,7.098039215686E-1,5.490196078431E-2);
#145=COLOUR_RGB('',8.235294117647E-1,4.117647058824E-1,1.176470588235E-1);
#146=COLOUR_RGB('',8.235294117647E-1,7.058823529412E-1,5.490196078431E-1);
#147=COLOUR_RGB('',8.274509803922E-1,8.274509803922E-1,8.274509803922E-1);
#148=COLOUR_RGB('',8.392156862745E-1,8.E-1,7.137254901961E-1);
#149=COLOUR_RGB('',8.431372549020E-1,8.980392156863E-1,9.333333333333E-1);
#150=COLOUR_RGB('',8.549019607843E-1,6.470588235294E-1,1.254901960784E-1);
#151=COLOUR_RGB('',8.588235294118E-1,4.392156862745E-1,5.764705882353E-1);
#152=COLOUR_RGB('',8.627450980392E-1,7.843137254902E-2,2.352941176471E-1);
#153=COLOUR_RGB('',8.666666666667E-1,6.274509803922E-1,8.666666666667E-1);
#154=COLOUR_RGB('',8.7E-1,0.E0,0.E0);
#155=COLOUR_RGB('',8.7E-1,6.E-1,4.7E-1);
#156=COLOUR_RGB('',8.98039E-1,6.07843E-1,1.E0);
#157=COLOUR_RGB('',9.E-1,8.3E-1,1.2E-1);
#158=COLOUR_RGB('',9.09804E-1,3.68627E-1,8.19608E-1);
#159=COLOUR_RGB('',9.3E-1,0.E0,9.3E-1);
#160=COLOUR_RGB('',9.3E-1,6.7E-1,5.3E-1);
#161=COLOUR_RGB('',9.3E-1,8.E-1,1.E0);
#162=COLOUR_RGB('',9.3E-1,9.3E-1,0.E0);
#163=COLOUR_RGB('',9.3E-1,1.E0,9.3E-1);
#164=COLOUR_RGB('',9.3E-1,1.E0,1.E0);
#165=COLOUR_RGB('',9.333333333333E-1,5.098039215686E-1,9.333333333333E-1);
#166=COLOUR_RGB('',9.333333333333E-1,9.098039215686E-1,6.666666666667E-1);
#167=COLOUR_RGB('',9.411764705882E-1,9.019607843137E-1,5.490196078431E-1);
#168=COLOUR_RGB('',9.568627450980E-1,6.431372549020E-1,3.764705882353E-1);
#169=DRAUGHTING_PRE_DEFINED_COLOUR('red');
#170=COLOUR_RGB('',1.E0,0.E0,2.705882352941E-1);
#171=COLOUR_RGB('',1.E0,0.E0,4.705882352941E-1);
#172=COLOUR_RGB('',1.E0,0.E0,7.803921568627E-1);
#173=DRAUGHTING_PRE_DEFINED_COLOUR('magenta');
#174=COLOUR_RGB('',1.E0,3.1E-2,3.1E-2);
#175=COLOUR_RGB('',1.E0,7.E-2,7.E-2);
#176=COLOUR_RGB('',1.E0,7.843137254902E-2,5.764705882353E-1);
#177=COLOUR_RGB('',1.E0,2.E-1,1.E0);
#178=COLOUR_RGB('',1.E0,2.7E-1,0.E0);
#179=COLOUR_RGB('',1.E0,2.7E-1,2.7E-1);
#180=COLOUR_RGB('',1.E0,3.882352941176E-1,2.784313725490E-1);
#181=COLOUR_RGB('',1.E0,4.E-1,1.E0);
#182=COLOUR_RGB('',1.E0,4.117647058824E-1,7.058823529412E-1);
#183=COLOUR_RGB('',1.E0,4.7E-1,0.E0);
#184=COLOUR_RGB('',1.E0,4.7E-1,4.7E-1);
#185=COLOUR_RGB('',1.E0,4.980392156863E-1,3.137254901961E-1);
#186=COLOUR_RGB('',1.E0,6.E-1,1.E0);
#187=COLOUR_RGB('',1.E0,6.7E-1,0.E0);
#188=COLOUR_RGB('',1.E0,6.7E-1,6.7E-1);
#189=COLOUR_RGB('',1.E0,7.3E-1,6.E-1);
#190=COLOUR_RGB('',1.E0,7.686274509804E-1,5.882352941176E-2);
#191=COLOUR_RGB('',1.E0,8.E-1,8.E-1);
#192=COLOUR_RGB('',1.E0,8.E-1,1.E0);
#193=COLOUR_RGB('',1.E0,8.7E-1,0.E0);
#194=COLOUR_RGB('',1.E0,9.215686274510E-1,8.039215686275E-1);
#195=COLOUR_RGB('',1.E0,9.3E-1,9.3E-1);
#196=COLOUR_RGB('',1.E0,9.3E-1,1.E0);
#197=DRAUGHTING_PRE_DEFINED_COLOUR('yellow');
#198=COLOUR_RGB('',1.E0,1.E0,1.3E-1);
#199=COLOUR_RGB('',1.E0,1.E0,3.3E-1);
#200=COLOUR_RGB('',1.E0,1.E0,5.3E-1);
#201=COLOUR_RGB('',1.E0,1.E0,7.3E-1);
#202=COLOUR_RGB('',1.E0,1.E0,9.3E-1);
#203=DRAUGHTING_PRE_DEFINED_COLOUR('white');
#208=CIRCLE('',#207,4.E-1);
#213=CIRCLE('',#212,9.133333333333E0);
#218=CIRCLE('',#217,4.E-1);
#223=CIRCLE('',#222,9.133333333333E0);
#228=CIRCLE('',#227,1.174595008159E1);
#233=CIRCLE('',#232,1.174595008159E1);
#238=CIRCLE('',#237,9.533333333333E0);
#243=CIRCLE('',#242,9.533333333333E0);
#248=CIRCLE('',#247,1.203945435120E1);
#253=CIRCLE('',#252,4.E-1);
#266=CIRCLE('',#265,1.346666666667E1);
#271=CIRCLE('',#270,1.346666666667E1);
#276=CIRCLE('',#275,1.275404991841E1);
#281=CIRCLE('',#280,1.275404991841E1);
#298=CIRCLE('',#297,1.346666666667E1);
#303=CIRCLE('',#302,1.316666666667E1);
#308=CIRCLE('',#307,1.306376751558E1);
#325=CIRCLE('',#324,1.316666666667E1);
#330=CIRCLE('',#329,1.306376751558E1);
#343=CIRCLE('',#342,1.346666666667E1);
#348=CIRCLE('',#347,1.54E1);
#353=CIRCLE('',#352,1.54E1);
#358=CIRCLE('',#357,1.316666666667E1);
#363=CIRCLE('',#362,1.316666666667E1);
#368=CIRCLE('',#367,1.6E1);
#373=CIRCLE('',#372,6.E-1);
#382=CIRCLE('',#381,6.E-1);
#387=CIRCLE('',#386,1.6E1);
#392=CIRCLE('',#391,1.54E1);
#397=CIRCLE('',#396,1.54E1);
#402=CIRCLE('',#401,1.316666666667E1);
#407=CIRCLE('',#406,1.316666666667E1);
#412=CIRCLE('',#411,6.E-1);
#417=CIRCLE('',#416,1.6E1);
#426=CIRCLE('',#425,6.E-1);
#431=CIRCLE('',#430,1.6E1);
#440=CIRCLE('',#439,1.316666666667E1);
#449=CIRCLE('',#448,1.316666666667E1);
#466=CIRCLE('',#465,1.346666666667E1);
#471=CIRCLE('',#470,1.306376751558E1);
#476=CIRCLE('',#475,1.306376751558E1);
#485=CIRCLE('',#484,1.346666666667E1);
#494=CIRCLE('',#493,1.346666666667E1);
#499=CIRCLE('',#498,1.346666666667E1);
#504=CIRCLE('',#503,1.275404991841E1);
#509=CIRCLE('',#508,1.275404991841E1);
#522=CIRCLE('',#521,1.203945435120E1);
#527=CIRCLE('',#526,4.E-1);
#532=CIRCLE('',#531,4.E-1);
#537=CIRCLE('',#536,1.203945435120E1);
#542=CIRCLE('',#541,1.174595008159E1);
#547=CIRCLE('',#546,1.174595008159E1);
#552=CIRCLE('',#551,9.533333333333E0);
#557=CIRCLE('',#556,9.533333333333E0);
#562=CIRCLE('',#561,4.E-1);
#567=CIRCLE('',#566,9.133333333333E0);
#572=CIRCLE('',#571,4.E-1);
#577=CIRCLE('',#576,9.133333333333E0);
#582=CIRCLE('',#581,9.133333333333E0);
#591=CIRCLE('',#590,8.333333333333E0);
#596=CIRCLE('',#595,8.333333333333E0);
#601=CIRCLE('',#600,9.133333333333E0);
#614=CIRCLE('',#613,8.333333333333E0);
#623=CIRCLE('',#622,8.833333333333E0);
#632=CIRCLE('',#631,8.833333333333E0);
#637=CIRCLE('',#636,8.333333333333E0);
#650=CIRCLE('',#649,8.833333333333E0);
#655=CIRCLE('',#654,8.833333333333E0);
#660=CIRCLE('',#659,6.6E0);
#665=CIRCLE('',#664,6.6E0);
#670=CIRCLE('',#669,6.E0);
#675=CIRCLE('',#674,6.E-1);
#688=CIRCLE('',#687,6.E-1);
#693=CIRCLE('',#692,6.E0);
#698=CIRCLE('',#697,6.E-1);
#703=CIRCLE('',#702,6.E0);
#708=CIRCLE('',#707,6.E-1);
#713=CIRCLE('',#712,6.E0);
#718=CIRCLE('',#717,8.833333333333E0);
#723=CIRCLE('',#722,8.833333333333E0);
#728=CIRCLE('',#727,6.6E0);
#733=CIRCLE('',#732,6.6E0);
#742=CIRCLE('',#741,8.333333333333E0);
#751=CIRCLE('',#750,8.833333333333E0);
#760=CIRCLE('',#759,8.333333333333E0);
#765=CIRCLE('',#764,8.333333333333E0);
#770=CIRCLE('',#769,9.133333333333E0);
#779=CIRCLE('',#778,9.133333333333E0);
#796=CIRCLE('',#795,8.833333333333E0);
#801=CIRCLE('',#800,8.333333333333E0);
#818=CIRCLE('',#817,4.E-1);
#823=CIRCLE('',#822,1.203945435120E1);
#981=EDGE_CURVE('',#826,#827,#208,.T.);
#983=EDGE_CURVE('',#827,#829,#213,.T.);
#985=EDGE_CURVE('',#831,#829,#218,.T.);
#987=EDGE_CURVE('',#826,#831,#243,.T.);
#997=EDGE_CURVE('',#831,#826,#238,.T.);
#1000=EDGE_CURVE('',#829,#827,#223,.T.);
#1011=EDGE_CURVE('',#834,#835,#228,.T.);
#1013=EDGE_CURVE('',#835,#834,#233,.T.);
#1027=EDGE_CURVE('',#838,#839,#248,.T.);
#1029=EDGE_CURVE('',#839,#835,#253,.T.);
#1032=EDGE_CURVE('',#838,#834,#818,.T.);
#1043=EDGE_CURVE('',#838,#841,#257,.T.);
#1045=EDGE_CURVE('',#843,#841,#281,.T.);
#1047=EDGE_CURVE('',#839,#843,#261,.T.);
#1058=EDGE_CURVE('',#841,#843,#276,.T.);
#1061=EDGE_CURVE('',#839,#838,#823,.T.);
#1071=EDGE_CURVE('',#846,#847,#266,.T.);
#1073=EDGE_CURVE('',#847,#846,#271,.T.);
#1087=EDGE_CURVE('',#846,#849,#285,.T.);
#1089=EDGE_CURVE('',#851,#849,#343,.T.);
#1091=EDGE_CURVE('',#847,#851,#289,.T.);
#1104=EDGE_CURVE('',#849,#851,#298,.T.);
#1115=EDGE_CURVE('',#854,#855,#308,.T.);
#1117=EDGE_CURVE('',#854,#849,#293,.T.);
#1120=EDGE_CURVE('',#855,#851,#338,.T.);
#1130=EDGE_CURVE('',#914,#915,#303,.T.);
#1132=EDGE_CURVE('',#854,#914,#334,.T.);
#1135=EDGE_CURVE('',#855,#915,#312,.T.);
#1146=EDGE_CURVE('',#915,#910,#316,.T.);
#1148=EDGE_CURVE('',#911,#910,#363,.T.);
#1150=EDGE_CURVE('',#914,#911,#320,.T.);
#1160=EDGE_CURVE('',#915,#914,#325,.T.);
#1163=EDGE_CURVE('',#910,#911,#358,.T.);
#1176=EDGE_CURVE('',#855,#854,#330,.T.);
#1199=EDGE_CURVE('',#907,#905,#348,.T.);
#1201=EDGE_CURVE('',#905,#907,#353,.T.);
#1215=EDGE_CURVE('',#901,#903,#368,.T.);
#1217=EDGE_CURVE('',#903,#905,#373,.T.);
#1220=EDGE_CURVE('',#901,#907,#426,.T.);
#1230=EDGE_CURVE('',#893,#895,#387,.T.);
#1232=EDGE_CURVE('',#893,#903,#377,.T.);
#1235=EDGE_CURVE('',#895,#901,#421,.T.);
#1245=EDGE_CURVE('',#890,#891,#392,.T.);
#1247=EDGE_CURVE('',#890,#893,#382,.T.);
#1250=EDGE_CURVE('',#891,#895,#412,.T.);
#1261=EDGE_CURVE('',#891,#890,#397,.T.);
#1265=EDGE_CURVE('',#898,#899,#402,.T.);
#1267=EDGE_CURVE('',#899,#898,#407,.T.);
#1278=EDGE_CURVE('',#895,#893,#417,.T.);
#1291=EDGE_CURVE('',#903,#901,#431,.T.);
#1315=EDGE_CURVE('',#918,#919,#440,.T.);
#1317=EDGE_CURVE('',#899,#918,#457,.T.);
#1320=EDGE_CURVE('',#898,#919,#435,.T.);
#1331=EDGE_CURVE('',#859,#919,#453,.T.);
#1333=EDGE_CURVE('',#858,#859,#476,.T.);
#1335=EDGE_CURVE('',#858,#918,#444,.T.);
#1345=EDGE_CURVE('',#919,#918,#449,.T.);
#1348=EDGE_CURVE('',#859,#858,#471,.T.);
#1371=EDGE_CURVE('',#858,#863,#461,.T.);
#1373=EDGE_CURVE('',#863,#861,#466,.T.);
#1375=EDGE_CURVE('',#859,#861,#480,.T.);
#1388=EDGE_CURVE('',#861,#863,#485,.T.);
#1399=EDGE_CURVE('',#867,#865,#494,.T.);
#1401=EDGE_CURVE('',#867,#863,#489,.T.);
#1404=EDGE_CURVE('',#865,#861,#513,.T.);
#1415=EDGE_CURVE('',#865,#867,#499,.T.);
#1419=EDGE_CURVE('',#870,#871,#504,.T.);
#1421=EDGE_CURVE('',#871,#870,#509,.T.);
#1443=EDGE_CURVE('',#874,#875,#522,.T.);
#1445=EDGE_CURVE('',#874,#871,#517,.T.);
#1448=EDGE_CURVE('',#875,#870,#813,.T.);
#1459=EDGE_CURVE('',#875,#877,#527,.T.);
#1461=EDGE_CURVE('',#879,#877,#547,.T.);
#1463=EDGE_CURVE('',#874,#879,#532,.T.);
#1474=EDGE_CURVE('',#877,#879,#542,.T.);
#1477=EDGE_CURVE('',#875,#874,#537,.T.);
#1491=EDGE_CURVE('',#882,#883,#552,.T.);
#1493=EDGE_CURVE('',#883,#882,#557,.T.);
#1503=EDGE_CURVE('',#882,#885,#562,.T.);
#1505=EDGE_CURVE('',#885,#887,#567,.T.);
#1507=EDGE_CURVE('',#883,#887,#572,.T.);
#1520=EDGE_CURVE('',#887,#885,#577,.T.);
#1531=EDGE_CURVE('',#974,#975,#582,.T.);
#1533=EDGE_CURVE('',#975,#885,#586,.T.);
#1536=EDGE_CURVE('',#974,#887,#605,.T.);
#1547=EDGE_CURVE('',#975,#974,#601,.T.);
#1551=EDGE_CURVE('',#930,#931,#591,.T.);
#1553=EDGE_CURVE('',#931,#930,#596,.T.);
#1575=EDGE_CURVE('',#934,#935,#614,.T.);
#1577=EDGE_CURVE('',#934,#931,#609,.T.);
#1580=EDGE_CURVE('',#935,#930,#809,.T.);
#1591=EDGE_CURVE('',#935,#937,#618,.T.);
#1593=EDGE_CURVE('',#937,#939,#623,.T.);
#1595=EDGE_CURVE('',#934,#939,#627,.T.);
#1606=EDGE_CURVE('',#939,#937,#632,.T.);
#1609=EDGE_CURVE('',#935,#934,#637,.T.);
#1619=EDGE_CURVE('',#941,#937,#641,.T.);
#1622=EDGE_CURVE('',#943,#939,#645,.T.);
#1624=EDGE_CURVE('',#941,#943,#655,.T.);
#1634=EDGE_CURVE('',#943,#941,#650,.T.);
#1651=EDGE_CURVE('',#946,#947,#660,.T.);
#1653=EDGE_CURVE('',#947,#946,#665,.T.);
#1663=EDGE_CURVE('',#950,#951,#670,.T.);
#1665=EDGE_CURVE('',#951,#947,#675,.T.);
#1668=EDGE_CURVE('',#950,#946,#688,.T.);
#1678=EDGE_CURVE('',#950,#953,#679,.T.);
#1680=EDGE_CURVE('',#955,#953,#713,.T.);
#1682=EDGE_CURVE('',#951,#955,#683,.T.);
#1693=EDGE_CURVE('',#951,#950,#693,.T.);
#1696=EDGE_CURVE('',#953,#955,#703,.T.);
#1719=EDGE_CURVE('',#957,#953,#698,.T.);
#1722=EDGE_CURVE('',#959,#955,#708,.T.);
#1724=EDGE_CURVE('',#957,#959,#733,.T.);
#1734=EDGE_CURVE('',#959,#957,#728,.T.);
#1747=EDGE_CURVE('',#962,#963,#718,.T.);
#1749=EDGE_CURVE('',#963,#962,#723,.T.);
#1763=EDGE_CURVE('',#966,#967,#751,.T.);
#1765=EDGE_CURVE('',#966,#963,#737,.T.);
#1768=EDGE_CURVE('',#967,#962,#805,.T.);
#1778=EDGE_CURVE('',#923,#925,#742,.T.);
#1780=EDGE_CURVE('',#925,#966,#746,.T.);
#1783=EDGE_CURVE('',#923,#967,#791,.T.);
#1793=EDGE_CURVE('',#927,#922,#760,.T.);
#1795=EDGE_CURVE('',#927,#925,#755,.T.);
#1798=EDGE_CURVE('',#922,#923,#787,.T.);
#1808=EDGE_CURVE('',#970,#971,#770,.T.);
#1810=EDGE_CURVE('',#971,#970,#779,.T.);
#1815=EDGE_CURVE('',#922,#927,#765,.T.);
#1826=EDGE_CURVE('',#971,#827,#774,.T.);
#1829=EDGE_CURVE('',#970,#829,#783,.T.);
#1852=EDGE_CURVE('',#925,#923,#801,.T.);
#1865=EDGE_CURVE('',#967,#966,#796,.T.);
#1922=(LENGTH_UNIT()NAMED_UNIT(*)SI_UNIT(.MILLI.,.METRE.));
#1924=(NAMED_UNIT(*)PLANE_ANGLE_UNIT()SI_UNIT($,.RADIAN.));
#1927=(NAMED_UNIT(*)SI_UNIT($,.STERADIAN.)SOLID_ANGLE_UNIT());
#1930=ADVANCED_BREP_SHAPE_REPRESENTATION('',(#1921),#1929);
#1937=PRODUCT_DEFINITION('design','',#1936,#1933);
#1938=PRODUCT_DEFINITION_SHAPE('','SHAPE FOR 6201ZZ_-_EA036.',#1937);
#1939=SHAPE_DEFINITION_REPRESENTATION(#1938,#1930);
ENDSEC;
END-ISO-10303-21;
