ISO-10303-21;
HEADER;
FILE_DESCRIPTION((''),'2;1');
FILE_NAME('6000ZZ_-_EA033','2025-12-19T11:09:50',('qinghui.yi'),(''),
'CREO PARAMETRIC BY PTC INC, 2019164','CREO PARAMETRIC BY PTC INC, 2019164','');
FILE_SCHEMA(('CONFIG_CONTROL_DESIGN','SHAPE_APPEARANCE_LAYERS_GROUPS'));
ENDSEC;
DATA;
#204=CARTESIAN_POINT('',(-3.65E0,0.E0,7.866666666667E0));
#205=DIRECTION('',(0.E0,-1.E0,0.E0));
#206=DIRECTION('',(-1.E0,0.E0,0.E0));
#207=AXIS2_PLACEMENT_3D('',#204,#205,#206);
#209=CARTESIAN_POINT('',(-3.65E0,0.E0,0.E0));
#210=DIRECTION('',(-1.E0,0.E0,0.E0));
#211=DIRECTION('',(0.E0,0.E0,1.E0));
#212=AXIS2_PLACEMENT_3D('',#209,#210,#211);
#214=CARTESIAN_POINT('',(-3.95E0,0.E0,0.E0));
#215=DIRECTION('',(1.E0,0.E0,0.E0));
#216=DIRECTION('',(0.E0,0.E0,-1.E0));
#217=AXIS2_PLACEMENT_3D('',#214,#215,#216);
#219=CARTESIAN_POINT('',(-3.95E0,0.E0,0.E0));
#220=DIRECTION('',(1.E0,0.E0,0.E0));
#221=DIRECTION('',(0.E0,0.E0,1.E0));
#222=AXIS2_PLACEMENT_3D('',#219,#220,#221);
#224=CARTESIAN_POINT('',(-3.95E0,0.E0,0.E0));
#225=DIRECTION('',(-1.E0,0.E0,0.E0));
#226=DIRECTION('',(0.E0,0.E0,1.E0));
#227=AXIS2_PLACEMENT_3D('',#224,#225,#226);
#229=CARTESIAN_POINT('',(-3.95E0,0.E0,0.E0));
#230=DIRECTION('',(-1.E0,0.E0,0.E0));
#231=DIRECTION('',(0.E0,0.E0,-1.E0));
#232=AXIS2_PLACEMENT_3D('',#229,#230,#231);
#234=CARTESIAN_POINT('',(-3.898654602223E0,0.E0,0.E0));
#235=DIRECTION('',(1.E0,0.E0,0.E0));
#236=DIRECTION('',(0.E0,0.E0,-1.E0));
#237=AXIS2_PLACEMENT_3D('',#234,#235,#236);
#239=CARTESIAN_POINT('',(-3.65E0,0.E0,9.605483599644E0));
#240=DIRECTION('',(0.E0,-1.E0,0.E0));
#241=DIRECTION('',(-8.288486740765E-1,0.E0,5.594728549999E-1));
#242=AXIS2_PLACEMENT_3D('',#239,#240,#241);
#244=DIRECTION('',(5.594728549997E-1,0.E0,-8.288486740766E-1));
#245=VECTOR('',#244,6.819624334265E-1);
#246=CARTESIAN_POINT('',(-3.898654602223E0,0.E0,-9.773325456144E0));
#247=LINE('',#246,#245);
#248=DIRECTION('',(5.594728549997E-1,0.E0,8.288486740766E-1));
#249=VECTOR('',#248,6.819624334265E-1);
#250=CARTESIAN_POINT('',(-3.898654602223E0,0.E0,9.773325456144E0));
#251=LINE('',#250,#249);
#252=CARTESIAN_POINT('',(-3.517115132592E0,0.E0,0.E0));
#253=DIRECTION('',(-1.E0,0.E0,0.E0));
#254=DIRECTION('',(0.E0,0.E0,-1.E0));
#255=AXIS2_PLACEMENT_3D('',#252,#253,#254);
#257=CARTESIAN_POINT('',(-3.6E0,0.E0,1.039451640036E1));
#258=DIRECTION('',(0.E0,-1.E0,0.E0));
#259=DIRECTION('',(8.288486740775E-1,0.E0,-5.594728549983E-1));
#260=AXIS2_PLACEMENT_3D('',#257,#258,#259);
#262=CARTESIAN_POINT('',(-3.6E0,0.E0,-1.039451640036E1));
#263=DIRECTION('',(0.E0,1.E0,0.E0));
#264=DIRECTION('',(8.288486740775E-1,0.E0,5.594728549983E-1));
#265=AXIS2_PLACEMENT_3D('',#262,#263,#264);
#267=CARTESIAN_POINT('',(-3.517115132592E0,0.E0,0.E0));
#268=DIRECTION('',(-1.E0,0.E0,0.E0));
#269=DIRECTION('',(0.E0,0.E0,1.E0));
#270=AXIS2_PLACEMENT_3D('',#267,#268,#269);
#272=CARTESIAN_POINT('',(-3.5E0,0.E0,0.E0));
#273=DIRECTION('',(1.E0,0.E0,0.E0));
#274=DIRECTION('',(0.E0,0.E0,-1.E0));
#275=AXIS2_PLACEMENT_3D('',#272,#273,#274);
#277=CARTESIAN_POINT('',(-3.5E0,0.E0,0.E0));
#278=DIRECTION('',(1.E0,0.E0,0.E0));
#279=DIRECTION('',(0.E0,0.E0,1.E0));
#280=AXIS2_PLACEMENT_3D('',#277,#278,#279);
#282=CARTESIAN_POINT('',(-3.5E0,0.E0,0.E0));
#283=DIRECTION('',(-1.E0,0.E0,0.E0));
#284=DIRECTION('',(0.E0,0.E0,1.E0));
#285=AXIS2_PLACEMENT_3D('',#282,#283,#284);
#287=CARTESIAN_POINT('',(-3.5E0,0.E0,0.E0));
#288=DIRECTION('',(-1.E0,0.E0,0.E0));
#289=DIRECTION('',(0.E0,0.E0,-1.E0));
#290=AXIS2_PLACEMENT_3D('',#287,#288,#289);
#292=DIRECTION('',(-1.E0,0.E0,1.236790591335E-12));
#293=VECTOR('',#292,1.306999531836E-1);
#294=CARTESIAN_POINT('',(-3.5E0,0.E0,-1.103333333333E1));
#295=LINE('',#294,#293);
#296=DIRECTION('',(-1.E0,0.E0,-1.236790591335E-12));
#297=VECTOR('',#296,1.306999531836E-1);
#298=CARTESIAN_POINT('',(-3.5E0,0.E0,1.103333333333E1));
#299=LINE('',#298,#297);
#300=DIRECTION('',(3.511234415872E-1,0.E0,-9.363291775695E-1));
#301=VECTOR('',#300,3.579001404501E-1);
#302=CARTESIAN_POINT('',(-3.756367082243E0,0.E0,-1.069822098917E1));
#303=LINE('',#302,#301);
#304=CARTESIAN_POINT('',(-3.630699953183E0,0.E0,0.E0));
#305=DIRECTION('',(-1.E0,0.E0,0.E0));
#306=DIRECTION('',(0.E0,0.E0,-1.E0));
#307=AXIS2_PLACEMENT_3D('',#304,#305,#306);
#309=CARTESIAN_POINT('',(-3.850000000002E0,0.E0,0.E0));
#310=DIRECTION('',(-1.E0,0.E0,0.E0));
#311=DIRECTION('',(0.E0,0.E0,-1.E0));
#312=AXIS2_PLACEMENT_3D('',#309,#310,#311);
#314=CARTESIAN_POINT('',(-3.756367082243E0,0.E0,0.E0));
#315=DIRECTION('',(-1.E0,0.E0,0.E0));
#316=DIRECTION('',(0.E0,0.E0,-1.E0));
#317=AXIS2_PLACEMENT_3D('',#314,#315,#316);
#319=DIRECTION('',(-9.363291775684E-1,-1.314454231053E-14,3.511234415900E-1));
#320=VECTOR('',#319,1.000000000024E-1);
#321=CARTESIAN_POINT('',(-3.756367082243E0,0.E0,1.069822098917E1));
#322=LINE('',#321,#320);
#323=DIRECTION('',(-1.E0,0.E0,0.E0));
#324=VECTOR('',#323,1.499999999980E-1);
#325=CARTESIAN_POINT('',(-3.850000000002E0,0.E0,1.073333333333E1));
#326=LINE('',#325,#324);
#327=DIRECTION('',(-1.E0,0.E0,0.E0));
#328=VECTOR('',#327,1.499999999980E-1);
#329=CARTESIAN_POINT('',(-3.850000000002E0,0.E0,-1.073333333333E1));
#330=LINE('',#329,#328);
#331=CARTESIAN_POINT('',(-3.850000000002E0,0.E0,0.E0));
#332=DIRECTION('',(-1.E0,0.E0,0.E0));
#333=DIRECTION('',(0.E0,0.E0,1.E0));
#334=AXIS2_PLACEMENT_3D('',#331,#332,#333);
#336=CARTESIAN_POINT('',(-3.756367082243E0,0.E0,0.E0));
#337=DIRECTION('',(-1.E0,0.E0,0.E0));
#338=DIRECTION('',(0.E0,0.E0,1.E0));
#339=AXIS2_PLACEMENT_3D('',#336,#337,#338);
#341=DIRECTION('',(-9.363291775684E-1,1.314454231053E-14,-3.511234415900E-1));
#342=VECTOR('',#341,1.000000000024E-1);
#343=CARTESIAN_POINT('',(-3.756367082243E0,0.E0,-1.069822098917E1));
#344=LINE('',#343,#342);
#345=DIRECTION('',(3.511234415872E-1,0.E0,9.363291775695E-1));
#346=VECTOR('',#345,3.579001404501E-1);
#347=CARTESIAN_POINT('',(-3.756367082243E0,0.E0,1.069822098917E1));
#348=LINE('',#347,#346);
#349=CARTESIAN_POINT('',(-3.630699953183E0,0.E0,0.E0));
#350=DIRECTION('',(-1.E0,0.E0,0.E0));
#351=DIRECTION('',(0.E0,0.E0,1.E0));
#352=AXIS2_PLACEMENT_3D('',#349,#350,#351);
#354=CARTESIAN_POINT('',(-4.E0,0.E0,0.E0));
#355=DIRECTION('',(1.E0,0.E0,0.E0));
#356=DIRECTION('',(0.E0,0.E0,-1.E0));
#357=AXIS2_PLACEMENT_3D('',#354,#355,#356);
#359=CARTESIAN_POINT('',(-4.E0,0.E0,0.E0));
#360=DIRECTION('',(1.E0,0.E0,0.E0));
#361=DIRECTION('',(0.E0,0.E0,1.E0));
#362=AXIS2_PLACEMENT_3D('',#359,#360,#361);
#364=CARTESIAN_POINT('',(-4.E0,0.E0,0.E0));
#365=DIRECTION('',(-1.E0,0.E0,0.E0));
#366=DIRECTION('',(0.E0,0.E0,1.E0));
#367=AXIS2_PLACEMENT_3D('',#364,#365,#366);
#369=CARTESIAN_POINT('',(-4.E0,0.E0,0.E0));
#370=DIRECTION('',(-1.E0,0.E0,0.E0));
#371=DIRECTION('',(0.E0,0.E0,-1.E0));
#372=AXIS2_PLACEMENT_3D('',#369,#370,#371);
#374=CARTESIAN_POINT('',(-3.7E0,0.E0,0.E0));
#375=DIRECTION('',(1.E0,0.E0,0.E0));
#376=DIRECTION('',(0.E0,0.E0,-1.E0));
#377=AXIS2_PLACEMENT_3D('',#374,#375,#376);
#379=CARTESIAN_POINT('',(-3.7E0,0.E0,1.27E1));
#380=DIRECTION('',(0.E0,-1.E0,0.E0));
#381=DIRECTION('',(0.E0,0.E0,1.E0));
#382=AXIS2_PLACEMENT_3D('',#379,#380,#381);
#384=DIRECTION('',(-1.E0,0.E0,0.E0));
#385=VECTOR('',#384,7.4E0);
#386=CARTESIAN_POINT('',(3.7E0,0.E0,1.3E1));
#387=LINE('',#386,#385);
#388=CARTESIAN_POINT('',(3.7E0,0.E0,1.27E1));
#389=DIRECTION('',(0.E0,-1.E0,0.E0));
#390=DIRECTION('',(1.E0,0.E0,0.E0));
#391=AXIS2_PLACEMENT_3D('',#388,#389,#390);
#393=CARTESIAN_POINT('',(3.7E0,0.E0,0.E0));
#394=DIRECTION('',(-1.E0,0.E0,0.E0));
#395=DIRECTION('',(0.E0,0.E0,1.E0));
#396=AXIS2_PLACEMENT_3D('',#393,#394,#395);
#398=CARTESIAN_POINT('',(4.E0,0.E0,0.E0));
#399=DIRECTION('',(-1.E0,0.E0,0.E0));
#400=DIRECTION('',(0.E0,0.E0,1.E0));
#401=AXIS2_PLACEMENT_3D('',#398,#399,#400);
#403=CARTESIAN_POINT('',(4.E0,0.E0,0.E0));
#404=DIRECTION('',(-1.E0,0.E0,0.E0));
#405=DIRECTION('',(0.E0,0.E0,-1.E0));
#406=AXIS2_PLACEMENT_3D('',#403,#404,#405);
#408=CARTESIAN_POINT('',(4.E0,0.E0,0.E0));
#409=DIRECTION('',(1.E0,0.E0,0.E0));
#410=DIRECTION('',(0.E0,0.E0,-1.E0));
#411=AXIS2_PLACEMENT_3D('',#408,#409,#410);
#413=CARTESIAN_POINT('',(4.E0,0.E0,0.E0));
#414=DIRECTION('',(1.E0,0.E0,0.E0));
#415=DIRECTION('',(0.E0,0.E0,1.E0));
#416=AXIS2_PLACEMENT_3D('',#413,#414,#415);
#418=CARTESIAN_POINT('',(3.7E0,0.E0,-1.27E1));
#419=DIRECTION('',(0.E0,1.E0,0.E0));
#420=DIRECTION('',(1.E0,0.E0,0.E0));
#421=AXIS2_PLACEMENT_3D('',#418,#419,#420);
#423=CARTESIAN_POINT('',(3.7E0,0.E0,0.E0));
#424=DIRECTION('',(-1.E0,0.E0,0.E0));
#425=DIRECTION('',(0.E0,0.E0,-1.E0));
#426=AXIS2_PLACEMENT_3D('',#423,#424,#425);
#428=DIRECTION('',(-1.E0,0.E0,0.E0));
#429=VECTOR('',#428,7.4E0);
#430=CARTESIAN_POINT('',(3.7E0,0.E0,-1.3E1));
#431=LINE('',#430,#429);
#432=CARTESIAN_POINT('',(-3.7E0,0.E0,-1.27E1));
#433=DIRECTION('',(0.E0,1.E0,0.E0));
#434=DIRECTION('',(0.E0,0.E0,-1.E0));
#435=AXIS2_PLACEMENT_3D('',#432,#433,#434);
#437=CARTESIAN_POINT('',(-3.7E0,0.E0,0.E0));
#438=DIRECTION('',(1.E0,0.E0,0.E0));
#439=DIRECTION('',(0.E0,0.E0,1.E0));
#440=AXIS2_PLACEMENT_3D('',#437,#438,#439);
#442=DIRECTION('',(-1.E0,0.E0,0.E0));
#443=VECTOR('',#442,1.499999999980E-1);
#444=CARTESIAN_POINT('',(4.E0,0.E0,-1.073333333333E1));
#445=LINE('',#444,#443);
#446=CARTESIAN_POINT('',(3.850000000002E0,0.E0,0.E0));
#447=DIRECTION('',(-1.E0,0.E0,0.E0));
#448=DIRECTION('',(0.E0,0.E0,1.E0));
#449=AXIS2_PLACEMENT_3D('',#446,#447,#448);
#451=DIRECTION('',(9.363291775684E-1,0.E0,3.511234415900E-1));
#452=VECTOR('',#451,1.000000000024E-1);
#453=CARTESIAN_POINT('',(3.756367082243E0,0.E0,1.069822098917E1));
#454=LINE('',#453,#452);
#455=CARTESIAN_POINT('',(3.850000000002E0,0.E0,0.E0));
#456=DIRECTION('',(-1.E0,0.E0,0.E0));
#457=DIRECTION('',(0.E0,0.E0,-1.E0));
#458=AXIS2_PLACEMENT_3D('',#455,#456,#457);
#460=DIRECTION('',(9.363291775684E-1,0.E0,-3.511234415900E-1));
#461=VECTOR('',#460,1.000000000024E-1);
#462=CARTESIAN_POINT('',(3.756367082243E0,0.E0,-1.069822098917E1));
#463=LINE('',#462,#461);
#464=DIRECTION('',(-1.E0,0.E0,0.E0));
#465=VECTOR('',#464,1.499999999980E-1);
#466=CARTESIAN_POINT('',(4.E0,0.E0,1.073333333333E1));
#467=LINE('',#466,#465);
#468=DIRECTION('',(-3.511234415872E-1,0.E0,9.363291775695E-1));
#469=VECTOR('',#468,3.579001404501E-1);
#470=CARTESIAN_POINT('',(3.756367082243E0,0.E0,1.069822098917E1));
#471=LINE('',#470,#469);
#472=CARTESIAN_POINT('',(3.630699953183E0,0.E0,0.E0));
#473=DIRECTION('',(1.E0,0.E0,0.E0));
#474=DIRECTION('',(0.E0,0.E0,1.E0));
#475=AXIS2_PLACEMENT_3D('',#472,#473,#474);
#477=CARTESIAN_POINT('',(3.756367082243E0,0.E0,0.E0));
#478=DIRECTION('',(-1.E0,0.E0,0.E0));
#479=DIRECTION('',(0.E0,0.E0,-1.E0));
#480=AXIS2_PLACEMENT_3D('',#477,#478,#479);
#482=CARTESIAN_POINT('',(3.756367082243E0,0.E0,0.E0));
#483=DIRECTION('',(-1.E0,0.E0,0.E0));
#484=DIRECTION('',(0.E0,0.E0,1.E0));
#485=AXIS2_PLACEMENT_3D('',#482,#483,#484);
#487=DIRECTION('',(-3.511234415872E-1,0.E0,-9.363291775695E-1));
#488=VECTOR('',#487,3.579001404501E-1);
#489=CARTESIAN_POINT('',(3.756367082243E0,0.E0,-1.069822098917E1));
#490=LINE('',#489,#488);
#491=CARTESIAN_POINT('',(3.630699953183E0,0.E0,0.E0));
#492=DIRECTION('',(1.E0,0.E0,0.E0));
#493=DIRECTION('',(0.E0,0.E0,-1.E0));
#494=AXIS2_PLACEMENT_3D('',#491,#492,#493);
#496=DIRECTION('',(1.E0,0.E0,-1.236790591335E-12));
#497=VECTOR('',#496,1.306999531836E-1);
#498=CARTESIAN_POINT('',(3.5E0,0.E0,1.103333333333E1));
#499=LINE('',#498,#497);
#500=CARTESIAN_POINT('',(3.5E0,0.E0,0.E0));
#501=DIRECTION('',(-1.E0,0.E0,0.E0));
#502=DIRECTION('',(0.E0,0.E0,1.E0));
#503=AXIS2_PLACEMENT_3D('',#500,#501,#502);
#505=CARTESIAN_POINT('',(3.5E0,0.E0,0.E0));
#506=DIRECTION('',(-1.E0,0.E0,0.E0));
#507=DIRECTION('',(0.E0,0.E0,-1.E0));
#508=AXIS2_PLACEMENT_3D('',#505,#506,#507);
#510=CARTESIAN_POINT('',(3.5E0,0.E0,0.E0));
#511=DIRECTION('',(1.E0,0.E0,0.E0));
#512=DIRECTION('',(0.E0,0.E0,-1.E0));
#513=AXIS2_PLACEMENT_3D('',#510,#511,#512);
#515=CARTESIAN_POINT('',(3.5E0,0.E0,0.E0));
#516=DIRECTION('',(1.E0,0.E0,0.E0));
#517=DIRECTION('',(0.E0,0.E0,1.E0));
#518=AXIS2_PLACEMENT_3D('',#515,#516,#517);
#520=DIRECTION('',(1.E0,0.E0,1.236790591335E-12));
#521=VECTOR('',#520,1.306999531836E-1);
#522=CARTESIAN_POINT('',(3.5E0,0.E0,-1.103333333333E1));
#523=LINE('',#522,#521);
#524=CARTESIAN_POINT('',(3.517115132592E0,0.E0,0.E0));
#525=DIRECTION('',(1.E0,0.E0,0.E0));
#526=DIRECTION('',(0.E0,0.E0,-1.E0));
#527=AXIS2_PLACEMENT_3D('',#524,#525,#526);
#529=CARTESIAN_POINT('',(3.6E0,0.E0,1.039451640036E1));
#530=DIRECTION('',(0.E0,1.E0,0.E0));
#531=DIRECTION('',(-8.288486740775E-1,0.E0,-5.594728549983E-1));
#532=AXIS2_PLACEMENT_3D('',#529,#530,#531);
#534=DIRECTION('',(-5.594728549997E-1,0.E0,8.288486740766E-1));
#535=VECTOR('',#534,6.819624334265E-1);
#536=CARTESIAN_POINT('',(3.898654602223E0,0.E0,9.773325456144E0));
#537=LINE('',#536,#535);
#538=DIRECTION('',(-5.594728549997E-1,0.E0,-8.288486740766E-1));
#539=VECTOR('',#538,6.819624334265E-1);
#540=CARTESIAN_POINT('',(3.898654602223E0,0.E0,-9.773325456144E0));
#541=LINE('',#540,#539);
#542=CARTESIAN_POINT('',(3.898654602223E0,0.E0,0.E0));
#543=DIRECTION('',(-1.E0,0.E0,0.E0));
#544=DIRECTION('',(0.E0,0.E0,-1.E0));
#545=AXIS2_PLACEMENT_3D('',#542,#543,#544);
#547=CARTESIAN_POINT('',(3.65E0,0.E0,9.605483599644E0));
#548=DIRECTION('',(0.E0,1.E0,0.E0));
#549=DIRECTION('',(8.288486740765E-1,0.E0,5.594728549999E-1));
#550=AXIS2_PLACEMENT_3D('',#547,#548,#549);
#552=CARTESIAN_POINT('',(3.65E0,0.E0,-9.605483599644E0));
#553=DIRECTION('',(0.E0,-1.E0,0.E0));
#554=DIRECTION('',(8.288486740765E-1,0.E0,-5.594728549999E-1));
#555=AXIS2_PLACEMENT_3D('',#552,#553,#554);
#557=CARTESIAN_POINT('',(3.898654602223E0,0.E0,0.E0));
#558=DIRECTION('',(-1.E0,0.E0,0.E0));
#559=DIRECTION('',(0.E0,0.E0,1.E0));
#560=AXIS2_PLACEMENT_3D('',#557,#558,#559);
#562=CARTESIAN_POINT('',(3.95E0,0.E0,0.E0));
#563=DIRECTION('',(-1.E0,0.E0,0.E0));
#564=DIRECTION('',(0.E0,0.E0,1.E0));
#565=AXIS2_PLACEMENT_3D('',#562,#563,#564);
#567=CARTESIAN_POINT('',(3.95E0,0.E0,0.E0));
#568=DIRECTION('',(-1.E0,0.E0,0.E0));
#569=DIRECTION('',(0.E0,0.E0,-1.E0));
#570=AXIS2_PLACEMENT_3D('',#567,#568,#569);
#572=CARTESIAN_POINT('',(3.95E0,0.E0,0.E0));
#573=DIRECTION('',(1.E0,0.E0,0.E0));
#574=DIRECTION('',(0.E0,0.E0,-1.E0));
#575=AXIS2_PLACEMENT_3D('',#572,#573,#574);
#577=CARTESIAN_POINT('',(3.95E0,0.E0,0.E0));
#578=DIRECTION('',(1.E0,0.E0,0.E0));
#579=DIRECTION('',(0.E0,0.E0,1.E0));
#580=AXIS2_PLACEMENT_3D('',#577,#578,#579);
#582=CARTESIAN_POINT('',(3.65E0,0.E0,-7.866666666667E0));
#583=DIRECTION('',(0.E0,-1.E0,0.E0));
#584=DIRECTION('',(1.E0,0.E0,0.E0));
#585=AXIS2_PLACEMENT_3D('',#582,#583,#584);
#587=CARTESIAN_POINT('',(3.65E0,0.E0,0.E0));
#588=DIRECTION('',(1.E0,0.E0,0.E0));
#589=DIRECTION('',(0.E0,0.E0,-1.E0));
#590=AXIS2_PLACEMENT_3D('',#587,#588,#589);
#592=CARTESIAN_POINT('',(3.65E0,0.E0,7.866666666667E0));
#593=DIRECTION('',(0.E0,1.E0,0.E0));
#594=DIRECTION('',(1.E0,0.E0,0.E0));
#595=AXIS2_PLACEMENT_3D('',#592,#593,#594);
#597=CARTESIAN_POINT('',(3.65E0,0.E0,0.E0));
#598=DIRECTION('',(1.E0,0.E0,0.E0));
#599=DIRECTION('',(0.E0,0.E0,1.E0));
#600=AXIS2_PLACEMENT_3D('',#597,#598,#599);
#602=CARTESIAN_POINT('',(3.4E0,0.E0,0.E0));
#603=DIRECTION('',(1.E0,0.E0,0.E0));
#604=DIRECTION('',(0.E0,0.E0,1.E0));
#605=AXIS2_PLACEMENT_3D('',#602,#603,#604);
#607=DIRECTION('',(1.E0,0.E0,0.E0));
#608=VECTOR('',#607,2.5E-1);
#609=CARTESIAN_POINT('',(3.4E0,0.E0,-7.566666666667E0));
#610=LINE('',#609,#608);
#611=CARTESIAN_POINT('',(3.4E0,0.E0,0.E0));
#612=DIRECTION('',(1.E0,0.E0,0.E0));
#613=DIRECTION('',(0.E0,0.E0,-1.E0));
#614=AXIS2_PLACEMENT_3D('',#611,#612,#613);
#616=CARTESIAN_POINT('',(3.4E0,0.E0,0.E0));
#617=DIRECTION('',(1.E0,0.E0,0.E0));
#618=DIRECTION('',(0.E0,0.E0,1.E0));
#619=AXIS2_PLACEMENT_3D('',#616,#617,#618);
#621=CARTESIAN_POINT('',(3.4E0,0.E0,0.E0));
#622=DIRECTION('',(1.E0,0.E0,0.E0));
#623=DIRECTION('',(0.E0,0.E0,-1.E0));
#624=AXIS2_PLACEMENT_3D('',#621,#622,#623);
#626=DIRECTION('',(1.E0,0.E0,0.E0));
#627=VECTOR('',#626,2.5E-1);
#628=CARTESIAN_POINT('',(3.4E0,0.E0,7.566666666667E0));
#629=LINE('',#628,#627);
#630=DIRECTION('',(-1.E0,0.E0,0.E0));
#631=VECTOR('',#630,3.E-1);
#632=CARTESIAN_POINT('',(3.7E0,0.E0,6.866666666667E0));
#633=LINE('',#632,#631);
#634=CARTESIAN_POINT('',(3.7E0,0.E0,0.E0));
#635=DIRECTION('',(-1.E0,0.E0,0.E0));
#636=DIRECTION('',(0.E0,0.E0,1.E0));
#637=AXIS2_PLACEMENT_3D('',#634,#635,#636);
#639=DIRECTION('',(3.511234415884E-1,0.E0,-9.363291775691E-1));
#640=VECTOR('',#639,4.272001872659E-1);
#641=CARTESIAN_POINT('',(3.7E0,0.E0,-6.866666666667E0));
#642=LINE('',#641,#640);
#643=CARTESIAN_POINT('',(3.85E0,0.E0,0.E0));
#644=DIRECTION('',(1.E0,0.E0,0.E0));
#645=DIRECTION('',(0.E0,0.E0,-1.E0));
#646=AXIS2_PLACEMENT_3D('',#643,#644,#645);
#648=DIRECTION('',(3.511234415884E-1,0.E0,9.363291775691E-1));
#649=VECTOR('',#648,4.272001872659E-1);
#650=CARTESIAN_POINT('',(3.7E0,0.E0,6.866666666667E0));
#651=LINE('',#650,#649);
#652=CARTESIAN_POINT('',(3.85E0,0.E0,0.E0));
#653=DIRECTION('',(1.E0,0.E0,0.E0));
#654=DIRECTION('',(0.E0,0.E0,1.E0));
#655=AXIS2_PLACEMENT_3D('',#652,#653,#654);
#657=CARTESIAN_POINT('',(3.7E0,0.E0,0.E0));
#658=DIRECTION('',(-1.E0,0.E0,0.E0));
#659=DIRECTION('',(0.E0,0.E0,-1.E0));
#660=AXIS2_PLACEMENT_3D('',#657,#658,#659);
#662=DIRECTION('',(-1.E0,0.E0,-1.776356839400E-14));
#663=VECTOR('',#662,1.5E-1);
#664=CARTESIAN_POINT('',(4.E0,0.E0,-7.266666666667E0));
#665=LINE('',#664,#663);
#666=DIRECTION('',(-1.E0,0.E0,1.776356839400E-14));
#667=VECTOR('',#666,1.5E-1);
#668=CARTESIAN_POINT('',(4.E0,0.E0,7.266666666667E0));
#669=LINE('',#668,#667);
#670=CARTESIAN_POINT('',(4.E0,0.E0,0.E0));
#671=DIRECTION('',(-1.E0,0.E0,0.E0));
#672=DIRECTION('',(0.E0,0.E0,1.E0));
#673=AXIS2_PLACEMENT_3D('',#670,#671,#672);
#675=CARTESIAN_POINT('',(4.E0,0.E0,0.E0));
#676=DIRECTION('',(-1.E0,0.E0,0.E0));
#677=DIRECTION('',(0.E0,0.E0,-1.E0));
#678=AXIS2_PLACEMENT_3D('',#675,#676,#677);
#680=CARTESIAN_POINT('',(4.E0,0.E0,0.E0));
#681=DIRECTION('',(1.E0,0.E0,0.E0));
#682=DIRECTION('',(0.E0,0.E0,-1.E0));
#683=AXIS2_PLACEMENT_3D('',#680,#681,#682);
#685=CARTESIAN_POINT('',(4.E0,0.E0,0.E0));
#686=DIRECTION('',(1.E0,0.E0,0.E0));
#687=DIRECTION('',(0.E0,0.E0,1.E0));
#688=AXIS2_PLACEMENT_3D('',#685,#686,#687);
#690=CARTESIAN_POINT('',(3.7E0,0.E0,0.E0));
#691=DIRECTION('',(1.E0,0.E0,0.E0));
#692=DIRECTION('',(0.E0,0.E0,-1.E0));
#693=AXIS2_PLACEMENT_3D('',#690,#691,#692);
#695=CARTESIAN_POINT('',(3.7E0,0.E0,5.3E0));
#696=DIRECTION('',(0.E0,-1.E0,0.E0));
#697=DIRECTION('',(0.E0,0.E0,-1.E0));
#698=AXIS2_PLACEMENT_3D('',#695,#696,#697);
#700=DIRECTION('',(-1.E0,0.E0,0.E0));
#701=VECTOR('',#700,7.4E0);
#702=CARTESIAN_POINT('',(3.7E0,0.E0,-5.E0));
#703=LINE('',#702,#701);
#704=DIRECTION('',(-1.E0,0.E0,0.E0));
#705=VECTOR('',#704,7.4E0);
#706=CARTESIAN_POINT('',(3.7E0,0.E0,5.E0));
#707=LINE('',#706,#705);
#708=CARTESIAN_POINT('',(3.7E0,0.E0,-5.3E0));
#709=DIRECTION('',(0.E0,1.E0,0.E0));
#710=DIRECTION('',(0.E0,0.E0,1.E0));
#711=AXIS2_PLACEMENT_3D('',#708,#709,#710);
#713=CARTESIAN_POINT('',(3.7E0,0.E0,0.E0));
#714=DIRECTION('',(1.E0,0.E0,0.E0));
#715=DIRECTION('',(0.E0,0.E0,1.E0));
#716=AXIS2_PLACEMENT_3D('',#713,#714,#715);
#718=CARTESIAN_POINT('',(-3.7E0,0.E0,-5.3E0));
#719=DIRECTION('',(0.E0,1.E0,0.E0));
#720=DIRECTION('',(-1.E0,0.E0,0.E0));
#721=AXIS2_PLACEMENT_3D('',#718,#719,#720);
#723=CARTESIAN_POINT('',(-3.7E0,0.E0,0.E0));
#724=DIRECTION('',(-1.E0,0.E0,0.E0));
#725=DIRECTION('',(0.E0,0.E0,-1.E0));
#726=AXIS2_PLACEMENT_3D('',#723,#724,#725);
#728=CARTESIAN_POINT('',(-3.7E0,0.E0,5.3E0));
#729=DIRECTION('',(0.E0,-1.E0,0.E0));
#730=DIRECTION('',(-1.E0,0.E0,0.E0));
#731=AXIS2_PLACEMENT_3D('',#728,#729,#730);
#733=CARTESIAN_POINT('',(-3.7E0,0.E0,0.E0));
#734=DIRECTION('',(-1.E0,0.E0,0.E0));
#735=DIRECTION('',(0.E0,0.E0,1.E0));
#736=AXIS2_PLACEMENT_3D('',#733,#734,#735);
#738=CARTESIAN_POINT('',(-4.E0,0.E0,0.E0));
#739=DIRECTION('',(1.E0,0.E0,0.E0));
#740=DIRECTION('',(0.E0,0.E0,-1.E0));
#741=AXIS2_PLACEMENT_3D('',#738,#739,#740);
#743=CARTESIAN_POINT('',(-4.E0,0.E0,0.E0));
#744=DIRECTION('',(1.E0,0.E0,0.E0));
#745=DIRECTION('',(0.E0,0.E0,1.E0));
#746=AXIS2_PLACEMENT_3D('',#743,#744,#745);
#748=CARTESIAN_POINT('',(-4.E0,0.E0,0.E0));
#749=DIRECTION('',(-1.E0,0.E0,0.E0));
#750=DIRECTION('',(0.E0,0.E0,1.E0));
#751=AXIS2_PLACEMENT_3D('',#748,#749,#750);
#753=CARTESIAN_POINT('',(-4.E0,0.E0,0.E0));
#754=DIRECTION('',(-1.E0,0.E0,0.E0));
#755=DIRECTION('',(0.E0,0.E0,-1.E0));
#756=AXIS2_PLACEMENT_3D('',#753,#754,#755);
#758=DIRECTION('',(-1.E0,0.E0,-1.776356839400E-14));
#759=VECTOR('',#758,1.5E-1);
#760=CARTESIAN_POINT('',(-3.85E0,0.E0,7.266666666667E0));
#761=LINE('',#760,#759);
#762=CARTESIAN_POINT('',(-3.7E0,0.E0,0.E0));
#763=DIRECTION('',(1.E0,0.E0,0.E0));
#764=DIRECTION('',(0.E0,0.E0,-1.E0));
#765=AXIS2_PLACEMENT_3D('',#762,#763,#764);
#767=DIRECTION('',(-3.511234415884E-1,0.E0,9.363291775691E-1));
#768=VECTOR('',#767,4.272001872659E-1);
#769=CARTESIAN_POINT('',(-3.7E0,0.E0,6.866666666667E0));
#770=LINE('',#769,#768);
#771=CARTESIAN_POINT('',(-3.85E0,0.E0,0.E0));
#772=DIRECTION('',(-1.E0,0.E0,0.E0));
#773=DIRECTION('',(0.E0,0.E0,1.E0));
#774=AXIS2_PLACEMENT_3D('',#771,#772,#773);
#776=DIRECTION('',(-1.E0,0.E0,0.E0));
#777=VECTOR('',#776,3.E-1);
#778=CARTESIAN_POINT('',(-3.4E0,0.E0,6.866666666667E0));
#779=LINE('',#778,#777);
#780=CARTESIAN_POINT('',(-3.4E0,0.E0,0.E0));
#781=DIRECTION('',(-1.E0,0.E0,0.E0));
#782=DIRECTION('',(0.E0,0.E0,1.E0));
#783=AXIS2_PLACEMENT_3D('',#780,#781,#782);
#785=CARTESIAN_POINT('',(-3.4E0,0.E0,0.E0));
#786=DIRECTION('',(-1.E0,0.E0,0.E0));
#787=DIRECTION('',(0.E0,0.E0,-1.E0));
#788=AXIS2_PLACEMENT_3D('',#785,#786,#787);
#790=CARTESIAN_POINT('',(-3.4E0,0.E0,0.E0));
#791=DIRECTION('',(-1.E0,0.E0,0.E0));
#792=DIRECTION('',(0.E0,0.E0,1.E0));
#793=AXIS2_PLACEMENT_3D('',#790,#791,#792);
#795=DIRECTION('',(-1.E0,0.E0,0.E0));
#796=VECTOR('',#795,2.5E-1);
#797=CARTESIAN_POINT('',(-3.4E0,0.E0,-7.566666666667E0));
#798=LINE('',#797,#796);
#799=CARTESIAN_POINT('',(-3.4E0,0.E0,0.E0));
#800=DIRECTION('',(-1.E0,0.E0,0.E0));
#801=DIRECTION('',(0.E0,0.E0,-1.E0));
#802=AXIS2_PLACEMENT_3D('',#799,#800,#801);
#804=DIRECTION('',(-1.E0,0.E0,0.E0));
#805=VECTOR('',#804,2.5E-1);
#806=CARTESIAN_POINT('',(-3.4E0,0.E0,7.566666666667E0));
#807=LINE('',#806,#805);
#808=CARTESIAN_POINT('',(-3.65E0,0.E0,-7.866666666667E0));
#809=DIRECTION('',(0.E0,1.E0,0.E0));
#810=DIRECTION('',(-1.E0,0.E0,0.E0));
#811=AXIS2_PLACEMENT_3D('',#808,#809,#810);
#813=CARTESIAN_POINT('',(-3.65E0,0.E0,0.E0));
#814=DIRECTION('',(-1.E0,0.E0,0.E0));
#815=DIRECTION('',(0.E0,0.E0,-1.E0));
#816=AXIS2_PLACEMENT_3D('',#813,#814,#815);
#818=DIRECTION('',(-1.E0,0.E0,0.E0));
#819=VECTOR('',#818,3.E-1);
#820=CARTESIAN_POINT('',(-3.4E0,0.E0,-6.866666666667E0));
#821=LINE('',#820,#819);
#822=DIRECTION('',(-3.511234415884E-1,0.E0,-9.363291775691E-1));
#823=VECTOR('',#822,4.272001872659E-1);
#824=CARTESIAN_POINT('',(-3.7E0,0.E0,-6.866666666667E0));
#825=LINE('',#824,#823);
#826=CARTESIAN_POINT('',(-3.85E0,0.E0,0.E0));
#827=DIRECTION('',(-1.E0,0.E0,0.E0));
#828=DIRECTION('',(0.E0,0.E0,-1.E0));
#829=AXIS2_PLACEMENT_3D('',#826,#827,#828);
#831=CARTESIAN_POINT('',(-3.7E0,0.E0,0.E0));
#832=DIRECTION('',(1.E0,0.E0,0.E0));
#833=DIRECTION('',(0.E0,0.E0,1.E0));
#834=AXIS2_PLACEMENT_3D('',#831,#832,#833);
#836=DIRECTION('',(-1.E0,0.E0,1.776356839400E-14));
#837=VECTOR('',#836,1.5E-1);
#838=CARTESIAN_POINT('',(-3.85E0,0.E0,-7.266666666667E0));
#839=LINE('',#838,#837);
#840=DIRECTION('',(-1.E0,0.E0,0.E0));
#841=VECTOR('',#840,3.E-1);
#842=CARTESIAN_POINT('',(3.7E0,0.E0,-6.866666666667E0));
#843=LINE('',#842,#841);
#844=CARTESIAN_POINT('',(3.6E0,0.E0,-1.039451640036E1));
#845=DIRECTION('',(0.E0,-1.E0,0.E0));
#846=DIRECTION('',(-8.288486740775E-1,0.E0,5.594728549983E-1));
#847=AXIS2_PLACEMENT_3D('',#844,#845,#846);
#849=CARTESIAN_POINT('',(3.517115132592E0,0.E0,0.E0));
#850=DIRECTION('',(1.E0,0.E0,0.E0));
#851=DIRECTION('',(0.E0,0.E0,1.E0));
#852=AXIS2_PLACEMENT_3D('',#849,#850,#851);
#854=CARTESIAN_POINT('',(-3.65E0,0.E0,-9.605483599644E0));
#855=DIRECTION('',(0.E0,1.E0,0.E0));
#856=DIRECTION('',(-8.288486740765E-1,0.E0,-5.594728549999E-1));
#857=AXIS2_PLACEMENT_3D('',#854,#855,#856);
#859=CARTESIAN_POINT('',(-3.898654602223E0,0.E0,0.E0));
#860=DIRECTION('',(1.E0,0.E0,0.E0));
#861=DIRECTION('',(0.E0,0.E0,1.E0));
#862=AXIS2_PLACEMENT_3D('',#859,#860,#861);
#864=CARTESIAN_POINT('',(-3.95E0,0.E0,7.866666666667E0));
#865=CARTESIAN_POINT('',(-3.95E0,0.E0,-7.866666666667E0));
#866=VERTEX_POINT('',#864);
#867=VERTEX_POINT('',#865);
#868=CARTESIAN_POINT('',(-3.65E0,0.E0,7.566666666667E0));
#869=VERTEX_POINT('',#868);
#870=CARTESIAN_POINT('',(-3.65E0,0.E0,-7.566666666667E0));
#871=VERTEX_POINT('',#870);
#872=CARTESIAN_POINT('',(-3.95E0,0.E0,-9.605483599644E0));
#873=CARTESIAN_POINT('',(-3.95E0,0.E0,9.605483599644E0));
#874=VERTEX_POINT('',#872);
#875=VERTEX_POINT('',#873);
#876=CARTESIAN_POINT('',(-3.898654602223E0,0.E0,-9.773325456144E0));
#877=CARTESIAN_POINT('',(-3.898654602223E0,0.E0,9.773325456144E0));
#878=VERTEX_POINT('',#876);
#879=VERTEX_POINT('',#877);
#880=CARTESIAN_POINT('',(-3.517115132591E0,0.E0,-1.033856911486E1));
#881=VERTEX_POINT('',#880);
#882=CARTESIAN_POINT('',(-3.517115132592E0,0.E0,1.033856911486E1));
#883=VERTEX_POINT('',#882);
#884=CARTESIAN_POINT('',(-3.5E0,0.E0,1.039451640036E1));
#885=VERTEX_POINT('',#884);
#886=CARTESIAN_POINT('',(-3.5E0,0.E0,-1.039451640036E1));
#887=VERTEX_POINT('',#886);
#888=CARTESIAN_POINT('',(-3.5E0,0.E0,-1.103333333333E1));
#889=CARTESIAN_POINT('',(-3.5E0,0.E0,1.103333333333E1));
#890=VERTEX_POINT('',#888);
#891=VERTEX_POINT('',#889);
#892=CARTESIAN_POINT('',(-3.630699953184E0,0.E0,-1.103333333333E1));
#893=VERTEX_POINT('',#892);
#894=CARTESIAN_POINT('',(-3.630699953183E0,0.E0,1.103333333333E1));
#895=VERTEX_POINT('',#894);
#896=CARTESIAN_POINT('',(-3.756367082243E0,0.E0,-1.069822098917E1));
#897=CARTESIAN_POINT('',(-3.756367082243E0,0.E0,1.069822098917E1));
#898=VERTEX_POINT('',#896);
#899=VERTEX_POINT('',#897);
#900=CARTESIAN_POINT('',(3.756367082243E0,0.E0,1.069822098917E1));
#901=CARTESIAN_POINT('',(3.756367082243E0,0.E0,-1.069822098917E1));
#902=VERTEX_POINT('',#900);
#903=VERTEX_POINT('',#901);
#904=CARTESIAN_POINT('',(3.630699953184E0,0.E0,-1.103333333333E1));
#905=VERTEX_POINT('',#904);
#906=CARTESIAN_POINT('',(3.630699953183E0,0.E0,1.103333333333E1));
#907=VERTEX_POINT('',#906);
#908=CARTESIAN_POINT('',(3.5E0,0.E0,-1.103333333333E1));
#909=VERTEX_POINT('',#908);
#910=CARTESIAN_POINT('',(3.5E0,0.E0,1.103333333333E1));
#911=VERTEX_POINT('',#910);
#912=CARTESIAN_POINT('',(3.5E0,0.E0,-1.039451640036E1));
#913=CARTESIAN_POINT('',(3.5E0,0.E0,1.039451640036E1));
#914=VERTEX_POINT('',#912);
#915=VERTEX_POINT('',#913);
#916=CARTESIAN_POINT('',(3.517115132592E0,0.E0,-1.033856911486E1));
#917=CARTESIAN_POINT('',(3.517115132592E0,0.E0,1.033856911486E1));
#918=VERTEX_POINT('',#916);
#919=VERTEX_POINT('',#917);
#920=CARTESIAN_POINT('',(3.898654602223E0,0.E0,9.773325456144E0));
#921=VERTEX_POINT('',#920);
#922=CARTESIAN_POINT('',(3.898654602223E0,0.E0,-9.773325456144E0));
#923=VERTEX_POINT('',#922);
#924=CARTESIAN_POINT('',(3.95E0,0.E0,9.605483599644E0));
#925=VERTEX_POINT('',#924);
#926=CARTESIAN_POINT('',(3.95E0,0.E0,-9.605483599644E0));
#927=VERTEX_POINT('',#926);
#928=CARTESIAN_POINT('',(3.95E0,0.E0,-7.866666666667E0));
#929=CARTESIAN_POINT('',(3.95E0,0.E0,7.866666666667E0));
#930=VERTEX_POINT('',#928);
#931=VERTEX_POINT('',#929);
#932=CARTESIAN_POINT('',(3.65E0,0.E0,-7.566666666667E0));
#933=VERTEX_POINT('',#932);
#934=CARTESIAN_POINT('',(3.65E0,0.E0,7.566666666667E0));
#935=VERTEX_POINT('',#934);
#936=CARTESIAN_POINT('',(4.E0,0.E0,1.27E1));
#937=CARTESIAN_POINT('',(4.E0,0.E0,-1.27E1));
#938=VERTEX_POINT('',#936);
#939=VERTEX_POINT('',#937);
#940=CARTESIAN_POINT('',(3.7E0,0.E0,1.3E1));
#941=VERTEX_POINT('',#940);
#942=CARTESIAN_POINT('',(3.7E0,0.E0,-1.3E1));
#943=VERTEX_POINT('',#942);
#944=CARTESIAN_POINT('',(4.E0,0.E0,-1.073333333333E1));
#945=CARTESIAN_POINT('',(4.E0,0.E0,1.073333333333E1));
#946=VERTEX_POINT('',#944);
#947=VERTEX_POINT('',#945);
#948=CARTESIAN_POINT('',(-3.7E0,0.E0,-1.3E1));
#949=VERTEX_POINT('',#948);
#950=CARTESIAN_POINT('',(-3.7E0,0.E0,1.3E1));
#951=VERTEX_POINT('',#950);
#952=CARTESIAN_POINT('',(-4.E0,0.E0,1.27E1));
#953=VERTEX_POINT('',#952);
#954=CARTESIAN_POINT('',(-4.E0,0.E0,-1.27E1));
#955=VERTEX_POINT('',#954);
#956=CARTESIAN_POINT('',(-4.E0,0.E0,1.073333333333E1));
#957=CARTESIAN_POINT('',(-4.E0,0.E0,-1.073333333333E1));
#958=VERTEX_POINT('',#956);
#959=VERTEX_POINT('',#957);
#960=CARTESIAN_POINT('',(-3.850000000002E0,0.E0,-1.073333333333E1));
#961=CARTESIAN_POINT('',(-3.850000000002E0,0.E0,1.073333333333E1));
#962=VERTEX_POINT('',#960);
#963=VERTEX_POINT('',#961);
#964=CARTESIAN_POINT('',(3.850000000002E0,0.E0,1.073333333333E1));
#965=CARTESIAN_POINT('',(3.850000000002E0,0.E0,-1.073333333333E1));
#966=VERTEX_POINT('',#964);
#967=VERTEX_POINT('',#965);
#968=CARTESIAN_POINT('',(3.7E0,0.E0,6.866666666667E0));
#969=CARTESIAN_POINT('',(3.7E0,0.E0,-6.866666666667E0));
#970=VERTEX_POINT('',#968);
#971=VERTEX_POINT('',#969);
#972=CARTESIAN_POINT('',(3.85E0,0.E0,-7.266666666667E0));
#973=VERTEX_POINT('',#972);
#974=CARTESIAN_POINT('',(3.85E0,0.E0,7.266666666667E0));
#975=VERTEX_POINT('',#974);
#976=CARTESIAN_POINT('',(3.4E0,0.E0,6.866666666667E0));
#977=VERTEX_POINT('',#976);
#978=CARTESIAN_POINT('',(3.4E0,0.E0,-6.866666666667E0));
#979=VERTEX_POINT('',#978);
#980=CARTESIAN_POINT('',(-3.4E0,0.E0,6.866666666667E0));
#981=CARTESIAN_POINT('',(-3.4E0,0.E0,-6.866666666667E0));
#982=VERTEX_POINT('',#980);
#983=VERTEX_POINT('',#981);
#984=CARTESIAN_POINT('',(-3.7E0,0.E0,6.866666666667E0));
#985=VERTEX_POINT('',#984);
#986=CARTESIAN_POINT('',(-3.7E0,0.E0,-6.866666666667E0));
#987=VERTEX_POINT('',#986);
#988=CARTESIAN_POINT('',(-3.85E0,0.E0,-7.266666666667E0));
#989=VERTEX_POINT('',#988);
#990=CARTESIAN_POINT('',(-3.85E0,0.E0,7.266666666667E0));
#991=VERTEX_POINT('',#990);
#992=CARTESIAN_POINT('',(-4.E0,0.E0,7.266666666667E0));
#993=VERTEX_POINT('',#992);
#994=CARTESIAN_POINT('',(-4.E0,0.E0,-7.266666666667E0));
#995=VERTEX_POINT('',#994);
#996=CARTESIAN_POINT('',(-4.E0,0.E0,5.3E0));
#997=CARTESIAN_POINT('',(-4.E0,0.E0,-5.3E0));
#998=VERTEX_POINT('',#996);
#999=VERTEX_POINT('',#997);
#1000=CARTESIAN_POINT('',(-3.7E0,0.E0,5.E0));
#1001=VERTEX_POINT('',#1000);
#1002=CARTESIAN_POINT('',(-3.7E0,0.E0,-5.E0));
#1003=VERTEX_POINT('',#1002);
#1004=CARTESIAN_POINT('',(3.7E0,0.E0,5.E0));
#1005=CARTESIAN_POINT('',(3.7E0,0.E0,-5.E0));
#1006=VERTEX_POINT('',#1004);
#1007=VERTEX_POINT('',#1005);
#1008=CARTESIAN_POINT('',(4.E0,0.E0,-5.3E0));
#1009=VERTEX_POINT('',#1008);
#1010=CARTESIAN_POINT('',(4.E0,0.E0,5.3E0));
#1011=VERTEX_POINT('',#1010);
#1012=CARTESIAN_POINT('',(4.E0,0.E0,7.266666666667E0));
#1013=CARTESIAN_POINT('',(4.E0,0.E0,-7.266666666667E0));
#1014=VERTEX_POINT('',#1012);
#1015=VERTEX_POINT('',#1013);
#1016=CARTESIAN_POINT('',(-3.4E0,0.E0,7.566666666667E0));
#1017=CARTESIAN_POINT('',(-3.4E0,0.E0,-7.566666666667E0));
#1018=VERTEX_POINT('',#1016);
#1019=VERTEX_POINT('',#1017);
#1020=CARTESIAN_POINT('',(3.4E0,0.E0,7.566666666667E0));
#1021=CARTESIAN_POINT('',(3.4E0,0.E0,-7.566666666667E0));
#1022=VERTEX_POINT('',#1020);
#1023=VERTEX_POINT('',#1021);
#1024=CARTESIAN_POINT('',(-3.65E0,0.E0,0.E0));
#1025=DIRECTION('',(-1.E0,0.E0,0.E0));
#1026=DIRECTION('',(0.E0,0.E0,1.E0));
#1027=AXIS2_PLACEMENT_3D('',#1024,#1025,#1026);
#1028=TOROIDAL_SURFACE('',#1027,7.866666666667E0,3.E-1);
#1030=ORIENTED_EDGE('',*,*,#1029,.F.);
#1032=ORIENTED_EDGE('',*,*,#1031,.T.);
#1034=ORIENTED_EDGE('',*,*,#1033,.T.);
#1036=ORIENTED_EDGE('',*,*,#1035,.F.);
#1037=EDGE_LOOP('',(#1030,#1032,#1034,#1036));
#1038=FACE_OUTER_BOUND('',#1037,.F.);
#1039=ADVANCED_FACE('',(#1038),#1028,.T.);
#1040=CARTESIAN_POINT('',(-3.95E0,9.605483599644E0,0.E0));
#1041=DIRECTION('',(1.E0,0.E0,0.E0));
#1042=DIRECTION('',(0.E0,0.E0,-1.E0));
#1043=AXIS2_PLACEMENT_3D('',#1040,#1041,#1042);
#1044=PLANE('',#1043);
#1046=ORIENTED_EDGE('',*,*,#1045,.T.);
#1048=ORIENTED_EDGE('',*,*,#1047,.T.);
#1049=EDGE_LOOP('',(#1046,#1048));
#1050=FACE_OUTER_BOUND('',#1049,.F.);
#1051=ORIENTED_EDGE('',*,*,#1029,.T.);
#1053=ORIENTED_EDGE('',*,*,#1052,.T.);
#1054=EDGE_LOOP('',(#1051,#1053));
#1055=FACE_BOUND('',#1054,.F.);
#1056=ADVANCED_FACE('',(#1050,#1055),#1044,.F.);
#1057=CARTESIAN_POINT('',(-3.65E0,0.E0,0.E0));
#1058=DIRECTION('',(-1.E0,0.E0,0.E0));
#1059=DIRECTION('',(0.E0,0.E0,1.E0));
#1060=AXIS2_PLACEMENT_3D('',#1057,#1058,#1059);
#1061=TOROIDAL_SURFACE('',#1060,9.605483599644E0,3.E-1);
#1063=ORIENTED_EDGE('',*,*,#1062,.T.);
#1065=ORIENTED_EDGE('',*,*,#1064,.T.);
#1066=ORIENTED_EDGE('',*,*,#1045,.F.);
#1068=ORIENTED_EDGE('',*,*,#1067,.F.);
#1069=EDGE_LOOP('',(#1063,#1065,#1066,#1068));
#1070=FACE_OUTER_BOUND('',#1069,.F.);
#1071=ADVANCED_FACE('',(#1070),#1061,.T.);
#1072=CARTESIAN_POINT('',(-3.707884867407E0,0.E0,0.E0));
#1073=DIRECTION('',(1.E0,0.E0,0.E0));
#1074=DIRECTION('',(0.E0,0.E0,-1.E0));
#1075=AXIS2_PLACEMENT_3D('',#1072,#1073,#1074);
#1076=CONICAL_SURFACE('',#1075,1.005594728550E1,5.598065001017E1);
#1077=ORIENTED_EDGE('',*,*,#1062,.F.);
#1079=ORIENTED_EDGE('',*,*,#1078,.T.);
#1081=ORIENTED_EDGE('',*,*,#1080,.F.);
#1083=ORIENTED_EDGE('',*,*,#1082,.F.);
#1084=EDGE_LOOP('',(#1077,#1079,#1081,#1083));
#1085=FACE_OUTER_BOUND('',#1084,.F.);
#1086=ADVANCED_FACE('',(#1085),#1076,.T.);
#1087=CARTESIAN_POINT('',(-3.707884867407E0,0.E0,0.E0));
#1088=DIRECTION('',(1.E0,0.E0,0.E0));
#1089=DIRECTION('',(0.E0,0.E0,-1.E0));
#1090=AXIS2_PLACEMENT_3D('',#1087,#1088,#1089);
#1091=CONICAL_SURFACE('',#1090,1.005594728550E1,5.598065001017E1);
#1092=ORIENTED_EDGE('',*,*,#1082,.T.);
#1094=ORIENTED_EDGE('',*,*,#1093,.F.);
#1095=ORIENTED_EDGE('',*,*,#1078,.F.);
#1097=ORIENTED_EDGE('',*,*,#1096,.F.);
#1098=EDGE_LOOP('',(#1092,#1094,#1095,#1097));
#1099=FACE_OUTER_BOUND('',#1098,.F.);
#1100=ADVANCED_FACE('',(#1099),#1091,.T.);
#1101=CARTESIAN_POINT('',(-3.6E0,0.E0,0.E0));
#1102=DIRECTION('',(-1.E0,0.E0,0.E0));
#1103=DIRECTION('',(0.E0,0.E0,1.E0));
#1104=AXIS2_PLACEMENT_3D('',#1101,#1102,#1103);
#1105=TOROIDAL_SURFACE('',#1104,1.039451640036E1,1.E-1);
#1106=ORIENTED_EDGE('',*,*,#1093,.T.);
#1108=ORIENTED_EDGE('',*,*,#1107,.T.);
#1110=ORIENTED_EDGE('',*,*,#1109,.F.);
#1112=ORIENTED_EDGE('',*,*,#1111,.F.);
#1113=EDGE_LOOP('',(#1106,#1108,#1110,#1112));
#1114=FACE_OUTER_BOUND('',#1113,.F.);
#1115=ADVANCED_FACE('',(#1114),#1105,.F.);
#1116=CARTESIAN_POINT('',(-3.6E0,0.E0,0.E0));
#1117=DIRECTION('',(-1.E0,0.E0,0.E0));
#1118=DIRECTION('',(0.E0,0.E0,1.E0));
#1119=AXIS2_PLACEMENT_3D('',#1116,#1117,#1118);
#1120=TOROIDAL_SURFACE('',#1119,1.039451640036E1,1.E-1);
#1121=ORIENTED_EDGE('',*,*,#1111,.T.);
#1123=ORIENTED_EDGE('',*,*,#1122,.F.);
#1124=ORIENTED_EDGE('',*,*,#1107,.F.);
#1125=ORIENTED_EDGE('',*,*,#1080,.T.);
#1126=EDGE_LOOP('',(#1121,#1123,#1124,#1125));
#1127=FACE_OUTER_BOUND('',#1126,.F.);
#1128=ADVANCED_FACE('',(#1127),#1120,.F.);
#1129=CARTESIAN_POINT('',(-3.5E0,1.113333333333E1,0.E0));
#1130=DIRECTION('',(1.E0,0.E0,0.E0));
#1131=DIRECTION('',(0.E0,0.E0,-1.E0));
#1132=AXIS2_PLACEMENT_3D('',#1129,#1130,#1131);
#1133=PLANE('',#1132);
#1135=ORIENTED_EDGE('',*,*,#1134,.T.);
#1137=ORIENTED_EDGE('',*,*,#1136,.T.);
#1138=EDGE_LOOP('',(#1135,#1137));
#1139=FACE_OUTER_BOUND('',#1138,.F.);
#1140=ORIENTED_EDGE('',*,*,#1122,.T.);
#1141=ORIENTED_EDGE('',*,*,#1109,.T.);
#1142=EDGE_LOOP('',(#1140,#1141));
#1143=FACE_BOUND('',#1142,.F.);
#1144=ADVANCED_FACE('',(#1139,#1143),#1133,.F.);
#1145=CARTESIAN_POINT('',(0.E0,0.E0,0.E0));
#1146=DIRECTION('',(-1.E0,0.E0,0.E0));
#1147=DIRECTION('',(0.E0,0.E0,1.E0));
#1148=AXIS2_PLACEMENT_3D('',#1145,#1146,#1147);
#1149=CYLINDRICAL_SURFACE('',#1148,1.103333333333E1);
#1151=ORIENTED_EDGE('',*,*,#1150,.T.);
#1153=ORIENTED_EDGE('',*,*,#1152,.F.);
#1155=ORIENTED_EDGE('',*,*,#1154,.F.);
#1156=ORIENTED_EDGE('',*,*,#1134,.F.);
#1157=EDGE_LOOP('',(#1151,#1153,#1155,#1156));
#1158=FACE_OUTER_BOUND('',#1157,.F.);
#1159=ADVANCED_FACE('',(#1158),#1149,.F.);
#1160=CARTESIAN_POINT('',(0.E0,0.E0,0.E0));
#1161=DIRECTION('',(-1.E0,0.E0,0.E0));
#1162=DIRECTION('',(0.E0,0.E0,1.E0));
#1163=AXIS2_PLACEMENT_3D('',#1160,#1161,#1162);
#1164=CYLINDRICAL_SURFACE('',#1163,1.103333333333E1);
#1165=ORIENTED_EDGE('',*,*,#1136,.F.);
#1166=ORIENTED_EDGE('',*,*,#1154,.T.);
#1168=ORIENTED_EDGE('',*,*,#1167,.F.);
#1169=ORIENTED_EDGE('',*,*,#1150,.F.);
#1170=EDGE_LOOP('',(#1165,#1166,#1168,#1169));
#1171=FACE_OUTER_BOUND('',#1170,.F.);
#1172=ADVANCED_FACE('',(#1171),#1164,.F.);
#1173=CARTESIAN_POINT('',(-3.693533517713E0,0.E0,0.E0));
#1174=DIRECTION('',(1.E0,0.E0,0.E0));
#1175=DIRECTION('',(0.E0,0.E0,-1.E0));
#1176=AXIS2_PLACEMENT_3D('',#1173,#1174,#1175);
#1177=CONICAL_SURFACE('',#1176,1.086577716125E1,6.944395478042E1);
#1179=ORIENTED_EDGE('',*,*,#1178,.F.);
#1181=ORIENTED_EDGE('',*,*,#1180,.T.);
#1182=ORIENTED_EDGE('',*,*,#1167,.T.);
#1184=ORIENTED_EDGE('',*,*,#1183,.F.);
#1185=EDGE_LOOP('',(#1179,#1181,#1182,#1184));
#1186=FACE_OUTER_BOUND('',#1185,.F.);
#1187=ADVANCED_FACE('',(#1186),#1177,.F.);
#1188=CARTESIAN_POINT('',(-3.803183541122E0,0.E0,0.E0));
#1189=DIRECTION('',(-1.E0,0.E0,0.E0));
#1190=DIRECTION('',(0.E0,0.E0,1.E0));
#1191=AXIS2_PLACEMENT_3D('',#1188,#1189,#1190);
#1192=CONICAL_SURFACE('',#1191,1.071577716125E1,2.055604521958E1);
#1194=ORIENTED_EDGE('',*,*,#1193,.F.);
#1196=ORIENTED_EDGE('',*,*,#1195,.F.);
#1197=ORIENTED_EDGE('',*,*,#1178,.T.);
#1199=ORIENTED_EDGE('',*,*,#1198,.T.);
#1200=EDGE_LOOP('',(#1194,#1196,#1197,#1199));
#1201=FACE_OUTER_BOUND('',#1200,.F.);
#1202=ADVANCED_FACE('',(#1201),#1192,.F.);
#1203=CARTESIAN_POINT('',(0.E0,0.E0,0.E0));
#1204=DIRECTION('',(-1.E0,0.E0,0.E0));
#1205=DIRECTION('',(0.E0,0.E0,1.E0));
#1206=AXIS2_PLACEMENT_3D('',#1203,#1204,#1205);
#1207=CYLINDRICAL_SURFACE('',#1206,1.073333333333E1);
#1208=ORIENTED_EDGE('',*,*,#1193,.T.);
#1210=ORIENTED_EDGE('',*,*,#1209,.T.);
#1212=ORIENTED_EDGE('',*,*,#1211,.F.);
#1214=ORIENTED_EDGE('',*,*,#1213,.F.);
#1215=EDGE_LOOP('',(#1208,#1210,#1212,#1214));
#1216=FACE_OUTER_BOUND('',#1215,.F.);
#1217=ADVANCED_FACE('',(#1216),#1207,.F.);
#1218=CARTESIAN_POINT('',(0.E0,0.E0,0.E0));
#1219=DIRECTION('',(-1.E0,0.E0,0.E0));
#1220=DIRECTION('',(0.E0,0.E0,1.E0));
#1221=AXIS2_PLACEMENT_3D('',#1218,#1219,#1220);
#1222=CYLINDRICAL_SURFACE('',#1221,1.073333333333E1);
#1224=ORIENTED_EDGE('',*,*,#1223,.T.);
#1225=ORIENTED_EDGE('',*,*,#1213,.T.);
#1227=ORIENTED_EDGE('',*,*,#1226,.F.);
#1228=ORIENTED_EDGE('',*,*,#1209,.F.);
#1229=EDGE_LOOP('',(#1224,#1225,#1227,#1228));
#1230=FACE_OUTER_BOUND('',#1229,.F.);
#1231=ADVANCED_FACE('',(#1230),#1222,.F.);
#1232=CARTESIAN_POINT('',(-3.803183541122E0,0.E0,0.E0));
#1233=DIRECTION('',(-1.E0,0.E0,0.E0));
#1234=DIRECTION('',(0.E0,0.E0,1.E0));
#1235=AXIS2_PLACEMENT_3D('',#1232,#1233,#1234);
#1236=CONICAL_SURFACE('',#1235,1.071577716125E1,2.055604521958E1);
#1237=ORIENTED_EDGE('',*,*,#1223,.F.);
#1238=ORIENTED_EDGE('',*,*,#1198,.F.);
#1240=ORIENTED_EDGE('',*,*,#1239,.T.);
#1241=ORIENTED_EDGE('',*,*,#1195,.T.);
#1242=EDGE_LOOP('',(#1237,#1238,#1240,#1241));
#1243=FACE_OUTER_BOUND('',#1242,.F.);
#1244=ADVANCED_FACE('',(#1243),#1236,.F.);
#1245=CARTESIAN_POINT('',(-3.693533517713E0,0.E0,0.E0));
#1246=DIRECTION('',(1.E0,0.E0,0.E0));
#1247=DIRECTION('',(0.E0,0.E0,-1.E0));
#1248=AXIS2_PLACEMENT_3D('',#1245,#1246,#1247);
#1249=CONICAL_SURFACE('',#1248,1.086577716125E1,6.944395478042E1);
#1250=ORIENTED_EDGE('',*,*,#1183,.T.);
#1251=ORIENTED_EDGE('',*,*,#1152,.T.);
#1252=ORIENTED_EDGE('',*,*,#1180,.F.);
#1253=ORIENTED_EDGE('',*,*,#1239,.F.);
#1254=EDGE_LOOP('',(#1250,#1251,#1252,#1253));
#1255=FACE_OUTER_BOUND('',#1254,.F.);
#1256=ADVANCED_FACE('',(#1255),#1249,.F.);
#1257=CARTESIAN_POINT('',(-4.E0,1.073333333333E1,0.E0));
#1258=DIRECTION('',(1.E0,0.E0,0.E0));
#1259=DIRECTION('',(0.E0,0.E0,-1.E0));
#1260=AXIS2_PLACEMENT_3D('',#1257,#1258,#1259);
#1261=PLANE('',#1260);
#1263=ORIENTED_EDGE('',*,*,#1262,.T.);
#1265=ORIENTED_EDGE('',*,*,#1264,.T.);
#1266=EDGE_LOOP('',(#1263,#1265));
#1267=FACE_OUTER_BOUND('',#1266,.F.);
#1268=ORIENTED_EDGE('',*,*,#1226,.T.);
#1269=ORIENTED_EDGE('',*,*,#1211,.T.);
#1270=EDGE_LOOP('',(#1268,#1269));
#1271=FACE_BOUND('',#1270,.F.);
#1272=ADVANCED_FACE('',(#1267,#1271),#1261,.F.);
#1273=CARTESIAN_POINT('',(-3.7E0,0.E0,0.E0));
#1274=DIRECTION('',(-1.E0,0.E0,0.E0));
#1275=DIRECTION('',(0.E0,0.E0,1.E0));
#1276=AXIS2_PLACEMENT_3D('',#1273,#1274,#1275);
#1277=TOROIDAL_SURFACE('',#1276,1.27E1,3.E-1);
#1279=ORIENTED_EDGE('',*,*,#1278,.T.);
#1281=ORIENTED_EDGE('',*,*,#1280,.T.);
#1282=ORIENTED_EDGE('',*,*,#1262,.F.);
#1284=ORIENTED_EDGE('',*,*,#1283,.F.);
#1285=EDGE_LOOP('',(#1279,#1281,#1282,#1284));
#1286=FACE_OUTER_BOUND('',#1285,.F.);
#1287=ADVANCED_FACE('',(#1286),#1277,.T.);
#1288=CARTESIAN_POINT('',(0.E0,0.E0,0.E0));
#1289=DIRECTION('',(-1.E0,0.E0,0.E0));
#1290=DIRECTION('',(0.E0,0.E0,1.E0));
#1291=AXIS2_PLACEMENT_3D('',#1288,#1289,#1290);
#1292=CYLINDRICAL_SURFACE('',#1291,1.3E1);
#1294=ORIENTED_EDGE('',*,*,#1293,.F.);
#1296=ORIENTED_EDGE('',*,*,#1295,.T.);
#1297=ORIENTED_EDGE('',*,*,#1278,.F.);
#1299=ORIENTED_EDGE('',*,*,#1298,.F.);
#1300=EDGE_LOOP('',(#1294,#1296,#1297,#1299));
#1301=FACE_OUTER_BOUND('',#1300,.F.);
#1302=ADVANCED_FACE('',(#1301),#1292,.T.);
#1303=CARTESIAN_POINT('',(3.7E0,0.E0,0.E0));
#1304=DIRECTION('',(-1.E0,0.E0,0.E0));
#1305=DIRECTION('',(0.E0,0.E0,1.E0));
#1306=AXIS2_PLACEMENT_3D('',#1303,#1304,#1305);
#1307=TOROIDAL_SURFACE('',#1306,1.27E1,3.E-1);
#1309=ORIENTED_EDGE('',*,*,#1308,.F.);
#1311=ORIENTED_EDGE('',*,*,#1310,.T.);
#1312=ORIENTED_EDGE('',*,*,#1293,.T.);
#1314=ORIENTED_EDGE('',*,*,#1313,.F.);
#1315=EDGE_LOOP('',(#1309,#1311,#1312,#1314));
#1316=FACE_OUTER_BOUND('',#1315,.F.);
#1317=ADVANCED_FACE('',(#1316),#1307,.T.);
#1318=CARTESIAN_POINT('',(4.E0,1.27E1,0.E0));
#1319=DIRECTION('',(-1.E0,0.E0,0.E0));
#1320=DIRECTION('',(0.E0,0.E0,1.E0));
#1321=AXIS2_PLACEMENT_3D('',#1318,#1319,#1320);
#1322=PLANE('',#1321);
#1323=ORIENTED_EDGE('',*,*,#1308,.T.);
#1325=ORIENTED_EDGE('',*,*,#1324,.T.);
#1326=EDGE_LOOP('',(#1323,#1325));
#1327=FACE_OUTER_BOUND('',#1326,.F.);
#1329=ORIENTED_EDGE('',*,*,#1328,.T.);
#1331=ORIENTED_EDGE('',*,*,#1330,.T.);
#1332=EDGE_LOOP('',(#1329,#1331));
#1333=FACE_BOUND('',#1332,.F.);
#1334=ADVANCED_FACE('',(#1327,#1333),#1322,.F.);
#1335=CARTESIAN_POINT('',(3.7E0,0.E0,0.E0));
#1336=DIRECTION('',(-1.E0,0.E0,0.E0));
#1337=DIRECTION('',(0.E0,0.E0,1.E0));
#1338=AXIS2_PLACEMENT_3D('',#1335,#1336,#1337);
#1339=TOROIDAL_SURFACE('',#1338,1.27E1,3.E-1);
#1340=ORIENTED_EDGE('',*,*,#1313,.T.);
#1342=ORIENTED_EDGE('',*,*,#1341,.T.);
#1343=ORIENTED_EDGE('',*,*,#1310,.F.);
#1344=ORIENTED_EDGE('',*,*,#1324,.F.);
#1345=EDGE_LOOP('',(#1340,#1342,#1343,#1344));
#1346=FACE_OUTER_BOUND('',#1345,.F.);
#1347=ADVANCED_FACE('',(#1346),#1339,.T.);
#1348=CARTESIAN_POINT('',(0.E0,0.E0,0.E0));
#1349=DIRECTION('',(-1.E0,0.E0,0.E0));
#1350=DIRECTION('',(0.E0,0.E0,1.E0));
#1351=AXIS2_PLACEMENT_3D('',#1348,#1349,#1350);
#1352=CYLINDRICAL_SURFACE('',#1351,1.3E1);
#1353=ORIENTED_EDGE('',*,*,#1298,.T.);
#1355=ORIENTED_EDGE('',*,*,#1354,.F.);
#1356=ORIENTED_EDGE('',*,*,#1295,.F.);
#1357=ORIENTED_EDGE('',*,*,#1341,.F.);
#1358=EDGE_LOOP('',(#1353,#1355,#1356,#1357));
#1359=FACE_OUTER_BOUND('',#1358,.F.);
#1360=ADVANCED_FACE('',(#1359),#1352,.T.);
#1361=CARTESIAN_POINT('',(-3.7E0,0.E0,0.E0));
#1362=DIRECTION('',(-1.E0,0.E0,0.E0));
#1363=DIRECTION('',(0.E0,0.E0,1.E0));
#1364=AXIS2_PLACEMENT_3D('',#1361,#1362,#1363);
#1365=TOROIDAL_SURFACE('',#1364,1.27E1,3.E-1);
#1366=ORIENTED_EDGE('',*,*,#1283,.T.);
#1367=ORIENTED_EDGE('',*,*,#1264,.F.);
#1368=ORIENTED_EDGE('',*,*,#1280,.F.);
#1369=ORIENTED_EDGE('',*,*,#1354,.T.);
#1370=EDGE_LOOP('',(#1366,#1367,#1368,#1369));
#1371=FACE_OUTER_BOUND('',#1370,.F.);
#1372=ADVANCED_FACE('',(#1371),#1365,.T.);
#1373=CARTESIAN_POINT('',(0.E0,0.E0,0.E0));
#1374=DIRECTION('',(-1.E0,0.E0,0.E0));
#1375=DIRECTION('',(0.E0,0.E0,1.E0));
#1376=AXIS2_PLACEMENT_3D('',#1373,#1374,#1375);
#1377=CYLINDRICAL_SURFACE('',#1376,1.073333333333E1);
#1379=ORIENTED_EDGE('',*,*,#1378,.F.);
#1381=ORIENTED_EDGE('',*,*,#1380,.F.);
#1382=ORIENTED_EDGE('',*,*,#1328,.F.);
#1384=ORIENTED_EDGE('',*,*,#1383,.T.);
#1385=EDGE_LOOP('',(#1379,#1381,#1382,#1384));
#1386=FACE_OUTER_BOUND('',#1385,.F.);
#1387=ADVANCED_FACE('',(#1386),#1377,.F.);
#1388=CARTESIAN_POINT('',(3.803183541122E0,0.E0,0.E0));
#1389=DIRECTION('',(1.E0,0.E0,0.E0));
#1390=DIRECTION('',(0.E0,0.E0,1.E0));
#1391=AXIS2_PLACEMENT_3D('',#1388,#1389,#1390);
#1392=CONICAL_SURFACE('',#1391,1.071577716125E1,2.055604521958E1);
#1393=ORIENTED_EDGE('',*,*,#1378,.T.);
#1395=ORIENTED_EDGE('',*,*,#1394,.F.);
#1397=ORIENTED_EDGE('',*,*,#1396,.F.);
#1399=ORIENTED_EDGE('',*,*,#1398,.T.);
#1400=EDGE_LOOP('',(#1393,#1395,#1397,#1399));
#1401=FACE_OUTER_BOUND('',#1400,.F.);
#1402=ADVANCED_FACE('',(#1401),#1392,.F.);
#1403=CARTESIAN_POINT('',(3.803183541122E0,0.E0,0.E0));
#1404=DIRECTION('',(1.E0,0.E0,0.E0));
#1405=DIRECTION('',(0.E0,0.E0,1.E0));
#1406=AXIS2_PLACEMENT_3D('',#1403,#1404,#1405);
#1407=CONICAL_SURFACE('',#1406,1.071577716125E1,2.055604521958E1);
#1409=ORIENTED_EDGE('',*,*,#1408,.T.);
#1410=ORIENTED_EDGE('',*,*,#1398,.F.);
#1412=ORIENTED_EDGE('',*,*,#1411,.F.);
#1413=ORIENTED_EDGE('',*,*,#1394,.T.);
#1414=EDGE_LOOP('',(#1409,#1410,#1412,#1413));
#1415=FACE_OUTER_BOUND('',#1414,.F.);
#1416=ADVANCED_FACE('',(#1415),#1407,.F.);
#1417=CARTESIAN_POINT('',(0.E0,0.E0,0.E0));
#1418=DIRECTION('',(-1.E0,0.E0,0.E0));
#1419=DIRECTION('',(0.E0,0.E0,1.E0));
#1420=AXIS2_PLACEMENT_3D('',#1417,#1418,#1419);
#1421=CYLINDRICAL_SURFACE('',#1420,1.073333333333E1);
#1422=ORIENTED_EDGE('',*,*,#1408,.F.);
#1423=ORIENTED_EDGE('',*,*,#1383,.F.);
#1424=ORIENTED_EDGE('',*,*,#1330,.F.);
#1425=ORIENTED_EDGE('',*,*,#1380,.T.);
#1426=EDGE_LOOP('',(#1422,#1423,#1424,#1425));
#1427=FACE_OUTER_BOUND('',#1426,.F.);
#1428=ADVANCED_FACE('',(#1427),#1421,.F.);
#1429=CARTESIAN_POINT('',(3.693533517713E0,0.E0,0.E0));
#1430=DIRECTION('',(-1.E0,0.E0,0.E0));
#1431=DIRECTION('',(0.E0,0.E0,-1.E0));
#1432=AXIS2_PLACEMENT_3D('',#1429,#1430,#1431);
#1433=CONICAL_SURFACE('',#1432,1.086577716125E1,6.944395478042E1);
#1435=ORIENTED_EDGE('',*,*,#1434,.T.);
#1437=ORIENTED_EDGE('',*,*,#1436,.T.);
#1439=ORIENTED_EDGE('',*,*,#1438,.F.);
#1440=ORIENTED_EDGE('',*,*,#1411,.T.);
#1441=EDGE_LOOP('',(#1435,#1437,#1439,#1440));
#1442=FACE_OUTER_BOUND('',#1441,.F.);
#1443=ADVANCED_FACE('',(#1442),#1433,.F.);
#1444=CARTESIAN_POINT('',(3.693533517713E0,0.E0,0.E0));
#1445=DIRECTION('',(-1.E0,0.E0,0.E0));
#1446=DIRECTION('',(0.E0,0.E0,-1.E0));
#1447=AXIS2_PLACEMENT_3D('',#1444,#1445,#1446);
#1448=CONICAL_SURFACE('',#1447,1.086577716125E1,6.944395478042E1);
#1449=ORIENTED_EDGE('',*,*,#1396,.T.);
#1450=ORIENTED_EDGE('',*,*,#1438,.T.);
#1452=ORIENTED_EDGE('',*,*,#1451,.T.);
#1453=ORIENTED_EDGE('',*,*,#1434,.F.);
#1454=EDGE_LOOP('',(#1449,#1450,#1452,#1453));
#1455=FACE_OUTER_BOUND('',#1454,.F.);
#1456=ADVANCED_FACE('',(#1455),#1448,.F.);
#1457=CARTESIAN_POINT('',(0.E0,0.E0,0.E0));
#1458=DIRECTION('',(1.E0,0.E0,0.E0));
#1459=DIRECTION('',(0.E0,0.E0,1.E0));
#1460=AXIS2_PLACEMENT_3D('',#1457,#1458,#1459);
#1461=CYLINDRICAL_SURFACE('',#1460,1.103333333333E1);
#1463=ORIENTED_EDGE('',*,*,#1462,.F.);
#1465=ORIENTED_EDGE('',*,*,#1464,.T.);
#1466=ORIENTED_EDGE('',*,*,#1451,.F.);
#1468=ORIENTED_EDGE('',*,*,#1467,.F.);
#1469=EDGE_LOOP('',(#1463,#1465,#1466,#1468));
#1470=FACE_OUTER_BOUND('',#1469,.F.);
#1471=ADVANCED_FACE('',(#1470),#1461,.F.);
#1472=CARTESIAN_POINT('',(3.5E0,1.113333333333E1,0.E0));
#1473=DIRECTION('',(-1.E0,0.E0,0.E0));
#1474=DIRECTION('',(0.E0,0.E0,-1.E0));
#1475=AXIS2_PLACEMENT_3D('',#1472,#1473,#1474);
#1476=PLANE('',#1475);
#1477=ORIENTED_EDGE('',*,*,#1462,.T.);
#1479=ORIENTED_EDGE('',*,*,#1478,.T.);
#1480=EDGE_LOOP('',(#1477,#1479));
#1481=FACE_OUTER_BOUND('',#1480,.F.);
#1483=ORIENTED_EDGE('',*,*,#1482,.T.);
#1485=ORIENTED_EDGE('',*,*,#1484,.T.);
#1486=EDGE_LOOP('',(#1483,#1485));
#1487=FACE_BOUND('',#1486,.F.);
#1488=ADVANCED_FACE('',(#1481,#1487),#1476,.F.);
#1489=CARTESIAN_POINT('',(0.E0,0.E0,0.E0));
#1490=DIRECTION('',(1.E0,0.E0,0.E0));
#1491=DIRECTION('',(0.E0,0.E0,1.E0));
#1492=AXIS2_PLACEMENT_3D('',#1489,#1490,#1491);
#1493=CYLINDRICAL_SURFACE('',#1492,1.103333333333E1);
#1494=ORIENTED_EDGE('',*,*,#1467,.T.);
#1495=ORIENTED_EDGE('',*,*,#1436,.F.);
#1496=ORIENTED_EDGE('',*,*,#1464,.F.);
#1497=ORIENTED_EDGE('',*,*,#1478,.F.);
#1498=EDGE_LOOP('',(#1494,#1495,#1496,#1497));
#1499=FACE_OUTER_BOUND('',#1498,.F.);
#1500=ADVANCED_FACE('',(#1499),#1493,.F.);
#1501=CARTESIAN_POINT('',(3.6E0,0.E0,0.E0));
#1502=DIRECTION('',(1.E0,0.E0,0.E0));
#1503=DIRECTION('',(0.E0,0.E0,1.E0));
#1504=AXIS2_PLACEMENT_3D('',#1501,#1502,#1503);
#1505=TOROIDAL_SURFACE('',#1504,1.039451640036E1,1.E-1);
#1507=ORIENTED_EDGE('',*,*,#1506,.T.);
#1509=ORIENTED_EDGE('',*,*,#1508,.T.);
#1510=ORIENTED_EDGE('',*,*,#1482,.F.);
#1512=ORIENTED_EDGE('',*,*,#1511,.F.);
#1513=EDGE_LOOP('',(#1507,#1509,#1510,#1512));
#1514=FACE_OUTER_BOUND('',#1513,.F.);
#1515=ADVANCED_FACE('',(#1514),#1505,.F.);
#1516=CARTESIAN_POINT('',(3.707884867407E0,0.E0,0.E0));
#1517=DIRECTION('',(-1.E0,0.E0,0.E0));
#1518=DIRECTION('',(0.E0,0.E0,-1.E0));
#1519=AXIS2_PLACEMENT_3D('',#1516,#1517,#1518);
#1520=CONICAL_SURFACE('',#1519,1.005594728550E1,5.598065001017E1);
#1522=ORIENTED_EDGE('',*,*,#1521,.T.);
#1523=ORIENTED_EDGE('',*,*,#1506,.F.);
#1525=ORIENTED_EDGE('',*,*,#1524,.F.);
#1527=ORIENTED_EDGE('',*,*,#1526,.F.);
#1528=EDGE_LOOP('',(#1522,#1523,#1525,#1527));
#1529=FACE_OUTER_BOUND('',#1528,.F.);
#1530=ADVANCED_FACE('',(#1529),#1520,.T.);
#1531=CARTESIAN_POINT('',(3.707884867407E0,0.E0,0.E0));
#1532=DIRECTION('',(-1.E0,0.E0,0.E0));
#1533=DIRECTION('',(0.E0,0.E0,-1.E0));
#1534=AXIS2_PLACEMENT_3D('',#1531,#1532,#1533);
#1535=CONICAL_SURFACE('',#1534,1.005594728550E1,5.598065001017E1);
#1537=ORIENTED_EDGE('',*,*,#1536,.F.);
#1538=ORIENTED_EDGE('',*,*,#1524,.T.);
#1540=ORIENTED_EDGE('',*,*,#1539,.F.);
#1541=ORIENTED_EDGE('',*,*,#1521,.F.);
#1542=EDGE_LOOP('',(#1537,#1538,#1540,#1541));
#1543=FACE_OUTER_BOUND('',#1542,.F.);
#1544=ADVANCED_FACE('',(#1543),#1535,.T.);
#1545=CARTESIAN_POINT('',(3.65E0,0.E0,0.E0));
#1546=DIRECTION('',(1.E0,0.E0,0.E0));
#1547=DIRECTION('',(0.E0,0.E0,1.E0));
#1548=AXIS2_PLACEMENT_3D('',#1545,#1546,#1547);
#1549=TOROIDAL_SURFACE('',#1548,9.605483599644E0,3.E-1);
#1550=ORIENTED_EDGE('',*,*,#1536,.T.);
#1552=ORIENTED_EDGE('',*,*,#1551,.T.);
#1554=ORIENTED_EDGE('',*,*,#1553,.F.);
#1556=ORIENTED_EDGE('',*,*,#1555,.F.);
#1557=EDGE_LOOP('',(#1550,#1552,#1554,#1556));
#1558=FACE_OUTER_BOUND('',#1557,.F.);
#1559=ADVANCED_FACE('',(#1558),#1549,.T.);
#1560=CARTESIAN_POINT('',(3.65E0,0.E0,0.E0));
#1561=DIRECTION('',(1.E0,0.E0,0.E0));
#1562=DIRECTION('',(0.E0,0.E0,1.E0));
#1563=AXIS2_PLACEMENT_3D('',#1560,#1561,#1562);
#1564=TOROIDAL_SURFACE('',#1563,9.605483599644E0,3.E-1);
#1565=ORIENTED_EDGE('',*,*,#1555,.T.);
#1567=ORIENTED_EDGE('',*,*,#1566,.F.);
#1568=ORIENTED_EDGE('',*,*,#1551,.F.);
#1569=ORIENTED_EDGE('',*,*,#1526,.T.);
#1570=EDGE_LOOP('',(#1565,#1567,#1568,#1569));
#1571=FACE_OUTER_BOUND('',#1570,.F.);
#1572=ADVANCED_FACE('',(#1571),#1564,.T.);
#1573=CARTESIAN_POINT('',(3.95E0,9.605483599644E0,0.E0));
#1574=DIRECTION('',(-1.E0,0.E0,0.E0));
#1575=DIRECTION('',(0.E0,0.E0,-1.E0));
#1576=AXIS2_PLACEMENT_3D('',#1573,#1574,#1575);
#1577=PLANE('',#1576);
#1578=ORIENTED_EDGE('',*,*,#1566,.T.);
#1579=ORIENTED_EDGE('',*,*,#1553,.T.);
#1580=EDGE_LOOP('',(#1578,#1579));
#1581=FACE_OUTER_BOUND('',#1580,.F.);
#1583=ORIENTED_EDGE('',*,*,#1582,.T.);
#1585=ORIENTED_EDGE('',*,*,#1584,.T.);
#1586=EDGE_LOOP('',(#1583,#1585));
#1587=FACE_BOUND('',#1586,.F.);
#1588=ADVANCED_FACE('',(#1581,#1587),#1577,.F.);
#1589=CARTESIAN_POINT('',(3.65E0,0.E0,0.E0));
#1590=DIRECTION('',(1.E0,0.E0,0.E0));
#1591=DIRECTION('',(0.E0,0.E0,1.E0));
#1592=AXIS2_PLACEMENT_3D('',#1589,#1590,#1591);
#1593=TOROIDAL_SURFACE('',#1592,7.866666666667E0,3.E-1);
#1595=ORIENTED_EDGE('',*,*,#1594,.T.);
#1597=ORIENTED_EDGE('',*,*,#1596,.T.);
#1599=ORIENTED_EDGE('',*,*,#1598,.F.);
#1600=ORIENTED_EDGE('',*,*,#1582,.F.);
#1601=EDGE_LOOP('',(#1595,#1597,#1599,#1600));
#1602=FACE_OUTER_BOUND('',#1601,.F.);
#1603=ADVANCED_FACE('',(#1602),#1593,.T.);
#1604=CARTESIAN_POINT('',(3.65E0,0.E0,0.E0));
#1605=DIRECTION('',(1.E0,0.E0,0.E0));
#1606=DIRECTION('',(0.E0,0.E0,1.E0));
#1607=AXIS2_PLACEMENT_3D('',#1604,#1605,#1606);
#1608=TOROIDAL_SURFACE('',#1607,7.866666666667E0,3.E-1);
#1609=ORIENTED_EDGE('',*,*,#1584,.F.);
#1610=ORIENTED_EDGE('',*,*,#1598,.T.);
#1612=ORIENTED_EDGE('',*,*,#1611,.T.);
#1613=ORIENTED_EDGE('',*,*,#1594,.F.);
#1614=EDGE_LOOP('',(#1609,#1610,#1612,#1613));
#1615=FACE_OUTER_BOUND('',#1614,.F.);
#1616=ADVANCED_FACE('',(#1615),#1608,.T.);
#1617=CARTESIAN_POINT('',(0.E0,0.E0,0.E0));
#1618=DIRECTION('',(1.E0,0.E0,0.E0));
#1619=DIRECTION('',(0.E0,0.E0,1.E0));
#1620=AXIS2_PLACEMENT_3D('',#1617,#1618,#1619);
#1621=CYLINDRICAL_SURFACE('',#1620,7.566666666667E0);
#1623=ORIENTED_EDGE('',*,*,#1622,.T.);
#1625=ORIENTED_EDGE('',*,*,#1624,.T.);
#1626=ORIENTED_EDGE('',*,*,#1611,.F.);
#1628=ORIENTED_EDGE('',*,*,#1627,.F.);
#1629=EDGE_LOOP('',(#1623,#1625,#1626,#1628));
#1630=FACE_OUTER_BOUND('',#1629,.F.);
#1631=ADVANCED_FACE('',(#1630),#1621,.F.);
#1632=CARTESIAN_POINT('',(3.4E0,7.666666666667E0,0.E0));
#1633=DIRECTION('',(-1.E0,0.E0,0.E0));
#1634=DIRECTION('',(0.E0,0.E0,1.E0));
#1635=AXIS2_PLACEMENT_3D('',#1632,#1633,#1634);
#1636=PLANE('',#1635);
#1637=ORIENTED_EDGE('',*,*,#1622,.F.);
#1639=ORIENTED_EDGE('',*,*,#1638,.F.);
#1640=EDGE_LOOP('',(#1637,#1639));
#1641=FACE_OUTER_BOUND('',#1640,.F.);
#1643=ORIENTED_EDGE('',*,*,#1642,.T.);
#1645=ORIENTED_EDGE('',*,*,#1644,.T.);
#1646=EDGE_LOOP('',(#1643,#1645));
#1647=FACE_BOUND('',#1646,.F.);
#1648=ADVANCED_FACE('',(#1641,#1647),#1636,.F.);
#1649=CARTESIAN_POINT('',(0.E0,0.E0,0.E0));
#1650=DIRECTION('',(1.E0,0.E0,0.E0));
#1651=DIRECTION('',(0.E0,0.E0,1.E0));
#1652=AXIS2_PLACEMENT_3D('',#1649,#1650,#1651);
#1653=CYLINDRICAL_SURFACE('',#1652,7.566666666667E0);
#1654=ORIENTED_EDGE('',*,*,#1638,.T.);
#1655=ORIENTED_EDGE('',*,*,#1627,.T.);
#1656=ORIENTED_EDGE('',*,*,#1596,.F.);
#1657=ORIENTED_EDGE('',*,*,#1624,.F.);
#1658=EDGE_LOOP('',(#1654,#1655,#1656,#1657));
#1659=FACE_OUTER_BOUND('',#1658,.F.);
#1660=ADVANCED_FACE('',(#1659),#1653,.F.);
#1661=CARTESIAN_POINT('',(0.E0,0.E0,0.E0));
#1662=DIRECTION('',(-1.E0,0.E0,0.E0));
#1663=DIRECTION('',(0.E0,0.E0,1.E0));
#1664=AXIS2_PLACEMENT_3D('',#1661,#1662,#1663);
#1665=CYLINDRICAL_SURFACE('',#1664,6.866666666667E0);
#1667=ORIENTED_EDGE('',*,*,#1666,.F.);
#1669=ORIENTED_EDGE('',*,*,#1668,.T.);
#1670=ORIENTED_EDGE('',*,*,#1642,.F.);
#1672=ORIENTED_EDGE('',*,*,#1671,.F.);
#1673=EDGE_LOOP('',(#1667,#1669,#1670,#1672));
#1674=FACE_OUTER_BOUND('',#1673,.F.);
#1675=ADVANCED_FACE('',(#1674),#1665,.T.);
#1676=CARTESIAN_POINT('',(3.775E0,0.E0,0.E0));
#1677=DIRECTION('',(1.E0,0.E0,0.E0));
#1678=DIRECTION('',(0.E0,0.E0,-1.E0));
#1679=AXIS2_PLACEMENT_3D('',#1676,#1677,#1678);
#1680=CONICAL_SURFACE('',#1679,7.066666666667E0,6.944395478042E1);
#1681=ORIENTED_EDGE('',*,*,#1666,.T.);
#1683=ORIENTED_EDGE('',*,*,#1682,.T.);
#1685=ORIENTED_EDGE('',*,*,#1684,.T.);
#1687=ORIENTED_EDGE('',*,*,#1686,.F.);
#1688=EDGE_LOOP('',(#1681,#1683,#1685,#1687));
#1689=FACE_OUTER_BOUND('',#1688,.F.);
#1690=ADVANCED_FACE('',(#1689),#1680,.T.);
#1691=CARTESIAN_POINT('',(3.775E0,0.E0,0.E0));
#1692=DIRECTION('',(1.E0,0.E0,0.E0));
#1693=DIRECTION('',(0.E0,0.E0,-1.E0));
#1694=AXIS2_PLACEMENT_3D('',#1691,#1692,#1693);
#1695=CONICAL_SURFACE('',#1694,7.066666666667E0,6.944395478042E1);
#1696=ORIENTED_EDGE('',*,*,#1686,.T.);
#1698=ORIENTED_EDGE('',*,*,#1697,.T.);
#1699=ORIENTED_EDGE('',*,*,#1682,.F.);
#1701=ORIENTED_EDGE('',*,*,#1700,.T.);
#1702=EDGE_LOOP('',(#1696,#1698,#1699,#1701));
#1703=FACE_OUTER_BOUND('',#1702,.F.);
#1704=ADVANCED_FACE('',(#1703),#1695,.T.);
#1705=CARTESIAN_POINT('',(0.E0,0.E0,0.E0));
#1706=DIRECTION('',(-1.E0,0.E0,0.E0));
#1707=DIRECTION('',(0.E0,0.E0,1.E0));
#1708=AXIS2_PLACEMENT_3D('',#1705,#1706,#1707);
#1709=CYLINDRICAL_SURFACE('',#1708,7.266666666667E0);
#1711=ORIENTED_EDGE('',*,*,#1710,.T.);
#1712=ORIENTED_EDGE('',*,*,#1697,.F.);
#1714=ORIENTED_EDGE('',*,*,#1713,.F.);
#1716=ORIENTED_EDGE('',*,*,#1715,.F.);
#1717=EDGE_LOOP('',(#1711,#1712,#1714,#1716));
#1718=FACE_OUTER_BOUND('',#1717,.F.);
#1719=ADVANCED_FACE('',(#1718),#1709,.T.);
#1720=CARTESIAN_POINT('',(0.E0,0.E0,0.E0));
#1721=DIRECTION('',(-1.E0,0.E0,0.E0));
#1722=DIRECTION('',(0.E0,0.E0,1.E0));
#1723=AXIS2_PLACEMENT_3D('',#1720,#1721,#1722);
#1724=CYLINDRICAL_SURFACE('',#1723,7.266666666667E0);
#1726=ORIENTED_EDGE('',*,*,#1725,.F.);
#1727=ORIENTED_EDGE('',*,*,#1713,.T.);
#1728=ORIENTED_EDGE('',*,*,#1684,.F.);
#1729=ORIENTED_EDGE('',*,*,#1710,.F.);
#1730=EDGE_LOOP('',(#1726,#1727,#1728,#1729));
#1731=FACE_OUTER_BOUND('',#1730,.F.);
#1732=ADVANCED_FACE('',(#1731),#1724,.T.);
#1733=CARTESIAN_POINT('',(4.E0,7.266666666667E0,0.E0));
#1734=DIRECTION('',(-1.E0,0.E0,0.E0));
#1735=DIRECTION('',(0.E0,0.E0,1.E0));
#1736=AXIS2_PLACEMENT_3D('',#1733,#1734,#1735);
#1737=PLANE('',#1736);
#1738=ORIENTED_EDGE('',*,*,#1725,.T.);
#1739=ORIENTED_EDGE('',*,*,#1715,.T.);
#1740=EDGE_LOOP('',(#1738,#1739));
#1741=FACE_OUTER_BOUND('',#1740,.F.);
#1743=ORIENTED_EDGE('',*,*,#1742,.T.);
#1745=ORIENTED_EDGE('',*,*,#1744,.T.);
#1746=EDGE_LOOP('',(#1743,#1745));
#1747=FACE_BOUND('',#1746,.F.);
#1748=ADVANCED_FACE('',(#1741,#1747),#1737,.F.);
#1749=CARTESIAN_POINT('',(3.7E0,0.E0,0.E0));
#1750=DIRECTION('',(-1.E0,0.E0,0.E0));
#1751=DIRECTION('',(0.E0,0.E0,1.E0));
#1752=AXIS2_PLACEMENT_3D('',#1749,#1750,#1751);
#1753=TOROIDAL_SURFACE('',#1752,5.3E0,3.E-1);
#1755=ORIENTED_EDGE('',*,*,#1754,.T.);
#1757=ORIENTED_EDGE('',*,*,#1756,.T.);
#1758=ORIENTED_EDGE('',*,*,#1742,.F.);
#1760=ORIENTED_EDGE('',*,*,#1759,.F.);
#1761=EDGE_LOOP('',(#1755,#1757,#1758,#1760));
#1762=FACE_OUTER_BOUND('',#1761,.F.);
#1763=ADVANCED_FACE('',(#1762),#1753,.T.);
#1764=CARTESIAN_POINT('',(0.E0,0.E0,0.E0));
#1765=DIRECTION('',(-1.E0,0.E0,0.E0));
#1766=DIRECTION('',(0.E0,0.E0,1.E0));
#1767=AXIS2_PLACEMENT_3D('',#1764,#1765,#1766);
#1768=CYLINDRICAL_SURFACE('',#1767,5.E0);
#1770=ORIENTED_EDGE('',*,*,#1769,.T.);
#1772=ORIENTED_EDGE('',*,*,#1771,.F.);
#1774=ORIENTED_EDGE('',*,*,#1773,.F.);
#1775=ORIENTED_EDGE('',*,*,#1754,.F.);
#1776=EDGE_LOOP('',(#1770,#1772,#1774,#1775));
#1777=FACE_OUTER_BOUND('',#1776,.F.);
#1778=ADVANCED_FACE('',(#1777),#1768,.F.);
#1779=CARTESIAN_POINT('',(0.E0,0.E0,0.E0));
#1780=DIRECTION('',(-1.E0,0.E0,0.E0));
#1781=DIRECTION('',(0.E0,0.E0,1.E0));
#1782=AXIS2_PLACEMENT_3D('',#1779,#1780,#1781);
#1783=CYLINDRICAL_SURFACE('',#1782,5.E0);
#1785=ORIENTED_EDGE('',*,*,#1784,.F.);
#1786=ORIENTED_EDGE('',*,*,#1773,.T.);
#1788=ORIENTED_EDGE('',*,*,#1787,.F.);
#1789=ORIENTED_EDGE('',*,*,#1769,.F.);
#1790=EDGE_LOOP('',(#1785,#1786,#1788,#1789));
#1791=FACE_OUTER_BOUND('',#1790,.F.);
#1792=ADVANCED_FACE('',(#1791),#1783,.F.);
#1793=CARTESIAN_POINT('',(3.7E0,0.E0,0.E0));
#1794=DIRECTION('',(-1.E0,0.E0,0.E0));
#1795=DIRECTION('',(0.E0,0.E0,1.E0));
#1796=AXIS2_PLACEMENT_3D('',#1793,#1794,#1795);
#1797=TOROIDAL_SURFACE('',#1796,5.3E0,3.E-1);
#1798=ORIENTED_EDGE('',*,*,#1759,.T.);
#1799=ORIENTED_EDGE('',*,*,#1744,.F.);
#1800=ORIENTED_EDGE('',*,*,#1756,.F.);
#1801=ORIENTED_EDGE('',*,*,#1784,.T.);
#1802=EDGE_LOOP('',(#1798,#1799,#1800,#1801));
#1803=FACE_OUTER_BOUND('',#1802,.F.);
#1804=ADVANCED_FACE('',(#1803),#1797,.T.);
#1805=CARTESIAN_POINT('',(-3.7E0,0.E0,0.E0));
#1806=DIRECTION('',(-1.E0,0.E0,0.E0));
#1807=DIRECTION('',(0.E0,0.E0,1.E0));
#1808=AXIS2_PLACEMENT_3D('',#1805,#1806,#1807);
#1809=TOROIDAL_SURFACE('',#1808,5.3E0,3.E-1);
#1811=ORIENTED_EDGE('',*,*,#1810,.T.);
#1812=ORIENTED_EDGE('',*,*,#1787,.T.);
#1814=ORIENTED_EDGE('',*,*,#1813,.F.);
#1816=ORIENTED_EDGE('',*,*,#1815,.F.);
#1817=EDGE_LOOP('',(#1811,#1812,#1814,#1816));
#1818=FACE_OUTER_BOUND('',#1817,.F.);
#1819=ADVANCED_FACE('',(#1818),#1809,.T.);
#1820=CARTESIAN_POINT('',(-3.7E0,0.E0,0.E0));
#1821=DIRECTION('',(-1.E0,0.E0,0.E0));
#1822=DIRECTION('',(0.E0,0.E0,1.E0));
#1823=AXIS2_PLACEMENT_3D('',#1820,#1821,#1822);
#1824=TOROIDAL_SURFACE('',#1823,5.3E0,3.E-1);
#1826=ORIENTED_EDGE('',*,*,#1825,.F.);
#1827=ORIENTED_EDGE('',*,*,#1813,.T.);
#1828=ORIENTED_EDGE('',*,*,#1771,.T.);
#1829=ORIENTED_EDGE('',*,*,#1810,.F.);
#1830=EDGE_LOOP('',(#1826,#1827,#1828,#1829));
#1831=FACE_OUTER_BOUND('',#1830,.F.);
#1832=ADVANCED_FACE('',(#1831),#1824,.T.);
#1833=CARTESIAN_POINT('',(-4.E0,7.266666666667E0,0.E0));
#1834=DIRECTION('',(1.E0,0.E0,0.E0));
#1835=DIRECTION('',(0.E0,0.E0,-1.E0));
#1836=AXIS2_PLACEMENT_3D('',#1833,#1834,#1835);
#1837=PLANE('',#1836);
#1839=ORIENTED_EDGE('',*,*,#1838,.T.);
#1841=ORIENTED_EDGE('',*,*,#1840,.T.);
#1842=EDGE_LOOP('',(#1839,#1841));
#1843=FACE_OUTER_BOUND('',#1842,.F.);
#1844=ORIENTED_EDGE('',*,*,#1825,.T.);
#1845=ORIENTED_EDGE('',*,*,#1815,.T.);
#1846=EDGE_LOOP('',(#1844,#1845));
#1847=FACE_BOUND('',#1846,.F.);
#1848=ADVANCED_FACE('',(#1843,#1847),#1837,.F.);
#1849=CARTESIAN_POINT('',(0.E0,0.E0,0.E0));
#1850=DIRECTION('',(-1.E0,0.E0,0.E0));
#1851=DIRECTION('',(0.E0,0.E0,1.E0));
#1852=AXIS2_PLACEMENT_3D('',#1849,#1850,#1851);
#1853=CYLINDRICAL_SURFACE('',#1852,7.266666666667E0);
#1855=ORIENTED_EDGE('',*,*,#1854,.F.);
#1857=ORIENTED_EDGE('',*,*,#1856,.T.);
#1858=ORIENTED_EDGE('',*,*,#1838,.F.);
#1860=ORIENTED_EDGE('',*,*,#1859,.F.);
#1861=EDGE_LOOP('',(#1855,#1857,#1858,#1860));
#1862=FACE_OUTER_BOUND('',#1861,.F.);
#1863=ADVANCED_FACE('',(#1862),#1853,.T.);
#1864=CARTESIAN_POINT('',(-3.775E0,0.E0,0.E0));
#1865=DIRECTION('',(-1.E0,0.E0,0.E0));
#1866=DIRECTION('',(0.E0,0.E0,1.E0));
#1867=AXIS2_PLACEMENT_3D('',#1864,#1865,#1866);
#1868=CONICAL_SURFACE('',#1867,7.066666666667E0,6.944395478042E1);
#1870=ORIENTED_EDGE('',*,*,#1869,.T.);
#1872=ORIENTED_EDGE('',*,*,#1871,.T.);
#1873=ORIENTED_EDGE('',*,*,#1854,.T.);
#1875=ORIENTED_EDGE('',*,*,#1874,.F.);
#1876=EDGE_LOOP('',(#1870,#1872,#1873,#1875));
#1877=FACE_OUTER_BOUND('',#1876,.F.);
#1878=ADVANCED_FACE('',(#1877),#1868,.T.);
#1879=CARTESIAN_POINT('',(0.E0,0.E0,0.E0));
#1880=DIRECTION('',(-1.E0,0.E0,0.E0));
#1881=DIRECTION('',(0.E0,0.E0,1.E0));
#1882=AXIS2_PLACEMENT_3D('',#1879,#1880,#1881);
#1883=CYLINDRICAL_SURFACE('',#1882,6.866666666667E0);
#1885=ORIENTED_EDGE('',*,*,#1884,.F.);
#1887=ORIENTED_EDGE('',*,*,#1886,.T.);
#1888=ORIENTED_EDGE('',*,*,#1869,.F.);
#1890=ORIENTED_EDGE('',*,*,#1889,.F.);
#1891=EDGE_LOOP('',(#1885,#1887,#1888,#1890));
#1892=FACE_OUTER_BOUND('',#1891,.F.);
#1893=ADVANCED_FACE('',(#1892),#1883,.T.);
#1894=CARTESIAN_POINT('',(-3.4E0,7.666666666667E0,0.E0));
#1895=DIRECTION('',(1.E0,0.E0,0.E0));
#1896=DIRECTION('',(0.E0,0.E0,-1.E0));
#1897=AXIS2_PLACEMENT_3D('',#1894,#1895,#1896);
#1898=PLANE('',#1897);
#1900=ORIENTED_EDGE('',*,*,#1899,.F.);
#1902=ORIENTED_EDGE('',*,*,#1901,.F.);
#1903=EDGE_LOOP('',(#1900,#1902));
#1904=FACE_OUTER_BOUND('',#1903,.F.);
#1905=ORIENTED_EDGE('',*,*,#1884,.T.);
#1907=ORIENTED_EDGE('',*,*,#1906,.T.);
#1908=EDGE_LOOP('',(#1905,#1907));
#1909=FACE_BOUND('',#1908,.F.);
#1910=ADVANCED_FACE('',(#1904,#1909),#1898,.F.);
#1911=CARTESIAN_POINT('',(0.E0,0.E0,0.E0));
#1912=DIRECTION('',(-1.E0,0.E0,0.E0));
#1913=DIRECTION('',(0.E0,0.E0,1.E0));
#1914=AXIS2_PLACEMENT_3D('',#1911,#1912,#1913);
#1915=CYLINDRICAL_SURFACE('',#1914,7.566666666667E0);
#1916=ORIENTED_EDGE('',*,*,#1899,.T.);
#1918=ORIENTED_EDGE('',*,*,#1917,.T.);
#1919=ORIENTED_EDGE('',*,*,#1033,.F.);
#1921=ORIENTED_EDGE('',*,*,#1920,.F.);
#1922=EDGE_LOOP('',(#1916,#1918,#1919,#1921));
#1923=FACE_OUTER_BOUND('',#1922,.F.);
#1924=ADVANCED_FACE('',(#1923),#1915,.F.);
#1925=CARTESIAN_POINT('',(0.E0,0.E0,0.E0));
#1926=DIRECTION('',(-1.E0,0.E0,0.E0));
#1927=DIRECTION('',(0.E0,0.E0,1.E0));
#1928=AXIS2_PLACEMENT_3D('',#1925,#1926,#1927);
#1929=CYLINDRICAL_SURFACE('',#1928,7.566666666667E0);
#1930=ORIENTED_EDGE('',*,*,#1901,.T.);
#1931=ORIENTED_EDGE('',*,*,#1920,.T.);
#1933=ORIENTED_EDGE('',*,*,#1932,.F.);
#1934=ORIENTED_EDGE('',*,*,#1917,.F.);
#1935=EDGE_LOOP('',(#1930,#1931,#1933,#1934));
#1936=FACE_OUTER_BOUND('',#1935,.F.);
#1937=ADVANCED_FACE('',(#1936),#1929,.F.);
#1938=CARTESIAN_POINT('',(-3.65E0,0.E0,0.E0));
#1939=DIRECTION('',(-1.E0,0.E0,0.E0));
#1940=DIRECTION('',(0.E0,0.E0,1.E0));
#1941=AXIS2_PLACEMENT_3D('',#1938,#1939,#1940);
#1942=TOROIDAL_SURFACE('',#1941,7.866666666667E0,3.E-1);
#1943=ORIENTED_EDGE('',*,*,#1035,.T.);
#1944=ORIENTED_EDGE('',*,*,#1932,.T.);
#1945=ORIENTED_EDGE('',*,*,#1031,.F.);
#1946=ORIENTED_EDGE('',*,*,#1052,.F.);
#1947=EDGE_LOOP('',(#1943,#1944,#1945,#1946));
#1948=FACE_OUTER_BOUND('',#1947,.F.);
#1949=ADVANCED_FACE('',(#1948),#1942,.T.);
#1950=CARTESIAN_POINT('',(0.E0,0.E0,0.E0));
#1951=DIRECTION('',(-1.E0,0.E0,0.E0));
#1952=DIRECTION('',(0.E0,0.E0,1.E0));
#1953=AXIS2_PLACEMENT_3D('',#1950,#1951,#1952);
#1954=CYLINDRICAL_SURFACE('',#1953,6.866666666667E0);
#1955=ORIENTED_EDGE('',*,*,#1889,.T.);
#1957=ORIENTED_EDGE('',*,*,#1956,.F.);
#1958=ORIENTED_EDGE('',*,*,#1886,.F.);
#1959=ORIENTED_EDGE('',*,*,#1906,.F.);
#1960=EDGE_LOOP('',(#1955,#1957,#1958,#1959));
#1961=FACE_OUTER_BOUND('',#1960,.F.);
#1962=ADVANCED_FACE('',(#1961),#1954,.T.);
#1963=CARTESIAN_POINT('',(-3.775E0,0.E0,0.E0));
#1964=DIRECTION('',(-1.E0,0.E0,0.E0));
#1965=DIRECTION('',(0.E0,0.E0,1.E0));
#1966=AXIS2_PLACEMENT_3D('',#1963,#1964,#1965);
#1967=CONICAL_SURFACE('',#1966,7.066666666667E0,6.944395478042E1);
#1968=ORIENTED_EDGE('',*,*,#1874,.T.);
#1970=ORIENTED_EDGE('',*,*,#1969,.T.);
#1971=ORIENTED_EDGE('',*,*,#1871,.F.);
#1972=ORIENTED_EDGE('',*,*,#1956,.T.);
#1973=EDGE_LOOP('',(#1968,#1970,#1971,#1972));
#1974=FACE_OUTER_BOUND('',#1973,.F.);
#1975=ADVANCED_FACE('',(#1974),#1967,.T.);
#1976=CARTESIAN_POINT('',(0.E0,0.E0,0.E0));
#1977=DIRECTION('',(-1.E0,0.E0,0.E0));
#1978=DIRECTION('',(0.E0,0.E0,1.E0));
#1979=AXIS2_PLACEMENT_3D('',#1976,#1977,#1978);
#1980=CYLINDRICAL_SURFACE('',#1979,7.266666666667E0);
#1981=ORIENTED_EDGE('',*,*,#1859,.T.);
#1982=ORIENTED_EDGE('',*,*,#1840,.F.);
#1983=ORIENTED_EDGE('',*,*,#1856,.F.);
#1984=ORIENTED_EDGE('',*,*,#1969,.F.);
#1985=EDGE_LOOP('',(#1981,#1982,#1983,#1984));
#1986=FACE_OUTER_BOUND('',#1985,.F.);
#1987=ADVANCED_FACE('',(#1986),#1980,.T.);
#1988=CARTESIAN_POINT('',(0.E0,0.E0,0.E0));
#1989=DIRECTION('',(-1.E0,0.E0,0.E0));
#1990=DIRECTION('',(0.E0,0.E0,1.E0));
#1991=AXIS2_PLACEMENT_3D('',#1988,#1989,#1990);
#1992=CYLINDRICAL_SURFACE('',#1991,6.866666666667E0);
#1993=ORIENTED_EDGE('',*,*,#1671,.T.);
#1994=ORIENTED_EDGE('',*,*,#1644,.F.);
#1995=ORIENTED_EDGE('',*,*,#1668,.F.);
#1996=ORIENTED_EDGE('',*,*,#1700,.F.);
#1997=EDGE_LOOP('',(#1993,#1994,#1995,#1996));
#1998=FACE_OUTER_BOUND('',#1997,.F.);
#1999=ADVANCED_FACE('',(#1998),#1992,.T.);
#2000=CARTESIAN_POINT('',(3.6E0,0.E0,0.E0));
#2001=DIRECTION('',(1.E0,0.E0,0.E0));
#2002=DIRECTION('',(0.E0,0.E0,1.E0));
#2003=AXIS2_PLACEMENT_3D('',#2000,#2001,#2002);
#2004=TOROIDAL_SURFACE('',#2003,1.039451640036E1,1.E-1);
#2005=ORIENTED_EDGE('',*,*,#1511,.T.);
#2006=ORIENTED_EDGE('',*,*,#1484,.F.);
#2007=ORIENTED_EDGE('',*,*,#1508,.F.);
#2008=ORIENTED_EDGE('',*,*,#1539,.T.);
#2009=EDGE_LOOP('',(#2005,#2006,#2007,#2008));
#2010=FACE_OUTER_BOUND('',#2009,.F.);
#2011=ADVANCED_FACE('',(#2010),#2004,.F.);
#2012=CARTESIAN_POINT('',(-3.65E0,0.E0,0.E0));
#2013=DIRECTION('',(-1.E0,0.E0,0.E0));
#2014=DIRECTION('',(0.E0,0.E0,1.E0));
#2015=AXIS2_PLACEMENT_3D('',#2012,#2013,#2014);
#2016=TOROIDAL_SURFACE('',#2015,9.605483599644E0,3.E-1);
#2017=ORIENTED_EDGE('',*,*,#1067,.T.);
#2018=ORIENTED_EDGE('',*,*,#1047,.F.);
#2019=ORIENTED_EDGE('',*,*,#1064,.F.);
#2020=ORIENTED_EDGE('',*,*,#1096,.T.);
#2021=EDGE_LOOP('',(#2017,#2018,#2019,#2020));
#2022=FACE_OUTER_BOUND('',#2021,.F.);
#2023=ADVANCED_FACE('',(#2022),#2016,.T.);
#2024=CLOSED_SHELL('',(#1039,#1056,#1071,#1086,#1100,#1115,#1128,#1144,#1159,
#1172,#1187,#1202,#1217,#1231,#1244,#1256,#1272,#1287,#1302,#1317,#1334,#1347,
#1360,#1372,#1387,#1402,#1416,#1428,#1443,#1456,#1471,#1488,#1500,#1515,#1530,
#1544,#1559,#1572,#1588,#1603,#1616,#1631,#1648,#1660,#1675,#1690,#1704,#1719,
#1732,#1748,#1763,#1778,#1792,#1804,#1819,#1832,#1848,#1863,#1878,#1893,#1910,
#1924,#1937,#1949,#1962,#1975,#1987,#1999,#2011,#2023));
#2025=MANIFOLD_SOLID_BREP('',#2024);
#2027=DIMENSIONAL_EXPONENTS(0.E0,0.E0,0.E0,0.E0,0.E0,0.E0,0.E0);
#2029=PLANE_ANGLE_MEASURE_WITH_UNIT(PLANE_ANGLE_MEASURE(1.745329251994E-2),
#2028);
#2030=(CONVERSION_BASED_UNIT('DEGREE',#2029)NAMED_UNIT(*)PLANE_ANGLE_UNIT());
#2032=UNCERTAINTY_MEASURE_WITH_UNIT(LENGTH_MEASURE(5.E-3),#2026,'closure',
'Maximum model space distance between geometric entities at asserted connectivities');
#2033=(GEOMETRIC_REPRESENTATION_CONTEXT(3)GLOBAL_UNCERTAINTY_ASSIGNED_CONTEXT((
#2032))GLOBAL_UNIT_ASSIGNED_CONTEXT((#2026,#2030,#2031))REPRESENTATION_CONTEXT(
'ID1','3'));
#2035=APPLICATION_CONTEXT(
'CONFIGURATION CONTROLLED 3D DESIGNS OF MECHANICAL PARTS AND ASSEMBLIES');
#2036=APPLICATION_PROTOCOL_DEFINITION('international standard',
'config_control_design',1994,#2035);
#2037=DESIGN_CONTEXT('',#2035,'design');
#2038=MECHANICAL_CONTEXT('',#2035,'mechanical');
#2039=PRODUCT('6000ZZ_-_EA033','6000ZZ_-_EA033','NOT SPECIFIED',(#2038));
#2040=PRODUCT_DEFINITION_FORMATION_WITH_SPECIFIED_SOURCE('1','LAST_VERSION',
#2039,.MADE.);
#2044=PRODUCT_CATEGORY('part','');
#2045=PRODUCT_RELATED_PRODUCT_CATEGORY('detail','',(#2039));
#2046=PRODUCT_CATEGORY_RELATIONSHIP('','',#2044,#2045);
#2047=SECURITY_CLASSIFICATION_LEVEL('unclassified');
#2048=SECURITY_CLASSIFICATION('','',#2047);
#2049=CC_DESIGN_SECURITY_CLASSIFICATION(#2048,(#2040));
#2050=APPROVAL_STATUS('approved');
#2051=APPROVAL(#2050,'');
#2052=CC_DESIGN_APPROVAL(#2051,(#2048,#2040,#2041));
#2053=CALENDAR_DATE(125,19,12);
#2054=COORDINATED_UNIVERSAL_TIME_OFFSET(8,0,.AHEAD.);
#2055=LOCAL_TIME(11,9,5.E1,#2054);
#2056=DATE_AND_TIME(#2053,#2055);
#2057=APPROVAL_DATE_TIME(#2056,#2051);
#2058=DATE_TIME_ROLE('creation_date');
#2059=CC_DESIGN_DATE_AND_TIME_ASSIGNMENT(#2056,#2058,(#2041));
#2060=DATE_TIME_ROLE('classification_date');
#2061=CC_DESIGN_DATE_AND_TIME_ASSIGNMENT(#2056,#2060,(#2048));
#2062=PERSON('UNSPECIFIED','UNSPECIFIED',$,$,$,$);
#2063=ORGANIZATION('UNSPECIFIED','UNSPECIFIED','UNSPECIFIED');
#2064=PERSON_AND_ORGANIZATION(#2062,#2063);
#2065=APPROVAL_ROLE('approver');
#2066=APPROVAL_PERSON_ORGANIZATION(#2064,#2051,#2065);
#2067=PERSON_AND_ORGANIZATION_ROLE('creator');
#2068=CC_DESIGN_PERSON_AND_ORGANIZATION_ASSIGNMENT(#2064,#2067,(#2040,#2041));
#2069=PERSON_AND_ORGANIZATION_ROLE('design_supplier');
#2070=CC_DESIGN_PERSON_AND_ORGANIZATION_ASSIGNMENT(#2064,#2069,(#2040));
#2071=PERSON_AND_ORGANIZATION_ROLE('classification_officer');
#2072=CC_DESIGN_PERSON_AND_ORGANIZATION_ASSIGNMENT(#2064,#2071,(#2048));
#2073=PERSON_AND_ORGANIZATION_ROLE('design_owner');
#2074=CC_DESIGN_PERSON_AND_ORGANIZATION_ASSIGNMENT(#2064,#2073,(#2039));
#1=DRAUGHTING_PRE_DEFINED_COLOUR('black');
#2=COLOUR_RGB('',0.E0,0.E0,4.7E-1);
#3=COLOUR_RGB('',0.E0,0.E0,6.E-1);
#4=COLOUR_RGB('',0.E0,0.E0,8.E-1);
#5=COLOUR_RGB('',0.E0,2.745098039216E-2,7.019607843137E-1);
#6=COLOUR_RGB('',0.E0,3.137254901961E-2,3.411764705882E-1);
#7=COLOUR_RGB('',0.E0,2.E-1,1.E0);
#8=COLOUR_RGB('',0.E0,3.3E-1,0.E0);
#9=COLOUR_RGB('',0.E0,3.3E-1,3.3E-1);
#10=COLOUR_RGB('',0.E0,4.E-1,0.E0);
#11=COLOUR_RGB('',0.E0,4.E-1,4.E-1);
#12=COLOUR_RGB('',0.E0,4.E-1,1.E0);
#13=COLOUR_RGB('',0.E0,5.019607843137E-1,5.019607843137E-1);
#14=COLOUR_RGB('',0.E0,6.E-1,0.E0);
#15=COLOUR_RGB('',0.E0,6.E-1,6.E-1);
#16=COLOUR_RGB('',0.E0,6.E-1,1.E0);
#17=COLOUR_RGB('',0.E0,8.E-1,0.E0);
#18=COLOUR_RGB('',0.E0,8.E-1,8.E-1);
#19=COLOUR_RGB('',0.E0,8.E-1,1.E0);
#20=COLOUR_RGB('',0.E0,9.3E-1,0.E0);
#21=COLOUR_RGB('',0.E0,9.3E-1,9.3E-1);
#22=DRAUGHTING_PRE_DEFINED_COLOUR('green');
#23=COLOUR_RGB('',0.E0,1.E0,2.E-1);
#24=COLOUR_RGB('',0.E0,1.E0,4.E-1);
#25=COLOUR_RGB('',0.E0,1.E0,6.E-1);
#26=COLOUR_RGB('',0.E0,1.E0,8.E-1);
#27=DRAUGHTING_PRE_DEFINED_COLOUR('cyan');
#28=COLOUR_RGB('',3.1E-2,2.E-1,6.27E-1);
#29=COLOUR_RGB('',3.529411764706E-2,5.137254901961E-1,1.725490196078E-1);
#30=COLOUR_RGB('',6.6667E-2,5.17647E-1,6.39216E-1);
#31=COLOUR_RGB('',7.E-2,7.E-2,1.E0);
#32=COLOUR_RGB('',7.E-2,6.E-1,3.E-1);
#33=COLOUR_RGB('',8.E-2,1.E-1,1.1E-1);
#34=COLOUR_RGB('',9.803921568627E-2,9.803921568627E-2,4.392156862745E-1);
#35=COLOUR_RGB('',1.019607843137E-1,6.313725490196E-1,5.019607843137E-1);
#36=COLOUR_RGB('',1.176470588235E-1,5.647058823529E-1,1.E0);
#37=COLOUR_RGB('',1.254901960784E-1,6.980392156863E-1,6.666666666667E-1);
#38=COLOUR_RGB('',1.333333333333E-1,5.450980392157E-1,1.333333333333E-1);
#39=COLOUR_RGB('',1.450980392157E-1,3.529411764706E-2,0.E0);
#40=COLOUR_RGB('',1.686274509804E-1,1.686274509804E-1,1.803921568627E-1);
#41=COLOUR_RGB('',1.803921568627E-1,5.450980392157E-1,3.411764705882E-1);
#42=COLOUR_RGB('',1.9E-1,2.3E-1,3.1E-1);
#43=COLOUR_RGB('',1.960784313725E-1,8.039215686275E-1,1.960784313725E-1);
#44=COLOUR_RGB('',2.E-1,1.E0,0.E0);
#45=COLOUR_RGB('',2.E-1,1.E0,2.E-1);
#46=COLOUR_RGB('',2.E-1,1.E0,1.E0);
#47=COLOUR_RGB('',2.313725490196E-1,3.803921568627E-1,5.607843137255E-1);
#48=COLOUR_RGB('',2.352941176471E-1,7.019607843137E-1,4.431372549020E-1);
#49=COLOUR_RGB('',2.431372549020E-1,8.784313725490E-1,8.156862745098E-1);
#50=COLOUR_RGB('',2.470588235294E-1,5.921568627451E-1,6.313725490196E-1);
#51=COLOUR_RGB('',2.5098E-1,2.35294E-1,8.62745E-1);
#52=COLOUR_RGB('',2.549019607843E-1,4.117647058824E-1,1.E0);
#53=COLOUR_RGB('',2.58824E-1,7.80392E-1,8.86275E-1);
#54=COLOUR_RGB('',2.7E-1,0.E0,4.E-1);
#55=COLOUR_RGB('',2.7E-1,2.7E-1,0.E0);
#56=COLOUR_RGB('',2.7E-1,2.7E-1,1.E0);
#57=COLOUR_RGB('',2.745098039216E-1,5.098039215686E-1,7.058823529412E-1);
#58=COLOUR_RGB('',2.784313725490E-1,2.784313725490E-1,2.784313725490E-1);
#59=COLOUR_RGB('',2.823529411765E-1,2.392156862745E-1,5.450980392157E-1);
#60=COLOUR_RGB('',3.13725E-1,4.70588E-1,1.96078E-1);
#61=COLOUR_RGB('',3.2549E-1,4.98039E-1,9.84314E-1);
#62=COLOUR_RGB('',3.254901960784E-1,5.764705882353E-1,8.117647058824E-1);
#63=COLOUR_RGB('',3.3E-1,0.E0,0.E0);
#64=COLOUR_RGB('',3.3E-1,0.E0,3.3E-1);
#65=COLOUR_RGB('',3.3E-1,0.E0,5.3E-1);
#66=COLOUR_RGB('',3.450980392157E-1,3.647058823529E-1,3.725490196078E-1);
#67=COLOUR_RGB('',3.725490196078E-1,6.196078431373E-1,6.274509803922E-1);
#68=COLOUR_RGB('',3.803921568627E-1,4.392156862745E-1,5.960784313725E-1);
#69=COLOUR_RGB('',3.882352941176E-1,4.392156862745E-1,4.901960784314E-1);
#70=COLOUR_RGB('',3.921568627451E-1,5.843137254902E-1,9.294117647059E-1);
#71=COLOUR_RGB('',3.96078E-1,7.13725E-1,1.E0);
#72=COLOUR_RGB('',4.E-1,0.E0,4.E-1);
#73=COLOUR_RGB('',4.E-1,0.E0,6.7E-1);
#74=COLOUR_RGB('',4.E-1,1.3E-1,0.E0);
#75=COLOUR_RGB('',4.E-1,4.E-1,0.E0);
#76=COLOUR_RGB('',4.E-1,4.E-1,1.E0);
#77=COLOUR_RGB('',4.E-1,8.039215686275E-1,6.666666666667E-1);
#78=COLOUR_RGB('',4.E-1,1.E0,0.E0);
#79=COLOUR_RGB('',4.E-1,1.E0,4.E-1);
#80=COLOUR_RGB('',4.E-1,1.E0,1.E0);
#81=COLOUR_RGB('',4.156862745098E-1,3.529411764706E-1,8.039215686275E-1);
#82=COLOUR_RGB('',4.196078431373E-1,5.568627450980E-1,1.372549019608E-1);
#83=COLOUR_RGB('',4.666666666667E-1,5.333333333333E-1,6.E-1);
#84=COLOUR_RGB('',4.7E-1,0.E0,0.E0);
#85=COLOUR_RGB('',4.7E-1,0.E0,8.E-1);
#86=COLOUR_RGB('',4.7E-1,2.E-1,7.E-2);
#87=COLOUR_RGB('',4.823529411765E-1,4.078431372549E-1,9.333333333333E-1);
#88=COLOUR_RGB('',4.980392156863E-1,1.E0,8.313725490196E-1);
#89=COLOUR_RGB('',5.019607843137E-1,0.E0,5.019607843137E-1);
#90=COLOUR_RGB('',5.019607843137E-1,5.019607843137E-1,0.E0);
#91=COLOUR_RGB('',5.01961E-1,5.01961E-1,5.01961E-1);
#92=COLOUR_RGB('',5.098039215686E-1,3.960784313725E-1,1.058823529412E-1);
#93=COLOUR_RGB('',5.3E-1,0.E0,9.3E-1);
#94=COLOUR_RGB('',5.3E-1,2.7E-1,1.3E-1);
#95=COLOUR_RGB('',5.3E-1,5.3E-1,1.E0);
#96=COLOUR_RGB('',5.294117647059E-1,8.078431372549E-1,9.215686274510E-1);
#97=COLOUR_RGB('',5.411764705882E-1,1.686274509804E-1,8.862745098039E-1);
#98=COLOUR_RGB('',5.5E-1,6.5E-1,7.3E-1);
#99=COLOUR_RGB('',5.607843137255E-1,7.372549019608E-1,5.607843137255E-1);
#100=COLOUR_RGB('',5.68627E-1,9.37255E-1,9.37255E-1);
#101=COLOUR_RGB('',5.725490196078E-1,6.117647058824E-1,6.313725490196E-1);
#102=COLOUR_RGB('',5.764705882353E-1,4.392156862745E-1,8.588235294118E-1);
#103=COLOUR_RGB('',5.803921568627E-1,0.E0,8.274509803922E-1);
#104=COLOUR_RGB('',5.88235E-1,2.35294E-1,1.56863E-1);
#105=COLOUR_RGB('',6.E-1,0.E0,6.E-1);
#106=COLOUR_RGB('',6.E-1,1.960784313725E-1,8.E-1);
#107=COLOUR_RGB('',6.E-1,2.E-1,1.E0);
#108=COLOUR_RGB('',6.E-1,3.3E-1,2.E-1);
#109=COLOUR_RGB('',6.E-1,6.E-1,0.E0);
#110=COLOUR_RGB('',6.E-1,1.E0,6.E-1);
#111=COLOUR_RGB('',6.E-1,1.E0,1.E0);
#112=COLOUR_RGB('',6.27451E-1,4.70588E-1,3.52941E-1);
#113=COLOUR_RGB('',6.627450980392E-1,6.627450980392E-1,6.627450980392E-1);
#114=COLOUR_RGB('',6.66667E-1,8.23529E-1,1.96078E-1);
#115=COLOUR_RGB('',6.66667E-1,8.23529E-1,5.88235E-1);
#116=COLOUR_RGB('',6.7E-1,0.E0,0.E0);
#117=COLOUR_RGB('',6.7E-1,4.E-1,2.7E-1);
#118=COLOUR_RGB('',6.7E-1,4.E-1,1.E0);
#119=COLOUR_RGB('',6.7E-1,6.7E-1,1.E0);
#120=COLOUR_RGB('',6.7E-1,1.E0,0.E0);
#121=COLOUR_RGB('',6.784313725490E-1,8.117647058824E-1,1.E0);
#122=COLOUR_RGB('',6.784313725490E-1,8.470588235294E-1,9.019607843137E-1);
#123=COLOUR_RGB('',6.784313725490E-1,1.E0,1.843137254902E-1);
#124=COLOUR_RGB('',6.862745098039E-1,6.823529411765E-1,7.607843137255E-1);
#125=COLOUR_RGB('',6.980392156863E-1,1.333333333333E-1,1.333333333333E-1);
#126=COLOUR_RGB('',7.17647E-1,1.68627E-1,4.43137E-1);
#127=COLOUR_RGB('',7.215686274510E-1,5.254901960784E-1,4.313725490196E-2);
#128=COLOUR_RGB('',7.294117647059E-1,2.705882352941E-1,1.E0);
#129=COLOUR_RGB('',7.294117647059E-1,3.333333333333E-1,8.274509803922E-1);
#130=COLOUR_RGB('',7.294117647059E-1,4.E-1,0.E0);
#131=COLOUR_RGB('',7.3E-1,4.7E-1,3.3E-1);
#132=COLOUR_RGB('',7.372549019608E-1,5.607843137255E-1,5.607843137255E-1);
#133=COLOUR_RGB('',7.411764705882E-1,7.176470588235E-1,4.196078431373E-1);
#134=COLOUR_RGB('',7.803921568627E-1,8.235294117647E-2,5.215686274510E-1);
#135=COLOUR_RGB('',8.E-1,0.E0,8.E-1);
#136=COLOUR_RGB('',8.E-1,5.3E-1,4.E-1);
#137=COLOUR_RGB('',8.E-1,6.E-1,1.E0);
#138=COLOUR_RGB('',8.E-1,8.E-1,0.E0);
#139=COLOUR_RGB('',8.E-1,8.E-1,1.E0);
#140=COLOUR_RGB('',8.E-1,1.E0,8.E-1);
#141=COLOUR_RGB('',8.E-1,1.E0,1.E0);
#142=COLOUR_RGB('',8.039215686275E-1,3.607843137255E-1,3.607843137255E-1);
#143=COLOUR_RGB('',8.03922E-1,5.88235E-1,1.96078E-1);
#144=COLOUR_RGB('',8.196078431373E-1,7.098039215686E-1,5.490196078431E-2);
#145=COLOUR_RGB('',8.235294117647E-1,4.117647058824E-1,1.176470588235E-1);
#146=COLOUR_RGB('',8.235294117647E-1,7.058823529412E-1,5.490196078431E-1);
#147=COLOUR_RGB('',8.274509803922E-1,8.274509803922E-1,8.274509803922E-1);
#148=COLOUR_RGB('',8.392156862745E-1,8.E-1,7.137254901961E-1);
#149=COLOUR_RGB('',8.431372549020E-1,8.980392156863E-1,9.333333333333E-1);
#150=COLOUR_RGB('',8.549019607843E-1,6.470588235294E-1,1.254901960784E-1);
#151=COLOUR_RGB('',8.588235294118E-1,4.392156862745E-1,5.764705882353E-1);
#152=COLOUR_RGB('',8.627450980392E-1,7.843137254902E-2,2.352941176471E-1);
#153=COLOUR_RGB('',8.666666666667E-1,6.274509803922E-1,8.666666666667E-1);
#154=COLOUR_RGB('',8.7E-1,0.E0,0.E0);
#155=COLOUR_RGB('',8.7E-1,6.E-1,4.7E-1);
#156=COLOUR_RGB('',8.98039E-1,6.07843E-1,1.E0);
#157=COLOUR_RGB('',9.E-1,8.3E-1,1.2E-1);
#158=COLOUR_RGB('',9.09804E-1,3.68627E-1,8.19608E-1);
#159=COLOUR_RGB('',9.3E-1,0.E0,9.3E-1);
#160=COLOUR_RGB('',9.3E-1,6.7E-1,5.3E-1);
#161=COLOUR_RGB('',9.3E-1,8.E-1,1.E0);
#162=COLOUR_RGB('',9.3E-1,9.3E-1,0.E0);
#163=COLOUR_RGB('',9.3E-1,1.E0,9.3E-1);
#164=COLOUR_RGB('',9.3E-1,1.E0,1.E0);
#165=COLOUR_RGB('',9.333333333333E-1,5.098039215686E-1,9.333333333333E-1);
#166=COLOUR_RGB('',9.333333333333E-1,9.098039215686E-1,6.666666666667E-1);
#167=COLOUR_RGB('',9.411764705882E-1,9.019607843137E-1,5.490196078431E-1);
#168=COLOUR_RGB('',9.568627450980E-1,6.431372549020E-1,3.764705882353E-1);
#169=DRAUGHTING_PRE_DEFINED_COLOUR('red');
#170=COLOUR_RGB('',1.E0,0.E0,2.705882352941E-1);
#171=COLOUR_RGB('',1.E0,0.E0,4.705882352941E-1);
#172=COLOUR_RGB('',1.E0,0.E0,7.803921568627E-1);
#173=DRAUGHTING_PRE_DEFINED_COLOUR('magenta');
#174=COLOUR_RGB('',1.E0,3.1E-2,3.1E-2);
#175=COLOUR_RGB('',1.E0,7.E-2,7.E-2);
#176=COLOUR_RGB('',1.E0,7.843137254902E-2,5.764705882353E-1);
#177=COLOUR_RGB('',1.E0,2.E-1,1.E0);
#178=COLOUR_RGB('',1.E0,2.7E-1,0.E0);
#179=COLOUR_RGB('',1.E0,2.7E-1,2.7E-1);
#180=COLOUR_RGB('',1.E0,3.882352941176E-1,2.784313725490E-1);
#181=COLOUR_RGB('',1.E0,4.E-1,1.E0);
#182=COLOUR_RGB('',1.E0,4.117647058824E-1,7.058823529412E-1);
#183=COLOUR_RGB('',1.E0,4.7E-1,0.E0);
#184=COLOUR_RGB('',1.E0,4.7E-1,4.7E-1);
#185=COLOUR_RGB('',1.E0,4.980392156863E-1,3.137254901961E-1);
#186=COLOUR_RGB('',1.E0,6.E-1,1.E0);
#187=COLOUR_RGB('',1.E0,6.7E-1,0.E0);
#188=COLOUR_RGB('',1.E0,6.7E-1,6.7E-1);
#189=COLOUR_RGB('',1.E0,7.3E-1,6.E-1);
#190=COLOUR_RGB('',1.E0,7.686274509804E-1,5.882352941176E-2);
#191=COLOUR_RGB('',1.E0,8.E-1,8.E-1);
#192=COLOUR_RGB('',1.E0,8.E-1,1.E0);
#193=COLOUR_RGB('',1.E0,8.7E-1,0.E0);
#194=COLOUR_RGB('',1.E0,9.215686274510E-1,8.039215686275E-1);
#195=COLOUR_RGB('',1.E0,9.3E-1,9.3E-1);
#196=COLOUR_RGB('',1.E0,9.3E-1,1.E0);
#197=DRAUGHTING_PRE_DEFINED_COLOUR('yellow');
#198=COLOUR_RGB('',1.E0,1.E0,1.3E-1);
#199=COLOUR_RGB('',1.E0,1.E0,3.3E-1);
#200=COLOUR_RGB('',1.E0,1.E0,5.3E-1);
#201=COLOUR_RGB('',1.E0,1.E0,7.3E-1);
#202=COLOUR_RGB('',1.E0,1.E0,9.3E-1);
#203=DRAUGHTING_PRE_DEFINED_COLOUR('white');
#208=CIRCLE('',#207,3.E-1);
#213=CIRCLE('',#212,7.566666666667E0);
#218=CIRCLE('',#217,9.605483599644E0);
#223=CIRCLE('',#222,9.605483599644E0);
#228=CIRCLE('',#227,7.866666666667E0);
#233=CIRCLE('',#232,7.866666666667E0);
#238=CIRCLE('',#237,9.773325456144E0);
#243=CIRCLE('',#242,3.E-1);
#256=CIRCLE('',#255,1.033856911486E1);
#261=CIRCLE('',#260,1.E-1);
#266=CIRCLE('',#265,1.E-1);
#271=CIRCLE('',#270,1.033856911486E1);
#276=CIRCLE('',#275,1.103333333333E1);
#281=CIRCLE('',#280,1.103333333333E1);
#286=CIRCLE('',#285,1.039451640036E1);
#291=CIRCLE('',#290,1.039451640036E1);
#308=CIRCLE('',#307,1.103333333333E1);
#313=CIRCLE('',#312,1.073333333333E1);
#318=CIRCLE('',#317,1.069822098917E1);
#335=CIRCLE('',#334,1.073333333333E1);
#340=CIRCLE('',#339,1.069822098917E1);
#353=CIRCLE('',#352,1.103333333333E1);
#358=CIRCLE('',#357,1.27E1);
#363=CIRCLE('',#362,1.27E1);
#368=CIRCLE('',#367,1.073333333333E1);
#373=CIRCLE('',#372,1.073333333333E1);
#378=CIRCLE('',#377,1.3E1);
#383=CIRCLE('',#382,3.E-1);
#392=CIRCLE('',#391,3.E-1);
#397=CIRCLE('',#396,1.3E1);
#402=CIRCLE('',#401,1.27E1);
#407=CIRCLE('',#406,1.27E1);
#412=CIRCLE('',#411,1.073333333333E1);
#417=CIRCLE('',#416,1.073333333333E1);
#422=CIRCLE('',#421,3.E-1);
#427=CIRCLE('',#426,1.3E1);
#436=CIRCLE('',#435,3.E-1);
#441=CIRCLE('',#440,1.3E1);
#450=CIRCLE('',#449,1.073333333333E1);
#459=CIRCLE('',#458,1.073333333333E1);
#476=CIRCLE('',#475,1.103333333333E1);
#481=CIRCLE('',#480,1.069822098917E1);
#486=CIRCLE('',#485,1.069822098917E1);
#495=CIRCLE('',#494,1.103333333333E1);
#504=CIRCLE('',#503,1.103333333333E1);
#509=CIRCLE('',#508,1.103333333333E1);
#514=CIRCLE('',#513,1.039451640036E1);
#519=CIRCLE('',#518,1.039451640036E1);
#528=CIRCLE('',#527,1.033856911486E1);
#533=CIRCLE('',#532,1.E-1);
#546=CIRCLE('',#545,9.773325456144E0);
#551=CIRCLE('',#550,3.E-1);
#556=CIRCLE('',#555,3.E-1);
#561=CIRCLE('',#560,9.773325456144E0);
#566=CIRCLE('',#565,9.605483599644E0);
#571=CIRCLE('',#570,9.605483599644E0);
#576=CIRCLE('',#575,7.866666666667E0);
#581=CIRCLE('',#580,7.866666666667E0);
#586=CIRCLE('',#585,3.E-1);
#591=CIRCLE('',#590,7.566666666667E0);
#596=CIRCLE('',#595,3.E-1);
#601=CIRCLE('',#600,7.566666666667E0);
#606=CIRCLE('',#605,7.566666666667E0);
#615=CIRCLE('',#614,6.866666666667E0);
#620=CIRCLE('',#619,6.866666666667E0);
#625=CIRCLE('',#624,7.566666666667E0);
#638=CIRCLE('',#637,6.866666666667E0);
#647=CIRCLE('',#646,7.266666666667E0);
#656=CIRCLE('',#655,7.266666666667E0);
#661=CIRCLE('',#660,6.866666666667E0);
#674=CIRCLE('',#673,7.266666666667E0);
#679=CIRCLE('',#678,7.266666666667E0);
#684=CIRCLE('',#683,5.3E0);
#689=CIRCLE('',#688,5.3E0);
#694=CIRCLE('',#693,5.E0);
#699=CIRCLE('',#698,3.E-1);
#712=CIRCLE('',#711,3.E-1);
#717=CIRCLE('',#716,5.E0);
#722=CIRCLE('',#721,3.E-1);
#727=CIRCLE('',#726,5.E0);
#732=CIRCLE('',#731,3.E-1);
#737=CIRCLE('',#736,5.E0);
#742=CIRCLE('',#741,7.266666666667E0);
#747=CIRCLE('',#746,7.266666666667E0);
#752=CIRCLE('',#751,5.3E0);
#757=CIRCLE('',#756,5.3E0);
#766=CIRCLE('',#765,6.866666666667E0);
#775=CIRCLE('',#774,7.266666666667E0);
#784=CIRCLE('',#783,6.866666666667E0);
#789=CIRCLE('',#788,6.866666666667E0);
#794=CIRCLE('',#793,7.566666666667E0);
#803=CIRCLE('',#802,7.566666666667E0);
#812=CIRCLE('',#811,3.E-1);
#817=CIRCLE('',#816,7.566666666667E0);
#830=CIRCLE('',#829,7.266666666667E0);
#835=CIRCLE('',#834,6.866666666667E0);
#848=CIRCLE('',#847,1.E-1);
#853=CIRCLE('',#852,1.033856911486E1);
#858=CIRCLE('',#857,3.E-1);
#863=CIRCLE('',#862,9.773325456144E0);
#1029=EDGE_CURVE('',#866,#867,#228,.T.);
#1031=EDGE_CURVE('',#866,#869,#208,.T.);
#1033=EDGE_CURVE('',#869,#871,#213,.T.);
#1035=EDGE_CURVE('',#867,#871,#812,.T.);
#1045=EDGE_CURVE('',#874,#875,#218,.T.);
#1047=EDGE_CURVE('',#875,#874,#223,.T.);
#1052=EDGE_CURVE('',#867,#866,#233,.T.);
#1062=EDGE_CURVE('',#878,#879,#238,.T.);
#1064=EDGE_CURVE('',#879,#875,#243,.T.);
#1067=EDGE_CURVE('',#878,#874,#858,.T.);
#1078=EDGE_CURVE('',#878,#881,#247,.T.);
#1080=EDGE_CURVE('',#883,#881,#271,.T.);
#1082=EDGE_CURVE('',#879,#883,#251,.T.);
#1093=EDGE_CURVE('',#881,#883,#256,.T.);
#1096=EDGE_CURVE('',#879,#878,#863,.T.);
#1107=EDGE_CURVE('',#883,#885,#261,.T.);
#1109=EDGE_CURVE('',#887,#885,#291,.T.);
#1111=EDGE_CURVE('',#881,#887,#266,.T.);
#1122=EDGE_CURVE('',#885,#887,#286,.T.);
#1134=EDGE_CURVE('',#890,#891,#276,.T.);
#1136=EDGE_CURVE('',#891,#890,#281,.T.);
#1150=EDGE_CURVE('',#890,#893,#295,.T.);
#1152=EDGE_CURVE('',#895,#893,#353,.T.);
#1154=EDGE_CURVE('',#891,#895,#299,.T.);
#1167=EDGE_CURVE('',#893,#895,#308,.T.);
#1178=EDGE_CURVE('',#898,#899,#318,.T.);
#1180=EDGE_CURVE('',#898,#893,#303,.T.);
#1183=EDGE_CURVE('',#899,#895,#348,.T.);
#1193=EDGE_CURVE('',#962,#963,#313,.T.);
#1195=EDGE_CURVE('',#898,#962,#344,.T.);
#1198=EDGE_CURVE('',#899,#963,#322,.T.);
#1209=EDGE_CURVE('',#963,#958,#326,.T.);
#1211=EDGE_CURVE('',#959,#958,#373,.T.);
#1213=EDGE_CURVE('',#962,#959,#330,.T.);
#1223=EDGE_CURVE('',#963,#962,#335,.T.);
#1226=EDGE_CURVE('',#958,#959,#368,.T.);
#1239=EDGE_CURVE('',#899,#898,#340,.T.);
#1262=EDGE_CURVE('',#955,#953,#358,.T.);
#1264=EDGE_CURVE('',#953,#955,#363,.T.);
#1278=EDGE_CURVE('',#949,#951,#378,.T.);
#1280=EDGE_CURVE('',#951,#953,#383,.T.);
#1283=EDGE_CURVE('',#949,#955,#436,.T.);
#1293=EDGE_CURVE('',#941,#943,#397,.T.);
#1295=EDGE_CURVE('',#941,#951,#387,.T.);
#1298=EDGE_CURVE('',#943,#949,#431,.T.);
#1308=EDGE_CURVE('',#938,#939,#402,.T.);
#1310=EDGE_CURVE('',#938,#941,#392,.T.);
#1313=EDGE_CURVE('',#939,#943,#422,.T.);
#1324=EDGE_CURVE('',#939,#938,#407,.T.);
#1328=EDGE_CURVE('',#946,#947,#412,.T.);
#1330=EDGE_CURVE('',#947,#946,#417,.T.);
#1341=EDGE_CURVE('',#943,#941,#427,.T.);
#1354=EDGE_CURVE('',#951,#949,#441,.T.);
#1378=EDGE_CURVE('',#966,#967,#450,.T.);
#1380=EDGE_CURVE('',#947,#966,#467,.T.);
#1383=EDGE_CURVE('',#946,#967,#445,.T.);
#1394=EDGE_CURVE('',#903,#967,#463,.T.);
#1396=EDGE_CURVE('',#902,#903,#486,.T.);
#1398=EDGE_CURVE('',#902,#966,#454,.T.);
#1408=EDGE_CURVE('',#967,#966,#459,.T.);
#1411=EDGE_CURVE('',#903,#902,#481,.T.);
#1434=EDGE_CURVE('',#902,#907,#471,.T.);
#1436=EDGE_CURVE('',#907,#905,#476,.T.);
#1438=EDGE_CURVE('',#903,#905,#490,.T.);
#1451=EDGE_CURVE('',#905,#907,#495,.T.);
#1462=EDGE_CURVE('',#911,#909,#504,.T.);
#1464=EDGE_CURVE('',#911,#907,#499,.T.);
#1467=EDGE_CURVE('',#909,#905,#523,.T.);
#1478=EDGE_CURVE('',#909,#911,#509,.T.);
#1482=EDGE_CURVE('',#914,#915,#514,.T.);
#1484=EDGE_CURVE('',#915,#914,#519,.T.);
#1506=EDGE_CURVE('',#918,#919,#528,.T.);
#1508=EDGE_CURVE('',#919,#915,#533,.T.);
#1511=EDGE_CURVE('',#918,#914,#848,.T.);
#1521=EDGE_CURVE('',#921,#919,#537,.T.);
#1524=EDGE_CURVE('',#923,#918,#541,.T.);
#1526=EDGE_CURVE('',#921,#923,#561,.T.);
#1536=EDGE_CURVE('',#923,#921,#546,.T.);
#1539=EDGE_CURVE('',#919,#918,#853,.T.);
#1551=EDGE_CURVE('',#921,#925,#551,.T.);
#1553=EDGE_CURVE('',#927,#925,#571,.T.);
#1555=EDGE_CURVE('',#923,#927,#556,.T.);
#1566=EDGE_CURVE('',#925,#927,#566,.T.);
#1582=EDGE_CURVE('',#930,#931,#576,.T.);
#1584=EDGE_CURVE('',#931,#930,#581,.T.);
#1594=EDGE_CURVE('',#930,#933,#586,.T.);
#1596=EDGE_CURVE('',#933,#935,#591,.T.);
#1598=EDGE_CURVE('',#931,#935,#596,.T.);
#1611=EDGE_CURVE('',#935,#933,#601,.T.);
#1622=EDGE_CURVE('',#1022,#1023,#606,.T.);
#1624=EDGE_CURVE('',#1023,#933,#610,.T.);
#1627=EDGE_CURVE('',#1022,#935,#629,.T.);
#1638=EDGE_CURVE('',#1023,#1022,#625,.T.);
#1642=EDGE_CURVE('',#979,#977,#615,.T.);
#1644=EDGE_CURVE('',#977,#979,#620,.T.);
#1666=EDGE_CURVE('',#970,#971,#638,.T.);
#1668=EDGE_CURVE('',#970,#977,#633,.T.);
#1671=EDGE_CURVE('',#971,#979,#843,.T.);
#1682=EDGE_CURVE('',#971,#973,#642,.T.);
#1684=EDGE_CURVE('',#973,#975,#647,.T.);
#1686=EDGE_CURVE('',#970,#975,#651,.T.);
#1697=EDGE_CURVE('',#975,#973,#656,.T.);
#1700=EDGE_CURVE('',#971,#970,#661,.T.);
#1710=EDGE_CURVE('',#1015,#973,#665,.T.);
#1713=EDGE_CURVE('',#1014,#975,#669,.T.);
#1715=EDGE_CURVE('',#1015,#1014,#679,.T.);
#1725=EDGE_CURVE('',#1014,#1015,#674,.T.);
#1742=EDGE_CURVE('',#1009,#1011,#684,.T.);
#1744=EDGE_CURVE('',#1011,#1009,#689,.T.);
#1754=EDGE_CURVE('',#1007,#1006,#694,.T.);
#1756=EDGE_CURVE('',#1006,#1011,#699,.T.);
#1759=EDGE_CURVE('',#1007,#1009,#712,.T.);
#1769=EDGE_CURVE('',#1007,#1003,#703,.T.);
#1771=EDGE_CURVE('',#1001,#1003,#737,.T.);
#1773=EDGE_CURVE('',#1006,#1001,#707,.T.);
#1784=EDGE_CURVE('',#1006,#1007,#717,.T.);
#1787=EDGE_CURVE('',#1003,#1001,#727,.T.);
#1810=EDGE_CURVE('',#999,#1003,#722,.T.);
#1813=EDGE_CURVE('',#998,#1001,#732,.T.);
#1815=EDGE_CURVE('',#999,#998,#757,.T.);
#1825=EDGE_CURVE('',#998,#999,#752,.T.);
#1838=EDGE_CURVE('',#995,#993,#742,.T.);
#1840=EDGE_CURVE('',#993,#995,#747,.T.);
#1854=EDGE_CURVE('',#991,#989,#775,.T.);
#1856=EDGE_CURVE('',#991,#993,#761,.T.);
#1859=EDGE_CURVE('',#989,#995,#839,.T.);
#1869=EDGE_CURVE('',#987,#985,#766,.T.);
#1871=EDGE_CURVE('',#985,#991,#770,.T.);
#1874=EDGE_CURVE('',#987,#989,#825,.T.);
#1884=EDGE_CURVE('',#982,#983,#784,.T.);
#1886=EDGE_CURVE('',#982,#985,#779,.T.);
#1889=EDGE_CURVE('',#983,#987,#821,.T.);
#1899=EDGE_CURVE('',#1018,#1019,#794,.T.);
#1901=EDGE_CURVE('',#1019,#1018,#803,.T.);
#1906=EDGE_CURVE('',#983,#982,#789,.T.);
#1917=EDGE_CURVE('',#1019,#871,#798,.T.);
#1920=EDGE_CURVE('',#1018,#869,#807,.T.);
#1932=EDGE_CURVE('',#871,#869,#817,.T.);
#1956=EDGE_CURVE('',#985,#987,#835,.T.);
#1969=EDGE_CURVE('',#989,#991,#830,.T.);
#2026=(LENGTH_UNIT()NAMED_UNIT(*)SI_UNIT(.MILLI.,.METRE.));
#2028=(NAMED_UNIT(*)PLANE_ANGLE_UNIT()SI_UNIT($,.RADIAN.));
#2031=(NAMED_UNIT(*)SI_UNIT($,.STERADIAN.)SOLID_ANGLE_UNIT());
#2034=ADVANCED_BREP_SHAPE_REPRESENTATION('',(#2025),#2033);
#2041=PRODUCT_DEFINITION('design','',#2040,#2037);
#2042=PRODUCT_DEFINITION_SHAPE('','SHAPE FOR 6000ZZ_-_EA033.',#2041);
#2043=SHAPE_DEFINITION_REPRESENTATION(#2042,#2034);
ENDSEC;
END-ISO-10303-21;
