ISO-10303-21;
HEADER;
FILE_DESCRIPTION((''),'2;1');
FILE_NAME('6200ZZ_-_EA034','2025-12-19T11:19:37',('qinghui.yi'),(''),
'CREO PARAMETRIC BY PTC INC, 2019164','CREO PARAMETRIC BY PTC INC, 2019164','');
FILE_SCHEMA(('CONFIG_CONTROL_DESIGN','SHAPE_APPEARANCE_LAYERS_GROUPS'));
ENDSEC;
DATA;
#204=CARTESIAN_POINT('',(-3.3E0,0.E0,0.E0));
#205=DIRECTION('',(-1.E0,0.E0,0.E0));
#206=DIRECTION('',(0.E0,0.E0,1.E0));
#207=AXIS2_PLACEMENT_3D('',#204,#205,#206);
#209=DIRECTION('',(-1.E0,0.E0,0.E0));
#210=VECTOR('',#209,7.E-1);
#211=CARTESIAN_POINT('',(-3.3E0,0.E0,-8.133333333333E0));
#212=LINE('',#211,#210);
#213=CARTESIAN_POINT('',(-3.3E0,0.E0,0.E0));
#214=DIRECTION('',(-1.E0,0.E0,0.E0));
#215=DIRECTION('',(0.E0,0.E0,1.E0));
#216=AXIS2_PLACEMENT_3D('',#213,#214,#215);
#218=CARTESIAN_POINT('',(-3.3E0,0.E0,0.E0));
#219=DIRECTION('',(-1.E0,0.E0,0.E0));
#220=DIRECTION('',(0.E0,0.E0,-1.E0));
#221=AXIS2_PLACEMENT_3D('',#218,#219,#220);
#223=CARTESIAN_POINT('',(-3.3E0,0.E0,0.E0));
#224=DIRECTION('',(-1.E0,0.E0,0.E0));
#225=DIRECTION('',(0.E0,0.E0,-1.E0));
#226=AXIS2_PLACEMENT_3D('',#223,#224,#225);
#228=DIRECTION('',(-1.E0,0.E0,0.E0));
#229=VECTOR('',#228,7.E-1);
#230=CARTESIAN_POINT('',(-3.3E0,0.E0,8.133333333333E0));
#231=LINE('',#230,#229);
#232=CARTESIAN_POINT('',(-4.E0,0.E0,-8.533333333333E0));
#233=DIRECTION('',(0.E0,1.E0,0.E0));
#234=DIRECTION('',(-1.E0,0.E0,0.E0));
#235=AXIS2_PLACEMENT_3D('',#232,#233,#234);
#237=CARTESIAN_POINT('',(-4.E0,0.E0,0.E0));
#238=DIRECTION('',(-1.E0,0.E0,0.E0));
#239=DIRECTION('',(0.E0,0.E0,-1.E0));
#240=AXIS2_PLACEMENT_3D('',#237,#238,#239);
#242=CARTESIAN_POINT('',(-4.E0,0.E0,8.533333333333E0));
#243=DIRECTION('',(0.E0,-1.E0,0.E0));
#244=DIRECTION('',(-1.E0,0.E0,0.E0));
#245=AXIS2_PLACEMENT_3D('',#242,#243,#244);
#247=CARTESIAN_POINT('',(-4.E0,0.E0,0.E0));
#248=DIRECTION('',(-1.E0,0.E0,0.E0));
#249=DIRECTION('',(0.E0,0.E0,1.E0));
#250=AXIS2_PLACEMENT_3D('',#247,#248,#249);
#252=CARTESIAN_POINT('',(-4.4E0,0.E0,0.E0));
#253=DIRECTION('',(1.E0,0.E0,0.E0));
#254=DIRECTION('',(0.E0,0.E0,-1.E0));
#255=AXIS2_PLACEMENT_3D('',#252,#253,#254);
#257=CARTESIAN_POINT('',(-4.4E0,0.E0,0.E0));
#258=DIRECTION('',(1.E0,0.E0,0.E0));
#259=DIRECTION('',(0.E0,0.E0,1.E0));
#260=AXIS2_PLACEMENT_3D('',#257,#258,#259);
#262=CARTESIAN_POINT('',(-4.4E0,0.E0,0.E0));
#263=DIRECTION('',(-1.E0,0.E0,0.E0));
#264=DIRECTION('',(0.E0,0.E0,1.E0));
#265=AXIS2_PLACEMENT_3D('',#262,#263,#264);
#267=CARTESIAN_POINT('',(-4.4E0,0.E0,0.E0));
#268=DIRECTION('',(-1.E0,0.E0,0.E0));
#269=DIRECTION('',(0.E0,0.E0,-1.E0));
#270=AXIS2_PLACEMENT_3D('',#267,#268,#269);
#272=CARTESIAN_POINT('',(-4.271763212599E0,0.E0,0.E0));
#273=DIRECTION('',(1.E0,0.E0,0.E0));
#274=DIRECTION('',(0.E0,0.E0,-1.E0));
#275=AXIS2_PLACEMENT_3D('',#272,#273,#274);
#277=CARTESIAN_POINT('',(-4.E0,0.E0,1.074595008159E1));
#278=DIRECTION('',(0.E0,-1.E0,0.E0));
#279=DIRECTION('',(-6.794080315069E-1,0.E0,7.337606740102E-1));
#280=AXIS2_PLACEMENT_3D('',#277,#278,#279);
#282=DIRECTION('',(7.337606740202E-1,0.E0,-6.794080314961E-1));
#283=VECTOR('',#282,1.051791462701E0);
#284=CARTESIAN_POINT('',(-4.271763212601E0,0.E0,-1.103945435119E1));
#285=LINE('',#284,#283);
#286=DIRECTION('',(7.337606740202E-1,0.E0,6.794080314961E-1));
#287=VECTOR('',#286,1.051791462701E0);
#288=CARTESIAN_POINT('',(-4.271763212601E0,0.E0,1.103945435119E1));
#289=LINE('',#288,#287);
#290=CARTESIAN_POINT('',(-3.5E0,0.E0,0.E0));
#291=DIRECTION('',(1.E0,0.E0,0.E0));
#292=DIRECTION('',(0.E0,0.E0,-1.E0));
#293=AXIS2_PLACEMENT_3D('',#290,#291,#292);
#295=CARTESIAN_POINT('',(-3.5E0,0.E0,0.E0));
#296=DIRECTION('',(1.E0,0.E0,0.E0));
#297=DIRECTION('',(0.E0,0.E0,1.E0));
#298=AXIS2_PLACEMENT_3D('',#295,#296,#297);
#300=CARTESIAN_POINT('',(-3.5E0,0.E0,0.E0));
#301=DIRECTION('',(-1.E0,0.E0,0.E0));
#302=DIRECTION('',(0.E0,0.E0,-1.E0));
#303=AXIS2_PLACEMENT_3D('',#300,#301,#302);
#305=CARTESIAN_POINT('',(-3.5E0,0.E0,0.E0));
#306=DIRECTION('',(-1.E0,0.E0,0.E0));
#307=DIRECTION('',(0.E0,0.E0,1.E0));
#308=AXIS2_PLACEMENT_3D('',#305,#306,#307);
#310=DIRECTION('',(-1.E0,0.E0,3.053905863736E-12));
#311=VECTOR('',#310,2.867619242045E-1);
#312=CARTESIAN_POINT('',(-3.5E0,0.E0,-1.246666666667E1));
#313=LINE('',#312,#311);
#314=DIRECTION('',(-1.E0,0.E0,-3.053905863736E-12));
#315=VECTOR('',#314,2.867619242045E-1);
#316=CARTESIAN_POINT('',(-3.5E0,0.E0,1.246666666667E1));
#317=LINE('',#316,#315);
#318=DIRECTION('',(5.144957554251E-1,0.E0,-8.574929257140E-1));
#319=VECTOR('',#318,4.698571136958E-1);
#320=CARTESIAN_POINT('',(-4.028501414857E0,0.E0,-1.206376751558E1));
#321=LINE('',#320,#319);
#322=CARTESIAN_POINT('',(-3.786761924202E0,0.E0,0.E0));
#323=DIRECTION('',(-1.E0,0.E0,0.E0));
#324=DIRECTION('',(0.E0,0.E0,-1.E0));
#325=AXIS2_PLACEMENT_3D('',#322,#323,#324);
#327=CARTESIAN_POINT('',(-4.200000000012E0,0.E0,0.E0));
#328=DIRECTION('',(-1.E0,0.E0,0.E0));
#329=DIRECTION('',(0.E0,0.E0,-1.E0));
#330=AXIS2_PLACEMENT_3D('',#327,#328,#329);
#332=CARTESIAN_POINT('',(-4.028501414858E0,0.E0,0.E0));
#333=DIRECTION('',(-1.E0,0.E0,0.E0));
#334=DIRECTION('',(0.E0,0.E0,-1.E0));
#335=AXIS2_PLACEMENT_3D('',#332,#333,#334);
#337=DIRECTION('',(-8.574929257161E-1,0.E0,5.144957554216E-1));
#338=VECTOR('',#337,2.000000000138E-1);
#339=CARTESIAN_POINT('',(-4.028501414857E0,0.E0,1.206376751558E1));
#340=LINE('',#339,#338);
#341=DIRECTION('',(-1.E0,0.E0,0.E0));
#342=VECTOR('',#341,2.999999999877E-1);
#343=CARTESIAN_POINT('',(-4.200000000012E0,0.E0,1.216666666667E1));
#344=LINE('',#343,#342);
#345=DIRECTION('',(-1.E0,0.E0,0.E0));
#346=VECTOR('',#345,2.999999999877E-1);
#347=CARTESIAN_POINT('',(-4.200000000012E0,0.E0,-1.216666666667E1));
#348=LINE('',#347,#346);
#349=CARTESIAN_POINT('',(-4.200000000012E0,0.E0,0.E0));
#350=DIRECTION('',(-1.E0,0.E0,0.E0));
#351=DIRECTION('',(0.E0,0.E0,1.E0));
#352=AXIS2_PLACEMENT_3D('',#349,#350,#351);
#354=CARTESIAN_POINT('',(-4.028501414858E0,0.E0,0.E0));
#355=DIRECTION('',(-1.E0,0.E0,0.E0));
#356=DIRECTION('',(0.E0,0.E0,1.E0));
#357=AXIS2_PLACEMENT_3D('',#354,#355,#356);
#359=DIRECTION('',(-8.574929257161E-1,0.E0,-5.144957554216E-1));
#360=VECTOR('',#359,2.000000000138E-1);
#361=CARTESIAN_POINT('',(-4.028501414857E0,0.E0,-1.206376751558E1));
#362=LINE('',#361,#360);
#363=DIRECTION('',(5.144957554251E-1,0.E0,8.574929257140E-1));
#364=VECTOR('',#363,4.698571136958E-1);
#365=CARTESIAN_POINT('',(-4.028501414857E0,0.E0,1.206376751558E1));
#366=LINE('',#365,#364);
#367=CARTESIAN_POINT('',(-3.786761924202E0,0.E0,0.E0));
#368=DIRECTION('',(-1.E0,0.E0,0.E0));
#369=DIRECTION('',(0.E0,0.E0,1.E0));
#370=AXIS2_PLACEMENT_3D('',#367,#368,#369);
#372=CARTESIAN_POINT('',(-4.5E0,0.E0,0.E0));
#373=DIRECTION('',(1.E0,0.E0,0.E0));
#374=DIRECTION('',(0.E0,0.E0,-1.E0));
#375=AXIS2_PLACEMENT_3D('',#372,#373,#374);
#377=CARTESIAN_POINT('',(-4.5E0,0.E0,0.E0));
#378=DIRECTION('',(1.E0,0.E0,0.E0));
#379=DIRECTION('',(0.E0,0.E0,1.E0));
#380=AXIS2_PLACEMENT_3D('',#377,#378,#379);
#382=CARTESIAN_POINT('',(-4.5E0,0.E0,0.E0));
#383=DIRECTION('',(-1.E0,0.E0,0.E0));
#384=DIRECTION('',(0.E0,0.E0,1.E0));
#385=AXIS2_PLACEMENT_3D('',#382,#383,#384);
#387=CARTESIAN_POINT('',(-4.5E0,0.E0,0.E0));
#388=DIRECTION('',(-1.E0,0.E0,0.E0));
#389=DIRECTION('',(0.E0,0.E0,-1.E0));
#390=AXIS2_PLACEMENT_3D('',#387,#388,#389);
#392=CARTESIAN_POINT('',(-3.9E0,0.E0,0.E0));
#393=DIRECTION('',(1.E0,0.E0,0.E0));
#394=DIRECTION('',(0.E0,0.E0,-1.E0));
#395=AXIS2_PLACEMENT_3D('',#392,#393,#394);
#397=CARTESIAN_POINT('',(-3.9E0,0.E0,1.44E1));
#398=DIRECTION('',(0.E0,-1.E0,0.E0));
#399=DIRECTION('',(0.E0,0.E0,1.E0));
#400=AXIS2_PLACEMENT_3D('',#397,#398,#399);
#402=DIRECTION('',(-1.E0,0.E0,0.E0));
#403=VECTOR('',#402,7.8E0);
#404=CARTESIAN_POINT('',(3.9E0,0.E0,1.5E1));
#405=LINE('',#404,#403);
#406=CARTESIAN_POINT('',(3.9E0,0.E0,1.44E1));
#407=DIRECTION('',(0.E0,-1.E0,0.E0));
#408=DIRECTION('',(1.E0,0.E0,0.E0));
#409=AXIS2_PLACEMENT_3D('',#406,#407,#408);
#411=CARTESIAN_POINT('',(3.9E0,0.E0,0.E0));
#412=DIRECTION('',(-1.E0,0.E0,0.E0));
#413=DIRECTION('',(0.E0,0.E0,1.E0));
#414=AXIS2_PLACEMENT_3D('',#411,#412,#413);
#416=CARTESIAN_POINT('',(4.5E0,0.E0,0.E0));
#417=DIRECTION('',(-1.E0,0.E0,0.E0));
#418=DIRECTION('',(0.E0,0.E0,1.E0));
#419=AXIS2_PLACEMENT_3D('',#416,#417,#418);
#421=CARTESIAN_POINT('',(4.5E0,0.E0,0.E0));
#422=DIRECTION('',(-1.E0,0.E0,0.E0));
#423=DIRECTION('',(0.E0,0.E0,-1.E0));
#424=AXIS2_PLACEMENT_3D('',#421,#422,#423);
#426=CARTESIAN_POINT('',(4.5E0,0.E0,0.E0));
#427=DIRECTION('',(1.E0,0.E0,0.E0));
#428=DIRECTION('',(0.E0,0.E0,-1.E0));
#429=AXIS2_PLACEMENT_3D('',#426,#427,#428);
#431=CARTESIAN_POINT('',(4.5E0,0.E0,0.E0));
#432=DIRECTION('',(1.E0,0.E0,0.E0));
#433=DIRECTION('',(0.E0,0.E0,1.E0));
#434=AXIS2_PLACEMENT_3D('',#431,#432,#433);
#436=CARTESIAN_POINT('',(3.9E0,0.E0,-1.44E1));
#437=DIRECTION('',(0.E0,1.E0,0.E0));
#438=DIRECTION('',(1.E0,0.E0,0.E0));
#439=AXIS2_PLACEMENT_3D('',#436,#437,#438);
#441=CARTESIAN_POINT('',(3.9E0,0.E0,0.E0));
#442=DIRECTION('',(-1.E0,0.E0,0.E0));
#443=DIRECTION('',(0.E0,0.E0,-1.E0));
#444=AXIS2_PLACEMENT_3D('',#441,#442,#443);
#446=DIRECTION('',(-1.E0,0.E0,0.E0));
#447=VECTOR('',#446,7.8E0);
#448=CARTESIAN_POINT('',(3.9E0,0.E0,-1.5E1));
#449=LINE('',#448,#447);
#450=CARTESIAN_POINT('',(-3.9E0,0.E0,-1.44E1));
#451=DIRECTION('',(0.E0,1.E0,0.E0));
#452=DIRECTION('',(0.E0,0.E0,-1.E0));
#453=AXIS2_PLACEMENT_3D('',#450,#451,#452);
#455=CARTESIAN_POINT('',(-3.9E0,0.E0,0.E0));
#456=DIRECTION('',(1.E0,0.E0,0.E0));
#457=DIRECTION('',(0.E0,0.E0,1.E0));
#458=AXIS2_PLACEMENT_3D('',#455,#456,#457);
#460=DIRECTION('',(-1.E0,0.E0,0.E0));
#461=VECTOR('',#460,2.999999999877E-1);
#462=CARTESIAN_POINT('',(4.5E0,0.E0,-1.216666666667E1));
#463=LINE('',#462,#461);
#464=CARTESIAN_POINT('',(4.200000000012E0,0.E0,0.E0));
#465=DIRECTION('',(-1.E0,0.E0,0.E0));
#466=DIRECTION('',(0.E0,0.E0,1.E0));
#467=AXIS2_PLACEMENT_3D('',#464,#465,#466);
#469=DIRECTION('',(8.574929257161E-1,0.E0,5.144957554216E-1));
#470=VECTOR('',#469,2.000000000138E-1);
#471=CARTESIAN_POINT('',(4.028501414857E0,0.E0,1.206376751558E1));
#472=LINE('',#471,#470);
#473=CARTESIAN_POINT('',(4.200000000012E0,0.E0,0.E0));
#474=DIRECTION('',(1.E0,0.E0,0.E0));
#475=DIRECTION('',(0.E0,0.E0,1.E0));
#476=AXIS2_PLACEMENT_3D('',#473,#474,#475);
#478=DIRECTION('',(8.574929257161E-1,0.E0,-5.144957554216E-1));
#479=VECTOR('',#478,2.000000000138E-1);
#480=CARTESIAN_POINT('',(4.028501414857E0,0.E0,-1.206376751558E1));
#481=LINE('',#480,#479);
#482=DIRECTION('',(-1.E0,0.E0,0.E0));
#483=VECTOR('',#482,2.999999999877E-1);
#484=CARTESIAN_POINT('',(4.5E0,0.E0,1.216666666667E1));
#485=LINE('',#484,#483);
#486=DIRECTION('',(-5.144957554251E-1,0.E0,8.574929257140E-1));
#487=VECTOR('',#486,4.698571136958E-1);
#488=CARTESIAN_POINT('',(4.028501414857E0,0.E0,1.206376751558E1));
#489=LINE('',#488,#487);
#490=CARTESIAN_POINT('',(3.786761924202E0,0.E0,0.E0));
#491=DIRECTION('',(1.E0,0.E0,0.E0));
#492=DIRECTION('',(0.E0,0.E0,1.E0));
#493=AXIS2_PLACEMENT_3D('',#490,#491,#492);
#495=CARTESIAN_POINT('',(4.028501414858E0,0.E0,0.E0));
#496=DIRECTION('',(-1.E0,0.E0,0.E0));
#497=DIRECTION('',(0.E0,0.E0,-1.E0));
#498=AXIS2_PLACEMENT_3D('',#495,#496,#497);
#500=CARTESIAN_POINT('',(4.028501414858E0,0.E0,0.E0));
#501=DIRECTION('',(-1.E0,0.E0,0.E0));
#502=DIRECTION('',(0.E0,0.E0,1.E0));
#503=AXIS2_PLACEMENT_3D('',#500,#501,#502);
#505=DIRECTION('',(-5.144957554251E-1,0.E0,-8.574929257140E-1));
#506=VECTOR('',#505,4.698571136958E-1);
#507=CARTESIAN_POINT('',(4.028501414857E0,0.E0,-1.206376751558E1));
#508=LINE('',#507,#506);
#509=CARTESIAN_POINT('',(3.786761924202E0,0.E0,0.E0));
#510=DIRECTION('',(1.E0,0.E0,0.E0));
#511=DIRECTION('',(0.E0,0.E0,-1.E0));
#512=AXIS2_PLACEMENT_3D('',#509,#510,#511);
#514=DIRECTION('',(1.E0,0.E0,-3.053905863736E-12));
#515=VECTOR('',#514,2.867619242045E-1);
#516=CARTESIAN_POINT('',(3.5E0,0.E0,1.246666666667E1));
#517=LINE('',#516,#515);
#518=CARTESIAN_POINT('',(3.5E0,0.E0,0.E0));
#519=DIRECTION('',(-1.E0,0.E0,0.E0));
#520=DIRECTION('',(0.E0,0.E0,1.E0));
#521=AXIS2_PLACEMENT_3D('',#518,#519,#520);
#523=CARTESIAN_POINT('',(3.5E0,0.E0,0.E0));
#524=DIRECTION('',(-1.E0,0.E0,0.E0));
#525=DIRECTION('',(0.E0,0.E0,-1.E0));
#526=AXIS2_PLACEMENT_3D('',#523,#524,#525);
#528=CARTESIAN_POINT('',(3.5E0,0.E0,0.E0));
#529=DIRECTION('',(1.E0,0.E0,0.E0));
#530=DIRECTION('',(0.E0,0.E0,1.E0));
#531=AXIS2_PLACEMENT_3D('',#528,#529,#530);
#533=CARTESIAN_POINT('',(3.5E0,0.E0,0.E0));
#534=DIRECTION('',(1.E0,0.E0,0.E0));
#535=DIRECTION('',(0.E0,0.E0,-1.E0));
#536=AXIS2_PLACEMENT_3D('',#533,#534,#535);
#538=DIRECTION('',(1.E0,0.E0,3.053905863736E-12));
#539=VECTOR('',#538,2.867619242045E-1);
#540=CARTESIAN_POINT('',(3.5E0,0.E0,-1.246666666667E1));
#541=LINE('',#540,#539);
#542=DIRECTION('',(-7.337606740202E-1,0.E0,-6.794080314961E-1));
#543=VECTOR('',#542,1.051791462701E0);
#544=CARTESIAN_POINT('',(4.271763212601E0,0.E0,-1.103945435119E1));
#545=LINE('',#544,#543);
#546=CARTESIAN_POINT('',(4.271763212599E0,0.E0,0.E0));
#547=DIRECTION('',(-1.E0,0.E0,0.E0));
#548=DIRECTION('',(0.E0,0.E0,-1.E0));
#549=AXIS2_PLACEMENT_3D('',#546,#547,#548);
#551=CARTESIAN_POINT('',(4.E0,0.E0,1.074595008159E1));
#552=DIRECTION('',(0.E0,1.E0,0.E0));
#553=DIRECTION('',(6.794080315069E-1,0.E0,7.337606740102E-1));
#554=AXIS2_PLACEMENT_3D('',#551,#552,#553);
#556=CARTESIAN_POINT('',(4.E0,0.E0,-1.074595008159E1));
#557=DIRECTION('',(0.E0,-1.E0,0.E0));
#558=DIRECTION('',(6.794080315069E-1,0.E0,-7.337606740102E-1));
#559=AXIS2_PLACEMENT_3D('',#556,#557,#558);
#561=CARTESIAN_POINT('',(4.271763212599E0,0.E0,0.E0));
#562=DIRECTION('',(-1.E0,0.E0,0.E0));
#563=DIRECTION('',(0.E0,0.E0,1.E0));
#564=AXIS2_PLACEMENT_3D('',#561,#562,#563);
#566=CARTESIAN_POINT('',(4.4E0,0.E0,0.E0));
#567=DIRECTION('',(-1.E0,0.E0,0.E0));
#568=DIRECTION('',(0.E0,0.E0,1.E0));
#569=AXIS2_PLACEMENT_3D('',#566,#567,#568);
#571=CARTESIAN_POINT('',(4.4E0,0.E0,0.E0));
#572=DIRECTION('',(-1.E0,0.E0,0.E0));
#573=DIRECTION('',(0.E0,0.E0,-1.E0));
#574=AXIS2_PLACEMENT_3D('',#571,#572,#573);
#576=CARTESIAN_POINT('',(4.4E0,0.E0,0.E0));
#577=DIRECTION('',(1.E0,0.E0,0.E0));
#578=DIRECTION('',(0.E0,0.E0,-1.E0));
#579=AXIS2_PLACEMENT_3D('',#576,#577,#578);
#581=CARTESIAN_POINT('',(4.4E0,0.E0,0.E0));
#582=DIRECTION('',(1.E0,0.E0,0.E0));
#583=DIRECTION('',(0.E0,0.E0,1.E0));
#584=AXIS2_PLACEMENT_3D('',#581,#582,#583);
#586=CARTESIAN_POINT('',(4.E0,0.E0,-8.533333333333E0));
#587=DIRECTION('',(0.E0,-1.E0,0.E0));
#588=DIRECTION('',(1.E0,0.E0,0.E0));
#589=AXIS2_PLACEMENT_3D('',#586,#587,#588);
#591=CARTESIAN_POINT('',(4.E0,0.E0,0.E0));
#592=DIRECTION('',(1.E0,0.E0,0.E0));
#593=DIRECTION('',(0.E0,0.E0,-1.E0));
#594=AXIS2_PLACEMENT_3D('',#591,#592,#593);
#596=CARTESIAN_POINT('',(4.E0,0.E0,8.533333333333E0));
#597=DIRECTION('',(0.E0,1.E0,0.E0));
#598=DIRECTION('',(1.E0,0.E0,0.E0));
#599=AXIS2_PLACEMENT_3D('',#596,#597,#598);
#601=CARTESIAN_POINT('',(4.E0,0.E0,0.E0));
#602=DIRECTION('',(1.E0,0.E0,0.E0));
#603=DIRECTION('',(0.E0,0.E0,1.E0));
#604=AXIS2_PLACEMENT_3D('',#601,#602,#603);
#606=CARTESIAN_POINT('',(3.3E0,0.E0,0.E0));
#607=DIRECTION('',(1.E0,0.E0,0.E0));
#608=DIRECTION('',(0.E0,0.E0,1.E0));
#609=AXIS2_PLACEMENT_3D('',#606,#607,#608);
#611=DIRECTION('',(1.E0,0.E0,0.E0));
#612=VECTOR('',#611,7.E-1);
#613=CARTESIAN_POINT('',(3.3E0,0.E0,-8.133333333333E0));
#614=LINE('',#613,#612);
#615=CARTESIAN_POINT('',(3.3E0,0.E0,0.E0));
#616=DIRECTION('',(1.E0,0.E0,0.E0));
#617=DIRECTION('',(0.E0,0.E0,-1.E0));
#618=AXIS2_PLACEMENT_3D('',#615,#616,#617);
#620=CARTESIAN_POINT('',(3.3E0,0.E0,0.E0));
#621=DIRECTION('',(1.E0,0.E0,0.E0));
#622=DIRECTION('',(0.E0,0.E0,1.E0));
#623=AXIS2_PLACEMENT_3D('',#620,#621,#622);
#625=CARTESIAN_POINT('',(3.3E0,0.E0,0.E0));
#626=DIRECTION('',(1.E0,0.E0,0.E0));
#627=DIRECTION('',(0.E0,0.E0,-1.E0));
#628=AXIS2_PLACEMENT_3D('',#625,#626,#627);
#630=DIRECTION('',(1.E0,0.E0,0.E0));
#631=VECTOR('',#630,7.E-1);
#632=CARTESIAN_POINT('',(3.3E0,0.E0,8.133333333333E0));
#633=LINE('',#632,#631);
#634=DIRECTION('',(-1.E0,0.E0,0.E0));
#635=VECTOR('',#634,6.E-1);
#636=CARTESIAN_POINT('',(3.9E0,0.E0,7.333333333333E0));
#637=LINE('',#636,#635);
#638=CARTESIAN_POINT('',(3.9E0,0.E0,0.E0));
#639=DIRECTION('',(-1.E0,0.E0,0.E0));
#640=DIRECTION('',(0.E0,0.E0,1.E0));
#641=AXIS2_PLACEMENT_3D('',#638,#639,#640);
#643=DIRECTION('',(5.144957554275E-1,0.E0,-8.574929257126E-1));
#644=VECTOR('',#643,5.830951894845E-1);
#645=CARTESIAN_POINT('',(3.9E0,0.E0,-7.333333333333E0));
#646=LINE('',#645,#644);
#647=CARTESIAN_POINT('',(4.2E0,0.E0,0.E0));
#648=DIRECTION('',(1.E0,0.E0,0.E0));
#649=DIRECTION('',(0.E0,0.E0,-1.E0));
#650=AXIS2_PLACEMENT_3D('',#647,#648,#649);
#652=DIRECTION('',(5.144957554275E-1,0.E0,8.574929257126E-1));
#653=VECTOR('',#652,5.830951894845E-1);
#654=CARTESIAN_POINT('',(3.9E0,0.E0,7.333333333333E0));
#655=LINE('',#654,#653);
#656=CARTESIAN_POINT('',(4.2E0,0.E0,0.E0));
#657=DIRECTION('',(1.E0,0.E0,0.E0));
#658=DIRECTION('',(0.E0,0.E0,1.E0));
#659=AXIS2_PLACEMENT_3D('',#656,#657,#658);
#661=CARTESIAN_POINT('',(3.9E0,0.E0,0.E0));
#662=DIRECTION('',(-1.E0,0.E0,0.E0));
#663=DIRECTION('',(0.E0,0.E0,-1.E0));
#664=AXIS2_PLACEMENT_3D('',#661,#662,#663);
#666=DIRECTION('',(-1.E0,0.E0,-1.776356839400E-14));
#667=VECTOR('',#666,3.E-1);
#668=CARTESIAN_POINT('',(4.5E0,0.E0,-7.833333333333E0));
#669=LINE('',#668,#667);
#670=DIRECTION('',(-1.E0,0.E0,1.776356839400E-14));
#671=VECTOR('',#670,3.E-1);
#672=CARTESIAN_POINT('',(4.5E0,0.E0,7.833333333333E0));
#673=LINE('',#672,#671);
#674=CARTESIAN_POINT('',(4.5E0,0.E0,0.E0));
#675=DIRECTION('',(-1.E0,0.E0,0.E0));
#676=DIRECTION('',(0.E0,0.E0,1.E0));
#677=AXIS2_PLACEMENT_3D('',#674,#675,#676);
#679=CARTESIAN_POINT('',(4.5E0,0.E0,0.E0));
#680=DIRECTION('',(-1.E0,0.E0,0.E0));
#681=DIRECTION('',(0.E0,0.E0,-1.E0));
#682=AXIS2_PLACEMENT_3D('',#679,#680,#681);
#684=CARTESIAN_POINT('',(4.5E0,0.E0,0.E0));
#685=DIRECTION('',(1.E0,0.E0,0.E0));
#686=DIRECTION('',(0.E0,0.E0,-1.E0));
#687=AXIS2_PLACEMENT_3D('',#684,#685,#686);
#689=CARTESIAN_POINT('',(4.5E0,0.E0,0.E0));
#690=DIRECTION('',(1.E0,0.E0,0.E0));
#691=DIRECTION('',(0.E0,0.E0,1.E0));
#692=AXIS2_PLACEMENT_3D('',#689,#690,#691);
#694=CARTESIAN_POINT('',(3.9E0,0.E0,0.E0));
#695=DIRECTION('',(1.E0,0.E0,0.E0));
#696=DIRECTION('',(0.E0,0.E0,-1.E0));
#697=AXIS2_PLACEMENT_3D('',#694,#695,#696);
#699=CARTESIAN_POINT('',(3.9E0,0.E0,5.6E0));
#700=DIRECTION('',(0.E0,-1.E0,0.E0));
#701=DIRECTION('',(0.E0,0.E0,-1.E0));
#702=AXIS2_PLACEMENT_3D('',#699,#700,#701);
#704=DIRECTION('',(-1.E0,0.E0,0.E0));
#705=VECTOR('',#704,7.8E0);
#706=CARTESIAN_POINT('',(3.9E0,0.E0,-5.E0));
#707=LINE('',#706,#705);
#708=DIRECTION('',(-1.E0,0.E0,0.E0));
#709=VECTOR('',#708,7.8E0);
#710=CARTESIAN_POINT('',(3.9E0,0.E0,5.E0));
#711=LINE('',#710,#709);
#712=CARTESIAN_POINT('',(3.9E0,0.E0,-5.6E0));
#713=DIRECTION('',(0.E0,1.E0,0.E0));
#714=DIRECTION('',(0.E0,0.E0,1.E0));
#715=AXIS2_PLACEMENT_3D('',#712,#713,#714);
#717=CARTESIAN_POINT('',(3.9E0,0.E0,0.E0));
#718=DIRECTION('',(1.E0,0.E0,0.E0));
#719=DIRECTION('',(0.E0,0.E0,1.E0));
#720=AXIS2_PLACEMENT_3D('',#717,#718,#719);
#722=CARTESIAN_POINT('',(-3.9E0,0.E0,-5.6E0));
#723=DIRECTION('',(0.E0,1.E0,0.E0));
#724=DIRECTION('',(-1.E0,0.E0,0.E0));
#725=AXIS2_PLACEMENT_3D('',#722,#723,#724);
#727=CARTESIAN_POINT('',(-3.9E0,0.E0,0.E0));
#728=DIRECTION('',(-1.E0,0.E0,0.E0));
#729=DIRECTION('',(0.E0,0.E0,-1.E0));
#730=AXIS2_PLACEMENT_3D('',#727,#728,#729);
#732=CARTESIAN_POINT('',(-3.9E0,0.E0,5.6E0));
#733=DIRECTION('',(0.E0,-1.E0,0.E0));
#734=DIRECTION('',(-1.E0,0.E0,0.E0));
#735=AXIS2_PLACEMENT_3D('',#732,#733,#734);
#737=CARTESIAN_POINT('',(-3.9E0,0.E0,0.E0));
#738=DIRECTION('',(-1.E0,0.E0,0.E0));
#739=DIRECTION('',(0.E0,0.E0,1.E0));
#740=AXIS2_PLACEMENT_3D('',#737,#738,#739);
#742=CARTESIAN_POINT('',(-4.5E0,0.E0,0.E0));
#743=DIRECTION('',(1.E0,0.E0,0.E0));
#744=DIRECTION('',(0.E0,0.E0,-1.E0));
#745=AXIS2_PLACEMENT_3D('',#742,#743,#744);
#747=CARTESIAN_POINT('',(-4.5E0,0.E0,0.E0));
#748=DIRECTION('',(1.E0,0.E0,0.E0));
#749=DIRECTION('',(0.E0,0.E0,1.E0));
#750=AXIS2_PLACEMENT_3D('',#747,#748,#749);
#752=CARTESIAN_POINT('',(-4.5E0,0.E0,0.E0));
#753=DIRECTION('',(-1.E0,0.E0,0.E0));
#754=DIRECTION('',(0.E0,0.E0,1.E0));
#755=AXIS2_PLACEMENT_3D('',#752,#753,#754);
#757=CARTESIAN_POINT('',(-4.5E0,0.E0,0.E0));
#758=DIRECTION('',(-1.E0,0.E0,0.E0));
#759=DIRECTION('',(0.E0,0.E0,-1.E0));
#760=AXIS2_PLACEMENT_3D('',#757,#758,#759);
#762=DIRECTION('',(-1.E0,0.E0,-1.776356839400E-14));
#763=VECTOR('',#762,3.E-1);
#764=CARTESIAN_POINT('',(-4.2E0,0.E0,7.833333333333E0));
#765=LINE('',#764,#763);
#766=CARTESIAN_POINT('',(-3.9E0,0.E0,0.E0));
#767=DIRECTION('',(1.E0,0.E0,0.E0));
#768=DIRECTION('',(0.E0,0.E0,-1.E0));
#769=AXIS2_PLACEMENT_3D('',#766,#767,#768);
#771=DIRECTION('',(-5.144957554275E-1,0.E0,8.574929257126E-1));
#772=VECTOR('',#771,5.830951894845E-1);
#773=CARTESIAN_POINT('',(-3.9E0,0.E0,7.333333333333E0));
#774=LINE('',#773,#772);
#775=CARTESIAN_POINT('',(-4.2E0,0.E0,0.E0));
#776=DIRECTION('',(-1.E0,0.E0,0.E0));
#777=DIRECTION('',(0.E0,0.E0,1.E0));
#778=AXIS2_PLACEMENT_3D('',#775,#776,#777);
#780=DIRECTION('',(-1.E0,0.E0,0.E0));
#781=VECTOR('',#780,6.E-1);
#782=CARTESIAN_POINT('',(-3.3E0,0.E0,7.333333333333E0));
#783=LINE('',#782,#781);
#784=DIRECTION('',(-1.E0,0.E0,0.E0));
#785=VECTOR('',#784,6.E-1);
#786=CARTESIAN_POINT('',(-3.3E0,0.E0,-7.333333333333E0));
#787=LINE('',#786,#785);
#788=DIRECTION('',(-5.144957554275E-1,0.E0,-8.574929257126E-1));
#789=VECTOR('',#788,5.830951894845E-1);
#790=CARTESIAN_POINT('',(-3.9E0,0.E0,-7.333333333333E0));
#791=LINE('',#790,#789);
#792=CARTESIAN_POINT('',(-4.2E0,0.E0,0.E0));
#793=DIRECTION('',(-1.E0,0.E0,0.E0));
#794=DIRECTION('',(0.E0,0.E0,-1.E0));
#795=AXIS2_PLACEMENT_3D('',#792,#793,#794);
#797=CARTESIAN_POINT('',(-3.9E0,0.E0,0.E0));
#798=DIRECTION('',(1.E0,0.E0,0.E0));
#799=DIRECTION('',(0.E0,0.E0,1.E0));
#800=AXIS2_PLACEMENT_3D('',#797,#798,#799);
#802=DIRECTION('',(-1.E0,0.E0,1.776356839400E-14));
#803=VECTOR('',#802,3.E-1);
#804=CARTESIAN_POINT('',(-4.2E0,0.E0,-7.833333333333E0));
#805=LINE('',#804,#803);
#806=DIRECTION('',(-1.E0,0.E0,0.E0));
#807=VECTOR('',#806,6.E-1);
#808=CARTESIAN_POINT('',(3.9E0,0.E0,-7.333333333333E0));
#809=LINE('',#808,#807);
#810=DIRECTION('',(-7.337606740202E-1,0.E0,6.794080314961E-1));
#811=VECTOR('',#810,1.051791462701E0);
#812=CARTESIAN_POINT('',(4.271763212601E0,0.E0,1.103945435119E1));
#813=LINE('',#812,#811);
#814=CARTESIAN_POINT('',(-4.E0,0.E0,-1.074595008159E1));
#815=DIRECTION('',(0.E0,1.E0,0.E0));
#816=DIRECTION('',(-6.794080315069E-1,0.E0,-7.337606740102E-1));
#817=AXIS2_PLACEMENT_3D('',#814,#815,#816);
#819=CARTESIAN_POINT('',(-4.271763212599E0,0.E0,0.E0));
#820=DIRECTION('',(1.E0,0.E0,0.E0));
#821=DIRECTION('',(0.E0,0.E0,1.E0));
#822=AXIS2_PLACEMENT_3D('',#819,#820,#821);
#824=CARTESIAN_POINT('',(-4.E0,0.E0,8.133333333333E0));
#825=CARTESIAN_POINT('',(-4.E0,0.E0,-8.133333333333E0));
#826=VERTEX_POINT('',#824);
#827=VERTEX_POINT('',#825);
#828=CARTESIAN_POINT('',(-4.028501414858E0,0.E0,1.206376751558E1));
#829=CARTESIAN_POINT('',(-4.028501414858E0,0.E0,-1.206376751558E1));
#830=VERTEX_POINT('',#828);
#831=VERTEX_POINT('',#829);
#832=CARTESIAN_POINT('',(-3.786761924205E0,0.E0,-1.246666666667E1));
#833=VERTEX_POINT('',#832);
#834=CARTESIAN_POINT('',(-3.786761924202E0,0.E0,1.246666666667E1));
#835=VERTEX_POINT('',#834);
#836=CARTESIAN_POINT('',(-3.5E0,0.E0,-1.246666666667E1));
#837=VERTEX_POINT('',#836);
#838=CARTESIAN_POINT('',(-3.5E0,0.E0,1.246666666667E1));
#839=VERTEX_POINT('',#838);
#840=CARTESIAN_POINT('',(-3.5E0,0.E0,-1.175404991841E1));
#841=CARTESIAN_POINT('',(-3.5E0,0.E0,1.175404991841E1));
#842=VERTEX_POINT('',#840);
#843=VERTEX_POINT('',#841);
#844=CARTESIAN_POINT('',(-4.271763212601E0,0.E0,1.103945435119E1));
#845=VERTEX_POINT('',#844);
#846=CARTESIAN_POINT('',(-4.271763212601E0,0.E0,-1.103945435119E1));
#847=VERTEX_POINT('',#846);
#848=CARTESIAN_POINT('',(-4.4E0,0.E0,1.074595008159E1));
#849=VERTEX_POINT('',#848);
#850=CARTESIAN_POINT('',(-4.4E0,0.E0,-1.074595008159E1));
#851=VERTEX_POINT('',#850);
#852=CARTESIAN_POINT('',(-4.4E0,0.E0,8.533333333333E0));
#853=CARTESIAN_POINT('',(-4.4E0,0.E0,-8.533333333333E0));
#854=VERTEX_POINT('',#852);
#855=VERTEX_POINT('',#853);
#856=CARTESIAN_POINT('',(4.4E0,0.E0,-8.533333333333E0));
#857=CARTESIAN_POINT('',(4.E0,0.E0,-8.133333333333E0));
#858=VERTEX_POINT('',#856);
#859=VERTEX_POINT('',#857);
#860=CARTESIAN_POINT('',(4.E0,0.E0,8.133333333333E0));
#861=VERTEX_POINT('',#860);
#862=CARTESIAN_POINT('',(4.4E0,0.E0,8.533333333333E0));
#863=VERTEX_POINT('',#862);
#864=CARTESIAN_POINT('',(4.4E0,0.E0,1.074595008159E1));
#865=CARTESIAN_POINT('',(4.4E0,0.E0,-1.074595008159E1));
#866=VERTEX_POINT('',#864);
#867=VERTEX_POINT('',#865);
#868=CARTESIAN_POINT('',(4.271763212603E0,0.E0,-1.103945435119E1));
#869=VERTEX_POINT('',#868);
#870=CARTESIAN_POINT('',(4.271763212603E0,0.E0,1.103945435119E1));
#871=VERTEX_POINT('',#870);
#872=CARTESIAN_POINT('',(3.5E0,0.E0,-1.175404991841E1));
#873=VERTEX_POINT('',#872);
#874=CARTESIAN_POINT('',(3.5E0,0.E0,1.175404991841E1));
#875=VERTEX_POINT('',#874);
#876=CARTESIAN_POINT('',(3.5E0,0.E0,1.246666666667E1));
#877=CARTESIAN_POINT('',(3.5E0,0.E0,-1.246666666667E1));
#878=VERTEX_POINT('',#876);
#879=VERTEX_POINT('',#877);
#880=CARTESIAN_POINT('',(3.786761924205E0,0.E0,1.246666666667E1));
#881=VERTEX_POINT('',#880);
#882=CARTESIAN_POINT('',(3.786761924202E0,0.E0,-1.246666666667E1));
#883=VERTEX_POINT('',#882);
#884=CARTESIAN_POINT('',(4.028501414857E0,0.E0,1.206376751558E1));
#885=VERTEX_POINT('',#884);
#886=CARTESIAN_POINT('',(4.028501414857E0,0.E0,-1.206376751558E1));
#887=VERTEX_POINT('',#886);
#888=CARTESIAN_POINT('',(4.5E0,0.E0,1.44E1));
#889=CARTESIAN_POINT('',(4.5E0,0.E0,-1.44E1));
#890=VERTEX_POINT('',#888);
#891=VERTEX_POINT('',#889);
#892=CARTESIAN_POINT('',(3.9E0,0.E0,1.5E1));
#893=VERTEX_POINT('',#892);
#894=CARTESIAN_POINT('',(3.9E0,0.E0,-1.5E1));
#895=VERTEX_POINT('',#894);
#896=CARTESIAN_POINT('',(4.5E0,0.E0,-1.216666666667E1));
#897=CARTESIAN_POINT('',(4.5E0,0.E0,1.216666666667E1));
#898=VERTEX_POINT('',#896);
#899=VERTEX_POINT('',#897);
#900=CARTESIAN_POINT('',(-3.9E0,0.E0,-1.5E1));
#901=VERTEX_POINT('',#900);
#902=CARTESIAN_POINT('',(-3.9E0,0.E0,1.5E1));
#903=VERTEX_POINT('',#902);
#904=CARTESIAN_POINT('',(-4.5E0,0.E0,1.44E1));
#905=VERTEX_POINT('',#904);
#906=CARTESIAN_POINT('',(-4.5E0,0.E0,-1.44E1));
#907=VERTEX_POINT('',#906);
#908=CARTESIAN_POINT('',(-4.5E0,0.E0,1.216666666667E1));
#909=CARTESIAN_POINT('',(-4.5E0,0.E0,-1.216666666667E1));
#910=VERTEX_POINT('',#908);
#911=VERTEX_POINT('',#909);
#912=CARTESIAN_POINT('',(-4.200000000012E0,0.E0,-1.216666666667E1));
#913=CARTESIAN_POINT('',(-4.200000000012E0,0.E0,1.216666666667E1));
#914=VERTEX_POINT('',#912);
#915=VERTEX_POINT('',#913);
#916=CARTESIAN_POINT('',(4.200000000012E0,0.E0,1.216666666667E1));
#917=CARTESIAN_POINT('',(4.200000000012E0,0.E0,-1.216666666667E1));
#918=VERTEX_POINT('',#916);
#919=VERTEX_POINT('',#917);
#920=CARTESIAN_POINT('',(3.3E0,0.E0,-7.333333333333E0));
#921=CARTESIAN_POINT('',(3.3E0,0.E0,7.333333333333E0));
#922=VERTEX_POINT('',#920);
#923=VERTEX_POINT('',#921);
#924=CARTESIAN_POINT('',(3.9E0,0.E0,7.333333333333E0));
#925=CARTESIAN_POINT('',(3.9E0,0.E0,-7.333333333333E0));
#926=VERTEX_POINT('',#924);
#927=VERTEX_POINT('',#925);
#928=CARTESIAN_POINT('',(4.2E0,0.E0,-7.833333333333E0));
#929=VERTEX_POINT('',#928);
#930=CARTESIAN_POINT('',(4.2E0,0.E0,7.833333333333E0));
#931=VERTEX_POINT('',#930);
#932=CARTESIAN_POINT('',(4.5E0,0.E0,-7.833333333333E0));
#933=VERTEX_POINT('',#932);
#934=CARTESIAN_POINT('',(4.5E0,0.E0,7.833333333333E0));
#935=VERTEX_POINT('',#934);
#936=CARTESIAN_POINT('',(4.5E0,0.E0,-5.6E0));
#937=CARTESIAN_POINT('',(4.5E0,0.E0,5.6E0));
#938=VERTEX_POINT('',#936);
#939=VERTEX_POINT('',#937);
#940=CARTESIAN_POINT('',(3.9E0,0.E0,-5.E0));
#941=CARTESIAN_POINT('',(3.9E0,0.E0,5.E0));
#942=VERTEX_POINT('',#940);
#943=VERTEX_POINT('',#941);
#944=CARTESIAN_POINT('',(-3.9E0,0.E0,-5.E0));
#945=VERTEX_POINT('',#944);
#946=CARTESIAN_POINT('',(-3.9E0,0.E0,5.E0));
#947=VERTEX_POINT('',#946);
#948=CARTESIAN_POINT('',(-4.5E0,0.E0,-5.6E0));
#949=VERTEX_POINT('',#948);
#950=CARTESIAN_POINT('',(-4.5E0,0.E0,5.6E0));
#951=VERTEX_POINT('',#950);
#952=CARTESIAN_POINT('',(-4.5E0,0.E0,-7.833333333333E0));
#953=CARTESIAN_POINT('',(-4.5E0,0.E0,7.833333333333E0));
#954=VERTEX_POINT('',#952);
#955=VERTEX_POINT('',#953);
#956=CARTESIAN_POINT('',(-4.2E0,0.E0,7.833333333333E0));
#957=CARTESIAN_POINT('',(-4.2E0,0.E0,-7.833333333333E0));
#958=VERTEX_POINT('',#956);
#959=VERTEX_POINT('',#957);
#960=CARTESIAN_POINT('',(-3.9E0,0.E0,-7.333333333333E0));
#961=CARTESIAN_POINT('',(-3.9E0,0.E0,7.333333333333E0));
#962=VERTEX_POINT('',#960);
#963=VERTEX_POINT('',#961);
#964=CARTESIAN_POINT('',(-3.3E0,0.E0,7.333333333333E0));
#965=CARTESIAN_POINT('',(-3.3E0,0.E0,-7.333333333333E0));
#966=VERTEX_POINT('',#964);
#967=VERTEX_POINT('',#965);
#968=CARTESIAN_POINT('',(-3.3E0,0.E0,8.133333333333E0));
#969=CARTESIAN_POINT('',(-3.3E0,0.E0,-8.133333333333E0));
#970=VERTEX_POINT('',#968);
#971=VERTEX_POINT('',#969);
#972=CARTESIAN_POINT('',(3.3E0,0.E0,-8.133333333333E0));
#973=CARTESIAN_POINT('',(3.3E0,0.E0,8.133333333333E0));
#974=VERTEX_POINT('',#972);
#975=VERTEX_POINT('',#973);
#976=CARTESIAN_POINT('',(0.E0,0.E0,0.E0));
#977=DIRECTION('',(-1.E0,0.E0,0.E0));
#978=DIRECTION('',(0.E0,0.E0,1.E0));
#979=AXIS2_PLACEMENT_3D('',#976,#977,#978);
#980=CYLINDRICAL_SURFACE('',#979,8.133333333333E0);
#982=ORIENTED_EDGE('',*,*,#981,.T.);
#984=ORIENTED_EDGE('',*,*,#983,.T.);
#986=ORIENTED_EDGE('',*,*,#985,.F.);
#988=ORIENTED_EDGE('',*,*,#987,.F.);
#989=EDGE_LOOP('',(#982,#984,#986,#988));
#990=FACE_OUTER_BOUND('',#989,.F.);
#991=ADVANCED_FACE('',(#990),#980,.F.);
#992=CARTESIAN_POINT('',(-3.3E0,8.333333333333E0,0.E0));
#993=DIRECTION('',(1.E0,0.E0,0.E0));
#994=DIRECTION('',(0.E0,0.E0,-1.E0));
#995=AXIS2_PLACEMENT_3D('',#992,#993,#994);
#996=PLANE('',#995);
#997=ORIENTED_EDGE('',*,*,#981,.F.);
#999=ORIENTED_EDGE('',*,*,#998,.F.);
#1000=EDGE_LOOP('',(#997,#999));
#1001=FACE_OUTER_BOUND('',#1000,.F.);
#1003=ORIENTED_EDGE('',*,*,#1002,.T.);
#1005=ORIENTED_EDGE('',*,*,#1004,.T.);
#1006=EDGE_LOOP('',(#1003,#1005));
#1007=FACE_BOUND('',#1006,.F.);
#1008=ADVANCED_FACE('',(#1001,#1007),#996,.F.);
#1009=CARTESIAN_POINT('',(0.E0,0.E0,0.E0));
#1010=DIRECTION('',(-1.E0,0.E0,0.E0));
#1011=DIRECTION('',(0.E0,0.E0,1.E0));
#1012=AXIS2_PLACEMENT_3D('',#1009,#1010,#1011);
#1013=CYLINDRICAL_SURFACE('',#1012,8.133333333333E0);
#1014=ORIENTED_EDGE('',*,*,#998,.T.);
#1015=ORIENTED_EDGE('',*,*,#987,.T.);
#1017=ORIENTED_EDGE('',*,*,#1016,.F.);
#1018=ORIENTED_EDGE('',*,*,#983,.F.);
#1019=EDGE_LOOP('',(#1014,#1015,#1017,#1018));
#1020=FACE_OUTER_BOUND('',#1019,.F.);
#1021=ADVANCED_FACE('',(#1020),#1013,.F.);
#1022=CARTESIAN_POINT('',(-4.E0,0.E0,0.E0));
#1023=DIRECTION('',(-1.E0,0.E0,0.E0));
#1024=DIRECTION('',(0.E0,0.E0,1.E0));
#1025=AXIS2_PLACEMENT_3D('',#1022,#1023,#1024);
#1026=TOROIDAL_SURFACE('',#1025,8.533333333333E0,4.E-1);
#1028=ORIENTED_EDGE('',*,*,#1027,.T.);
#1029=ORIENTED_EDGE('',*,*,#1016,.T.);
#1031=ORIENTED_EDGE('',*,*,#1030,.F.);
#1033=ORIENTED_EDGE('',*,*,#1032,.F.);
#1034=EDGE_LOOP('',(#1028,#1029,#1031,#1033));
#1035=FACE_OUTER_BOUND('',#1034,.F.);
#1036=ADVANCED_FACE('',(#1035),#1026,.T.);
#1037=CARTESIAN_POINT('',(-4.E0,0.E0,0.E0));
#1038=DIRECTION('',(-1.E0,0.E0,0.E0));
#1039=DIRECTION('',(0.E0,0.E0,1.E0));
#1040=AXIS2_PLACEMENT_3D('',#1037,#1038,#1039);
#1041=TOROIDAL_SURFACE('',#1040,8.533333333333E0,4.E-1);
#1043=ORIENTED_EDGE('',*,*,#1042,.F.);
#1044=ORIENTED_EDGE('',*,*,#1030,.T.);
#1045=ORIENTED_EDGE('',*,*,#985,.T.);
#1046=ORIENTED_EDGE('',*,*,#1027,.F.);
#1047=EDGE_LOOP('',(#1043,#1044,#1045,#1046));
#1048=FACE_OUTER_BOUND('',#1047,.F.);
#1049=ADVANCED_FACE('',(#1048),#1041,.T.);
#1050=CARTESIAN_POINT('',(-4.4E0,1.074595008159E1,0.E0));
#1051=DIRECTION('',(1.E0,0.E0,0.E0));
#1052=DIRECTION('',(0.E0,0.E0,-1.E0));
#1053=AXIS2_PLACEMENT_3D('',#1050,#1051,#1052);
#1054=PLANE('',#1053);
#1056=ORIENTED_EDGE('',*,*,#1055,.T.);
#1058=ORIENTED_EDGE('',*,*,#1057,.T.);
#1059=EDGE_LOOP('',(#1056,#1058));
#1060=FACE_OUTER_BOUND('',#1059,.F.);
#1061=ORIENTED_EDGE('',*,*,#1042,.T.);
#1062=ORIENTED_EDGE('',*,*,#1032,.T.);
#1063=EDGE_LOOP('',(#1061,#1062));
#1064=FACE_BOUND('',#1063,.F.);
#1065=ADVANCED_FACE('',(#1060,#1064),#1054,.F.);
#1066=CARTESIAN_POINT('',(-4.E0,0.E0,0.E0));
#1067=DIRECTION('',(-1.E0,0.E0,0.E0));
#1068=DIRECTION('',(0.E0,0.E0,1.E0));
#1069=AXIS2_PLACEMENT_3D('',#1066,#1067,#1068);
#1070=TOROIDAL_SURFACE('',#1069,1.074595008159E1,4.E-1);
#1072=ORIENTED_EDGE('',*,*,#1071,.T.);
#1074=ORIENTED_EDGE('',*,*,#1073,.T.);
#1075=ORIENTED_EDGE('',*,*,#1055,.F.);
#1077=ORIENTED_EDGE('',*,*,#1076,.F.);
#1078=EDGE_LOOP('',(#1072,#1074,#1075,#1077));
#1079=FACE_OUTER_BOUND('',#1078,.F.);
#1080=ADVANCED_FACE('',(#1079),#1070,.T.);
#1081=CARTESIAN_POINT('',(-3.885881606299E0,0.E0,0.E0));
#1082=DIRECTION('',(1.E0,0.E0,0.E0));
#1083=DIRECTION('',(0.E0,0.E0,-1.E0));
#1084=AXIS2_PLACEMENT_3D('',#1081,#1082,#1083);
#1085=CONICAL_SURFACE('',#1084,1.139675213480E1,4.279740183823E1);
#1086=ORIENTED_EDGE('',*,*,#1071,.F.);
#1088=ORIENTED_EDGE('',*,*,#1087,.T.);
#1090=ORIENTED_EDGE('',*,*,#1089,.F.);
#1092=ORIENTED_EDGE('',*,*,#1091,.F.);
#1093=EDGE_LOOP('',(#1086,#1088,#1090,#1092));
#1094=FACE_OUTER_BOUND('',#1093,.F.);
#1095=ADVANCED_FACE('',(#1094),#1085,.T.);
#1096=CARTESIAN_POINT('',(-3.885881606299E0,0.E0,0.E0));
#1097=DIRECTION('',(1.E0,0.E0,0.E0));
#1098=DIRECTION('',(0.E0,0.E0,-1.E0));
#1099=AXIS2_PLACEMENT_3D('',#1096,#1097,#1098);
#1100=CONICAL_SURFACE('',#1099,1.139675213480E1,4.279740183823E1);
#1101=ORIENTED_EDGE('',*,*,#1091,.T.);
#1103=ORIENTED_EDGE('',*,*,#1102,.F.);
#1104=ORIENTED_EDGE('',*,*,#1087,.F.);
#1106=ORIENTED_EDGE('',*,*,#1105,.F.);
#1107=EDGE_LOOP('',(#1101,#1103,#1104,#1106));
#1108=FACE_OUTER_BOUND('',#1107,.F.);
#1109=ADVANCED_FACE('',(#1108),#1100,.T.);
#1110=CARTESIAN_POINT('',(-3.5E0,1.266666666667E1,0.E0));
#1111=DIRECTION('',(1.E0,0.E0,0.E0));
#1112=DIRECTION('',(0.E0,0.E0,-1.E0));
#1113=AXIS2_PLACEMENT_3D('',#1110,#1111,#1112);
#1114=PLANE('',#1113);
#1116=ORIENTED_EDGE('',*,*,#1115,.T.);
#1118=ORIENTED_EDGE('',*,*,#1117,.T.);
#1119=EDGE_LOOP('',(#1116,#1118));
#1120=FACE_OUTER_BOUND('',#1119,.F.);
#1121=ORIENTED_EDGE('',*,*,#1102,.T.);
#1122=ORIENTED_EDGE('',*,*,#1089,.T.);
#1123=EDGE_LOOP('',(#1121,#1122));
#1124=FACE_BOUND('',#1123,.F.);
#1125=ADVANCED_FACE('',(#1120,#1124),#1114,.F.);
#1126=CARTESIAN_POINT('',(0.E0,0.E0,0.E0));
#1127=DIRECTION('',(-1.E0,0.E0,0.E0));
#1128=DIRECTION('',(0.E0,0.E0,1.E0));
#1129=AXIS2_PLACEMENT_3D('',#1126,#1127,#1128);
#1130=CYLINDRICAL_SURFACE('',#1129,1.246666666667E1);
#1132=ORIENTED_EDGE('',*,*,#1131,.T.);
#1134=ORIENTED_EDGE('',*,*,#1133,.F.);
#1136=ORIENTED_EDGE('',*,*,#1135,.F.);
#1137=ORIENTED_EDGE('',*,*,#1115,.F.);
#1138=EDGE_LOOP('',(#1132,#1134,#1136,#1137));
#1139=FACE_OUTER_BOUND('',#1138,.F.);
#1140=ADVANCED_FACE('',(#1139),#1130,.F.);
#1141=CARTESIAN_POINT('',(0.E0,0.E0,0.E0));
#1142=DIRECTION('',(-1.E0,0.E0,0.E0));
#1143=DIRECTION('',(0.E0,0.E0,1.E0));
#1144=AXIS2_PLACEMENT_3D('',#1141,#1142,#1143);
#1145=CYLINDRICAL_SURFACE('',#1144,1.246666666667E1);
#1146=ORIENTED_EDGE('',*,*,#1117,.F.);
#1147=ORIENTED_EDGE('',*,*,#1135,.T.);
#1149=ORIENTED_EDGE('',*,*,#1148,.F.);
#1150=ORIENTED_EDGE('',*,*,#1131,.F.);
#1151=EDGE_LOOP('',(#1146,#1147,#1149,#1150));
#1152=FACE_OUTER_BOUND('',#1151,.F.);
#1153=ADVANCED_FACE('',(#1152),#1145,.F.);
#1154=CARTESIAN_POINT('',(-3.907631669530E0,0.E0,0.E0));
#1155=DIRECTION('',(1.E0,0.E0,0.E0));
#1156=DIRECTION('',(0.E0,0.E0,-1.E0));
#1157=AXIS2_PLACEMENT_3D('',#1154,#1155,#1156);
#1158=CONICAL_SURFACE('',#1157,1.226521709112E1,5.903624346793E1);
#1160=ORIENTED_EDGE('',*,*,#1159,.F.);
#1162=ORIENTED_EDGE('',*,*,#1161,.T.);
#1163=ORIENTED_EDGE('',*,*,#1148,.T.);
#1165=ORIENTED_EDGE('',*,*,#1164,.F.);
#1166=EDGE_LOOP('',(#1160,#1162,#1163,#1165));
#1167=FACE_OUTER_BOUND('',#1166,.F.);
#1168=ADVANCED_FACE('',(#1167),#1158,.F.);
#1169=CARTESIAN_POINT('',(-4.114250707435E0,0.E0,0.E0));
#1170=DIRECTION('',(-1.E0,0.E0,0.E0));
#1171=DIRECTION('',(0.E0,0.E0,1.E0));
#1172=AXIS2_PLACEMENT_3D('',#1169,#1170,#1171);
#1173=CONICAL_SURFACE('',#1172,1.211521709112E1,3.096375653207E1);
#1175=ORIENTED_EDGE('',*,*,#1174,.F.);
#1177=ORIENTED_EDGE('',*,*,#1176,.F.);
#1178=ORIENTED_EDGE('',*,*,#1159,.T.);
#1180=ORIENTED_EDGE('',*,*,#1179,.T.);
#1181=EDGE_LOOP('',(#1175,#1177,#1178,#1180));
#1182=FACE_OUTER_BOUND('',#1181,.F.);
#1183=ADVANCED_FACE('',(#1182),#1173,.F.);
#1184=CARTESIAN_POINT('',(0.E0,0.E0,0.E0));
#1185=DIRECTION('',(-1.E0,0.E0,0.E0));
#1186=DIRECTION('',(0.E0,0.E0,1.E0));
#1187=AXIS2_PLACEMENT_3D('',#1184,#1185,#1186);
#1188=CYLINDRICAL_SURFACE('',#1187,1.216666666667E1);
#1189=ORIENTED_EDGE('',*,*,#1174,.T.);
#1191=ORIENTED_EDGE('',*,*,#1190,.T.);
#1193=ORIENTED_EDGE('',*,*,#1192,.F.);
#1195=ORIENTED_EDGE('',*,*,#1194,.F.);
#1196=EDGE_LOOP('',(#1189,#1191,#1193,#1195));
#1197=FACE_OUTER_BOUND('',#1196,.F.);
#1198=ADVANCED_FACE('',(#1197),#1188,.F.);
#1199=CARTESIAN_POINT('',(0.E0,0.E0,0.E0));
#1200=DIRECTION('',(-1.E0,0.E0,0.E0));
#1201=DIRECTION('',(0.E0,0.E0,1.E0));
#1202=AXIS2_PLACEMENT_3D('',#1199,#1200,#1201);
#1203=CYLINDRICAL_SURFACE('',#1202,1.216666666667E1);
#1205=ORIENTED_EDGE('',*,*,#1204,.T.);
#1206=ORIENTED_EDGE('',*,*,#1194,.T.);
#1208=ORIENTED_EDGE('',*,*,#1207,.F.);
#1209=ORIENTED_EDGE('',*,*,#1190,.F.);
#1210=EDGE_LOOP('',(#1205,#1206,#1208,#1209));
#1211=FACE_OUTER_BOUND('',#1210,.F.);
#1212=ADVANCED_FACE('',(#1211),#1203,.F.);
#1213=CARTESIAN_POINT('',(-4.114250707435E0,0.E0,0.E0));
#1214=DIRECTION('',(-1.E0,0.E0,0.E0));
#1215=DIRECTION('',(0.E0,0.E0,1.E0));
#1216=AXIS2_PLACEMENT_3D('',#1213,#1214,#1215);
#1217=CONICAL_SURFACE('',#1216,1.211521709112E1,3.096375653207E1);
#1218=ORIENTED_EDGE('',*,*,#1204,.F.);
#1219=ORIENTED_EDGE('',*,*,#1179,.F.);
#1221=ORIENTED_EDGE('',*,*,#1220,.T.);
#1222=ORIENTED_EDGE('',*,*,#1176,.T.);
#1223=EDGE_LOOP('',(#1218,#1219,#1221,#1222));
#1224=FACE_OUTER_BOUND('',#1223,.F.);
#1225=ADVANCED_FACE('',(#1224),#1217,.F.);
#1226=CARTESIAN_POINT('',(-3.907631669530E0,0.E0,0.E0));
#1227=DIRECTION('',(1.E0,0.E0,0.E0));
#1228=DIRECTION('',(0.E0,0.E0,-1.E0));
#1229=AXIS2_PLACEMENT_3D('',#1226,#1227,#1228);
#1230=CONICAL_SURFACE('',#1229,1.226521709112E1,5.903624346793E1);
#1231=ORIENTED_EDGE('',*,*,#1164,.T.);
#1232=ORIENTED_EDGE('',*,*,#1133,.T.);
#1233=ORIENTED_EDGE('',*,*,#1161,.F.);
#1234=ORIENTED_EDGE('',*,*,#1220,.F.);
#1235=EDGE_LOOP('',(#1231,#1232,#1233,#1234));
#1236=FACE_OUTER_BOUND('',#1235,.F.);
#1237=ADVANCED_FACE('',(#1236),#1230,.F.);
#1238=CARTESIAN_POINT('',(-4.5E0,1.216666666667E1,0.E0));
#1239=DIRECTION('',(1.E0,0.E0,0.E0));
#1240=DIRECTION('',(0.E0,0.E0,-1.E0));
#1241=AXIS2_PLACEMENT_3D('',#1238,#1239,#1240);
#1242=PLANE('',#1241);
#1244=ORIENTED_EDGE('',*,*,#1243,.T.);
#1246=ORIENTED_EDGE('',*,*,#1245,.T.);
#1247=EDGE_LOOP('',(#1244,#1246));
#1248=FACE_OUTER_BOUND('',#1247,.F.);
#1249=ORIENTED_EDGE('',*,*,#1207,.T.);
#1250=ORIENTED_EDGE('',*,*,#1192,.T.);
#1251=EDGE_LOOP('',(#1249,#1250));
#1252=FACE_BOUND('',#1251,.F.);
#1253=ADVANCED_FACE('',(#1248,#1252),#1242,.F.);
#1254=CARTESIAN_POINT('',(-3.9E0,0.E0,0.E0));
#1255=DIRECTION('',(-1.E0,0.E0,0.E0));
#1256=DIRECTION('',(0.E0,0.E0,1.E0));
#1257=AXIS2_PLACEMENT_3D('',#1254,#1255,#1256);
#1258=TOROIDAL_SURFACE('',#1257,1.44E1,6.E-1);
#1260=ORIENTED_EDGE('',*,*,#1259,.T.);
#1262=ORIENTED_EDGE('',*,*,#1261,.T.);
#1263=ORIENTED_EDGE('',*,*,#1243,.F.);
#1265=ORIENTED_EDGE('',*,*,#1264,.F.);
#1266=EDGE_LOOP('',(#1260,#1262,#1263,#1265));
#1267=FACE_OUTER_BOUND('',#1266,.F.);
#1268=ADVANCED_FACE('',(#1267),#1258,.T.);
#1269=CARTESIAN_POINT('',(0.E0,0.E0,0.E0));
#1270=DIRECTION('',(-1.E0,0.E0,0.E0));
#1271=DIRECTION('',(0.E0,0.E0,1.E0));
#1272=AXIS2_PLACEMENT_3D('',#1269,#1270,#1271);
#1273=CYLINDRICAL_SURFACE('',#1272,1.5E1);
#1275=ORIENTED_EDGE('',*,*,#1274,.F.);
#1277=ORIENTED_EDGE('',*,*,#1276,.T.);
#1278=ORIENTED_EDGE('',*,*,#1259,.F.);
#1280=ORIENTED_EDGE('',*,*,#1279,.F.);
#1281=EDGE_LOOP('',(#1275,#1277,#1278,#1280));
#1282=FACE_OUTER_BOUND('',#1281,.F.);
#1283=ADVANCED_FACE('',(#1282),#1273,.T.);
#1284=CARTESIAN_POINT('',(3.9E0,0.E0,0.E0));
#1285=DIRECTION('',(-1.E0,0.E0,0.E0));
#1286=DIRECTION('',(0.E0,0.E0,1.E0));
#1287=AXIS2_PLACEMENT_3D('',#1284,#1285,#1286);
#1288=TOROIDAL_SURFACE('',#1287,1.44E1,6.E-1);
#1290=ORIENTED_EDGE('',*,*,#1289,.F.);
#1292=ORIENTED_EDGE('',*,*,#1291,.T.);
#1293=ORIENTED_EDGE('',*,*,#1274,.T.);
#1295=ORIENTED_EDGE('',*,*,#1294,.F.);
#1296=EDGE_LOOP('',(#1290,#1292,#1293,#1295));
#1297=FACE_OUTER_BOUND('',#1296,.F.);
#1298=ADVANCED_FACE('',(#1297),#1288,.T.);
#1299=CARTESIAN_POINT('',(4.5E0,1.44E1,0.E0));
#1300=DIRECTION('',(-1.E0,0.E0,0.E0));
#1301=DIRECTION('',(0.E0,0.E0,1.E0));
#1302=AXIS2_PLACEMENT_3D('',#1299,#1300,#1301);
#1303=PLANE('',#1302);
#1304=ORIENTED_EDGE('',*,*,#1289,.T.);
#1306=ORIENTED_EDGE('',*,*,#1305,.T.);
#1307=EDGE_LOOP('',(#1304,#1306));
#1308=FACE_OUTER_BOUND('',#1307,.F.);
#1310=ORIENTED_EDGE('',*,*,#1309,.T.);
#1312=ORIENTED_EDGE('',*,*,#1311,.T.);
#1313=EDGE_LOOP('',(#1310,#1312));
#1314=FACE_BOUND('',#1313,.F.);
#1315=ADVANCED_FACE('',(#1308,#1314),#1303,.F.);
#1316=CARTESIAN_POINT('',(3.9E0,0.E0,0.E0));
#1317=DIRECTION('',(-1.E0,0.E0,0.E0));
#1318=DIRECTION('',(0.E0,0.E0,1.E0));
#1319=AXIS2_PLACEMENT_3D('',#1316,#1317,#1318);
#1320=TOROIDAL_SURFACE('',#1319,1.44E1,6.E-1);
#1321=ORIENTED_EDGE('',*,*,#1294,.T.);
#1323=ORIENTED_EDGE('',*,*,#1322,.T.);
#1324=ORIENTED_EDGE('',*,*,#1291,.F.);
#1325=ORIENTED_EDGE('',*,*,#1305,.F.);
#1326=EDGE_LOOP('',(#1321,#1323,#1324,#1325));
#1327=FACE_OUTER_BOUND('',#1326,.F.);
#1328=ADVANCED_FACE('',(#1327),#1320,.T.);
#1329=CARTESIAN_POINT('',(0.E0,0.E0,0.E0));
#1330=DIRECTION('',(-1.E0,0.E0,0.E0));
#1331=DIRECTION('',(0.E0,0.E0,1.E0));
#1332=AXIS2_PLACEMENT_3D('',#1329,#1330,#1331);
#1333=CYLINDRICAL_SURFACE('',#1332,1.5E1);
#1334=ORIENTED_EDGE('',*,*,#1279,.T.);
#1336=ORIENTED_EDGE('',*,*,#1335,.F.);
#1337=ORIENTED_EDGE('',*,*,#1276,.F.);
#1338=ORIENTED_EDGE('',*,*,#1322,.F.);
#1339=EDGE_LOOP('',(#1334,#1336,#1337,#1338));
#1340=FACE_OUTER_BOUND('',#1339,.F.);
#1341=ADVANCED_FACE('',(#1340),#1333,.T.);
#1342=CARTESIAN_POINT('',(-3.9E0,0.E0,0.E0));
#1343=DIRECTION('',(-1.E0,0.E0,0.E0));
#1344=DIRECTION('',(0.E0,0.E0,1.E0));
#1345=AXIS2_PLACEMENT_3D('',#1342,#1343,#1344);
#1346=TOROIDAL_SURFACE('',#1345,1.44E1,6.E-1);
#1347=ORIENTED_EDGE('',*,*,#1264,.T.);
#1348=ORIENTED_EDGE('',*,*,#1245,.F.);
#1349=ORIENTED_EDGE('',*,*,#1261,.F.);
#1350=ORIENTED_EDGE('',*,*,#1335,.T.);
#1351=EDGE_LOOP('',(#1347,#1348,#1349,#1350));
#1352=FACE_OUTER_BOUND('',#1351,.F.);
#1353=ADVANCED_FACE('',(#1352),#1346,.T.);
#1354=CARTESIAN_POINT('',(0.E0,0.E0,0.E0));
#1355=DIRECTION('',(-1.E0,0.E0,0.E0));
#1356=DIRECTION('',(0.E0,0.E0,1.E0));
#1357=AXIS2_PLACEMENT_3D('',#1354,#1355,#1356);
#1358=CYLINDRICAL_SURFACE('',#1357,1.216666666667E1);
#1360=ORIENTED_EDGE('',*,*,#1359,.F.);
#1362=ORIENTED_EDGE('',*,*,#1361,.F.);
#1363=ORIENTED_EDGE('',*,*,#1309,.F.);
#1365=ORIENTED_EDGE('',*,*,#1364,.T.);
#1366=EDGE_LOOP('',(#1360,#1362,#1363,#1365));
#1367=FACE_OUTER_BOUND('',#1366,.F.);
#1368=ADVANCED_FACE('',(#1367),#1358,.F.);
#1369=CARTESIAN_POINT('',(4.114250707435E0,0.E0,0.E0));
#1370=DIRECTION('',(1.E0,0.E0,0.E0));
#1371=DIRECTION('',(0.E0,0.E0,1.E0));
#1372=AXIS2_PLACEMENT_3D('',#1369,#1370,#1371);
#1373=CONICAL_SURFACE('',#1372,1.211521709112E1,3.096375653207E1);
#1374=ORIENTED_EDGE('',*,*,#1359,.T.);
#1376=ORIENTED_EDGE('',*,*,#1375,.F.);
#1378=ORIENTED_EDGE('',*,*,#1377,.F.);
#1380=ORIENTED_EDGE('',*,*,#1379,.T.);
#1381=EDGE_LOOP('',(#1374,#1376,#1378,#1380));
#1382=FACE_OUTER_BOUND('',#1381,.F.);
#1383=ADVANCED_FACE('',(#1382),#1373,.F.);
#1384=CARTESIAN_POINT('',(4.114250707435E0,0.E0,0.E0));
#1385=DIRECTION('',(1.E0,0.E0,0.E0));
#1386=DIRECTION('',(0.E0,0.E0,1.E0));
#1387=AXIS2_PLACEMENT_3D('',#1384,#1385,#1386);
#1388=CONICAL_SURFACE('',#1387,1.211521709112E1,3.096375653207E1);
#1390=ORIENTED_EDGE('',*,*,#1389,.F.);
#1391=ORIENTED_EDGE('',*,*,#1379,.F.);
#1393=ORIENTED_EDGE('',*,*,#1392,.F.);
#1394=ORIENTED_EDGE('',*,*,#1375,.T.);
#1395=EDGE_LOOP('',(#1390,#1391,#1393,#1394));
#1396=FACE_OUTER_BOUND('',#1395,.F.);
#1397=ADVANCED_FACE('',(#1396),#1388,.F.);
#1398=CARTESIAN_POINT('',(0.E0,0.E0,0.E0));
#1399=DIRECTION('',(-1.E0,0.E0,0.E0));
#1400=DIRECTION('',(0.E0,0.E0,1.E0));
#1401=AXIS2_PLACEMENT_3D('',#1398,#1399,#1400);
#1402=CYLINDRICAL_SURFACE('',#1401,1.216666666667E1);
#1403=ORIENTED_EDGE('',*,*,#1389,.T.);
#1404=ORIENTED_EDGE('',*,*,#1364,.F.);
#1405=ORIENTED_EDGE('',*,*,#1311,.F.);
#1406=ORIENTED_EDGE('',*,*,#1361,.T.);
#1407=EDGE_LOOP('',(#1403,#1404,#1405,#1406));
#1408=FACE_OUTER_BOUND('',#1407,.F.);
#1409=ADVANCED_FACE('',(#1408),#1402,.F.);
#1410=CARTESIAN_POINT('',(3.907631669530E0,0.E0,0.E0));
#1411=DIRECTION('',(-1.E0,0.E0,0.E0));
#1412=DIRECTION('',(0.E0,0.E0,-1.E0));
#1413=AXIS2_PLACEMENT_3D('',#1410,#1411,#1412);
#1414=CONICAL_SURFACE('',#1413,1.226521709112E1,5.903624346793E1);
#1416=ORIENTED_EDGE('',*,*,#1415,.T.);
#1418=ORIENTED_EDGE('',*,*,#1417,.T.);
#1420=ORIENTED_EDGE('',*,*,#1419,.F.);
#1421=ORIENTED_EDGE('',*,*,#1392,.T.);
#1422=EDGE_LOOP('',(#1416,#1418,#1420,#1421));
#1423=FACE_OUTER_BOUND('',#1422,.F.);
#1424=ADVANCED_FACE('',(#1423),#1414,.F.);
#1425=CARTESIAN_POINT('',(3.907631669530E0,0.E0,0.E0));
#1426=DIRECTION('',(-1.E0,0.E0,0.E0));
#1427=DIRECTION('',(0.E0,0.E0,-1.E0));
#1428=AXIS2_PLACEMENT_3D('',#1425,#1426,#1427);
#1429=CONICAL_SURFACE('',#1428,1.226521709112E1,5.903624346793E1);
#1430=ORIENTED_EDGE('',*,*,#1377,.T.);
#1431=ORIENTED_EDGE('',*,*,#1419,.T.);
#1433=ORIENTED_EDGE('',*,*,#1432,.T.);
#1434=ORIENTED_EDGE('',*,*,#1415,.F.);
#1435=EDGE_LOOP('',(#1430,#1431,#1433,#1434));
#1436=FACE_OUTER_BOUND('',#1435,.F.);
#1437=ADVANCED_FACE('',(#1436),#1429,.F.);
#1438=CARTESIAN_POINT('',(0.E0,0.E0,0.E0));
#1439=DIRECTION('',(1.E0,0.E0,0.E0));
#1440=DIRECTION('',(0.E0,0.E0,1.E0));
#1441=AXIS2_PLACEMENT_3D('',#1438,#1439,#1440);
#1442=CYLINDRICAL_SURFACE('',#1441,1.246666666667E1);
#1444=ORIENTED_EDGE('',*,*,#1443,.F.);
#1446=ORIENTED_EDGE('',*,*,#1445,.T.);
#1447=ORIENTED_EDGE('',*,*,#1432,.F.);
#1449=ORIENTED_EDGE('',*,*,#1448,.F.);
#1450=EDGE_LOOP('',(#1444,#1446,#1447,#1449));
#1451=FACE_OUTER_BOUND('',#1450,.F.);
#1452=ADVANCED_FACE('',(#1451),#1442,.F.);
#1453=CARTESIAN_POINT('',(3.5E0,1.266666666667E1,0.E0));
#1454=DIRECTION('',(-1.E0,0.E0,0.E0));
#1455=DIRECTION('',(0.E0,0.E0,-1.E0));
#1456=AXIS2_PLACEMENT_3D('',#1453,#1454,#1455);
#1457=PLANE('',#1456);
#1458=ORIENTED_EDGE('',*,*,#1443,.T.);
#1460=ORIENTED_EDGE('',*,*,#1459,.T.);
#1461=EDGE_LOOP('',(#1458,#1460));
#1462=FACE_OUTER_BOUND('',#1461,.F.);
#1464=ORIENTED_EDGE('',*,*,#1463,.T.);
#1466=ORIENTED_EDGE('',*,*,#1465,.T.);
#1467=EDGE_LOOP('',(#1464,#1466));
#1468=FACE_BOUND('',#1467,.F.);
#1469=ADVANCED_FACE('',(#1462,#1468),#1457,.F.);
#1470=CARTESIAN_POINT('',(0.E0,0.E0,0.E0));
#1471=DIRECTION('',(1.E0,0.E0,0.E0));
#1472=DIRECTION('',(0.E0,0.E0,1.E0));
#1473=AXIS2_PLACEMENT_3D('',#1470,#1471,#1472);
#1474=CYLINDRICAL_SURFACE('',#1473,1.246666666667E1);
#1475=ORIENTED_EDGE('',*,*,#1448,.T.);
#1476=ORIENTED_EDGE('',*,*,#1417,.F.);
#1477=ORIENTED_EDGE('',*,*,#1445,.F.);
#1478=ORIENTED_EDGE('',*,*,#1459,.F.);
#1479=EDGE_LOOP('',(#1475,#1476,#1477,#1478));
#1480=FACE_OUTER_BOUND('',#1479,.F.);
#1481=ADVANCED_FACE('',(#1480),#1474,.F.);
#1482=CARTESIAN_POINT('',(3.885881606299E0,0.E0,0.E0));
#1483=DIRECTION('',(-1.E0,0.E0,0.E0));
#1484=DIRECTION('',(0.E0,0.E0,-1.E0));
#1485=AXIS2_PLACEMENT_3D('',#1482,#1483,#1484);
#1486=CONICAL_SURFACE('',#1485,1.139675213480E1,4.279740183823E1);
#1488=ORIENTED_EDGE('',*,*,#1487,.F.);
#1490=ORIENTED_EDGE('',*,*,#1489,.T.);
#1491=ORIENTED_EDGE('',*,*,#1463,.F.);
#1493=ORIENTED_EDGE('',*,*,#1492,.F.);
#1494=EDGE_LOOP('',(#1488,#1490,#1491,#1493));
#1495=FACE_OUTER_BOUND('',#1494,.F.);
#1496=ADVANCED_FACE('',(#1495),#1486,.T.);
#1497=CARTESIAN_POINT('',(4.E0,0.E0,0.E0));
#1498=DIRECTION('',(1.E0,0.E0,0.E0));
#1499=DIRECTION('',(0.E0,0.E0,1.E0));
#1500=AXIS2_PLACEMENT_3D('',#1497,#1498,#1499);
#1501=TOROIDAL_SURFACE('',#1500,1.074595008159E1,4.E-1);
#1502=ORIENTED_EDGE('',*,*,#1487,.T.);
#1504=ORIENTED_EDGE('',*,*,#1503,.T.);
#1506=ORIENTED_EDGE('',*,*,#1505,.F.);
#1508=ORIENTED_EDGE('',*,*,#1507,.F.);
#1509=EDGE_LOOP('',(#1502,#1504,#1506,#1508));
#1510=FACE_OUTER_BOUND('',#1509,.F.);
#1511=ADVANCED_FACE('',(#1510),#1501,.T.);
#1512=CARTESIAN_POINT('',(4.E0,0.E0,0.E0));
#1513=DIRECTION('',(1.E0,0.E0,0.E0));
#1514=DIRECTION('',(0.E0,0.E0,1.E0));
#1515=AXIS2_PLACEMENT_3D('',#1512,#1513,#1514);
#1516=TOROIDAL_SURFACE('',#1515,1.074595008159E1,4.E-1);
#1517=ORIENTED_EDGE('',*,*,#1507,.T.);
#1519=ORIENTED_EDGE('',*,*,#1518,.F.);
#1520=ORIENTED_EDGE('',*,*,#1503,.F.);
#1522=ORIENTED_EDGE('',*,*,#1521,.T.);
#1523=EDGE_LOOP('',(#1517,#1519,#1520,#1522));
#1524=FACE_OUTER_BOUND('',#1523,.F.);
#1525=ADVANCED_FACE('',(#1524),#1516,.T.);
#1526=CARTESIAN_POINT('',(4.4E0,1.074595008159E1,0.E0));
#1527=DIRECTION('',(-1.E0,0.E0,0.E0));
#1528=DIRECTION('',(0.E0,0.E0,-1.E0));
#1529=AXIS2_PLACEMENT_3D('',#1526,#1527,#1528);
#1530=PLANE('',#1529);
#1531=ORIENTED_EDGE('',*,*,#1518,.T.);
#1532=ORIENTED_EDGE('',*,*,#1505,.T.);
#1533=EDGE_LOOP('',(#1531,#1532));
#1534=FACE_OUTER_BOUND('',#1533,.F.);
#1536=ORIENTED_EDGE('',*,*,#1535,.T.);
#1538=ORIENTED_EDGE('',*,*,#1537,.T.);
#1539=EDGE_LOOP('',(#1536,#1538));
#1540=FACE_BOUND('',#1539,.F.);
#1541=ADVANCED_FACE('',(#1534,#1540),#1530,.F.);
#1542=CARTESIAN_POINT('',(4.E0,0.E0,0.E0));
#1543=DIRECTION('',(1.E0,0.E0,0.E0));
#1544=DIRECTION('',(0.E0,0.E0,1.E0));
#1545=AXIS2_PLACEMENT_3D('',#1542,#1543,#1544);
#1546=TOROIDAL_SURFACE('',#1545,8.533333333333E0,4.E-1);
#1548=ORIENTED_EDGE('',*,*,#1547,.T.);
#1550=ORIENTED_EDGE('',*,*,#1549,.T.);
#1552=ORIENTED_EDGE('',*,*,#1551,.F.);
#1553=ORIENTED_EDGE('',*,*,#1535,.F.);
#1554=EDGE_LOOP('',(#1548,#1550,#1552,#1553));
#1555=FACE_OUTER_BOUND('',#1554,.F.);
#1556=ADVANCED_FACE('',(#1555),#1546,.T.);
#1557=CARTESIAN_POINT('',(4.E0,0.E0,0.E0));
#1558=DIRECTION('',(1.E0,0.E0,0.E0));
#1559=DIRECTION('',(0.E0,0.E0,1.E0));
#1560=AXIS2_PLACEMENT_3D('',#1557,#1558,#1559);
#1561=TOROIDAL_SURFACE('',#1560,8.533333333333E0,4.E-1);
#1562=ORIENTED_EDGE('',*,*,#1537,.F.);
#1563=ORIENTED_EDGE('',*,*,#1551,.T.);
#1565=ORIENTED_EDGE('',*,*,#1564,.T.);
#1566=ORIENTED_EDGE('',*,*,#1547,.F.);
#1567=EDGE_LOOP('',(#1562,#1563,#1565,#1566));
#1568=FACE_OUTER_BOUND('',#1567,.F.);
#1569=ADVANCED_FACE('',(#1568),#1561,.T.);
#1570=CARTESIAN_POINT('',(0.E0,0.E0,0.E0));
#1571=DIRECTION('',(1.E0,0.E0,0.E0));
#1572=DIRECTION('',(0.E0,0.E0,1.E0));
#1573=AXIS2_PLACEMENT_3D('',#1570,#1571,#1572);
#1574=CYLINDRICAL_SURFACE('',#1573,8.133333333333E0);
#1576=ORIENTED_EDGE('',*,*,#1575,.T.);
#1578=ORIENTED_EDGE('',*,*,#1577,.T.);
#1579=ORIENTED_EDGE('',*,*,#1564,.F.);
#1581=ORIENTED_EDGE('',*,*,#1580,.F.);
#1582=EDGE_LOOP('',(#1576,#1578,#1579,#1581));
#1583=FACE_OUTER_BOUND('',#1582,.F.);
#1584=ADVANCED_FACE('',(#1583),#1574,.F.);
#1585=CARTESIAN_POINT('',(3.3E0,8.333333333333E0,0.E0));
#1586=DIRECTION('',(-1.E0,0.E0,0.E0));
#1587=DIRECTION('',(0.E0,0.E0,1.E0));
#1588=AXIS2_PLACEMENT_3D('',#1585,#1586,#1587);
#1589=PLANE('',#1588);
#1591=ORIENTED_EDGE('',*,*,#1590,.F.);
#1592=ORIENTED_EDGE('',*,*,#1575,.F.);
#1593=EDGE_LOOP('',(#1591,#1592));
#1594=FACE_OUTER_BOUND('',#1593,.F.);
#1596=ORIENTED_EDGE('',*,*,#1595,.T.);
#1598=ORIENTED_EDGE('',*,*,#1597,.T.);
#1599=EDGE_LOOP('',(#1596,#1598));
#1600=FACE_BOUND('',#1599,.F.);
#1601=ADVANCED_FACE('',(#1594,#1600),#1589,.F.);
#1602=CARTESIAN_POINT('',(0.E0,0.E0,0.E0));
#1603=DIRECTION('',(1.E0,0.E0,0.E0));
#1604=DIRECTION('',(0.E0,0.E0,1.E0));
#1605=AXIS2_PLACEMENT_3D('',#1602,#1603,#1604);
#1606=CYLINDRICAL_SURFACE('',#1605,8.133333333333E0);
#1607=ORIENTED_EDGE('',*,*,#1590,.T.);
#1608=ORIENTED_EDGE('',*,*,#1580,.T.);
#1609=ORIENTED_EDGE('',*,*,#1549,.F.);
#1610=ORIENTED_EDGE('',*,*,#1577,.F.);
#1611=EDGE_LOOP('',(#1607,#1608,#1609,#1610));
#1612=FACE_OUTER_BOUND('',#1611,.F.);
#1613=ADVANCED_FACE('',(#1612),#1606,.F.);
#1614=CARTESIAN_POINT('',(0.E0,0.E0,0.E0));
#1615=DIRECTION('',(-1.E0,0.E0,0.E0));
#1616=DIRECTION('',(0.E0,0.E0,1.E0));
#1617=AXIS2_PLACEMENT_3D('',#1614,#1615,#1616);
#1618=CYLINDRICAL_SURFACE('',#1617,7.333333333333E0);
#1620=ORIENTED_EDGE('',*,*,#1619,.F.);
#1622=ORIENTED_EDGE('',*,*,#1621,.T.);
#1623=ORIENTED_EDGE('',*,*,#1595,.F.);
#1625=ORIENTED_EDGE('',*,*,#1624,.F.);
#1626=EDGE_LOOP('',(#1620,#1622,#1623,#1625));
#1627=FACE_OUTER_BOUND('',#1626,.F.);
#1628=ADVANCED_FACE('',(#1627),#1618,.T.);
#1629=CARTESIAN_POINT('',(4.05E0,0.E0,0.E0));
#1630=DIRECTION('',(1.E0,0.E0,0.E0));
#1631=DIRECTION('',(0.E0,0.E0,-1.E0));
#1632=AXIS2_PLACEMENT_3D('',#1629,#1630,#1631);
#1633=CONICAL_SURFACE('',#1632,7.583333333333E0,5.903624346793E1);
#1634=ORIENTED_EDGE('',*,*,#1619,.T.);
#1636=ORIENTED_EDGE('',*,*,#1635,.T.);
#1638=ORIENTED_EDGE('',*,*,#1637,.T.);
#1640=ORIENTED_EDGE('',*,*,#1639,.F.);
#1641=EDGE_LOOP('',(#1634,#1636,#1638,#1640));
#1642=FACE_OUTER_BOUND('',#1641,.F.);
#1643=ADVANCED_FACE('',(#1642),#1633,.T.);
#1644=CARTESIAN_POINT('',(4.05E0,0.E0,0.E0));
#1645=DIRECTION('',(1.E0,0.E0,0.E0));
#1646=DIRECTION('',(0.E0,0.E0,-1.E0));
#1647=AXIS2_PLACEMENT_3D('',#1644,#1645,#1646);
#1648=CONICAL_SURFACE('',#1647,7.583333333333E0,5.903624346793E1);
#1649=ORIENTED_EDGE('',*,*,#1639,.T.);
#1651=ORIENTED_EDGE('',*,*,#1650,.T.);
#1652=ORIENTED_EDGE('',*,*,#1635,.F.);
#1654=ORIENTED_EDGE('',*,*,#1653,.T.);
#1655=EDGE_LOOP('',(#1649,#1651,#1652,#1654));
#1656=FACE_OUTER_BOUND('',#1655,.F.);
#1657=ADVANCED_FACE('',(#1656),#1648,.T.);
#1658=CARTESIAN_POINT('',(0.E0,0.E0,0.E0));
#1659=DIRECTION('',(-1.E0,0.E0,0.E0));
#1660=DIRECTION('',(0.E0,0.E0,1.E0));
#1661=AXIS2_PLACEMENT_3D('',#1658,#1659,#1660);
#1662=CYLINDRICAL_SURFACE('',#1661,7.833333333333E0);
#1664=ORIENTED_EDGE('',*,*,#1663,.T.);
#1665=ORIENTED_EDGE('',*,*,#1650,.F.);
#1667=ORIENTED_EDGE('',*,*,#1666,.F.);
#1669=ORIENTED_EDGE('',*,*,#1668,.F.);
#1670=EDGE_LOOP('',(#1664,#1665,#1667,#1669));
#1671=FACE_OUTER_BOUND('',#1670,.F.);
#1672=ADVANCED_FACE('',(#1671),#1662,.T.);
#1673=CARTESIAN_POINT('',(0.E0,0.E0,0.E0));
#1674=DIRECTION('',(-1.E0,0.E0,0.E0));
#1675=DIRECTION('',(0.E0,0.E0,1.E0));
#1676=AXIS2_PLACEMENT_3D('',#1673,#1674,#1675);
#1677=CYLINDRICAL_SURFACE('',#1676,7.833333333333E0);
#1679=ORIENTED_EDGE('',*,*,#1678,.F.);
#1680=ORIENTED_EDGE('',*,*,#1666,.T.);
#1681=ORIENTED_EDGE('',*,*,#1637,.F.);
#1682=ORIENTED_EDGE('',*,*,#1663,.F.);
#1683=EDGE_LOOP('',(#1679,#1680,#1681,#1682));
#1684=FACE_OUTER_BOUND('',#1683,.F.);
#1685=ADVANCED_FACE('',(#1684),#1677,.T.);
#1686=CARTESIAN_POINT('',(4.5E0,7.833333333333E0,0.E0));
#1687=DIRECTION('',(-1.E0,0.E0,0.E0));
#1688=DIRECTION('',(0.E0,0.E0,1.E0));
#1689=AXIS2_PLACEMENT_3D('',#1686,#1687,#1688);
#1690=PLANE('',#1689);
#1691=ORIENTED_EDGE('',*,*,#1678,.T.);
#1692=ORIENTED_EDGE('',*,*,#1668,.T.);
#1693=EDGE_LOOP('',(#1691,#1692));
#1694=FACE_OUTER_BOUND('',#1693,.F.);
#1696=ORIENTED_EDGE('',*,*,#1695,.T.);
#1698=ORIENTED_EDGE('',*,*,#1697,.T.);
#1699=EDGE_LOOP('',(#1696,#1698));
#1700=FACE_BOUND('',#1699,.F.);
#1701=ADVANCED_FACE('',(#1694,#1700),#1690,.F.);
#1702=CARTESIAN_POINT('',(3.9E0,0.E0,0.E0));
#1703=DIRECTION('',(-1.E0,0.E0,0.E0));
#1704=DIRECTION('',(0.E0,0.E0,1.E0));
#1705=AXIS2_PLACEMENT_3D('',#1702,#1703,#1704);
#1706=TOROIDAL_SURFACE('',#1705,5.6E0,6.E-1);
#1708=ORIENTED_EDGE('',*,*,#1707,.T.);
#1710=ORIENTED_EDGE('',*,*,#1709,.T.);
#1711=ORIENTED_EDGE('',*,*,#1695,.F.);
#1713=ORIENTED_EDGE('',*,*,#1712,.F.);
#1714=EDGE_LOOP('',(#1708,#1710,#1711,#1713));
#1715=FACE_OUTER_BOUND('',#1714,.F.);
#1716=ADVANCED_FACE('',(#1715),#1706,.T.);
#1717=CARTESIAN_POINT('',(0.E0,0.E0,0.E0));
#1718=DIRECTION('',(-1.E0,0.E0,0.E0));
#1719=DIRECTION('',(0.E0,0.E0,1.E0));
#1720=AXIS2_PLACEMENT_3D('',#1717,#1718,#1719);
#1721=CYLINDRICAL_SURFACE('',#1720,5.E0);
#1723=ORIENTED_EDGE('',*,*,#1722,.T.);
#1725=ORIENTED_EDGE('',*,*,#1724,.F.);
#1727=ORIENTED_EDGE('',*,*,#1726,.F.);
#1728=ORIENTED_EDGE('',*,*,#1707,.F.);
#1729=EDGE_LOOP('',(#1723,#1725,#1727,#1728));
#1730=FACE_OUTER_BOUND('',#1729,.F.);
#1731=ADVANCED_FACE('',(#1730),#1721,.F.);
#1732=CARTESIAN_POINT('',(0.E0,0.E0,0.E0));
#1733=DIRECTION('',(-1.E0,0.E0,0.E0));
#1734=DIRECTION('',(0.E0,0.E0,1.E0));
#1735=AXIS2_PLACEMENT_3D('',#1732,#1733,#1734);
#1736=CYLINDRICAL_SURFACE('',#1735,5.E0);
#1738=ORIENTED_EDGE('',*,*,#1737,.F.);
#1739=ORIENTED_EDGE('',*,*,#1726,.T.);
#1741=ORIENTED_EDGE('',*,*,#1740,.F.);
#1742=ORIENTED_EDGE('',*,*,#1722,.F.);
#1743=EDGE_LOOP('',(#1738,#1739,#1741,#1742));
#1744=FACE_OUTER_BOUND('',#1743,.F.);
#1745=ADVANCED_FACE('',(#1744),#1736,.F.);
#1746=CARTESIAN_POINT('',(3.9E0,0.E0,0.E0));
#1747=DIRECTION('',(-1.E0,0.E0,0.E0));
#1748=DIRECTION('',(0.E0,0.E0,1.E0));
#1749=AXIS2_PLACEMENT_3D('',#1746,#1747,#1748);
#1750=TOROIDAL_SURFACE('',#1749,5.6E0,6.E-1);
#1751=ORIENTED_EDGE('',*,*,#1712,.T.);
#1752=ORIENTED_EDGE('',*,*,#1697,.F.);
#1753=ORIENTED_EDGE('',*,*,#1709,.F.);
#1754=ORIENTED_EDGE('',*,*,#1737,.T.);
#1755=EDGE_LOOP('',(#1751,#1752,#1753,#1754));
#1756=FACE_OUTER_BOUND('',#1755,.F.);
#1757=ADVANCED_FACE('',(#1756),#1750,.T.);
#1758=CARTESIAN_POINT('',(-3.9E0,0.E0,0.E0));
#1759=DIRECTION('',(-1.E0,0.E0,0.E0));
#1760=DIRECTION('',(0.E0,0.E0,1.E0));
#1761=AXIS2_PLACEMENT_3D('',#1758,#1759,#1760);
#1762=TOROIDAL_SURFACE('',#1761,5.6E0,6.E-1);
#1764=ORIENTED_EDGE('',*,*,#1763,.T.);
#1765=ORIENTED_EDGE('',*,*,#1740,.T.);
#1767=ORIENTED_EDGE('',*,*,#1766,.F.);
#1769=ORIENTED_EDGE('',*,*,#1768,.F.);
#1770=EDGE_LOOP('',(#1764,#1765,#1767,#1769));
#1771=FACE_OUTER_BOUND('',#1770,.F.);
#1772=ADVANCED_FACE('',(#1771),#1762,.T.);
#1773=CARTESIAN_POINT('',(-3.9E0,0.E0,0.E0));
#1774=DIRECTION('',(-1.E0,0.E0,0.E0));
#1775=DIRECTION('',(0.E0,0.E0,1.E0));
#1776=AXIS2_PLACEMENT_3D('',#1773,#1774,#1775);
#1777=TOROIDAL_SURFACE('',#1776,5.6E0,6.E-1);
#1779=ORIENTED_EDGE('',*,*,#1778,.F.);
#1780=ORIENTED_EDGE('',*,*,#1766,.T.);
#1781=ORIENTED_EDGE('',*,*,#1724,.T.);
#1782=ORIENTED_EDGE('',*,*,#1763,.F.);
#1783=EDGE_LOOP('',(#1779,#1780,#1781,#1782));
#1784=FACE_OUTER_BOUND('',#1783,.F.);
#1785=ADVANCED_FACE('',(#1784),#1777,.T.);
#1786=CARTESIAN_POINT('',(-4.5E0,7.833333333333E0,0.E0));
#1787=DIRECTION('',(1.E0,0.E0,0.E0));
#1788=DIRECTION('',(0.E0,0.E0,-1.E0));
#1789=AXIS2_PLACEMENT_3D('',#1786,#1787,#1788);
#1790=PLANE('',#1789);
#1792=ORIENTED_EDGE('',*,*,#1791,.T.);
#1794=ORIENTED_EDGE('',*,*,#1793,.T.);
#1795=EDGE_LOOP('',(#1792,#1794));
#1796=FACE_OUTER_BOUND('',#1795,.F.);
#1797=ORIENTED_EDGE('',*,*,#1778,.T.);
#1798=ORIENTED_EDGE('',*,*,#1768,.T.);
#1799=EDGE_LOOP('',(#1797,#1798));
#1800=FACE_BOUND('',#1799,.F.);
#1801=ADVANCED_FACE('',(#1796,#1800),#1790,.F.);
#1802=CARTESIAN_POINT('',(0.E0,0.E0,0.E0));
#1803=DIRECTION('',(-1.E0,0.E0,0.E0));
#1804=DIRECTION('',(0.E0,0.E0,1.E0));
#1805=AXIS2_PLACEMENT_3D('',#1802,#1803,#1804);
#1806=CYLINDRICAL_SURFACE('',#1805,7.833333333333E0);
#1808=ORIENTED_EDGE('',*,*,#1807,.F.);
#1810=ORIENTED_EDGE('',*,*,#1809,.T.);
#1811=ORIENTED_EDGE('',*,*,#1791,.F.);
#1813=ORIENTED_EDGE('',*,*,#1812,.F.);
#1814=EDGE_LOOP('',(#1808,#1810,#1811,#1813));
#1815=FACE_OUTER_BOUND('',#1814,.F.);
#1816=ADVANCED_FACE('',(#1815),#1806,.T.);
#1817=CARTESIAN_POINT('',(-4.05E0,0.E0,0.E0));
#1818=DIRECTION('',(-1.E0,0.E0,0.E0));
#1819=DIRECTION('',(0.E0,0.E0,1.E0));
#1820=AXIS2_PLACEMENT_3D('',#1817,#1818,#1819);
#1821=CONICAL_SURFACE('',#1820,7.583333333333E0,5.903624346793E1);
#1823=ORIENTED_EDGE('',*,*,#1822,.T.);
#1825=ORIENTED_EDGE('',*,*,#1824,.T.);
#1826=ORIENTED_EDGE('',*,*,#1807,.T.);
#1828=ORIENTED_EDGE('',*,*,#1827,.F.);
#1829=EDGE_LOOP('',(#1823,#1825,#1826,#1828));
#1830=FACE_OUTER_BOUND('',#1829,.F.);
#1831=ADVANCED_FACE('',(#1830),#1821,.T.);
#1832=CARTESIAN_POINT('',(0.E0,0.E0,0.E0));
#1833=DIRECTION('',(-1.E0,0.E0,0.E0));
#1834=DIRECTION('',(0.E0,0.E0,1.E0));
#1835=AXIS2_PLACEMENT_3D('',#1832,#1833,#1834);
#1836=CYLINDRICAL_SURFACE('',#1835,7.333333333333E0);
#1837=ORIENTED_EDGE('',*,*,#1002,.F.);
#1839=ORIENTED_EDGE('',*,*,#1838,.T.);
#1840=ORIENTED_EDGE('',*,*,#1822,.F.);
#1842=ORIENTED_EDGE('',*,*,#1841,.F.);
#1843=EDGE_LOOP('',(#1837,#1839,#1840,#1842));
#1844=FACE_OUTER_BOUND('',#1843,.F.);
#1845=ADVANCED_FACE('',(#1844),#1836,.T.);
#1846=CARTESIAN_POINT('',(0.E0,0.E0,0.E0));
#1847=DIRECTION('',(-1.E0,0.E0,0.E0));
#1848=DIRECTION('',(0.E0,0.E0,1.E0));
#1849=AXIS2_PLACEMENT_3D('',#1846,#1847,#1848);
#1850=CYLINDRICAL_SURFACE('',#1849,7.333333333333E0);
#1851=ORIENTED_EDGE('',*,*,#1841,.T.);
#1853=ORIENTED_EDGE('',*,*,#1852,.F.);
#1854=ORIENTED_EDGE('',*,*,#1838,.F.);
#1855=ORIENTED_EDGE('',*,*,#1004,.F.);
#1856=EDGE_LOOP('',(#1851,#1853,#1854,#1855));
#1857=FACE_OUTER_BOUND('',#1856,.F.);
#1858=ADVANCED_FACE('',(#1857),#1850,.T.);
#1859=CARTESIAN_POINT('',(-4.05E0,0.E0,0.E0));
#1860=DIRECTION('',(-1.E0,0.E0,0.E0));
#1861=DIRECTION('',(0.E0,0.E0,1.E0));
#1862=AXIS2_PLACEMENT_3D('',#1859,#1860,#1861);
#1863=CONICAL_SURFACE('',#1862,7.583333333333E0,5.903624346793E1);
#1864=ORIENTED_EDGE('',*,*,#1827,.T.);
#1866=ORIENTED_EDGE('',*,*,#1865,.T.);
#1867=ORIENTED_EDGE('',*,*,#1824,.F.);
#1868=ORIENTED_EDGE('',*,*,#1852,.T.);
#1869=EDGE_LOOP('',(#1864,#1866,#1867,#1868));
#1870=FACE_OUTER_BOUND('',#1869,.F.);
#1871=ADVANCED_FACE('',(#1870),#1863,.T.);
#1872=CARTESIAN_POINT('',(0.E0,0.E0,0.E0));
#1873=DIRECTION('',(-1.E0,0.E0,0.E0));
#1874=DIRECTION('',(0.E0,0.E0,1.E0));
#1875=AXIS2_PLACEMENT_3D('',#1872,#1873,#1874);
#1876=CYLINDRICAL_SURFACE('',#1875,7.833333333333E0);
#1877=ORIENTED_EDGE('',*,*,#1812,.T.);
#1878=ORIENTED_EDGE('',*,*,#1793,.F.);
#1879=ORIENTED_EDGE('',*,*,#1809,.F.);
#1880=ORIENTED_EDGE('',*,*,#1865,.F.);
#1881=EDGE_LOOP('',(#1877,#1878,#1879,#1880));
#1882=FACE_OUTER_BOUND('',#1881,.F.);
#1883=ADVANCED_FACE('',(#1882),#1876,.T.);
#1884=CARTESIAN_POINT('',(0.E0,0.E0,0.E0));
#1885=DIRECTION('',(-1.E0,0.E0,0.E0));
#1886=DIRECTION('',(0.E0,0.E0,1.E0));
#1887=AXIS2_PLACEMENT_3D('',#1884,#1885,#1886);
#1888=CYLINDRICAL_SURFACE('',#1887,7.333333333333E0);
#1889=ORIENTED_EDGE('',*,*,#1624,.T.);
#1890=ORIENTED_EDGE('',*,*,#1597,.F.);
#1891=ORIENTED_EDGE('',*,*,#1621,.F.);
#1892=ORIENTED_EDGE('',*,*,#1653,.F.);
#1893=EDGE_LOOP('',(#1889,#1890,#1891,#1892));
#1894=FACE_OUTER_BOUND('',#1893,.F.);
#1895=ADVANCED_FACE('',(#1894),#1888,.T.);
#1896=CARTESIAN_POINT('',(3.885881606299E0,0.E0,0.E0));
#1897=DIRECTION('',(-1.E0,0.E0,0.E0));
#1898=DIRECTION('',(0.E0,0.E0,-1.E0));
#1899=AXIS2_PLACEMENT_3D('',#1896,#1897,#1898);
#1900=CONICAL_SURFACE('',#1899,1.139675213480E1,4.279740183823E1);
#1901=ORIENTED_EDGE('',*,*,#1492,.T.);
#1902=ORIENTED_EDGE('',*,*,#1465,.F.);
#1903=ORIENTED_EDGE('',*,*,#1489,.F.);
#1904=ORIENTED_EDGE('',*,*,#1521,.F.);
#1905=EDGE_LOOP('',(#1901,#1902,#1903,#1904));
#1906=FACE_OUTER_BOUND('',#1905,.F.);
#1907=ADVANCED_FACE('',(#1906),#1900,.T.);
#1908=CARTESIAN_POINT('',(-4.E0,0.E0,0.E0));
#1909=DIRECTION('',(-1.E0,0.E0,0.E0));
#1910=DIRECTION('',(0.E0,0.E0,1.E0));
#1911=AXIS2_PLACEMENT_3D('',#1908,#1909,#1910);
#1912=TOROIDAL_SURFACE('',#1911,1.074595008159E1,4.E-1);
#1913=ORIENTED_EDGE('',*,*,#1076,.T.);
#1914=ORIENTED_EDGE('',*,*,#1057,.F.);
#1915=ORIENTED_EDGE('',*,*,#1073,.F.);
#1916=ORIENTED_EDGE('',*,*,#1105,.T.);
#1917=EDGE_LOOP('',(#1913,#1914,#1915,#1916));
#1918=FACE_OUTER_BOUND('',#1917,.F.);
#1919=ADVANCED_FACE('',(#1918),#1912,.T.);
#1920=CLOSED_SHELL('',(#991,#1008,#1021,#1036,#1049,#1065,#1080,#1095,#1109,
#1125,#1140,#1153,#1168,#1183,#1198,#1212,#1225,#1237,#1253,#1268,#1283,#1298,
#1315,#1328,#1341,#1353,#1368,#1383,#1397,#1409,#1424,#1437,#1452,#1469,#1481,
#1496,#1511,#1525,#1541,#1556,#1569,#1584,#1601,#1613,#1628,#1643,#1657,#1672,
#1685,#1701,#1716,#1731,#1745,#1757,#1772,#1785,#1801,#1816,#1831,#1845,#1858,
#1871,#1883,#1895,#1907,#1919));
#1921=MANIFOLD_SOLID_BREP('',#1920);
#1923=DIMENSIONAL_EXPONENTS(0.E0,0.E0,0.E0,0.E0,0.E0,0.E0,0.E0);
#1925=PLANE_ANGLE_MEASURE_WITH_UNIT(PLANE_ANGLE_MEASURE(1.745329251994E-2),
#1924);
#1926=(CONVERSION_BASED_UNIT('DEGREE',#1925)NAMED_UNIT(*)PLANE_ANGLE_UNIT());
#1928=UNCERTAINTY_MEASURE_WITH_UNIT(LENGTH_MEASURE(5.E-3),#1922,'closure',
'Maximum model space distance between geometric entities at asserted connectivities');
#1929=(GEOMETRIC_REPRESENTATION_CONTEXT(3)GLOBAL_UNCERTAINTY_ASSIGNED_CONTEXT((
#1928))GLOBAL_UNIT_ASSIGNED_CONTEXT((#1922,#1926,#1927))REPRESENTATION_CONTEXT(
'ID1','3'));
#1931=APPLICATION_CONTEXT(
'CONFIGURATION CONTROLLED 3D DESIGNS OF MECHANICAL PARTS AND ASSEMBLIES');
#1932=APPLICATION_PROTOCOL_DEFINITION('international standard',
'config_control_design',1994,#1931);
#1933=DESIGN_CONTEXT('',#1931,'design');
#1934=MECHANICAL_CONTEXT('',#1931,'mechanical');
#1935=PRODUCT('6200ZZ_-_EA034','6200ZZ_-_EA034','NOT SPECIFIED',(#1934));
#1936=PRODUCT_DEFINITION_FORMATION_WITH_SPECIFIED_SOURCE('1','LAST_VERSION',
#1935,.MADE.);
#1940=PRODUCT_CATEGORY('part','');
#1941=PRODUCT_RELATED_PRODUCT_CATEGORY('detail','',(#1935));
#1942=PRODUCT_CATEGORY_RELATIONSHIP('','',#1940,#1941);
#1943=SECURITY_CLASSIFICATION_LEVEL('unclassified');
#1944=SECURITY_CLASSIFICATION('','',#1943);
#1945=CC_DESIGN_SECURITY_CLASSIFICATION(#1944,(#1936));
#1946=APPROVAL_STATUS('approved');
#1947=APPROVAL(#1946,'');
#1948=CC_DESIGN_APPROVAL(#1947,(#1944,#1936,#1937));
#1949=CALENDAR_DATE(125,19,12);
#1950=COORDINATED_UNIVERSAL_TIME_OFFSET(8,0,.AHEAD.);
#1951=LOCAL_TIME(11,19,3.7E1,#1950);
#1952=DATE_AND_TIME(#1949,#1951);
#1953=APPROVAL_DATE_TIME(#1952,#1947);
#1954=DATE_TIME_ROLE('creation_date');
#1955=CC_DESIGN_DATE_AND_TIME_ASSIGNMENT(#1952,#1954,(#1937));
#1956=DATE_TIME_ROLE('classification_date');
#1957=CC_DESIGN_DATE_AND_TIME_ASSIGNMENT(#1952,#1956,(#1944));
#1958=PERSON('UNSPECIFIED','UNSPECIFIED',$,$,$,$);
#1959=ORGANIZATION('UNSPECIFIED','UNSPECIFIED','UNSPECIFIED');
#1960=PERSON_AND_ORGANIZATION(#1958,#1959);
#1961=APPROVAL_ROLE('approver');
#1962=APPROVAL_PERSON_ORGANIZATION(#1960,#1947,#1961);
#1963=PERSON_AND_ORGANIZATION_ROLE('creator');
#1964=CC_DESIGN_PERSON_AND_ORGANIZATION_ASSIGNMENT(#1960,#1963,(#1936,#1937));
#1965=PERSON_AND_ORGANIZATION_ROLE('design_supplier');
#1966=CC_DESIGN_PERSON_AND_ORGANIZATION_ASSIGNMENT(#1960,#1965,(#1936));
#1967=PERSON_AND_ORGANIZATION_ROLE('classification_officer');
#1968=CC_DESIGN_PERSON_AND_ORGANIZATION_ASSIGNMENT(#1960,#1967,(#1944));
#1969=PERSON_AND_ORGANIZATION_ROLE('design_owner');
#1970=CC_DESIGN_PERSON_AND_ORGANIZATION_ASSIGNMENT(#1960,#1969,(#1935));
#1=DRAUGHTING_PRE_DEFINED_COLOUR('black');
#2=COLOUR_RGB('',0.E0,0.E0,4.7E-1);
#3=COLOUR_RGB('',0.E0,0.E0,6.E-1);
#4=COLOUR_RGB('',0.E0,0.E0,8.E-1);
#5=COLOUR_RGB('',0.E0,2.745098039216E-2,7.019607843137E-1);
#6=COLOUR_RGB('',0.E0,3.137254901961E-2,3.411764705882E-1);
#7=COLOUR_RGB('',0.E0,2.E-1,1.E0);
#8=COLOUR_RGB('',0.E0,3.3E-1,0.E0);
#9=COLOUR_RGB('',0.E0,3.3E-1,3.3E-1);
#10=COLOUR_RGB('',0.E0,4.E-1,0.E0);
#11=COLOUR_RGB('',0.E0,4.E-1,4.E-1);
#12=COLOUR_RGB('',0.E0,4.E-1,1.E0);
#13=COLOUR_RGB('',0.E0,5.019607843137E-1,5.019607843137E-1);
#14=COLOUR_RGB('',0.E0,6.E-1,0.E0);
#15=COLOUR_RGB('',0.E0,6.E-1,6.E-1);
#16=COLOUR_RGB('',0.E0,6.E-1,1.E0);
#17=COLOUR_RGB('',0.E0,8.E-1,0.E0);
#18=COLOUR_RGB('',0.E0,8.E-1,8.E-1);
#19=COLOUR_RGB('',0.E0,8.E-1,1.E0);
#20=COLOUR_RGB('',0.E0,9.3E-1,0.E0);
#21=COLOUR_RGB('',0.E0,9.3E-1,9.3E-1);
#22=DRAUGHTING_PRE_DEFINED_COLOUR('green');
#23=COLOUR_RGB('',0.E0,1.E0,2.E-1);
#24=COLOUR_RGB('',0.E0,1.E0,4.E-1);
#25=COLOUR_RGB('',0.E0,1.E0,6.E-1);
#26=COLOUR_RGB('',0.E0,1.E0,8.E-1);
#27=DRAUGHTING_PRE_DEFINED_COLOUR('cyan');
#28=COLOUR_RGB('',3.1E-2,2.E-1,6.27E-1);
#29=COLOUR_RGB('',3.529411764706E-2,5.137254901961E-1,1.725490196078E-1);
#30=COLOUR_RGB('',6.6667E-2,5.17647E-1,6.39216E-1);
#31=COLOUR_RGB('',7.E-2,7.E-2,1.E0);
#32=COLOUR_RGB('',7.E-2,6.E-1,3.E-1);
#33=COLOUR_RGB('',8.E-2,1.E-1,1.1E-1);
#34=COLOUR_RGB('',9.803921568627E-2,9.803921568627E-2,4.392156862745E-1);
#35=COLOUR_RGB('',1.019607843137E-1,6.313725490196E-1,5.019607843137E-1);
#36=COLOUR_RGB('',1.176470588235E-1,5.647058823529E-1,1.E0);
#37=COLOUR_RGB('',1.254901960784E-1,6.980392156863E-1,6.666666666667E-1);
#38=COLOUR_RGB('',1.333333333333E-1,5.450980392157E-1,1.333333333333E-1);
#39=COLOUR_RGB('',1.450980392157E-1,3.529411764706E-2,0.E0);
#40=COLOUR_RGB('',1.686274509804E-1,1.686274509804E-1,1.803921568627E-1);
#41=COLOUR_RGB('',1.803921568627E-1,5.450980392157E-1,3.411764705882E-1);
#42=COLOUR_RGB('',1.9E-1,2.3E-1,3.1E-1);
#43=COLOUR_RGB('',1.960784313725E-1,8.039215686275E-1,1.960784313725E-1);
#44=COLOUR_RGB('',2.E-1,1.E0,0.E0);
#45=COLOUR_RGB('',2.E-1,1.E0,2.E-1);
#46=COLOUR_RGB('',2.E-1,1.E0,1.E0);
#47=COLOUR_RGB('',2.313725490196E-1,3.803921568627E-1,5.607843137255E-1);
#48=COLOUR_RGB('',2.352941176471E-1,7.019607843137E-1,4.431372549020E-1);
#49=COLOUR_RGB('',2.431372549020E-1,8.784313725490E-1,8.156862745098E-1);
#50=COLOUR_RGB('',2.470588235294E-1,5.921568627451E-1,6.313725490196E-1);
#51=COLOUR_RGB('',2.5098E-1,2.35294E-1,8.62745E-1);
#52=COLOUR_RGB('',2.549019607843E-1,4.117647058824E-1,1.E0);
#53=COLOUR_RGB('',2.58824E-1,7.80392E-1,8.86275E-1);
#54=COLOUR_RGB('',2.7E-1,0.E0,4.E-1);
#55=COLOUR_RGB('',2.7E-1,2.7E-1,0.E0);
#56=COLOUR_RGB('',2.7E-1,2.7E-1,1.E0);
#57=COLOUR_RGB('',2.745098039216E-1,5.098039215686E-1,7.058823529412E-1);
#58=COLOUR_RGB('',2.784313725490E-1,2.784313725490E-1,2.784313725490E-1);
#59=COLOUR_RGB('',2.823529411765E-1,2.392156862745E-1,5.450980392157E-1);
#60=COLOUR_RGB('',3.13725E-1,4.70588E-1,1.96078E-1);
#61=COLOUR_RGB('',3.2549E-1,4.98039E-1,9.84314E-1);
#62=COLOUR_RGB('',3.254901960784E-1,5.764705882353E-1,8.117647058824E-1);
#63=COLOUR_RGB('',3.3E-1,0.E0,0.E0);
#64=COLOUR_RGB('',3.3E-1,0.E0,3.3E-1);
#65=COLOUR_RGB('',3.3E-1,0.E0,5.3E-1);
#66=COLOUR_RGB('',3.450980392157E-1,3.647058823529E-1,3.725490196078E-1);
#67=COLOUR_RGB('',3.725490196078E-1,6.196078431373E-1,6.274509803922E-1);
#68=COLOUR_RGB('',3.803921568627E-1,4.392156862745E-1,5.960784313725E-1);
#69=COLOUR_RGB('',3.882352941176E-1,4.392156862745E-1,4.901960784314E-1);
#70=COLOUR_RGB('',3.921568627451E-1,5.843137254902E-1,9.294117647059E-1);
#71=COLOUR_RGB('',3.96078E-1,7.13725E-1,1.E0);
#72=COLOUR_RGB('',4.E-1,0.E0,4.E-1);
#73=COLOUR_RGB('',4.E-1,0.E0,6.7E-1);
#74=COLOUR_RGB('',4.E-1,1.3E-1,0.E0);
#75=COLOUR_RGB('',4.E-1,4.E-1,0.E0);
#76=COLOUR_RGB('',4.E-1,4.E-1,1.E0);
#77=COLOUR_RGB('',4.E-1,8.039215686275E-1,6.666666666667E-1);
#78=COLOUR_RGB('',4.E-1,1.E0,0.E0);
#79=COLOUR_RGB('',4.E-1,1.E0,4.E-1);
#80=COLOUR_RGB('',4.E-1,1.E0,1.E0);
#81=COLOUR_RGB('',4.156862745098E-1,3.529411764706E-1,8.039215686275E-1);
#82=COLOUR_RGB('',4.196078431373E-1,5.568627450980E-1,1.372549019608E-1);
#83=COLOUR_RGB('',4.666666666667E-1,5.333333333333E-1,6.E-1);
#84=COLOUR_RGB('',4.7E-1,0.E0,0.E0);
#85=COLOUR_RGB('',4.7E-1,0.E0,8.E-1);
#86=COLOUR_RGB('',4.7E-1,2.E-1,7.E-2);
#87=COLOUR_RGB('',4.823529411765E-1,4.078431372549E-1,9.333333333333E-1);
#88=COLOUR_RGB('',4.980392156863E-1,1.E0,8.313725490196E-1);
#89=COLOUR_RGB('',5.019607843137E-1,0.E0,5.019607843137E-1);
#90=COLOUR_RGB('',5.019607843137E-1,5.019607843137E-1,0.E0);
#91=COLOUR_RGB('',5.01961E-1,5.01961E-1,5.01961E-1);
#92=COLOUR_RGB('',5.098039215686E-1,3.960784313725E-1,1.058823529412E-1);
#93=COLOUR_RGB('',5.3E-1,0.E0,9.3E-1);
#94=COLOUR_RGB('',5.3E-1,2.7E-1,1.3E-1);
#95=COLOUR_RGB('',5.3E-1,5.3E-1,1.E0);
#96=COLOUR_RGB('',5.294117647059E-1,8.078431372549E-1,9.215686274510E-1);
#97=COLOUR_RGB('',5.411764705882E-1,1.686274509804E-1,8.862745098039E-1);
#98=COLOUR_RGB('',5.5E-1,6.5E-1,7.3E-1);
#99=COLOUR_RGB('',5.607843137255E-1,7.372549019608E-1,5.607843137255E-1);
#100=COLOUR_RGB('',5.68627E-1,9.37255E-1,9.37255E-1);
#101=COLOUR_RGB('',5.725490196078E-1,6.117647058824E-1,6.313725490196E-1);
#102=COLOUR_RGB('',5.764705882353E-1,4.392156862745E-1,8.588235294118E-1);
#103=COLOUR_RGB('',5.803921568627E-1,0.E0,8.274509803922E-1);
#104=COLOUR_RGB('',5.88235E-1,2.35294E-1,1.56863E-1);
#105=COLOUR_RGB('',6.E-1,0.E0,6.E-1);
#106=COLOUR_RGB('',6.E-1,1.960784313725E-1,8.E-1);
#107=COLOUR_RGB('',6.E-1,2.E-1,1.E0);
#108=COLOUR_RGB('',6.E-1,3.3E-1,2.E-1);
#109=COLOUR_RGB('',6.E-1,6.E-1,0.E0);
#110=COLOUR_RGB('',6.E-1,1.E0,6.E-1);
#111=COLOUR_RGB('',6.E-1,1.E0,1.E0);
#112=COLOUR_RGB('',6.27451E-1,4.70588E-1,3.52941E-1);
#113=COLOUR_RGB('',6.627450980392E-1,6.627450980392E-1,6.627450980392E-1);
#114=COLOUR_RGB('',6.66667E-1,8.23529E-1,1.96078E-1);
#115=COLOUR_RGB('',6.66667E-1,8.23529E-1,5.88235E-1);
#116=COLOUR_RGB('',6.7E-1,0.E0,0.E0);
#117=COLOUR_RGB('',6.7E-1,4.E-1,2.7E-1);
#118=COLOUR_RGB('',6.7E-1,4.E-1,1.E0);
#119=COLOUR_RGB('',6.7E-1,6.7E-1,1.E0);
#120=COLOUR_RGB('',6.7E-1,1.E0,0.E0);
#121=COLOUR_RGB('',6.784313725490E-1,8.117647058824E-1,1.E0);
#122=COLOUR_RGB('',6.784313725490E-1,8.470588235294E-1,9.019607843137E-1);
#123=COLOUR_RGB('',6.784313725490E-1,1.E0,1.843137254902E-1);
#124=COLOUR_RGB('',6.862745098039E-1,6.823529411765E-1,7.607843137255E-1);
#125=COLOUR_RGB('',6.980392156863E-1,1.333333333333E-1,1.333333333333E-1);
#126=COLOUR_RGB('',7.17647E-1,1.68627E-1,4.43137E-1);
#127=COLOUR_RGB('',7.215686274510E-1,5.254901960784E-1,4.313725490196E-2);
#128=COLOUR_RGB('',7.294117647059E-1,2.705882352941E-1,1.E0);
#129=COLOUR_RGB('',7.294117647059E-1,3.333333333333E-1,8.274509803922E-1);
#130=COLOUR_RGB('',7.294117647059E-1,4.E-1,0.E0);
#131=COLOUR_RGB('',7.3E-1,4.7E-1,3.3E-1);
#132=COLOUR_RGB('',7.372549019608E-1,5.607843137255E-1,5.607843137255E-1);
#133=COLOUR_RGB('',7.411764705882E-1,7.176470588235E-1,4.196078431373E-1);
#134=COLOUR_RGB('',7.803921568627E-1,8.235294117647E-2,5.215686274510E-1);
#135=COLOUR_RGB('',8.E-1,0.E0,8.E-1);
#136=COLOUR_RGB('',8.E-1,5.3E-1,4.E-1);
#137=COLOUR_RGB('',8.E-1,6.E-1,1.E0);
#138=COLOUR_RGB('',8.E-1,8.E-1,0.E0);
#139=COLOUR_RGB('',8.E-1,8.E-1,1.E0);
#140=COLOUR_RGB('',8.E-1,1.E0,8.E-1);
#141=COLOUR_RGB('',8.E-1,1.E0,1.E0);
#142=COLOUR_RGB('',8.039215686275E-1,3.607843137255E-1,3.607843137255E-1);
#143=COLOUR_RGB('',8.03922E-1,5.88235E-1,1.96078E-1);
#144=COLOUR_RGB('',8.196078431373E-1,7.098039215686E-1,5.490196078431E-2);
#145=COLOUR_RGB('',8.235294117647E-1,4.117647058824E-1,1.176470588235E-1);
#146=COLOUR_RGB('',8.235294117647E-1,7.058823529412E-1,5.490196078431E-1);
#147=COLOUR_RGB('',8.274509803922E-1,8.274509803922E-1,8.274509803922E-1);
#148=COLOUR_RGB('',8.392156862745E-1,8.E-1,7.137254901961E-1);
#149=COLOUR_RGB('',8.431372549020E-1,8.980392156863E-1,9.333333333333E-1);
#150=COLOUR_RGB('',8.549019607843E-1,6.470588235294E-1,1.254901960784E-1);
#151=COLOUR_RGB('',8.588235294118E-1,4.392156862745E-1,5.764705882353E-1);
#152=COLOUR_RGB('',8.627450980392E-1,7.843137254902E-2,2.352941176471E-1);
#153=COLOUR_RGB('',8.666666666667E-1,6.274509803922E-1,8.666666666667E-1);
#154=COLOUR_RGB('',8.7E-1,0.E0,0.E0);
#155=COLOUR_RGB('',8.7E-1,6.E-1,4.7E-1);
#156=COLOUR_RGB('',8.98039E-1,6.07843E-1,1.E0);
#157=COLOUR_RGB('',9.E-1,8.3E-1,1.2E-1);
#158=COLOUR_RGB('',9.09804E-1,3.68627E-1,8.19608E-1);
#159=COLOUR_RGB('',9.3E-1,0.E0,9.3E-1);
#160=COLOUR_RGB('',9.3E-1,6.7E-1,5.3E-1);
#161=COLOUR_RGB('',9.3E-1,8.E-1,1.E0);
#162=COLOUR_RGB('',9.3E-1,9.3E-1,0.E0);
#163=COLOUR_RGB('',9.3E-1,1.E0,9.3E-1);
#164=COLOUR_RGB('',9.3E-1,1.E0,1.E0);
#165=COLOUR_RGB('',9.333333333333E-1,5.098039215686E-1,9.333333333333E-1);
#166=COLOUR_RGB('',9.333333333333E-1,9.098039215686E-1,6.666666666667E-1);
#167=COLOUR_RGB('',9.411764705882E-1,9.019607843137E-1,5.490196078431E-1);
#168=COLOUR_RGB('',9.568627450980E-1,6.431372549020E-1,3.764705882353E-1);
#169=DRAUGHTING_PRE_DEFINED_COLOUR('red');
#170=COLOUR_RGB('',1.E0,0.E0,2.705882352941E-1);
#171=COLOUR_RGB('',1.E0,0.E0,4.705882352941E-1);
#172=COLOUR_RGB('',1.E0,0.E0,7.803921568627E-1);
#173=DRAUGHTING_PRE_DEFINED_COLOUR('magenta');
#174=COLOUR_RGB('',1.E0,3.1E-2,3.1E-2);
#175=COLOUR_RGB('',1.E0,7.E-2,7.E-2);
#176=COLOUR_RGB('',1.E0,7.843137254902E-2,5.764705882353E-1);
#177=COLOUR_RGB('',1.E0,2.E-1,1.E0);
#178=COLOUR_RGB('',1.E0,2.7E-1,0.E0);
#179=COLOUR_RGB('',1.E0,2.7E-1,2.7E-1);
#180=COLOUR_RGB('',1.E0,3.882352941176E-1,2.784313725490E-1);
#181=COLOUR_RGB('',1.E0,4.E-1,1.E0);
#182=COLOUR_RGB('',1.E0,4.117647058824E-1,7.058823529412E-1);
#183=COLOUR_RGB('',1.E0,4.7E-1,0.E0);
#184=COLOUR_RGB('',1.E0,4.7E-1,4.7E-1);
#185=COLOUR_RGB('',1.E0,4.980392156863E-1,3.137254901961E-1);
#186=COLOUR_RGB('',1.E0,6.E-1,1.E0);
#187=COLOUR_RGB('',1.E0,6.7E-1,0.E0);
#188=COLOUR_RGB('',1.E0,6.7E-1,6.7E-1);
#189=COLOUR_RGB('',1.E0,7.3E-1,6.E-1);
#190=COLOUR_RGB('',1.E0,7.686274509804E-1,5.882352941176E-2);
#191=COLOUR_RGB('',1.E0,8.E-1,8.E-1);
#192=COLOUR_RGB('',1.E0,8.E-1,1.E0);
#193=COLOUR_RGB('',1.E0,8.7E-1,0.E0);
#194=COLOUR_RGB('',1.E0,9.215686274510E-1,8.039215686275E-1);
#195=COLOUR_RGB('',1.E0,9.3E-1,9.3E-1);
#196=COLOUR_RGB('',1.E0,9.3E-1,1.E0);
#197=DRAUGHTING_PRE_DEFINED_COLOUR('yellow');
#198=COLOUR_RGB('',1.E0,1.E0,1.3E-1);
#199=COLOUR_RGB('',1.E0,1.E0,3.3E-1);
#200=COLOUR_RGB('',1.E0,1.E0,5.3E-1);
#201=COLOUR_RGB('',1.E0,1.E0,7.3E-1);
#202=COLOUR_RGB('',1.E0,1.E0,9.3E-1);
#203=DRAUGHTING_PRE_DEFINED_COLOUR('white');
#208=CIRCLE('',#207,8.133333333333E0);
#217=CIRCLE('',#216,7.333333333333E0);
#222=CIRCLE('',#221,7.333333333333E0);
#227=CIRCLE('',#226,8.133333333333E0);
#236=CIRCLE('',#235,4.E-1);
#241=CIRCLE('',#240,8.133333333333E0);
#246=CIRCLE('',#245,4.E-1);
#251=CIRCLE('',#250,8.133333333333E0);
#256=CIRCLE('',#255,1.074595008159E1);
#261=CIRCLE('',#260,1.074595008159E1);
#266=CIRCLE('',#265,8.533333333333E0);
#271=CIRCLE('',#270,8.533333333333E0);
#276=CIRCLE('',#275,1.103945435120E1);
#281=CIRCLE('',#280,4.E-1);
#294=CIRCLE('',#293,1.246666666667E1);
#299=CIRCLE('',#298,1.246666666667E1);
#304=CIRCLE('',#303,1.175404991841E1);
#309=CIRCLE('',#308,1.175404991841E1);
#326=CIRCLE('',#325,1.246666666667E1);
#331=CIRCLE('',#330,1.216666666667E1);
#336=CIRCLE('',#335,1.206376751558E1);
#353=CIRCLE('',#352,1.216666666667E1);
#358=CIRCLE('',#357,1.206376751558E1);
#371=CIRCLE('',#370,1.246666666667E1);
#376=CIRCLE('',#375,1.44E1);
#381=CIRCLE('',#380,1.44E1);
#386=CIRCLE('',#385,1.216666666667E1);
#391=CIRCLE('',#390,1.216666666667E1);
#396=CIRCLE('',#395,1.5E1);
#401=CIRCLE('',#400,6.E-1);
#410=CIRCLE('',#409,6.E-1);
#415=CIRCLE('',#414,1.5E1);
#420=CIRCLE('',#419,1.44E1);
#425=CIRCLE('',#424,1.44E1);
#430=CIRCLE('',#429,1.216666666667E1);
#435=CIRCLE('',#434,1.216666666667E1);
#440=CIRCLE('',#439,6.E-1);
#445=CIRCLE('',#444,1.5E1);
#454=CIRCLE('',#453,6.E-1);
#459=CIRCLE('',#458,1.5E1);
#468=CIRCLE('',#467,1.216666666667E1);
#477=CIRCLE('',#476,1.216666666667E1);
#494=CIRCLE('',#493,1.246666666667E1);
#499=CIRCLE('',#498,1.206376751558E1);
#504=CIRCLE('',#503,1.206376751558E1);
#513=CIRCLE('',#512,1.246666666667E1);
#522=CIRCLE('',#521,1.246666666667E1);
#527=CIRCLE('',#526,1.246666666667E1);
#532=CIRCLE('',#531,1.175404991841E1);
#537=CIRCLE('',#536,1.175404991841E1);
#550=CIRCLE('',#549,1.103945435120E1);
#555=CIRCLE('',#554,4.E-1);
#560=CIRCLE('',#559,4.E-1);
#565=CIRCLE('',#564,1.103945435120E1);
#570=CIRCLE('',#569,1.074595008159E1);
#575=CIRCLE('',#574,1.074595008159E1);
#580=CIRCLE('',#579,8.533333333333E0);
#585=CIRCLE('',#584,8.533333333333E0);
#590=CIRCLE('',#589,4.E-1);
#595=CIRCLE('',#594,8.133333333333E0);
#600=CIRCLE('',#599,4.E-1);
#605=CIRCLE('',#604,8.133333333333E0);
#610=CIRCLE('',#609,8.133333333333E0);
#619=CIRCLE('',#618,7.333333333333E0);
#624=CIRCLE('',#623,7.333333333333E0);
#629=CIRCLE('',#628,8.133333333333E0);
#642=CIRCLE('',#641,7.333333333333E0);
#651=CIRCLE('',#650,7.833333333333E0);
#660=CIRCLE('',#659,7.833333333333E0);
#665=CIRCLE('',#664,7.333333333333E0);
#678=CIRCLE('',#677,7.833333333333E0);
#683=CIRCLE('',#682,7.833333333333E0);
#688=CIRCLE('',#687,5.6E0);
#693=CIRCLE('',#692,5.6E0);
#698=CIRCLE('',#697,5.E0);
#703=CIRCLE('',#702,6.E-1);
#716=CIRCLE('',#715,6.E-1);
#721=CIRCLE('',#720,5.E0);
#726=CIRCLE('',#725,6.E-1);
#731=CIRCLE('',#730,5.E0);
#736=CIRCLE('',#735,6.E-1);
#741=CIRCLE('',#740,5.E0);
#746=CIRCLE('',#745,7.833333333333E0);
#751=CIRCLE('',#750,7.833333333333E0);
#756=CIRCLE('',#755,5.6E0);
#761=CIRCLE('',#760,5.6E0);
#770=CIRCLE('',#769,7.333333333333E0);
#779=CIRCLE('',#778,7.833333333333E0);
#796=CIRCLE('',#795,7.833333333333E0);
#801=CIRCLE('',#800,7.333333333333E0);
#818=CIRCLE('',#817,4.E-1);
#823=CIRCLE('',#822,1.103945435120E1);
#981=EDGE_CURVE('',#970,#971,#208,.T.);
#983=EDGE_CURVE('',#971,#827,#212,.T.);
#985=EDGE_CURVE('',#826,#827,#251,.T.);
#987=EDGE_CURVE('',#970,#826,#231,.T.);
#998=EDGE_CURVE('',#971,#970,#227,.T.);
#1002=EDGE_CURVE('',#966,#967,#217,.T.);
#1004=EDGE_CURVE('',#967,#966,#222,.T.);
#1016=EDGE_CURVE('',#827,#826,#241,.T.);
#1027=EDGE_CURVE('',#855,#827,#236,.T.);
#1030=EDGE_CURVE('',#854,#826,#246,.T.);
#1032=EDGE_CURVE('',#855,#854,#271,.T.);
#1042=EDGE_CURVE('',#854,#855,#266,.T.);
#1055=EDGE_CURVE('',#851,#849,#256,.T.);
#1057=EDGE_CURVE('',#849,#851,#261,.T.);
#1071=EDGE_CURVE('',#847,#845,#276,.T.);
#1073=EDGE_CURVE('',#845,#849,#281,.T.);
#1076=EDGE_CURVE('',#847,#851,#818,.T.);
#1087=EDGE_CURVE('',#847,#842,#285,.T.);
#1089=EDGE_CURVE('',#843,#842,#309,.T.);
#1091=EDGE_CURVE('',#845,#843,#289,.T.);
#1102=EDGE_CURVE('',#842,#843,#304,.T.);
#1105=EDGE_CURVE('',#845,#847,#823,.T.);
#1115=EDGE_CURVE('',#837,#839,#294,.T.);
#1117=EDGE_CURVE('',#839,#837,#299,.T.);
#1131=EDGE_CURVE('',#837,#833,#313,.T.);
#1133=EDGE_CURVE('',#835,#833,#371,.T.);
#1135=EDGE_CURVE('',#839,#835,#317,.T.);
#1148=EDGE_CURVE('',#833,#835,#326,.T.);
#1159=EDGE_CURVE('',#831,#830,#336,.T.);
#1161=EDGE_CURVE('',#831,#833,#321,.T.);
#1164=EDGE_CURVE('',#830,#835,#366,.T.);
#1174=EDGE_CURVE('',#914,#915,#331,.T.);
#1176=EDGE_CURVE('',#831,#914,#362,.T.);
#1179=EDGE_CURVE('',#830,#915,#340,.T.);
#1190=EDGE_CURVE('',#915,#910,#344,.T.);
#1192=EDGE_CURVE('',#911,#910,#391,.T.);
#1194=EDGE_CURVE('',#914,#911,#348,.T.);
#1204=EDGE_CURVE('',#915,#914,#353,.T.);
#1207=EDGE_CURVE('',#910,#911,#386,.T.);
#1220=EDGE_CURVE('',#830,#831,#358,.T.);
#1243=EDGE_CURVE('',#907,#905,#376,.T.);
#1245=EDGE_CURVE('',#905,#907,#381,.T.);
#1259=EDGE_CURVE('',#901,#903,#396,.T.);
#1261=EDGE_CURVE('',#903,#905,#401,.T.);
#1264=EDGE_CURVE('',#901,#907,#454,.T.);
#1274=EDGE_CURVE('',#893,#895,#415,.T.);
#1276=EDGE_CURVE('',#893,#903,#405,.T.);
#1279=EDGE_CURVE('',#895,#901,#449,.T.);
#1289=EDGE_CURVE('',#890,#891,#420,.T.);
#1291=EDGE_CURVE('',#890,#893,#410,.T.);
#1294=EDGE_CURVE('',#891,#895,#440,.T.);
#1305=EDGE_CURVE('',#891,#890,#425,.T.);
#1309=EDGE_CURVE('',#898,#899,#430,.T.);
#1311=EDGE_CURVE('',#899,#898,#435,.T.);
#1322=EDGE_CURVE('',#895,#893,#445,.T.);
#1335=EDGE_CURVE('',#903,#901,#459,.T.);
#1359=EDGE_CURVE('',#918,#919,#468,.T.);
#1361=EDGE_CURVE('',#899,#918,#485,.T.);
#1364=EDGE_CURVE('',#898,#919,#463,.T.);
#1375=EDGE_CURVE('',#887,#919,#481,.T.);
#1377=EDGE_CURVE('',#885,#887,#504,.T.);
#1379=EDGE_CURVE('',#885,#918,#472,.T.);
#1389=EDGE_CURVE('',#918,#919,#477,.T.);
#1392=EDGE_CURVE('',#887,#885,#499,.T.);
#1415=EDGE_CURVE('',#885,#881,#489,.T.);
#1417=EDGE_CURVE('',#881,#883,#494,.T.);
#1419=EDGE_CURVE('',#887,#883,#508,.T.);
#1432=EDGE_CURVE('',#883,#881,#513,.T.);
#1443=EDGE_CURVE('',#878,#879,#522,.T.);
#1445=EDGE_CURVE('',#878,#881,#517,.T.);
#1448=EDGE_CURVE('',#879,#883,#541,.T.);
#1459=EDGE_CURVE('',#879,#878,#527,.T.);
#1463=EDGE_CURVE('',#875,#873,#532,.T.);
#1465=EDGE_CURVE('',#873,#875,#537,.T.);
#1487=EDGE_CURVE('',#869,#871,#550,.T.);
#1489=EDGE_CURVE('',#869,#873,#545,.T.);
#1492=EDGE_CURVE('',#871,#875,#813,.T.);
#1503=EDGE_CURVE('',#871,#866,#555,.T.);
#1505=EDGE_CURVE('',#867,#866,#575,.T.);
#1507=EDGE_CURVE('',#869,#867,#560,.T.);
#1518=EDGE_CURVE('',#866,#867,#570,.T.);
#1521=EDGE_CURVE('',#871,#869,#565,.T.);
#1535=EDGE_CURVE('',#858,#863,#580,.T.);
#1537=EDGE_CURVE('',#863,#858,#585,.T.);
#1547=EDGE_CURVE('',#858,#859,#590,.T.);
#1549=EDGE_CURVE('',#859,#861,#595,.T.);
#1551=EDGE_CURVE('',#863,#861,#600,.T.);
#1564=EDGE_CURVE('',#861,#859,#605,.T.);
#1575=EDGE_CURVE('',#975,#974,#610,.T.);
#1577=EDGE_CURVE('',#974,#859,#614,.T.);
#1580=EDGE_CURVE('',#975,#861,#633,.T.);
#1590=EDGE_CURVE('',#974,#975,#629,.T.);
#1595=EDGE_CURVE('',#922,#923,#619,.T.);
#1597=EDGE_CURVE('',#923,#922,#624,.T.);
#1619=EDGE_CURVE('',#926,#927,#642,.T.);
#1621=EDGE_CURVE('',#926,#923,#637,.T.);
#1624=EDGE_CURVE('',#927,#922,#809,.T.);
#1635=EDGE_CURVE('',#927,#929,#646,.T.);
#1637=EDGE_CURVE('',#929,#931,#651,.T.);
#1639=EDGE_CURVE('',#926,#931,#655,.T.);
#1650=EDGE_CURVE('',#931,#929,#660,.T.);
#1653=EDGE_CURVE('',#927,#926,#665,.T.);
#1663=EDGE_CURVE('',#933,#929,#669,.T.);
#1666=EDGE_CURVE('',#935,#931,#673,.T.);
#1668=EDGE_CURVE('',#933,#935,#683,.T.);
#1678=EDGE_CURVE('',#935,#933,#678,.T.);
#1695=EDGE_CURVE('',#938,#939,#688,.T.);
#1697=EDGE_CURVE('',#939,#938,#693,.T.);
#1707=EDGE_CURVE('',#942,#943,#698,.T.);
#1709=EDGE_CURVE('',#943,#939,#703,.T.);
#1712=EDGE_CURVE('',#942,#938,#716,.T.);
#1722=EDGE_CURVE('',#942,#945,#707,.T.);
#1724=EDGE_CURVE('',#947,#945,#741,.T.);
#1726=EDGE_CURVE('',#943,#947,#711,.T.);
#1737=EDGE_CURVE('',#943,#942,#721,.T.);
#1740=EDGE_CURVE('',#945,#947,#731,.T.);
#1763=EDGE_CURVE('',#949,#945,#726,.T.);
#1766=EDGE_CURVE('',#951,#947,#736,.T.);
#1768=EDGE_CURVE('',#949,#951,#761,.T.);
#1778=EDGE_CURVE('',#951,#949,#756,.T.);
#1791=EDGE_CURVE('',#954,#955,#746,.T.);
#1793=EDGE_CURVE('',#955,#954,#751,.T.);
#1807=EDGE_CURVE('',#958,#959,#779,.T.);
#1809=EDGE_CURVE('',#958,#955,#765,.T.);
#1812=EDGE_CURVE('',#959,#954,#805,.T.);
#1822=EDGE_CURVE('',#962,#963,#770,.T.);
#1824=EDGE_CURVE('',#963,#958,#774,.T.);
#1827=EDGE_CURVE('',#962,#959,#791,.T.);
#1838=EDGE_CURVE('',#966,#963,#783,.T.);
#1841=EDGE_CURVE('',#967,#962,#787,.T.);
#1852=EDGE_CURVE('',#963,#962,#801,.T.);
#1865=EDGE_CURVE('',#959,#958,#796,.T.);
#1922=(LENGTH_UNIT()NAMED_UNIT(*)SI_UNIT(.MILLI.,.METRE.));
#1924=(NAMED_UNIT(*)PLANE_ANGLE_UNIT()SI_UNIT($,.RADIAN.));
#1927=(NAMED_UNIT(*)SI_UNIT($,.STERADIAN.)SOLID_ANGLE_UNIT());
#1930=ADVANCED_BREP_SHAPE_REPRESENTATION('',(#1921),#1929);
#1937=PRODUCT_DEFINITION('design','',#1936,#1933);
#1938=PRODUCT_DEFINITION_SHAPE('','SHAPE FOR 6200ZZ_-_EA034.',#1937);
#1939=SHAPE_DEFINITION_REPRESENTATION(#1938,#1930);
ENDSEC;
END-ISO-10303-21;
